<?xml version="1.0" standalone="no"?>
<!DOCTYPE svg PUBLIC "-//W3C//DTD SVG 1.1//EN" "http://www.w3.org/Graphics/SVG/1.1/DTD/svg11.dtd" >
<svg>
<metadata>
Created by FontForge 20110222 at Tue Mar  4 23:06:24 2014
 By deploy user
Copyright (c) 2014 by Adria` Go'mez. All rights reserved.
</metadata>
<defs>
<font id="MargotRegular" horiz-adv-x="560" >
  <font-face 
    font-family="Margot"
    font-weight="400"
    font-stretch="normal"
    units-per-em="1000"
    panose-1="2 11 3 3 3 5 4 2 2 4"
    ascent="782"
    descent="-218"
    x-height="525"
    cap-height="746"
    bbox="-247.25 -294.071 1254 1064"
    underline-thickness="50"
    underline-position="-50"
    unicode-range="U+0020-FB04"
  />
<missing-glyph horiz-adv-x="583" 
 />
    <glyph glyph-name="onehalf" unicode="&#x31;&#x2f;&#x32;" horiz-adv-x="894" 
d="M561 0q-16 0 -25.5 1.5t-14 6t-6 13.5t-1.5 23v25q0 34 3.5 58.5t11 43t20.5 32.5t33 26q16 10 37.5 22t52.5 26q22 10 34.5 18t12.5 19v23q0 27 -13.5 34t-44.5 7h-16q-20 -2 -31 -3.5t-28 -7.5q-24 -8 -31 -5t-15 17l-6 11q-14 23 -7.5 35.5t41.5 23.5q26 8 46 10.5
t53 2.5q75 0 105.5 -28t30.5 -98v-24q0 -23 -5.5 -39.5t-18 -30.5t-34 -26.5t-52.5 -26.5q-20 -9 -39 -18.5t-31 -16.5q-12 -8 -16.5 -26.5t-5.5 -46.5h174q27 0 31.5 -7.5t4.5 -30.5q0 -12 -0.5 -20t-3.5 -13t-10.5 -7.5t-21.5 -2.5h-214zM147 742q7 4 13.5 4.5t16.5 0.5
q14 0 22.5 -0.5t13 -3.5t6 -10.5t1.5 -21.5v-350h41q27 0 31.5 -7.5t4.5 -29.5q0 -12 -0.5 -20t-3.5 -12.5t-10.5 -6t-21.5 -1.5h-166q-14 0 -21.5 1.5t-10.5 6t-3.5 12.5t-0.5 20q0 22 4.5 29.5t31.5 7.5h39v276l-23 -12q-22 -12 -29.5 -8t-20.5 27v-1q-8 13 -12 21
t-3.5 13t6.5 10t18 12zM229 -3q-7 -13 -19 -6l-2 1q-14 7 -6 20l400 731q8 11 21 6l1 -2q12 -5 5 -19z" />
    <glyph glyph-name="onequarter" unicode="&#x31;&#x2f;&#x34;" horiz-adv-x="848" 
d="M729 211q14 0 21.5 -0.5t10.5 -3.5t3.5 -11t0.5 -23q0 -13 -0.5 -21t-4 -13t-11 -7t-20.5 -2h-24v-95q0 -14 -1 -21.5t-5.5 -10.5t-13 -3.5t-23.5 -0.5q-13 0 -21 0.5t-13 4t-7 10.5t-2 21v95h-164q-14 0 -24.5 9.5t-10.5 24.5q0 7 1.5 11t5.5 10l159 275q4 7 8.5 10
t18.5 3h66q11 0 18.5 -7.5t7.5 -18.5v-236h24zM149 742q7 4 13.5 4.5t16.5 0.5q14 0 22.5 -0.5t13 -3.5t6 -10.5t1.5 -21.5v-350h41q27 0 31.5 -7.5t4.5 -29.5q0 -12 -0.5 -20t-3.5 -12.5t-10.5 -6t-21.5 -1.5h-166q-14 0 -21.5 1.5t-10.5 6t-3.5 12.5t-0.5 20
q0 22 4.5 29.5t31.5 7.5h39v276l-23 -12q-22 -12 -29.5 -8t-20.5 27v-1q-8 13 -12 21t-3.5 13t6.5 10t18 12zM231 -3q-7 -13 -19 -6l-2 1q-14 7 -6 20l400 731q8 11 21 6l1 -2q12 -5 5 -19zM619 211v133q-20 -34 -38.5 -64.5t-40.5 -68.5h79z" />
    <glyph glyph-name="threequarters" unicode="&#x33;&#x2f;&#x34;" horiz-adv-x="906" 
d="M527 70q2 11 10 17.5t18 4.5q21 -5 45.5 -7t44.5 -2q45 0 62.5 12.5t17.5 39.5v26q0 25 -23 34.5t-52 9.5h-67q-11 0 -18 7t-7 19v30q0 11 7 18t18 7h75q26 0 41 13.5t15 31.5v18q0 21 -16.5 30.5t-42.5 9.5q-20 0 -45 -2.5t-46 -6.5h1q-21 -6 -25 2.5t-6 16.5l-5 31
q-2 8 1.5 16t15.5 12q23 6 51.5 10.5t55.5 4.5q79 0 113.5 -31t34.5 -90v-23q0 -23 -6.5 -43t-22.5 -34q16 -15 27 -38t11 -48v-34q0 -69 -39 -100.5t-127 -31.5q-25 0 -51 2t-52 9q-11 2 -16.5 9t-3.5 22zM136 742q7 4 13.5 4.5t16.5 0.5q14 0 22.5 -0.5t13 -3.5t6 -10.5
t1.5 -21.5v-350h41q27 0 31.5 -7.5t4.5 -29.5q0 -12 -0.5 -20t-3.5 -12.5t-10.5 -6t-21.5 -1.5h-166q-14 0 -21.5 1.5t-10.5 6t-3.5 12.5t-0.5 20q0 22 4.5 29.5t31.5 7.5h39v276l-23 -12q-22 -12 -29.5 -8t-20.5 27v-1q-8 13 -12 21t-3.5 13t6.5 10t18 12zM218 -3
q-7 -13 -19 -6l-2 1q-14 7 -6 20l400 731q8 11 21 6l1 -2q12 -5 5 -19z" />
    <glyph glyph-name="fi" unicode="fi" horiz-adv-x="472" 
d="M37 549q-2 53 3.5 95.5t23.5 73.5q20 34 53.5 50.5t84.5 18.5q13 1 39.5 0.5t55 -2t54.5 -3.5t38 -4q17 -2 20 -8t-3 -28q-7 -26 -13.5 -40t-20.5 -12q-22 0 -55 3.5t-66.5 4t-62 -5t-40.5 -23.5q-8 -12 -11.5 -28.5t-5 -35t-1.5 -38v-37.5v-6h241q28 0 41.5 -15
t15.5 -29q0 -3 0.5 -7.5t0.5 -9.5v-427q0 -14 -1.5 -21t-6 -10.5t-13.5 -4t-23 -0.5q-17 0 -26.5 0.5t-14.5 3.5t-6 10.5t-1 21.5v409h-207l-1 -409q0 -14 -1.5 -21t-6.5 -10.5t-14 -4t-23 -0.5q-17 0 -26.5 0.5t-14.5 3.5t-6 10.5t-1 21.5l1 399v114z" />
    <glyph glyph-name="fl" unicode="fl" horiz-adv-x="522" 
d="M434 50h57v-44q-1 0 -26.5 -7.5t-67.5 -4.5q-24 2 -35.5 12t-16 21.5t-4.5 21v9.5v643q-20 1 -47.5 3t-55.5 0.5t-52 -9.5t-36 -26q-15 -23 -16.5 -59.5t-1.5 -71.5v-16h104q27 0 31.5 -11.5t4.5 -34.5q0 -14 -0.5 -22t-3.5 -12t-10.5 -5t-21.5 -1h-104l-1 -400
q0 -14 -1.5 -21t-6.5 -10.5t-14 -4t-23 -0.5q-17 0 -26.5 0.5t-14.5 3.5t-6 10.5t-1 21.5l1 399v114q-2 53 3.5 95.5t23.5 73.5q20 34 53.5 50.5t84.5 18.5q13 1 45 0.5t68 -3t68.5 -7.5t48.5 -13v-714z" />
    <glyph glyph-name="ae" unicode="ae" horiz-adv-x="825" 
d="M632 73q38 -1 111 16q15 3 23.5 3.5t14 -3t9.5 -12.5t10 -25q5 -14 0.5 -22t-16.5 -13.5t-29 -8.5t-37 -7q-55 -10 -123 -10t-108 19q-39 18 -66 52q-10 -5 -23.5 -12.5t-31.5 -16.5q-25 -13 -54 -25q-41 -17 -94 -17q-13 0 -25 1q-36 5 -60 16q-40 19 -66.5 54
t-40.5 83.5t-14 107.5q0 58 17 108t43.5 85t56.5 50t52 20q35 9 76 9q36 0 58.5 -2.5t48.5 -32.5q0 13 1.5 20.5t6 11t13.5 4t23 0.5q17 0 26.5 -0.5t14.5 -3.5t6.5 -10.5t1.5 -21.5v-9q18 15 42 26q46 23 135 21q15 -2 44 -7t59 -27.5t52.5 -68t23.5 -128.5q1 -21 -5 -32
t-14.5 -15t-16 -4.5l-7.5 -0.5h-308v-25q1 -57 29 -104t141 -43zM210 69q13 -2 39.5 -0.5t60 15.5t54.5 28v323q-24 6 -48 9.5t-61 3.5q-24 0 -41.5 -4.5t-27.5 -10.5q-24 -13 -42.5 -40.5t-27.5 -63.5t-8 -102t29 -113q21 -36 73 -45zM726 326q-5 75 -36 101t-80 25
q-46 0 -70 -13.5t-42.5 -41t-27.5 -63.5l-2 -8h258z" />
    <glyph glyph-name="OE" unicode="OE" horiz-adv-x="932" 
d="M675 0q-49 -2 -86 6t-65 25q-57 -33 -137 -39q-87 -6 -151 17t-107 69t-66.5 113t-28.5 149q-8 132 31 229.5t123 144.5q28 16 62.5 26.5t74.5 13.5q32 2 61 0t55 -7h415q27 0 31.5 -8.5t4.5 -31.5q0 -14 -0.5 -23.5t-3.5 -15.5t-10.5 -8.5t-21.5 -2.5h-318v-229h265
q27 0 31.5 -9.5t4.5 -32.5q0 -14 -0.5 -23.5t-3.5 -15.5t-10.5 -8.5t-21.5 -2.5h-265v-138q-1 -34 11.5 -55t34 -32t51 -15.5t63.5 -5.5h158q27 0 31.5 -8.5t4.5 -31.5q0 -14 -0.5 -23.5t-3.5 -15.5t-10.5 -8.5t-21.5 -2.5h-181zM377 95q46 2 78 16q-16 39 -13 87v442
q-22 8 -48 11.5t-58 1.5q-114 -10 -161 -91q-21 -38 -29 -95t-7 -114q1 -60 13.5 -109t41 -83t73.5 -51.5t110 -14.5z" />
    <glyph glyph-name="oe" unicode="oe" horiz-adv-x="891" 
d="M688 73q38 -1 111 16q15 3 23.5 3.5t14 -3t9.5 -12.5t10 -25q5 -14 0.5 -22t-16.5 -13.5t-29 -8.5t-37 -7q-55 -10 -123 -10t-108 19t-67 54l-10 14q-32 -46 -86 -68t-131 -17q-29 2 -55 9.5t-47 18.5q-61 33 -90 96t-23 157q4 58 21 106.5t49 82.5t79 51.5t112 13.5
q61 -5 103.5 -30.5t68.5 -68.5q8 11 15 21q27 35 73 57.5t135 20.5q15 -2 44 -7t59 -27.5t52.5 -68t23.5 -128.5q1 -21 -5 -32t-14.5 -15t-16 -4.5l-7.5 -0.5h-308v-25q1 -57 29 -104t141 -43zM149 134q31 -52 111 -58q44 -3 74 7t48.5 31t27.5 52t10 70q1 41 -5 77.5
t-21.5 64.5t-41.5 44.5t-65 18.5q-45 2 -75.5 -10.5t-49.5 -36.5t-28 -57.5t-9 -73.5q-2 -79 24 -129zM782 326q-5 75 -36 101t-80 25q-46 0 -70 -13.5t-42.5 -41t-27.5 -63.5l-2 -8h258z" />
    <glyph glyph-name="AE" unicode="AE" horiz-adv-x="975" 
d="M713 0q-66 -2 -111.5 13.5t-73 43t-39 64.5t-9.5 77v138h-248q-21 -66 -45.5 -144t-52.5 -169q-8 -26 -20.5 -27.5t-37.5 6.5q-15 4 -24 7t-12.5 7.5t-2.5 12t6 21.5l218 655q4 10 8.5 21.5t10.5 14.5q5 2 13.5 3t18.5 1h582q27 0 31.5 -7.5t4.5 -30.5q0 -14 -0.5 -23.5
t-3.5 -15.5t-10.5 -8.5t-21.5 -2.5h-318v-229h265q27 0 31.5 -9.5t4.5 -32.5q0 -14 -0.5 -23.5t-3.5 -15.5t-10.5 -8.5t-21.5 -2.5h-265v-138q-1 -34 11.5 -55t34 -32t51 -15.5t63.5 -5.5h158q27 0 31.5 -8.5t4.5 -31.5q0 -14 -0.5 -23.5t-3.5 -15.5t-10.5 -8.5t-21.5 -2.5
h-181zM261 428h219v228h-144z" />
    <glyph glyph-name="fh" unicode="fh" horiz-adv-x="867" 
d="M431 488h1q26 29 57 34q32 6 88 8q100 1 145 -33t47 -111v-336h57v-44q-1 0 -26.5 -7.5t-67.5 -4.5q-24 2 -35.5 12t-16 21.5t-4.5 21v9.5v302q-4 47 -26.5 65.5t-68.5 21.5q-41 2 -77 -3.5t-73 -13.5v-394q0 -23 -5 -29t-22 -7h-39q-18 0 -22.5 6.5t-4.5 29.5v665
q-20 1 -48 3t-56 0.5t-52.5 -9.5t-36.5 -26q-15 -23 -16.5 -59.5t-1.5 -71.5v-16h104q27 0 31.5 -11.5t4.5 -34.5q0 -14 -0.5 -22t-3.5 -12t-10.5 -5t-21.5 -1h-104l-1 -400q0 -14 -1.5 -21t-6.5 -10.5t-14 -4t-23 -0.5q-17 0 -26.5 0.5t-14.5 3.5t-6 10.5t-1 21.5l1 399
v114q-2 53 3.5 95.5t23.5 73.5q20 34 53.5 50.5t84.5 18.5q13 1 45.5 0.5t68.5 -3t69 -7.5t49 -13v-276z" />
    <glyph glyph-name="fj" unicode="fj" horiz-adv-x="536" 
d="M130 445l-1 -409q0 -14 -1.5 -21t-6.5 -10.5t-14 -4t-23 -0.5q-17 0 -26.5 0.5t-14.5 3.5t-6 10.5t-1 21.5l1 399v114q-2 53 3.5 95.5t23.5 73.5q20 34 53.5 50.5t84.5 18.5q13 1 38.5 0.5t52.5 -2t51.5 -3.5t36.5 -4q17 -2 20 -8t-3 -28q-7 -26 -13.5 -40t-20.5 -12
q-22 0 -54 3.5t-64 4t-59 -5t-39 -23.5q-8 -12 -11.5 -28.5t-5 -35t-1.5 -38v-37.5v-6h233q28 0 41.5 -15t15.5 -29q0 -3 0.5 -7.5t0.5 -9.5v-541q-1 -45 -13.5 -82t-43.5 -65.5t-67 -37.5t-56 -9q-27 0 -31.5 6.5t-4.5 29.5q0 14 0.5 22.5t3.5 12.5t10.5 5t21.5 1
q37 2 61 27.5t27 70.5v542h-199z" />
    <glyph glyph-name="ff" unicode="ff" horiz-adv-x="629" 
d="M334 436h-208l-1 -400q0 -14 -1.5 -21t-6.5 -10.5t-14 -4t-23 -0.5q-17 0 -26.5 0.5t-14.5 3.5t-6 10.5t-1 21.5l1 399v114q0 54 4.5 96t22.5 73q20 34 53.5 50.5t84.5 18.5q27 2 56 0.5t54 -6.5q17 -2 20 -8t-3 -28q-7 -26 -12.5 -35.5t-19.5 -7.5q-22 0 -43.5 2t-41 0
t-36 -9.5t-28.5 -25.5q-15 -23 -16.5 -59.5t-1.5 -71.5v-16h208v27q0 54 4.5 96t22.5 73q20 34 53.5 50.5t84.5 18.5q27 2 56 0.5t54 -6.5q17 -2 20 -8t-3 -28q-7 -26 -12.5 -35.5t-19.5 -7.5q-22 0 -43.5 2t-41 0t-36 -9.5t-28.5 -25.5q-15 -23 -16.5 -59.5t-1.5 -71.5v-16
h118q27 0 31.5 -11.5t4.5 -34.5q0 -14 -0.5 -22t-3.5 -12t-10.5 -5t-21.5 -1h-118l-1 -400q0 -14 -1.5 -21t-6.5 -10.5t-14 -4t-23 -0.5q-17 0 -26.5 0.5t-14.5 3.5t-6 10.5t-1 21.5l1 399v1z" />
    <glyph glyph-name="fb" unicode="fb" horiz-adv-x="838" 
d="M430 486q26 14 44 22q41 17 94 17q15 0 38 -3t47 -14q40 -19 66.5 -54t40.5 -83.5t14 -107.5q0 -58 -17 -108t-43.5 -85t-56.5 -50t-52 -20q-35 -9 -76 -9q-115 -1 -191 33l-1 677q-20 1 -48 3t-56 0.5t-52.5 -9.5t-36.5 -26q-15 -23 -16.5 -59.5t-1.5 -71.5v-16h104
q27 0 31.5 -11.5t4.5 -34.5q0 -14 -0.5 -22t-3.5 -12t-10.5 -5t-21.5 -1h-104l-1 -400q0 -14 -1.5 -21t-6.5 -10.5t-14 -4t-23 -0.5q-17 0 -26.5 0.5t-14.5 3.5t-6 10.5t-1 21.5l1 399v114q-2 53 3.5 95.5t23.5 73.5q20 34 53.5 50.5t84.5 18.5q13 1 45.5 0.5t68.5 -3
t69 -7.5t49 -13v-278zM476 432q-23 -9 -46 -24v-329q19 -4 40 -7q24 -4 61 -4q24 0 41.5 4.5t27.5 10.5q24 13 42.5 40.5t27.5 63.5t8 102t-29 113q-21 36 -73 45q-13 2 -39.5 0.5t-60.5 -15.5z" />
    <glyph glyph-name="fk" unicode="fk" horiz-adv-x="805" 
d="M430 317l207 220q9 10 14.5 15t10.5 5t11 -5t17 -15q13 -11 20 -18t8.5 -12.5t-2.5 -12t-14 -16.5l-144 -155l161 -274h51v-44q-1 0 -25 -6t-62 -6q-17 0 -30.5 8t-22.5 20l-139 237l-61 -65v-157q0 -23 -5 -29t-22 -7h-39q-18 0 -22.5 6.5t-4.5 29.5v665q-20 1 -48 3
t-56 0.5t-52.5 -9.5t-36.5 -26q-15 -23 -16.5 -59.5t-1.5 -71.5v-16h104q27 0 31.5 -11.5t4.5 -34.5q0 -14 -0.5 -22t-3.5 -12t-10.5 -5t-21.5 -1h-104l-1 -400q0 -14 -1.5 -21t-6.5 -10.5t-14 -4t-23 -0.5q-17 0 -26.5 0.5t-14.5 3.5t-6 10.5t-1 21.5l1 399v114
q-2 53 3.5 95.5t23.5 73.5q20 34 53.5 50.5t84.5 18.5q13 1 45.5 0.5t68.5 -3t69 -7.5t49 -13v-447z" />
    <glyph glyph-name="ft" unicode="ft" horiz-adv-x="622" 
d="M423 244q0 -35 1.5 -71.5t16.5 -59.5q12 -18 24.5 -26t27 -10t31.5 -0.5t39 1.5q14 2 19 -8t13 -35q6 -19 3 -25.5t-20 -10.5q-30 -6 -62.5 -6t-62 7t-53.5 22.5t-39 41.5q-18 31 -23.5 73.5t-3.5 95.5l-1 208h-207l-1 -405q0 -14 -1.5 -21t-6.5 -10.5t-14 -4t-23 -0.5
q-17 0 -26.5 0.5t-14.5 3.5t-6 10.5t-1 21.5l1 399v114q0 54 4.5 96t22.5 73q20 34 53.5 50.5t84.5 18.5q13 1 32.5 1t39.5 -1t38.5 -2.5t30.5 -3.5q17 -2 20 -8t-3 -28q-7 -26 -12.5 -35.5t-19.5 -7.5q-22 0 -48 2t-51.5 0t-47 -9.5t-33.5 -25.5q-15 -23 -16.5 -59.5
t-1.5 -71.5v-16h207v119q0 14 1 21.5t6 10.5t14.5 3.5t26.5 0.5q14 0 22.5 -0.5t12.5 -4t5 -11t1 -20.5v-119h132q14 0 21.5 -0.5t10.5 -3.5t3.5 -10t0.5 -21q0 -23 -4.5 -34.5t-31.5 -11.5h-132l1 -197v0z" />
    <glyph glyph-name="ffh" unicode="ffh" horiz-adv-x="1200" 
d="M735 488h1q26 29 57 34q32 6 88 8q100 1 145 -33t47 -111v-336h57v-44q-1 0 -26.5 -7.5t-67.5 -4.5q-24 2 -35.5 12t-16 21.5t-4.5 21v9.5v302q-4 47 -26.5 65.5t-68.5 21.5q-41 2 -77 -3.5t-73 -13.5v-394q0 -23 -5 -29t-22 -7h-39q-18 0 -22.5 6.5t-4.5 29.5v665
q-20 1 -48 3t-56 0.5t-52.5 -9.5t-36.5 -26q-15 -23 -16.5 -59.5t-1.5 -71.5v-16h104q27 0 31.5 -11.5t4.5 -34.5q0 -14 -0.5 -22t-3.5 -12t-10.5 -5t-21.5 -1h-104l-1 -400q0 -14 -1.5 -21t-6.5 -10.5t-14 -4t-23 -0.5q-17 0 -26.5 0.5t-14.5 3.5t-6 10.5t-1 21.5l1 399v1
h-210l-1 -400q0 -14 -1.5 -21t-6.5 -10.5t-14 -4t-23 -0.5q-17 0 -26.5 0.5t-14.5 3.5t-6 10.5t-1 21.5l1 399v114q0 54 4.5 96t22.5 73q20 34 53.5 50.5t84.5 18.5q27 2 56 0.5t54 -6.5q17 -2 20 -8t-3 -28q-7 -26 -12.5 -35.5t-19.5 -7.5q-22 0 -43.5 2t-41 0t-36 -9.5
t-28.5 -25.5q-15 -23 -16.5 -59.5t-1.5 -71.5v-16h210v27q-2 53 3.5 95.5t23.5 73.5q20 34 53.5 50.5t84.5 18.5q13 1 45.5 0.5t68.5 -3t69 -7.5t49 -13v-276z" />
    <glyph glyph-name="ffl" unicode="ffl" horiz-adv-x="880" 
d="M34 549q0 54 4.5 96t22.5 73q20 34 53.5 50.5t84.5 18.5q27 2 56 0.5t54 -6.5q17 -2 20 -8t-3 -28q-7 -26 -12.5 -35.5t-19.5 -7.5q-22 0 -43.5 2t-41 0t-36 -9.5t-28.5 -25.5q-15 -23 -16.5 -59.5t-1.5 -71.5v-16h207v27q-2 53 3.5 95.5t23.5 73.5q20 34 53.5 50.5
t84.5 18.5q13 1 45.5 0.5t68.5 -3t69 -7.5t49 -13v-714h57v-44q-1 0 -26.5 -7.5t-67.5 -4.5q-24 2 -35.5 12t-16 21.5t-4.5 21v9.5v643q-20 1 -48 3t-56 0.5t-52.5 -9.5t-36.5 -26q-15 -23 -16.5 -59.5t-1.5 -71.5v-16h104q27 0 31.5 -11.5t4.5 -34.5q0 -14 -0.5 -22
t-3.5 -12t-10.5 -5t-21.5 -1h-104l-1 -400q0 -14 -1.5 -21t-6.5 -10.5t-14 -4t-23 -0.5q-17 0 -26.5 0.5t-14.5 3.5t-6 10.5t-1 21.5l1 399v1h-207l-1 -400q0 -14 -1.5 -21t-6.5 -10.5t-14 -4t-23 -0.5q-17 0 -26.5 0.5t-14.5 3.5t-6 10.5t-1 21.5l1 399v114z" />
    <glyph glyph-name="fft" unicode="fft" horiz-adv-x="901" 
d="M727 244q0 -35 1.5 -71.5t16.5 -59.5q12 -18 24.5 -26t27 -10t31.5 -0.5t39 1.5q14 2 19 -8t13 -35q6 -19 3 -25.5t-20 -10.5q-30 -6 -62.5 -6t-62 7t-53.5 22.5t-39 41.5q-18 31 -23.5 73.5t-3.5 95.5l-1 208h-207l-1 -405q0 -14 -1.5 -21t-6.5 -10.5t-14 -4t-23 -0.5
q-17 0 -26.5 0.5t-14.5 3.5t-6 10.5t-1 21.5l1 399v1h-211l-1 -400q0 -14 -1.5 -21t-6.5 -10.5t-14 -4t-23 -0.5q-17 0 -26.5 0.5t-14.5 3.5t-6 10.5t-1 21.5l1 399v114q0 54 4.5 96t22.5 73q20 34 53.5 50.5t84.5 18.5q27 2 56 0.5t54 -6.5q17 -2 20 -8t-3 -28
q-7 -26 -12.5 -35.5t-19.5 -7.5q-22 0 -43.5 2t-41 0t-36 -9.5t-28.5 -25.5q-15 -23 -16.5 -59.5t-1.5 -71.5v-16h211v27q0 54 4.5 96t22.5 73q20 34 53.5 50.5t84.5 18.5q13 1 32.5 1t39.5 -1t38.5 -2.5t30.5 -3.5q17 -2 20 -8t-3 -28q-7 -26 -12.5 -35.5t-19.5 -7.5
q-22 0 -48 2t-51.5 0t-47 -9.5t-33.5 -25.5q-15 -23 -16.5 -59.5t-1.5 -71.5v-16h207v119q0 14 1 21.5t6 10.5t14.5 3.5t26.5 0.5q14 0 22.5 -0.5t12.5 -4t5 -11t1 -20.5v-119h132q14 0 21.5 -0.5t10.5 -3.5t3.5 -10t0.5 -21q0 -23 -4.5 -34.5t-31.5 -11.5h-132l1 -197v0z
" />
    <glyph glyph-name="fff" unicode="fff" horiz-adv-x="935" 
d="M638 436h-208l-1 -400q0 -14 -1.5 -21t-6.5 -10.5t-14 -4t-23 -0.5q-17 0 -26.5 0.5t-14.5 3.5t-6 10.5t-1 21.5l1 399v1h-209l-1 -400q0 -14 -1.5 -21t-6.5 -10.5t-14 -4t-23 -0.5q-17 0 -26.5 0.5t-14.5 3.5t-6 10.5t-1 21.5l1 399v114q0 54 4.5 96t22.5 73
q20 34 53.5 50.5t84.5 18.5q27 2 56 0.5t54 -6.5q17 -2 20 -8t-3 -28q-7 -26 -12.5 -35.5t-19.5 -7.5q-22 0 -43.5 2t-41 0t-36 -9.5t-28.5 -25.5q-15 -23 -16.5 -59.5t-1.5 -71.5v-16h209v27q0 54 4.5 96t22.5 73q20 34 53.5 50.5t84.5 18.5q27 2 56 0.5t54 -6.5
q17 -2 20 -8t-3 -28q-7 -26 -12.5 -35.5t-19.5 -7.5q-22 0 -43.5 2t-41 0t-36 -9.5t-28.5 -25.5q-15 -23 -16.5 -59.5t-1.5 -71.5v-16h208v27q0 54 4.5 96t22.5 73q20 34 53.5 50.5t84.5 18.5q27 2 56 0.5t54 -6.5q17 -2 20 -8t-3 -28q-7 -26 -12.5 -35.5t-19.5 -7.5
q-22 0 -43.5 2t-41 0t-36 -9.5t-28.5 -25.5q-15 -23 -16.5 -59.5t-1.5 -71.5v-16h118q27 0 31.5 -11.5t4.5 -34.5q0 -14 -0.5 -22t-3.5 -12t-10.5 -5t-21.5 -1h-118l-1 -400q0 -14 -1.5 -21t-6.5 -10.5t-14 -4t-23 -0.5q-17 0 -26.5 0.5t-14.5 3.5t-6 10.5t-1 21.5l1 399v1z
" />
    <glyph glyph-name="ffi" unicode="ffi" horiz-adv-x="849" 
d="M333 436h-207l-1 -400q0 -14 -1.5 -21t-6.5 -10.5t-14 -4t-23 -0.5q-17 0 -26.5 0.5t-14.5 3.5t-6 10.5t-1 21.5l1 399v114q0 54 4.5 96t22.5 73q20 34 53.5 50.5t84.5 18.5q27 2 56 0.5t54 -6.5q17 -2 20 -8t-3 -28q-7 -26 -12.5 -35.5t-19.5 -7.5q-22 0 -43.5 2t-41 0
t-36 -9.5t-28.5 -25.5q-15 -23 -16.5 -59.5t-1.5 -71.5v-16h207v27q-2 53 3.5 95.5t23.5 73.5q20 34 53.5 50.5t84.5 18.5q13 1 38.5 0.5t52.5 -2t51.5 -3.5t36.5 -4q17 -2 20 -8t-3 -28q-7 -26 -13.5 -40t-20.5 -12q-22 0 -54 3.5t-64 4t-59 -5t-39 -23.5
q-8 -12 -11.5 -28.5t-5 -35t-1.5 -38v-37.5v-6h233q28 0 41.5 -15t15.5 -29q0 -3 0.5 -7.5t0.5 -9.5v-427q0 -14 -1.5 -21t-6 -10.5t-13.5 -4t-23 -0.5q-17 0 -26.5 0.5t-14.5 3.5t-6 10.5t-1 21.5v409h-199l-1 -409q0 -14 -1.5 -21t-6.5 -10.5t-14 -4t-23 -0.5
q-17 0 -26.5 0.5t-14.5 3.5t-6 10.5t-1 21.5l1 399v1z" />
    <glyph glyph-name="ffb" unicode="ffb" horiz-adv-x="1181" 
d="M734 486q26 14 44 22q41 17 94 17q15 0 38 -3t47 -14q40 -19 66.5 -54t40.5 -83.5t14 -107.5q0 -58 -17 -108t-43.5 -85t-56.5 -50t-52 -20q-35 -9 -76 -9q-115 -1 -191 33l-1 677q-20 1 -48 3t-56 0.5t-52.5 -9.5t-36.5 -26q-15 -23 -16.5 -59.5t-1.5 -71.5v-16h104
q27 0 31.5 -11.5t4.5 -34.5q0 -14 -0.5 -22t-3.5 -12t-10.5 -5t-21.5 -1h-104l-1 -400q0 -14 -1.5 -21t-6.5 -10.5t-14 -4t-23 -0.5q-17 0 -26.5 0.5t-14.5 3.5t-6 10.5t-1 21.5l1 399v1h-209l-1 -400q0 -14 -1.5 -21t-6.5 -10.5t-14 -4t-23 -0.5q-17 0 -26.5 0.5t-14.5 3.5
t-6 10.5t-1 21.5l1 399v114q0 54 4.5 96t22.5 73q20 34 53.5 50.5t84.5 18.5q27 2 56 0.5t54 -6.5q17 -2 20 -8t-3 -28q-7 -26 -12.5 -35.5t-19.5 -7.5q-22 0 -43.5 2t-41 0t-36 -9.5t-28.5 -25.5q-15 -23 -16.5 -59.5t-1.5 -71.5v-16h209v27q-2 53 3.5 95.5t23.5 73.5
q20 34 53.5 50.5t84.5 18.5q13 1 45.5 0.5t68.5 -3t69 -7.5t49 -13v-278zM780 432q-23 -9 -46 -24v-329q19 -4 40 -7q24 -4 61 -4q24 0 41.5 4.5t27.5 10.5q24 13 42.5 40.5t27.5 63.5t8 102t-29 113q-21 36 -73 45q-13 2 -39.5 0.5t-60.5 -15.5z" />
    <glyph glyph-name="ffk" unicode="ffk" horiz-adv-x="1142" 
d="M734 317l207 220q9 10 14.5 15t10.5 5t11 -5t17 -15q13 -11 20 -18t8.5 -12.5t-2.5 -12t-14 -16.5l-144 -155l161 -274h51v-44q-1 0 -25 -6t-62 -6q-17 0 -30.5 8t-22.5 20l-139 237l-61 -65v-157q0 -23 -5 -29t-22 -7h-39q-18 0 -22.5 6.5t-4.5 29.5v665q-20 1 -48 3
t-56 0.5t-52.5 -9.5t-36.5 -26q-15 -23 -16.5 -59.5t-1.5 -71.5v-16h104q27 0 31.5 -11.5t4.5 -34.5q0 -14 -0.5 -22t-3.5 -12t-10.5 -5t-21.5 -1h-104l-1 -400q0 -14 -1.5 -21t-6.5 -10.5t-14 -4t-23 -0.5q-17 0 -26.5 0.5t-14.5 3.5t-6 10.5t-1 21.5l1 399v1h-209l-1 -400
q0 -14 -1.5 -21t-6.5 -10.5t-14 -4t-23 -0.5q-17 0 -26.5 0.5t-14.5 3.5t-6 10.5t-1 21.5l1 399v114q0 54 4.5 96t22.5 73q20 34 53.5 50.5t84.5 18.5q27 2 56 0.5t54 -6.5q17 -2 20 -8t-3 -28q-7 -26 -12.5 -35.5t-19.5 -7.5q-22 0 -43.5 2t-41 0t-36 -9.5t-28.5 -25.5
q-15 -23 -16.5 -59.5t-1.5 -71.5v-16h209v27q-2 53 3.5 95.5t23.5 73.5q20 34 53.5 50.5t84.5 18.5q13 1 45.5 0.5t68.5 -3t69 -7.5t49 -13v-447z" />
    <glyph glyph-name="percent" unicode="&#x30;&#x2f;&#x30;" horiz-adv-x="984" 
d="M214 274q-82 0 -120 37t-39 122v162q0 85 37.5 123t121.5 38h5q81 0 118 -38t37 -123v-162q-1 -83 -38 -121t-117 -38h-5zM217 357q69 0 69 74v168q0 75 -71 75q-70 0 -70 -75v-168q0 -74 70 -74h2zM725 2q-82 0 -120 37t-39 122v162q0 85 37.5 123t121.5 38h4
q81 0 118.5 -38t37.5 -123v-162q-1 -83 -38 -121t-118 -38h-4zM728 85q69 0 69 74v168q0 75 -71 75q-70 0 -70 -75v-168q0 -74 70 -74h2zM249 7l-4.5 -4.5t-6.5 -2.5h-3q-8 0 -11 7.5t0 15.5q112 177 227.5 356.5t227.5 356.5q1 2 4 4.5t8 2.5h2q8 0 12 -7.5t0 -15.5z" />
    <glyph glyph-name="perthousand" unicode="&#x30;&#x2f;&#x30;&#x30;" horiz-adv-x="1395" 
d="M200 274q-82 0 -120 37t-39 122v162q0 85 37.5 123t121.5 38h5q81 0 118 -38t37 -123v-162q-1 -83 -38 -121t-117 -38h-5zM203 357q69 0 69 74v168q0 75 -71 75q-70 0 -70 -75v-168q0 -74 70 -74h2zM711 2q-82 0 -120 37t-39 122v162q0 85 37.5 123t121.5 38h4
q81 0 118.5 -38t37.5 -123v-162q-1 -83 -38 -121t-118 -38h-4zM714 85q69 0 69 74v168q0 75 -71 75q-70 0 -70 -75v-168q0 -74 70 -74h2zM235 7l-4.5 -4.5t-6.5 -2.5h-3q-8 0 -11 7.5t0 15.5q112 177 227.5 356.5t227.5 356.5q1 2 4 4.5t8 2.5h2q8 0 12 -7.5t0 -15.5z
M1094 2q-82 0 -120 37t-39 122v162q0 85 37.5 123t121.5 38h4q81 0 118.5 -38t37.5 -123v-162q-1 -83 -38 -121t-118 -38h-4zM1097 85q69 0 69 74v168q0 75 -71 75q-70 0 -70 -75v-168q0 -74 70 -74h2z" />
    <glyph glyph-name="ffj" unicode="ffj" horiz-adv-x="854" 
d="M429 445l-1 -409q0 -14 -1.5 -21t-6.5 -10.5t-14 -4t-23 -0.5q-17 0 -26.5 0.5t-14.5 3.5t-6 10.5t-1 21.5l1 399v1h-210l-1 -400q0 -14 -1.5 -21t-6.5 -10.5t-14 -4t-23 -0.5q-17 0 -26.5 0.5t-14.5 3.5t-6 10.5t-1 21.5l1 399v114q0 54 4.5 96t22.5 73q20 34 53.5 50.5
t84.5 18.5q27 2 56 0.5t54 -6.5q17 -2 20 -8t-3 -28q-7 -26 -12.5 -35.5t-19.5 -7.5q-22 0 -43.5 2t-41 0t-36 -9.5t-28.5 -25.5q-15 -23 -16.5 -59.5t-1.5 -71.5v-16h210v27q-2 53 3.5 95.5t23.5 73.5q20 34 53.5 50.5t84.5 18.5q13 1 38.5 0.5t52.5 -2t51.5 -3.5t36.5 -4
q17 -2 20 -8t-3 -28q-7 -26 -13.5 -40t-20.5 -12q-22 0 -54 3.5t-64 4t-59 -5t-39 -23.5q-8 -12 -11.5 -28.5t-5 -35t-1.5 -38v-37.5v-6h233q28 0 41.5 -15t15.5 -29q0 -3 0.5 -7.5t0.5 -9.5v-541q-1 -45 -13.5 -82t-43.5 -65.5t-67 -37.5t-56 -9q-27 0 -31.5 6.5t-4.5 29.5
q0 14 0.5 22.5t3.5 12.5t10.5 5t21.5 1q37 2 61 27.5t27 70.5v542h-199z" />
    <glyph glyph-name=".notdef" horiz-adv-x="583" 
 />
    <glyph glyph-name="numbersign" unicode="#" horiz-adv-x="748" 
d="M444 197l-22 -184q-4 -13 -15 -13h-56q-6 0 -10.5 5.5t-4.5 11.5l20 180h-152l-20 -185q-2 -12 -15 -12h-58q-5 0 -9.5 5.5t-4.5 11.5l20 180h-86q-15 0 -15 14v55q0 15 15 15h95q5 44 10 87.5t10 87.5h-115q-15 0 -15 14v55q0 15 15 15h123l22 190q4 13 14 13h57
q6 0 10 -5.5t4 -11.5l-20 -186h152l22 190q4 13 15 13h56q6 0 10.5 -5.5t4.5 -11.5l-20 -186h96q15 0 15 -15v-55q0 -14 -15 -14h-106l-18 -175h124q15 0 15 -15v-55q0 -14 -15 -14h-133zM233 456q-5 -44 -10 -87.5t-10 -87.5h153l19 175h-152z" />
    <glyph glyph-name="percent.001" horiz-adv-x="972" 
d="M204 274q-82 0 -120 37t-39 122v162q0 85 37.5 123t121.5 38h5q81 0 118 -38t37 -123v-162q-1 -83 -38 -121t-117 -38h-5zM715 2q-82 0 -120 37t-39 122v162q0 85 37.5 123t121.5 38h4q81 0 118.5 -38t37.5 -123v-162q-1 -83 -38 -121t-118 -38h-4zM239 7l-4.5 -4.5
t-6.5 -2.5h-3q-8 0 -11 7.5t0 15.5q112 177 227.5 356.5t227.5 356.5q1 2 4 4.5t8 2.5h2q8 0 12 -7.5t0 -15.5zM718 85q69 0 69 74v170l-134 -210q15 -34 63 -34h2zM207 357q69 0 69 74v168l-133 -210q15 -32 62 -32h2zM135 435l132 208q-15 31 -62 31q-70 0 -70 -75v-164z
M646 165l131 207q-17 30 -61 30q-70 0 -70 -75v-162z" />
    <glyph glyph-name="quoteright" unicode="&#x2019;" horiz-adv-x="267" 
d="M79 760q1 5 5 8.5t9 3.5h71q7 0 11.5 -5.5t2.5 -13.5l-68 -220q-2 -4 -6.5 -7.5t-8.5 -3.5h-52q-8 0 -12 5t-3 13z" />
    <glyph glyph-name="parenleft" unicode="(" horiz-adv-x="408" 
d="M192 -199q-3 0 -6.5 2t-4.5 3q-27 31 -55.5 76.5t-52 104t-38 129t-14.5 152.5v7q0 81 15 151.5t38 128.5t51.5 104t55.5 78v-1q1 2 5 4.5t6 2.5h61q9 0 12 -9t-2 -18q-32 -41 -59 -87.5t-47 -100.5t-31.5 -117t-11.5 -136v-7q0 -74 11.5 -136t31.5 -116t47 -100.5
t59 -88.5q5 -9 2 -17.5t-12 -8.5h-61z" />
    <glyph glyph-name="parenright" unicode=")" horiz-adv-x="407" 
d="M252 268q0 -82 -15 -153t-39 -130t-53 -105.5t-57 -79.5h-2q-1 0 -2 0.5t-2 0.5h-63q-10 0 -13.5 7.5t2.5 15.5q32 42 60 88.5t48.5 101t32.5 117.5t12 137v7q0 74 -11.5 137t-32 118t-48.5 101.5t-61 87.5q-6 8 -2.5 16t13.5 8h63q2 0 6 -2.5t5 -4.5v1q27 -32 55 -77.5
t51.5 -103.5t38 -128.5t14.5 -152.5v-7v0z" />
    <glyph glyph-name="asterisk" unicode="*" horiz-adv-x="544" 
d="M287 549q8 -9 18.5 -23.5t26.5 -35.5l33 -44q3 -5 2.5 -11.5t-5.5 -9.5l-45 -32q-14 -7 -21 3q-18 27 -36.5 53t-37.5 53l-75 -106q-7 -10 -20 -3l-46 32q-5 3 -6 9.5t3 11.5l79 103q-11 4 -29 8.5t-46 13.5h1l-50 16q-5 2 -8.5 7.5t-1.5 11.5l16 52q5 15 20 10l122 -42
q-1 16 -1 49v83q0 14 14 14h56q15 0 15 -14l-4 -132q16 6 45.5 16t78.5 27q13 4 18 -7l18 -56v1q2 -5 -2 -11.5t-10 -9.5z" />
    <glyph glyph-name="plus" unicode="+" horiz-adv-x="703" 
d="M368 349v-199q0 -15 -14 -15h-53q-15 0 -15 15v199h-200q-15 0 -15 15v53q0 15 15 15h200v200q0 14 15 14h53q14 0 14 -14v-200h200q14 0 14 -15v-53q0 -15 -14 -15h-200z" />
    <glyph glyph-name="comma" unicode="," horiz-adv-x="226" 
d="M17 -95q-14 8 -9 22l66 152q8 17 25 8l47 -27q7 -4 9 -11.5t-1 -13.5l-86 -142q-3 -7 -10.5 -8t-12.5 1z" />
    <glyph glyph-name="hyphen.001" horiz-adv-x="374" 
d="M33 252q-15 0 -15 14v54q0 15 15 15h235q15 0 15 -15v-54q0 -14 -15 -14h-235z" />
    <glyph glyph-name="period" unicode="." horiz-adv-x="213" 
d="M30 65q0 17 1.5 26t7 13.5t15 5t26.5 0.5q19 0 30.5 -0.5t17.5 -4.5t7.5 -13t1.5 -27v-20q0 -17 -1.5 -26t-7 -13.5t-15.5 -5t-26 -0.5q-20 0 -31 0.5t-17 4.5t-7.5 13t-1.5 27v20v0z" />
    <glyph glyph-name="slash" unicode="/" horiz-adv-x="486" 
d="M63 1q-5 -13 -18 -8l-50 18q-15 5 -10 18l261 722q5 13 19 8l50 -18q13 -5 8 -18z" />
    <glyph glyph-name="zero.001" horiz-adv-x="591" 
d="M291 -11q-126 0 -184.5 58t-59.5 186v276q0 129 58 188t186 59h13q125 0 182 -59t57 -188v-276q-1 -127 -58 -185.5t-181 -58.5h-13zM301 81q141 0 141 149v285q0 30 -6 54l-269 -422q29 -66 126 -66h8zM152 230q0 -25 3 -44l268 420q-32 60 -122 60h-8q-72 0 -106.5 -37
t-34.5 -114v-285z" />
    <glyph glyph-name="one" unicode="1" horiz-adv-x="441" 
d="M188 741q7 4 16 4.5t23 0.5q17 0 26.5 -0.5t14.5 -3.5t6.5 -10.5t1.5 -21.5v-626h97q27 0 31.5 -8t4.5 -31q0 -14 -0.5 -22.5t-3.5 -13.5t-10.5 -7t-21.5 -2h-287q-14 0 -21.5 2t-10.5 7t-3.5 13.5t-0.5 22.5q0 23 4.5 31t31.5 8h94v542l-76 -43q-23 -13 -32 -7.5
t-22 30.5q-8 15 -12.5 23.5t-4.5 14.5t6 11t18 12l131 74v0z" />
    <glyph glyph-name="two" unicode="2" horiz-adv-x="542" 
d="M98 0q-19 0 -30 1.5t-17 7t-7.5 16t-1.5 27.5v43q1 53 6 91t16 65t28 46.5t43 34.5q18 11 33.5 21t33.5 20.5t41.5 22t57.5 26.5q46 20 70.5 42t24.5 52v42q0 31 -7 49.5t-22 28.5t-39 13t-57 3h-30q-18 -1 -31 -2t-24.5 -3t-23.5 -5.5t-28 -8.5q-20 -7 -30.5 -8t-16 3
t-8 11.5t-6.5 18.5q-6 13 -7.5 23t3 17.5t16 13.5t32.5 12t38.5 10t35.5 7t39.5 4t49.5 1q58 0 98 -10t65 -33t36 -60t11 -91v-40q0 -35 -8 -60t-25 -44.5t-44.5 -35.5t-66.5 -32q-42 -19 -84 -39.5t-69 -38.5q-32 -21 -41 -60t-9 -112h324q27 0 31.5 -8.5t4.5 -31.5
q0 -14 -0.5 -23.5t-3.5 -15.5t-10.5 -8.5t-21.5 -2.5h-369v0z" />
    <glyph glyph-name="three" unicode="3" horiz-adv-x="504" 
d="M41 90q1 8 8.5 13.5t16.5 3.5q35 -9 77 -12.5t74 -3.5q88 0 123 28t35 85v44q0 28 -12.5 46.5t-33 30t-47.5 16.5t-56 5h-114q-19 0 -19 19v52q0 19 19 19h126q55 0 87 29t32 70v31q0 50 -34 72t-90 22q-36 0 -79 -5t-78 -12q-15 -4 -18.5 3.5t-4.5 13.5l-9 47q-1 6 1 12
t11 8q37 10 83 17t92 7q119 0 171.5 -46.5t52.5 -133.5v-38q0 -44 -13.5 -77t-52.5 -55q35 -22 59 -60t24 -85v-57q0 -103 -60.5 -151t-196.5 -48q-38 0 -81 3.5t-86 14.5q-10 2 -14 6.5t-2 15.5z" />
    <glyph glyph-name="four" unicode="4" horiz-adv-x="597" 
d="M518 308q14 0 21.5 -0.5t10.5 -4t3.5 -11.5t0.5 -23q0 -29 -4.5 -39.5t-31.5 -10.5h-63v-183q0 -14 -1.5 -21.5t-6.5 -10.5t-14.5 -3.5t-26.5 -0.5q-14 0 -23.5 0.5t-14.5 4t-7 10.5t-2 21v183h-299q-14 0 -24 10t-10 24q0 6 2 10.5t6 11.5l267 460q4 7 7 9.5t15 2.5h113
q19 0 19 -19v-420h63zM359 307v355l-200 -355h200z" />
    <glyph glyph-name="five" unicode="5" 
d="M166 463q25 4 44 6t46 2q51 0 98 -10t82.5 -35t57 -68.5t21.5 -109.5q0 -129 -66 -192.5t-181 -63.5q-38 0 -76 4.5t-68 9.5q-36 6 -68 14q-11 2 -13 8.5t0 10.5l9 57q0 5 3.5 11t14.5 6q32 -8 65 -14q29 -5 63 -9.5t68 -4.5q67 0 110.5 41t43.5 119q0 38 -13.5 64
t-36.5 41.5t-53 22t-64 6.5q-17 0 -33 -1.5t-34 -3.5t-39 -5t-48 -7l-17 -2q-9 0 -13 5t-4 12l18 350q0 17 11 17h372q18 0 18 -17v-56q0 -17 -18 -17h-290z" />
    <glyph glyph-name="six" unicode="6" horiz-adv-x="578" 
d="M397 743l15 -3t9.5 -2t11 -2.5t18.5 -4.5q21 -6 34 -10t19 -10t5 -15t-8 -25q-6 -14 -9.5 -21.5t-9 -10.5t-15 -2t-28.5 6l-22.5 4.5t-38.5 7.5q-35 6 -54 7t-45 0q-72 -2 -100.5 -40.5t-28.5 -117.5v-77q19 4 35.5 8t35.5 6.5t43.5 4t60.5 1.5h18q52 0 87.5 -9.5t58 -30
t32.5 -53.5t10 -81v-93q0 -100 -47 -144.5t-158 -44.5h-52q-61 0 -103 13.5t-68 42t-38 72.5t-12 106v273q0 63 11.5 110.5t38 79.5t69.5 48t106 16q39 0 66.5 -2t52.5 -7zM150 212q0 -72 28.5 -101.5t97.5 -29.5h55q61 1 84.5 27.5t23.5 86.5v68q0 30 -6.5 48.5t-20.5 28
t-36 13t-52 3.5h-17q-24 0 -43 -1.5t-37 -4.5t-36 -8t-41 -12v-118z" />
    <glyph glyph-name="seven" unicode="7" horiz-adv-x="504" 
d="M151 17q-6 -13 -11.5 -18.5t-12 -6t-15 3.5t-20.5 11q-14 8 -22.5 12t-12.5 8.5t-3 11.5t8 20l299 594l-325 1q-14 0 -21 2t-10.5 7t-4 14.5t-0.5 23.5q0 17 0.5 26t3.5 13.5t10.5 5.5t21.5 1h399q27 0 31.5 -15t4.5 -41v-17t-5 -13z" />
    <glyph glyph-name="eight" unicode="8" horiz-adv-x="597" 
d="M301 756q45 0 86.5 -9t73 -30.5t50 -57t19.5 -87.5q0 -32 -1.5 -58.5t-10.5 -48.5t-28 -41t-52 -37q27 -14 48.5 -31t37 -39t24 -51t8.5 -67q0 -65 -20.5 -106.5t-55.5 -64.5t-82 -31.5t-99 -8.5q-57 0 -104 10t-81.5 34.5t-53.5 65.5t-19 102q0 74 31.5 115.5t86.5 70.5
q-29 15 -46.5 33t-27 40.5t-12.5 50t-1 62.5q2 52 20.5 87.5t49.5 57t71.5 30.5t87.5 9zM300 75q32 0 60 5t49 19t33.5 39t12.5 65q0 34 -9 58t-30 40t-55 24.5t-83 12.5q-61 -9 -97 -39.5t-36 -95.5q0 -39 12 -64t33 -39.5t49 -19.5t61 -5zM322 431q27 6 49 14.5t37 23
t23.5 35.5t8.5 52q0 36 -11 58.5t-30 35t-44 16.5t-53 4t-53 -4t-44 -16t-30 -34.5t-11 -59.5q0 -57 35 -88t123 -37z" />
    <glyph glyph-name="nine" unicode="9" horiz-adv-x="580" 
d="M184 -3l-15 3t-9.5 2t-11 2.5t-18.5 4.5q-21 6 -34.5 10t-19.5 10t-5 15t9 25q6 13 9.5 21t8.5 11t15 1.5t29 -5.5l22.5 -4.5t38.5 -7.5q35 -6 54 -7t45 0q72 2 100.5 40.5t28.5 117.5v77q-20 -5 -36 -8.5t-35 -6t-43.5 -4t-60.5 -1.5h-18q-52 0 -87.5 9.5t-58 30
t-32.5 53.5t-10 81v93q0 100 47 144.5t158 44.5h52q61 0 103 -13.5t68 -42t38 -73t12 -105.5v-273q0 -63 -11.5 -110.5t-38 -79.5t-69.5 -48t-106 -16q-39 0 -66.5 2t-52.5 7zM431 528q0 72 -28.5 101.5t-97.5 29.5h-55q-61 -1 -84.5 -27.5t-23.5 -86.5v-68q0 -30 6.5 -48.5
t20.5 -28t36 -13t52 -3.5h17q24 0 43 1.5t37 4.5t36 8t41 12v118z" />
    <glyph glyph-name="colon" unicode=":" horiz-adv-x="266" 
d="M30 65q0 17 1.5 26t7 13.5t15 5t26.5 0.5q19 0 30.5 -0.5t17.5 -4.5t7.5 -13t1.5 -27v-20q0 -17 -1.5 -26t-7 -13.5t-15.5 -5t-26 -0.5q-20 0 -31 0.5t-17 4.5t-7.5 13t-1.5 27v20zM30 384q0 17 1.5 26t7 13.5t15 5t26.5 0.5q19 0 30.5 -0.5t17.5 -4.5t7.5 -13t1.5 -27
v-20q0 -17 -1.5 -26t-7 -13.5t-15.5 -5t-26 -0.5q-20 0 -31 0.5t-17 4.5t-7.5 13t-1.5 27v20z" />
    <glyph glyph-name="semicolon" unicode=";" horiz-adv-x="265" 
d="M51 384q0 17 1.5 26t7 13.5t15 5t26.5 0.5q19 0 30.5 -0.5t17.5 -4.5t7.5 -13t1.5 -27v-20q0 -17 -1.5 -26t-7 -13.5t-15.5 -5t-26 -0.5q-20 0 -31 0.5t-17 4.5t-7.5 13t-1.5 27v20zM18 -95q-14 8 -9 22l66 152q8 17 25 8l47 -27q7 -4 9 -11.5t-1 -13.5l-86 -142
q-3 -7 -10.5 -8t-12.5 1z" />
    <glyph glyph-name="less" unicode="&#x3c;" horiz-adv-x="703" 
d="M349 133l-279 247q-5 5 -5 11t5 11l278 244h94q9 0 12 -9.5t-3 -16.5l-263 -230q30 -28 63.5 -57t65.5 -57l134 -117q8 -7 4.5 -16.5t-13.5 -9.5h-93z" />
    <glyph glyph-name="equal" unicode="=" horiz-adv-x="703" 
d="M531 154q0 -15 -14 -15h-430q-14 0 -14 15v53q0 14 14 14h430q14 0 14 -14v-53zM87 356q-14 0 -14 14v53q0 15 14 15h430q14 0 14 -15v-53q0 -14 -14 -14h-430z" />
    <glyph glyph-name="greater" unicode="&#x3e;" horiz-adv-x="703" 
d="M164 133h-93q-11 0 -14 9.5t5 16.5l262 231q-66 57 -131.5 115t-130.5 115q-6 7 -3.5 16.5t12.5 9.5h94l277 -244q4 -5 4.5 -11.5t-4.5 -11.5z" />
    <glyph glyph-name="at" unicode="@" horiz-adv-x="1032" 
d="M402 -8q-36 5 -60 16q-40 19 -66.5 54t-40.5 83.5t-14 107.5q0 58 17 108t43.5 85t56.5 50t52 20q35 9 76 9q36 0 58.5 -2.5t48.5 -32.5q0 13 1.5 20.5t6 11t13.5 4t23 0.5q17 0 26.5 -0.5t14.5 -3.5t6.5 -10.5t1.5 -21.5v-424q11 -7 27.5 -10t29.5 -3q22 0 41 7t32 31.5
t20.5 71.5t7.5 127v18q0 89 -19 153t-60 105.5t-106.5 61.5t-159.5 20q-93 0 -162 -21t-115 -66.5t-68.5 -118.5t-22.5 -178q0 -110 22 -184t67 -119t114.5 -64t164.5 -19q14 0 34 0.5t37 2.5q20 1 41 3q5 0 8 -1t3 -8v-47q0 -5 -0.5 -9.5t-7.5 -5.5q-20 -3 -40 -5
q-17 -2 -37 -3.5t-38 -1.5q-111 0 -194.5 21.5t-139.5 74.5t-84.5 141.5t-28.5 223.5q0 124 29 211t86 142t140.5 80t191.5 25q113 0 193.5 -25.5t132 -77t75.5 -129.5t24 -183v-17q0 -102 -13 -163.5t-36.5 -93.5t-56.5 -42t-73 -10q-11 0 -33 1.5t-44.5 7.5t-41.5 17
t-23 29h-2q-31 -16 -60 -28q-41 -17 -94 -17q-13 0 -25 1zM419 69q13 -2 39.5 -0.5t60 15.5t54.5 28v323q-24 6 -48 9.5t-61 3.5q-24 0 -41.5 -4.5t-27.5 -10.5q-24 -13 -42.5 -40.5t-27.5 -63.5t-8 -102t29 -113q21 -36 73 -45z" />
    <glyph glyph-name="A" unicode="A" horiz-adv-x="724" 
d="M99 23q-8 -26 -20.5 -27.5t-37.5 6.5q-15 4 -24 7t-12.5 7.5t-2.5 12t6 21.5l218 655q4 10 8.5 21.5t10.5 14.5q5 2 13.5 3t18.5 1h52h22.5t19.5 -4q6 -3 10.5 -14.5t8.5 -21.5l222 -655h55v-44q-1 0 -25 -7.5t-62 -4.5q-19 2 -34 9.5t-20 17.5t-14 32t-20.5 52.5
t-25 68.5t-27.5 79h-262zM307 676q-4 -14 -12.5 -40t-19 -58t-22 -67t-22 -67t-18.5 -58.5t-11 -40.5h208q-11 36 -20 66.5t-20.5 66.5t-26 83t-36.5 115z" />
    <glyph glyph-name="B" unicode="B" horiz-adv-x="672" 
d="M545 535q0 -92 -62 -142q25 -14 41 -30.5t26 -33.5t14 -34t5 -30q6 -74 -5.5 -124t-40 -81.5t-75 -45t-111.5 -13.5h-227q-16 0 -25 0.5t-13.5 3.5t-6 10.5t-1.5 21.5l-1 641q-50 6 -54 22v48h317q112 0 165 -49t54 -149v-15zM403 340h-8h-32t-73.5 0.5t-130.5 1.5v-255
q64 1 122 -1.5t101.5 7.5t68.5 39.5t24 93.5q-1 53 -21 83.5t-51 30.5zM318 432q60 0 92 25.5t34 80.5v7q-2 55 -33 84.5t-93 29.5h-159v-227h159z" />
    <glyph glyph-name="C" unicode="C" horiz-adv-x="618" 
d="M287 82q106 1 176 24q20 5 31.5 9.5t18.5 3.5t12 -8.5t12 -26.5q7 -20 7.5 -32.5t-11 -21t-35.5 -14.5t-64 -14q-65 -11 -111 -11q-77 -3 -134 24t-89.5 78.5t-52.5 120.5t-20 157q0 83 24 154t62 121t98.5 81.5t134 28.5t141.5 -26q21 -7 34 -11t18.5 -10t4.5 -14.5
t-7 -24.5q-10 -23 -15.5 -32.5t-12.5 -11t-17.5 3t-30.5 10.5q-72 21 -114.5 24.5t-88.5 -18t-76 -68.5t-43 -98.5t-11.5 -147.5t41 -171t118.5 -79z" />
    <glyph glyph-name="D" unicode="D" horiz-adv-x="691" 
d="M107 -1q-16 0 -25 0.5t-13.5 4t-6 11t-1.5 21.5v641q-50 6 -54 22v48h307q42 0 78 -9q58 -13 97.5 -45.5t63.5 -79.5t34 -107t10 -127q0 -80 -13.5 -149.5t-46 -120.5t-87.5 -80.5t-138 -29.5h-205zM156 87h152q58 0 95.5 22.5t59 61.5t29.5 92.5t8 115.5q0 46 -7 96
t-27 91.5t-56.5 67.5t-95.5 24h-157v-90z" />
    <glyph glyph-name="E" unicode="E" horiz-adv-x="577" 
d="M287 0q-66 -2 -111.5 13.5t-73 43t-39 64.5t-9.5 77v479q-50 6 -54 22v48h468q27 0 31.5 -8.5t4.5 -31.5q0 -14 -0.5 -23.5t-3.5 -15.5t-10.5 -8.5t-21.5 -2.5h-318v-229h265q27 0 31.5 -9.5t4.5 -32.5q0 -14 -0.5 -23.5t-3.5 -15.5t-10.5 -8.5t-21.5 -2.5h-265v-138
q-1 -34 11.5 -55t34 -32t51 -15.5t63.5 -5.5h158q27 0 31.5 -8.5t4.5 -31.5q0 -14 -0.5 -23.5t-3.5 -15.5t-10.5 -8.5t-21.5 -2.5h-181v0z" />
    <glyph glyph-name="F" unicode="F" horiz-adv-x="601" 
d="M153 36q0 -27 -9 -31.5t-37 -4.5q-17 0 -26.5 0.5t-14.5 3.5t-6.5 10.5t-1.5 21.5v641q-50 6 -54 22v48h469q27 0 31.5 -8.5t4.5 -31.5q0 -14 -0.5 -23.5t-3.5 -15.5t-10.5 -8.5t-21.5 -2.5h-319v-248h266q27 0 31.5 -9.5t4.5 -32.5q0 -14 -0.5 -23.5t-3.5 -15.5
t-10.5 -8.5t-21.5 -2.5h-266z" />
    <glyph glyph-name="G" unicode="G" horiz-adv-x="637" 
d="M287 82q97 1 164 20v211q0 13 1.5 20.5t6 11t13.5 4t23 0.5q16 0 25.5 -0.5t14.5 -3.5t7 -9.5t2 -18.5v-258q2 -12 -2.5 -20t-17.5 -14t-35 -11.5t-55 -11.5q-65 -11 -111 -11q-77 -3 -134 24t-89.5 78.5t-52.5 120.5t-20 157q0 83 24 154t62 121t98.5 81.5t134 28.5
t141.5 -26q21 -7 34 -11t18.5 -10t4.5 -14.5t-7 -24.5q-10 -23 -15.5 -32.5t-12.5 -11t-17.5 3t-30.5 10.5q-72 21 -114.5 24.5t-88.5 -18t-76 -68.5t-43 -98.5t-11.5 -147.5t41 -171t118.5 -79z" />
    <glyph glyph-name="H" unicode="H" horiz-adv-x="668" 
d="M136 36q0 -14 -1.5 -21.5t-6.5 -10.5t-14.5 -3.5t-26.5 -0.5q-14 0 -23.5 0.5t-14.5 4t-7 10.5t-2 21v674q0 13 2 20.5t7 11t14.5 4t23.5 0.5q17 0 26.5 -0.5t14.5 -3.5t6.5 -10.5t1.5 -21.5v-284h318v284q0 13 2 20.5t7 11t14.5 4t23.5 0.5q17 0 26.5 -0.5t14.5 -3.5
t6.5 -10.5t1.5 -21.5v-674q0 -14 -1.5 -21.5t-6.5 -10.5t-14.5 -3.5t-26.5 -0.5q-14 0 -23.5 0.5t-14.5 4t-7 10.5t-2 21v300h-318v-300v0z" />
    <glyph glyph-name="I" unicode="I" horiz-adv-x="428" 
d="M47 0q-14 0 -21.5 2t-10.5 7t-3.5 13.5t-0.5 22.5q0 23 4.5 31t31.5 8h94v578h-95q-14 0 -21.5 1.5t-10.5 6.5t-3.5 13.5t-0.5 22.5q0 23 4.5 31.5t31.5 8.5h289q27 0 31.5 -8.5t4.5 -31.5q0 -14 -0.5 -22.5t-3.5 -13.5t-10.5 -6.5t-21.5 -1.5h-98v-578h97q27 0 31.5 -8
t4.5 -31q0 -14 -0.5 -22.5t-3.5 -13.5t-10.5 -7t-21.5 -2h-287z" />
    <glyph glyph-name="J" unicode="J" horiz-adv-x="369" 
d="M27 77q76 2 102 27t25 78v528q0 13 2 20.5t7 11t14.5 4t23.5 0.5q17 0 26.5 -0.5t14.5 -3.5t6.5 -10.5t1.5 -21.5v-526q-1 -45 -13.5 -82t-45.5 -65.5t-69 -37.5t-95 -9q-14 0 -21 1.5t-10.5 6.5t-4 14t-0.5 23q0 17 0.5 25.5t3.5 12.5t10.5 4h21.5z" />
    <glyph glyph-name="K" unicode="K" horiz-adv-x="605" 
d="M267 396l227 -347h51v-44q-1 0 -25 -6t-62 -6q-37 0 -56 25l-199 300l-74 -89v-193q0 -23 -5 -29t-22 -7h-42q-18 0 -22.5 6.5t-4.5 29.5v674q0 13 2 20.5t7 11t14.5 4t23.5 0.5q17 0 26.5 -0.5t14.5 -3.5t6.5 -10.5t1.5 -21.5v-334l290 344q17 22 30 22.5t28 -14.5
q12 -12 19.5 -19t9 -13t-2.5 -13t-14 -19z" />
    <glyph glyph-name="L" unicode="L" horiz-adv-x="561" 
d="M98 0q-19 0 -30 1.5t-17 7t-7.5 16t-1.5 27.5v658q0 13 2 20.5t7 11t14.5 4t23.5 0.5q17 0 26.5 -0.5t14.5 -3.5t6 -10.5t1 -21.5v-620h311q27 0 31.5 -8.5t4.5 -31.5q0 -14 -0.5 -23.5t-3.5 -15.5t-10.5 -8.5t-21.5 -2.5h-350v0z" />
    <glyph glyph-name="M" unicode="M" horiz-adv-x="839" 
d="M628 511q-48 -82 -90 -163.5t-90 -167.5q-8 -15 -15 -28.5t-16 -17.5q-7 -3 -15 -3.5t-17 -0.5t-17 0.5t-15 3.5q-9 4 -16 17.5t-15 28.5q-45 81 -89.5 166.5t-89.5 163.5v-474q0 -14 -1.5 -21.5t-6.5 -10.5t-14.5 -3.5t-26.5 -0.5q-14 0 -23.5 0.5t-14.5 4t-7 10.5
t-2 21v640h-54v49q10 9 24 17q12 6 28.5 11.5t39.5 5.5q18 0 29 -8h1q12 -8 21 -25t19 -33q57 -106 115.5 -213.5t114.5 -212.5q55 105 114 212.5t116 213.5q10 16 19 33t21 25q14 9 30 9q20 0 30 -6.5t9 -17.5l1 -628v-59h53v-44l-8.5 -2.5t-22 -5t-31 -4.5t-36.5 0
q-22 2 -33 12t-15 21.5t-4 21v9.5v454v0z" />
    <glyph glyph-name="N" unicode="N" horiz-adv-x="694" 
d="M574 36q0 -25 -6 -30.5t-28 -5.5h-15q-8 0 -14.5 0.5t-14 5t-17 13.5t-21.5 27q-7 10 -25.5 38.5t-45 69t-58 90t-65 101t-65.5 101.5t-59 92v-502q0 -14 -1.5 -21.5t-6.5 -10.5t-14.5 -3.5t-26.5 -0.5q-14 0 -23.5 0.5t-14.5 4t-7 10.5t-2 21l1 639h-58v49q10 9 24 17
q12 6 28.5 11.5t39.5 5.5q19 0 31.5 -7.5t20.5 -17.5l347 -552v529q0 13 2 20.5t7 11t14.5 4t23.5 0.5q17 0 26.5 -0.5t14.5 -3.5t6.5 -10.5t1.5 -21.5v-674z" />
    <glyph glyph-name="O" unicode="O" horiz-adv-x="776" 
d="M329 754q86 6 151 -17t109 -69.5t67.5 -114.5t25.5 -150q3 -88 -12.5 -161t-51 -126.5t-92 -85.5t-135.5 -38q-87 -6 -151 17t-107 69t-66.5 113t-28.5 149q-8 132 31 229.5t123 144.5q28 16 62.5 26.5t74.5 13.5zM177 565q-11 -19 -18 -44t-11.5 -52.5t-6 -57
t-1.5 -58.5q1 -61 14 -111t41.5 -84.5t74.5 -52t112 -14.5q58 3 97 26.5t62 63.5t32 94t8 117q-2 60 -14.5 111t-41 86.5t-74 54t-111.5 14.5q-116 -10 -163 -93z" />
    <glyph glyph-name="P" unicode="P" horiz-adv-x="643" 
d="M553 488q0 -97 -53.5 -145t-165.5 -48h-22q-87 3 -110 7q-24 4 -45 26v-292q0 -14 -1.5 -21.5t-6.5 -10.5t-14.5 -3.5t-26.5 -0.5q-14 0 -23.5 0.5t-14.5 4t-7 10.5t-2 21v641q-50 6 -54 22v48h327q112 0 165.5 -50t53.5 -151v-58zM326 385q62 0 94 30.5t32 87.5v36
q0 57 -31.5 88t-94.5 31h-169v-259q29 -6 56.5 -10t58.5 -4h54z" />
    <glyph glyph-name="Q" unicode="Q" horiz-adv-x="785" 
d="M334 754q86 6 151 -17t109 -69.5t67.5 -114.5t25.5 -150q3 -118 -26 -208.5t-96 -143.5l106 -77q19 -16 5 -34l-39 -44q-6 -8 -17 -8t-18 6l-120 114q-20 -6 -41.5 -10t-44.5 -6q-87 -6 -151 17t-107 69t-66.5 113t-28.5 149q-8 132 31 229.5t123 144.5q28 16 62.5 26.5
t74.5 13.5zM181 572q-23 -41 -31 -99.5t-7 -118.5q1 -63 14 -114t41.5 -87t74.5 -54t113 -15q59 3 98 27t62.5 65.5t32 97t7.5 120.5q-2 62 -14.5 114t-41 89t-74 55.5t-112.5 14.5q-117 -9 -163 -95z" />
    <glyph glyph-name="R" unicode="R" horiz-adv-x="637" 
d="M550 488q0 -148 -126 -182q15 -37 31.5 -78.5t31.5 -78t27 -63.5t17 -35h55v-44q-1 0 -25 -7.5t-62 -4.5q-19 2 -37 9.5t-23 17.5q-4 7 -16.5 35t-29 67.5t-35 84.5t-34.5 86h-15q-87 3 -110 7q-24 4 -45 26v-292q0 -14 -1.5 -21.5t-6.5 -10.5t-14.5 -3.5t-26.5 -0.5
q-14 0 -23.5 0.5t-14.5 4t-7 10.5t-2 21v641q-50 6 -54 22v48h327q112 0 165.5 -50t53.5 -151v-58zM323 385q62 0 94 30.5t32 87.5v36q0 57 -31.5 88t-94.5 31h-169v-259q29 -6 56.5 -10t58.5 -4h54z" />
    <glyph glyph-name="S" unicode="S" horiz-adv-x="587" 
d="M254 663q-81 5 -116.5 -39t-27.5 -104t140 -83t170 -45t57.5 -59t17.5 -109t-13 -111.5t-45.5 -68t-86 -41.5t-120 -12t-162.5 29q-21 7 -34 11t-18.5 9.5t-4.5 14.5t7 24q9 22 16 32.5t16 11.5t23.5 -4.5t39.5 -14.5q69 -20 141 -22q93 4 121.5 37t30 88t-9 73
t-43.5 31.5t-107.5 28.5t-114 29.5t-67.5 37t-39 56.5t-3.5 106.5t64 128t172.5 54.5q86 -2 167 -21l25 -6q19 -6 20 -18.5t-6 -36.5q-5 -15 -6.5 -23.5t-6 -11t-14 -0.5t-29.5 7q-52 13 -154 21z" />
    <glyph glyph-name="T" unicode="T" horiz-adv-x="617" 
d="M56 662q-14 0 -21.5 1.5t-10.5 6.5t-3.5 13.5t-0.5 22.5q0 23 4.5 31.5t31.5 8.5h463q27 0 31.5 -8.5t4.5 -31.5q0 -14 -0.5 -22.5t-3.5 -13.5t-10.5 -6.5t-21.5 -1.5h-187v-626q0 -14 -1.5 -21.5t-6.5 -10.5t-14.5 -3.5t-26.5 -0.5q-14 0 -23.5 0.5t-14.5 4t-7 10.5
t-2 21v626h-180z" />
    <glyph glyph-name="U" unicode="U" horiz-adv-x="633" 
d="M537 299q0 -29 -1 -58t-5 -56q-11 -94 -76.5 -144.5t-172.5 -48.5q-109 2 -173 49t-77 144q-5 38 -5.5 77t0.5 80v368q0 13 2 20.5t7 11t14.5 4t23.5 0.5q17 0 26.5 -0.5t14.5 -3.5t6.5 -10.5t1.5 -21.5v-367v-60t2.5 -58t8 -52.5t17.5 -42.5q25 -29 67.5 -41t86.5 -7.5
t80 26.5t48 60q5 19 6.5 48.5t1.5 82.5v411q0 13 2 20.5t7 11t14.5 4t23.5 0.5q17 0 26.5 -0.5t14.5 -3.5t6.5 -10.5t1.5 -21.5v-411v0z" />
    <glyph glyph-name="V" unicode="V" horiz-adv-x="660" 
d="M59 668h-66v49q10 9 24 17q12 6 28.5 11.5t39.5 5.5q32 0 46 -10t17 -22l163 -622q0 -5 3.5 -4t2.5 4l166 622q7 27 18.5 28t37.5 -9q15 -6 24 -8.5t13.5 -6t4.5 -10.5t-4 -21l-173 -628q-2 -9 -7 -21.5t-16 -26.5q-13 -14 -30 -20t-36 -6h-10q-2 0 -5 0.5t-5 0.5
q-14 2 -26.5 7.5t-22.5 17.5q-11 14 -16 26.5t-7 21.5z" />
    <glyph glyph-name="W" unicode="W" horiz-adv-x="964" 
d="M598 97q0 -5 3.5 -4t2.5 4l166 622q7 27 18.5 28t37.5 -9q15 -6 24 -8.5t13.5 -6t4.5 -10.5t-4 -21l-173 -628q-2 -9 -7 -21.5t-16 -26.5q-13 -14 -30 -20t-36 -6h-10q-2 0 -5 0.5t-5 0.5q-14 2 -26.5 7.5t-22.5 17.5q-11 14 -16 26.5t-7 21.5l-53 196l-54 -196
q-2 -9 -7 -21.5t-16 -26.5q-13 -14 -30 -20t-36 -6h-10q-2 0 -5 0.5t-5 0.5q-14 2 -26.5 7.5t-22.5 17.5q-11 14 -16 26.5t-7 21.5l-162 602h-66v49q10 9 24 17q12 6 28.5 11.5t39.5 5.5q32 0 46 -10t17 -22l161 -620q0 -5 3.5 -4t2.5 4l91 346l-69 249q-4 14 -3.5 21
t5.5 10.5t14.5 6t24.5 8.5q13 5 22 7.5t15.5 1t10.5 -8t8 -19.5z" />
    <glyph glyph-name="X" unicode="X" horiz-adv-x="699" 
d="M324 452l178 285q13 19 24 16t34 -19q10 -7 17.5 -12.5t10.5 -11.5t1 -14.5t-10 -20.5l-203 -311l212 -317h51v-43l-9 -2t-23.5 -4.5t-32.5 -4t-37 0.5q-20 2 -30.5 9.5t-15.5 16.5l-182 271l-184 -285q-8 -11 -13 -14.5t-11 -1t-14.5 9.5t-23.5 17q-12 7 -17 11.5
t-5.5 9t3 11t10.5 18.5l203 320l-199 286h-67v47q9 9 22 16q11 6 27.5 11.5t39.5 5.5q17 0 31 -6t19 -14z" />
    <glyph glyph-name="Y" unicode="Y" horiz-adv-x="630" 
d="M366 366q-4 -6 -7.5 -12.5t-4.5 -11.5q-3 -12 -3.5 -27.5t-0.5 -29.5l1 -250q0 -27 -9.5 -31.5t-35.5 -4.5q-15 0 -24.5 0.5t-15 3t-8 8.5t-2.5 17l-2 255q0 14 -0.5 29t-2.5 28q-1 5 -5 12.5t-8 14.5q-37 66 -87 143t-93 158h-65v49q10 9 24 17q12 6 28.5 11.5t39.5 5.5
q13 0 26.5 -8t21.5 -24q17 -33 40 -69t47 -73t46 -72t39 -66l174 286q6 12 10.5 18t9.5 7t12.5 -2.5t18.5 -10.5q14 -8 23 -12.5t12.5 -9.5t2 -12t-8.5 -19z" />
    <glyph glyph-name="Z" unicode="Z" horiz-adv-x="574" 
d="M41 -1q-27 0 -31.5 12t-4.5 38v18.5t5 10.5l362 576h-307q-14 0 -21 2t-10.5 7t-4 14.5t-0.5 23.5q0 17 0.5 26t3.5 13.5t10.5 5.5t21.5 1h399q27 0 31.5 -15t4.5 -41v-17t-5 -13l-361 -567h331q14 0 21.5 -2.5t10.5 -8.5t3.5 -16.5t0.5 -27.5q0 -14 -0.5 -22t-4 -12
t-11 -5t-20.5 -1h-424v0z" />
    <glyph glyph-name="bracketleft.001" horiz-adv-x="366" 
d="M65 -99q-15 0 -15 14v914q0 15 15 15h209q15 0 15 -15v-54q0 -15 -15 -15h-132v-777h132q15 0 15 -14v-54q0 -14 -15 -14h-209z" />
    <glyph glyph-name="backslash" unicode="\" horiz-adv-x="486" 
d="M-16 723q-5 13 8 18l50 18q14 5 19 -8l261 -722q5 -13 -10 -18l-50 -18q-13 -5 -18 8z" />
    <glyph glyph-name="bracketright.001" horiz-adv-x="366" 
d="M10 -98q-14 0 -14 14v54q0 14 14 14h133v778h-133q-14 0 -14 15v53q0 15 14 15h210q14 0 14 -15v-914q0 -14 -14 -14h-210z" />
    <glyph glyph-name="asciicircum" unicode="^" horiz-adv-x="581" 
d="M435 455q-3 0 -7 3t-6 5v-1l-149 243l-41 -68q-26 -44 -53 -87t-52 -87q-2 -2 -6.5 -5t-6.5 -3h-71q-9 0 -13.5 7t0.5 14l179 299v-1q2 2 5.5 5t6.5 3h105q3 0 7 -3t6 -5v1q45 -74 88.5 -149t88.5 -150q5 -7 0.5 -14t-12.5 -7h-69z" />
    <glyph glyph-name="underscore" unicode="_" horiz-adv-x="631" 
d="M45 -95q-15 0 -15 14v44q0 14 15 14h562q14 0 14 -14v-44q0 -14 -14 -14h-562z" />
    <glyph glyph-name="quoteleft" unicode="&#x2018;" horiz-adv-x="267" 
d="M126 534q-1 -5 -5 -8.5t-9 -3.5h-71q-7 0 -11.5 5.5t-2.5 13.5l68 220q2 4 6.5 7.5t8.5 3.5h52q8 0 12 -5t3 -13z" />
    <glyph glyph-name="a" unicode="a" 
d="M191 -8q-36 5 -60 16q-40 19 -66.5 54t-40.5 83.5t-14 107.5q0 58 17 108t43.5 85t56.5 50t52 20q35 9 76 9q36 0 58.5 -2.5t48.5 -32.5q0 13 1.5 20.5t6 11t13.5 4t23 0.5q17 0 26.5 -0.5t14.5 -3.5t6.5 -10.5t1.5 -21.5v-441h57v-44q-1 0 -26.5 -7.5t-67.5 -4.5
q-28 2 -39.5 14.5t-14.5 25.5q-25 -13 -54 -25q-41 -17 -94 -17q-13 0 -25 1zM208 69q13 -2 39.5 -0.5t60 15.5t54.5 28v323q-24 6 -48 9.5t-61 3.5q-24 0 -41.5 -4.5t-27.5 -10.5q-24 -13 -42.5 -40.5t-27.5 -63.5t-8 -102t29 -113q21 -36 73 -45z" />
    <glyph glyph-name="b" unicode="b" horiz-adv-x="547" 
d="M225 -9q-115 -1 -191 33l-1 722q0 13 1.5 20.5t6 11t13.5 4t23 0.5q17 0 26.5 -0.5t14.5 -3.5t6.5 -10.5t1.5 -21.5v-260q26 14 44 22q41 17 94 17q15 0 38 -3t47 -14q40 -19 66.5 -54t40.5 -83.5t14 -107.5q0 -58 -17 -108t-43.5 -85t-56.5 -50t-52 -20q-35 -9 -76 -9z
M172 432q-23 -9 -46 -24v-329q19 -4 40 -7q24 -4 61 -4q24 0 41.5 4.5t27.5 10.5q24 13 42.5 40.5t27.5 63.5t8 102t-29 113q-21 36 -73 45q-13 2 -39.5 0.5t-60.5 -15.5z" />
    <glyph glyph-name="c" unicode="c" horiz-adv-x="513" 
d="M275 80q32 2 51 6t41 10q14 5 22.5 4.5t14 -5.5t10 -16t10.5 -27q5 -14 5.5 -21t-7 -11.5t-24.5 -8t-45 -10.5q-47 -10 -109 -10t-102 19t-66.5 54t-40.5 83.5t-14 109.5q0 58 17 108t43.5 85t69 57t116.5 20t122 -18l24 -8t13 -7t3 -10t-5 -17q-7 -16 -11.5 -26
t-10 -14.5t-13.5 -4t-22 5.5q-47 17 -97.5 17t-76.5 -14t-40.5 -38t-23.5 -60t-8 -103t27 -111.5t127 -38.5z" />
    <glyph glyph-name="d" unicode="d" horiz-adv-x="591" 
d="M208 -8q-36 5 -60 16q-40 19 -66.5 54t-40.5 83.5t-14 107.5q0 58 17 108t43.5 85t56.5 50t52 20q35 9 76 9q36 0 58.5 -2.5t48.5 -32.5v255q0 13 1.5 20.5t6 11t13.5 4t23 0.5q17 0 26.5 -0.5t14.5 -3.5t6.5 -10.5t1.5 -21.5v-696h57v-44q-1 0 -26.5 -7.5t-67.5 -4.5
q-28 2 -39.5 14.5t-14.5 25.5q-25 -13 -54 -25q-41 -17 -94 -17q-13 0 -25 1zM225 69q13 -2 39.5 -0.5t60 15.5t54.5 28v323q-24 6 -48 9.5t-61 3.5q-24 0 -41.5 -4.5t-27.5 -10.5q-24 -13 -42.5 -40.5t-27.5 -63.5t-8 -102t29 -113q21 -36 73 -45z" />
    <glyph glyph-name="e" unicode="e" horiz-adv-x="546" 
d="M284 73q38 -1 111 16q15 3 23.5 3.5t14 -3t9.5 -12.5t10 -25q5 -14 0.5 -22t-16.5 -13.5t-29 -8.5t-37 -7q-55 -10 -123 -10t-108 19t-66.5 54t-40.5 83.5t-14 110.5q0 58 17 108t43.5 84.5t72.5 57t135 20.5q15 -2 44 -7t59 -27.5t52.5 -68t23.5 -128.5q1 -21 -5 -32
t-14.5 -15t-16 -4.5l-7.5 -0.5h-308v-25q1 -57 29 -104t141 -43zM378 326q-6 69 -37 95t-76 27t-71.5 -14t-45 -42.5t-26.5 -57.5l-2 -8h258z" />
    <glyph glyph-name="f" unicode="f" horiz-adv-x="326" 
d="M31 549q0 54 4.5 96t22.5 73q20 34 53.5 50.5t84.5 18.5q27 2 56 0.5t54 -6.5q17 -2 20 -8t-3 -28q-7 -26 -12.5 -35.5t-19.5 -7.5q-22 0 -43.5 2t-41 0t-36 -9.5t-28.5 -25.5q-15 -23 -16.5 -59.5t-1.5 -71.5v-16h118q27 0 31.5 -11.5t4.5 -34.5q0 -14 -0.5 -22
t-3.5 -12t-10.5 -5t-21.5 -1h-118l-1 -400q0 -14 -1.5 -21t-6.5 -10.5t-14 -4t-23 -0.5q-17 0 -26.5 0.5t-14.5 3.5t-6 10.5t-1 21.5l1 399v114z" />
    <glyph glyph-name="g" unicode="g" horiz-adv-x="567" 
d="M378 33q-28 -16 -52 -25q-41 -17 -94 -17q-13 0 -25 1q-36 5 -60 16q-40 19 -66.5 54t-40.5 83.5t-14 107.5q0 58 17 108t43.5 85t56.5 50t52 20q35 9 76 9q36 0 58 -3q21 -2 49 -30q0 13 1.5 20t6.5 10t13.5 3.5t22.5 0.5q17 0 26.5 -0.5t14.5 -3.5t6.5 -10.5t1.5 -21.5
v-559q-1 -45 -13 -77.5t-33 -54.5t-49 -36q-21 -10 -50.5 -19t-54.5 -11t-41 -2q-48 0 -90 8q-27 6 -42.5 10t-22.5 8.5t-7 11.5t4 19q5 16 9 26t9.5 15t14 5t22.5 -4q21 -6 44 -9.5t63 -2t59 6.5q40 9 61.5 30.5t24.5 66.5zM323 84q30 11 55 28v320q-27 9 -48 12
q-24 4 -61 4q-24 0 -41.5 -4.5t-27.5 -10.5q-24 -13 -42.5 -40.5t-27.5 -63.5t-8 -102t29 -113q21 -36 73 -45q13 -2 39.5 -0.5t59.5 15.5z" />
    <glyph glyph-name="h" unicode="h" horiz-adv-x="600" 
d="M78 0q-18 0 -22.5 6.5t-4.5 29.5v710q0 13 1.5 20.5t6 11t13.5 4t23 0.5q17 0 26.5 -0.5t14.5 -3.5t6.5 -10.5t1.5 -21.5v-258h1q26 29 57 34q32 6 88 8q100 1 145 -33t47 -111v-336h57v-44q-1 0 -26.5 -7.5t-67.5 -4.5q-24 2 -35.5 12t-16 21.5t-4.5 21v9.5v302
q-4 47 -26.5 65.5t-68.5 21.5q-41 2 -77 -3.5t-73 -13.5v-394q0 -23 -5 -29t-22 -7h-39v0z" />
    <glyph glyph-name="i" unicode="i" horiz-adv-x="246" 
d="M147 36q0 -14 -1.5 -21t-6 -10.5t-13.5 -4t-23 -0.5q-17 0 -26.5 0.5t-14.5 3.5t-6 10.5t-1 21.5v411h-58v49q10 9 24 17q12 6 28.5 11.5t39.5 5.5q28 0 41.5 -15t15.5 -29q0 -3 0.5 -7.5t0.5 -9.5v-433zM45 701q0 17 1.5 26t7 13.5t15 5t26.5 0.5q19 0 30.5 -0.5
t17.5 -4.5t7.5 -13t1.5 -27v-20q0 -17 -1.5 -26t-7 -13.5t-15.5 -5t-26 -0.5q-20 0 -31 0.5t-17 4.5t-7.5 13t-1.5 27v20z" />
    <glyph glyph-name="j" unicode="j" horiz-adv-x="250" 
d="M-19 -195q37 2 61 27.5t27 70.5v544h-58v49q10 9 24 17q12 6 28.5 11.5t39.5 5.5q28 0 41.5 -15t15.5 -29q0 -3 0.5 -7.5t0.5 -9.5v-547q-1 -45 -13.5 -82t-43.5 -65.5t-67 -37.5t-56 -9q-27 0 -31.5 6.5t-4.5 29.5q0 14 0.5 22.5t3.5 12.5t10.5 5t21.5 1zM58 701
q0 17 1.5 26t7 13.5t15 5t26.5 0.5q19 0 30.5 -0.5t17.5 -4.5t7.5 -13t1.5 -27v-20q0 -17 -1.5 -26t-7 -13.5t-15.5 -5t-26 -0.5q-20 0 -31 0.5t-17 4.5t-7.5 13t-1.5 27v20z" />
    <glyph glyph-name="l" unicode="l" horiz-adv-x="237" 
d="M137 50h57v-44q-1 0 -26.5 -7.5t-67.5 -4.5q-24 2 -35.5 12t-16 21.5t-4.5 21v9.5v688q0 13 1.5 20.5t6 11t13.5 4t23 0.5q17 0 26.5 -0.5t14.5 -3.5t6.5 -10.5t1.5 -21.5v-696z" />
    <glyph glyph-name="m" unicode="m" horiz-adv-x="910" 
d="M488 36q0 -23 -5 -29t-22 -7h-39q-18 0 -22.5 6.5t-4.5 29.5l1 276v48q-4 47 -26.5 65.5t-68.5 21.5q-41 2 -74 -3.5t-70 -13.5v-394q0 -23 -5 -29t-22 -7h-39q-18 0 -22.5 6.5t-4.5 29.5l1 276v135h-58v49q10 9 24 17q12 6 28.5 11.5t39.5 5.5q28 0 41.5 -15t15.5 -29
l2 2q26 29 57 34q32 6 82 8q59 0 97.5 -11t61.5 -35q30 33 61 38q32 6 111 8q100 1 145 -33t47 -111v-336h57v-44q-1 0 -26.5 -7.5t-67.5 -4.5q-24 2 -35.5 12t-16 21.5t-4.5 21v9.5v302q-4 47 -26.5 65.5t-68.5 21.5q-35 1 -75 -2.5t-75 -10.5q4 -21 6 -48v-350z" />
    <glyph glyph-name="n" unicode="n" horiz-adv-x="604" 
d="M9 447v49q10 9 24 17q12 6 28.5 11.5t39.5 5.5q28 0 41.5 -15t15.5 -29l2 2q26 29 57 34q32 6 85 8q100 1 145 -33t47 -111v-336h57v-44q-1 0 -26.5 -7.5t-67.5 -4.5q-24 2 -35.5 12t-16 21.5t-4.5 21v9.5v302q-4 47 -26.5 65.5t-68.5 21.5q-41 2 -75.5 -3.5t-71.5 -13.5
v-394q0 -23 -5 -29t-22 -7h-39q-18 0 -22.5 6.5t-4.5 29.5l1 276v135h-58z" />
    <glyph glyph-name="o" unicode="o" horiz-adv-x="576" 
d="M246 -7q-29 2 -55 9.5t-47 18.5q-61 33 -90 96t-23 157q4 58 21 106.5t49 82.5t79 51.5t112 13.5q58 -4 99.5 -28t68 -63.5t38 -92.5t9.5 -114q-2 -58 -19 -104t-50 -77t-81 -46t-111 -10zM146 134q31 -52 111 -58q44 -3 74 7t48.5 31t27.5 52t10 70q1 41 -5 77.5
t-21.5 64.5t-41.5 44.5t-65 18.5q-45 2 -75.5 -10.5t-49.5 -36.5t-28 -57.5t-9 -73.5q-2 -79 24 -129z" />
    <glyph glyph-name="p" unicode="p" horiz-adv-x="581" 
d="M120 -268q-17 0 -26.5 0.5t-14.5 3.5t-6.5 10.5t-1.5 21.5v676h-58v49q10 9 24 17q12 6 28.5 11.5t39.5 5.5q28 0 41.5 -15t15.5 -29v-1q29 19 54 30q41 17 94 17q13 0 25 -1q36 -5 60 -16q40 -19 66.5 -54t40.5 -83.5t14 -107.5q0 -58 -17 -108t-43.5 -85t-56.5 -50
t-52 -20q-35 -9 -76 -9q-36 0 -58.5 2.5t-48.5 32.5v-262q0 -14 -1.5 -21t-6 -10.5t-13.5 -4t-23 -0.5zM218 436q-28 -12 -54 -32v-319q24 -6 48 -9.5t61 -3.5q24 0 41.5 4.5t27.5 10.5q24 13 42.5 40.5t27.5 63.5t8 102t-29 113q-21 36 -73 45q-13 2 -39.5 0.5t-60.5 -15.5
z" />
    <glyph glyph-name="q" unicode="q" 
d="M271 528q115 1 191 -33l1 -726q0 -14 -1.5 -21t-6 -10.5t-13.5 -4t-23 -0.5q-17 0 -26.5 0.5t-14.5 3.5t-6.5 10.5t-1.5 21.5v264q-26 -14 -44 -22q-41 -17 -94 -17q-13 0 -25 1q-36 5 -60 16q-40 19 -66.5 54t-40.5 83.5t-14 107.5q0 58 17 108t43.5 85t56.5 50t52 20
q35 9 76 9zM324 87q23 9 46 24v329q-19 4 -40 7q-24 4 -61 4q-24 0 -41.5 -4.5t-27.5 -10.5q-24 -13 -42.5 -40.5t-27.5 -63.5t-8 -102t29 -113q21 -36 73 -45q13 -2 39.5 -0.5t60.5 15.5z" />
    <glyph glyph-name="r" unicode="r" horiz-adv-x="407" 
d="M225 523q12 2 29 3.5t34.5 2t32.5 0t24 -1.5q17 -3 20 -8t-2 -27q-5 -26 -10 -36t-19 -9q-19 3 -42.5 3t-47.5 -2.5t-46.5 -7t-39.5 -10.5v-394q0 -23 -5 -29t-22 -7h-39q-18 0 -22.5 6.5t-4.5 29.5l1 276v135h-58v49q10 9 24 17q12 6 28.5 11.5t39.5 5.5q28 0 41.5 -15
t15.5 -29l2 2q24 27 66 35z" />
    <glyph glyph-name="s" unicode="s" horiz-adv-x="468" 
d="M209 449q-62 4 -88 -19t-20.5 -60.5t45 -46.5t79.5 -17t70 -15t57 -22.5t41 -41.5t14 -73t-8 -75t-30.5 -50.5t-58 -33.5t-105.5 -9q-59 0 -149 24q-28 8 -36 16t0 30q6 16 10.5 25t10 12t14 2t22.5 -4q83 -21 140.5 -22.5t77.5 14.5t23 50t-4.5 48.5t-23.5 23t-60.5 17
t-71.5 12.5q-122 20 -134 108.5t33 137.5t131 48t170 -20l13 -3q14 -5 14.5 -17t-4.5 -30q-3 -11 -5 -17.5t-5 -10.5t-8.5 -4.5t-16.5 2.5q-64 15 -137 21z" />
    <glyph glyph-name="t" unicode="t" horiz-adv-x="341" 
d="M107 244q0 -35 1.5 -71.5t16.5 -59.5q12 -18 24.5 -26t27 -10t31.5 -0.5t39 1.5q14 2 19 -8t13 -35q6 -19 3 -25.5t-20 -10.5q-30 -6 -62.5 -6t-62 7t-53.5 22.5t-39 41.5q-18 31 -23.5 73.5t-3.5 95.5l-1 408q0 14 1 21.5t6 10.5t14.5 3.5t26.5 0.5q14 0 22.5 -0.5
t12.5 -4t5 -11t1 -20.5v-119h135q14 0 21.5 -0.5t10.5 -3.5t3.5 -10t0.5 -21q0 -23 -4.5 -34.5t-31.5 -11.5h-135l1 -197v0z" />
    <glyph glyph-name="u" unicode="u" horiz-adv-x="576" 
d="M520 51v-44q-1 0 -26.5 -7.5t-67.5 -4.5q-26 2 -37.5 13t-15.5 24q-26 -29 -53 -34.5t-71 -7.5q-101 -1 -146 33t-46 111v313h-58v49q10 9 24 17q12 6 28.5 11.5t39.5 5.5q28 0 41.5 -15t15.5 -29q0 -3 0.5 -7.5t0.5 -9.5v-309q4 -47 26.5 -64t68.5 -20q19 -1 34.5 0
t30 3t29 5t32.5 7v396q0 23 5 29t22 7h40q18 0 22.5 -6.5t4.5 -29.5l-1 -178v-258h57z" />
    <glyph glyph-name="v" unicode="v" horiz-adv-x="597" 
d="M57 446h-66v49q10 9 24 17q12 6 28.5 11.5t39.5 5.5q22 0 34 -10t17 -22l154 -414q0 -4 3 -4t3 4l156 417q4 13 7.5 19.5t8.5 8.5t12.5 -0.5l19.5 -6.5q15 -5 24.5 -8t14 -7.5t4 -12t-5.5 -20.5l-152 -403q-6 -13 -12 -25.5t-15 -23.5q-24 -31 -62 -31q-16 0 -31 3
q-23 5 -41 28q-7 10 -12 21l-10 22z" />
    <glyph glyph-name="w" unicode="w" horiz-adv-x="892" 
d="M675 70q-6 -13 -12 -25.5t-15 -23.5q-24 -31 -62 -31q-16 0 -31 3q-23 5 -41 28q-7 10 -12 21l-10 22q-5 10 -9.5 21t-10.5 26t-14 36.5t-20 51.5l-48 -129q-6 -13 -12 -25.5t-15 -23.5q-24 -31 -62 -31q-16 0 -31 3q-23 5 -41 28q-7 10 -12 21l-10 22q-5 10 -11.5 25.5
t-20.5 54t-39.5 109.5t-68.5 193h-66v49q10 9 24 17q12 6 28.5 11.5t39.5 5.5q22 0 34 -10t17 -22l151 -415q0 -4 3 -4t3 4l97 226l-60 165q-5 13 -5.5 20.5t4 12t14 7.5t24.5 8q12 4 20 6.5t13 0.5t9 -8.5t8 -19.5l155 -418q0 -4 3 -4t3 4l156 418q4 13 7.5 19.5t8.5 8.5
t12.5 -0.5l19.5 -6.5q15 -5 24.5 -8t14 -7.5t4 -12t-5.5 -20.5z" />
    <glyph glyph-name="x" unicode="x" horiz-adv-x="544" 
d="M254 328l128 178q8 11 14 16t11.5 5t13 -4.5t18.5 -12.5q12 -9 19 -14t8 -9.5t-3 -11t-13 -18.5l-146 -202l139 -206h51v-43l-8.5 -2.5t-22 -4.5t-31.5 -4t-37 0q-20 2 -30.5 9.5t-15.5 16.5l-126 186l-143 -199q-9 -11 -14 -16.5t-10 -5t-12.5 5.5t-21.5 15
q-12 9 -17.5 13.5t-6 9t3 10.5t11.5 17l161 222l-114 171h-67v47q8 9 19 16q10 6 25 11t38 5q17 0 34 -6t22 -14z" />
    <glyph glyph-name="y" unicode="y" horiz-adv-x="555" 
d="M455 86v-165q-1 -45 -13 -77.5t-33 -54.5t-49 -36q-21 -10 -50.5 -19t-54.5 -11t-41 -2q-48 0 -90 8q-27 6 -42.5 10t-22.5 8.5t-7 11.5t4 19q5 16 9 26t9.5 15t14 5t22.5 -4q21 -6 44 -9.5t63 -2t59 6.5q40 9 61.5 30.5t24.5 66.5l-1 117q-25 -27 -50 -31q-27 -6 -71 -8
q-101 -1 -146 33t-46 111v313h-58v49q10 9 24 17q12 6 28.5 11.5t39.5 5.5q28 0 41.5 -15t15.5 -29q0 -3 0.5 -7.5t0.5 -9.5v-309q4 -47 26.5 -64t68.5 -20q19 -1 34.5 0t30 3t29 5t32.5 7v396q0 23 5 29t22 7h40q18 0 22.5 -6.5t4.5 -29.5z" />
    <glyph glyph-name="z" unicode="z" horiz-adv-x="490" 
d="M46 -1q-27 0 -31.5 12t-4.5 38v18.5t5 10.5l287 361h-246q-14 0 -21 1t-10.5 5t-4 12t-0.5 22q0 17 0.5 26t3.5 13.5t10.5 5.5t21.5 1h329q27 0 31.5 -15t4.5 -41v-17t-5 -13l-285 -354h253q14 0 21.5 -1t10.5 -5.5t3.5 -13.5t0.5 -26q0 -14 -0.5 -22t-4 -12t-11 -5
t-20.5 -1h-338v0z" />
    <glyph glyph-name="braceleft" unicode="{" horiz-adv-x="442" 
d="M257 -201q-54 0 -87 10t-51 29t-24 46t-6 61v174q0 23 -2.5 39.5t-9.5 29.5t-19 24.5t-30 24.5h1q-3 1 -5 5t-2 6v46q0 2 2 6t5 6h-1q18 13 30 24t19 24t9.5 29.5t2.5 39.5v175q0 34 6 61t24 45.5t51 28.5t87 10h52q14 0 14 -15v-53q0 -15 -14 -15h-52q-26 0 -41.5 -3.5
t-23 -11t-9.5 -19t-2 -28.5v-175q0 -55 -13 -89.5t-50 -62.5q34 -28 48.5 -64t14.5 -88v-174q0 -18 2 -30t9.5 -19.5t23 -11t41.5 -3.5h53q14 0 14 -14v-54q0 -14 -14 -14h-53z" />
    <glyph glyph-name="bar" unicode="|" horiz-adv-x="259" 
d="M61 -201q-14 0 -14 14v915q0 15 14 15h63q14 0 14 -15v-915q0 -14 -14 -14h-63z" />
    <glyph glyph-name="braceright" unicode="}" horiz-adv-x="442" 
d="M291 237q-19 -13 -31 -24.5t-19 -24.5t-9.5 -29.5t-2.5 -39.5v-174q0 -34 -6 -61t-24 -46t-50.5 -29t-86.5 -10h-53q-15 0 -15 14v54q0 14 15 14h53q26 0 41 3.5t23 11t10 19.5t2 30v174q0 52 14.5 88t47.5 64q-36 29 -49 63t-13 89v175q0 17 -2 28.5t-10 19t-23 11
t-41 3.5h-52q-15 0 -15 15v53q0 15 15 15h52q54 0 86.5 -10t50.5 -28.5t24 -45.5t6 -61v-175q0 -23 2.5 -39.5t9.5 -29.5t19 -24t31 -24h-1q3 -2 4.5 -6t1.5 -6v-48z" />
    <glyph glyph-name="asciitilde" unicode="~" horiz-adv-x="471" 
d="M367 415q0 -2 -1 -6t-3 -6q-13 -12 -27 -21q-12 -8 -27.5 -14.5t-32.5 -6.5q-20 0 -42 6.5t-42 15.5h1q-17 5 -31 10.5t-25 5.5q-9 0 -19.5 -5.5t-20.5 -11.5q-11 -8 -23 -17q-8 -5 -15 -2t-9 12l-6 42q0 2 1.5 6.5t3.5 6.5q13 11 28 21q13 8 29 15t33 7q20 0 42 -7
t42 -15q17 -7 30.5 -11.5t23.5 -4.5q8 0 19 5t20 11q11 7 21 16q8 6 15 3.5t9 -11.5z" />
    <glyph glyph-name="exclamdown.001" horiz-adv-x="280" 
d="M55 391l9 161q1 5 5.5 9.5t9.5 4.5h47q6 0 10 -4.5t5 -9.5l9 -161v-387q0 -15 -14 -15h-67q-14 0 -14 15v387zM156 689q0 -17 -1.5 -26t-7 -13.5t-15.5 -5t-26 -0.5q-20 0 -31 0.5t-17 4.5t-7.5 13t-1.5 27v20q0 17 1.5 26t7 13.5t15 5t26.5 0.5q19 0 30.5 -0.5
t17.5 -4.5t7.5 -13t1.5 -27v-20z" />
    <glyph glyph-name="sterling" unicode="&#xa3;" horiz-adv-x="631" 
d="M226 368v-169q0 -37 -6.5 -59.5t-24.5 -49.5h310q27 0 31.5 -8.5t4.5 -31.5q0 -14 -0.5 -23.5t-3.5 -15.5t-10.5 -8.5t-21.5 -2.5h-417q-9 0 -9 10v54q29 32 39 66t10 69v170h-70q-14 2 -16 14v2q2 15 16 15h70v102q0 63 9 109.5t33.5 77.5t67 46.5t110.5 16.5h8
q22 0 59.5 -2.5t72.5 -11.5q21 -6 34 -10.5t19 -10t5 -14.5t-8 -25q-6 -13 -8.5 -20.5t-8 -10.5t-16 -2t-31.5 5q-74 16 -123 16q-44 0 -69 -8t-37.5 -27t-15.5 -50t-3 -79v-103h132q15 0 15 -15l-1 -3q2 -13 -14 -13h-132z" />
    <glyph glyph-name="fraction" unicode="&#x2044;" horiz-adv-x="100" 
d="M-168 1q-5 -13 -18 -8l-50 18q-15 5 -10 18l261 722q5 13 19 8l50 -18q13 -5 8 -18z" />
    <glyph glyph-name="florin" unicode="&#x192;" horiz-adv-x="576" 
d="M406 665q-1 -5 -6 -9t-10 -4l-38 4t-33 2q-20 0 -34 -2t-23.5 -10.5t-16 -25t-9.5 -44.5l-20 -150h151q7 0 12 -4t3 -12q-2 -12 -4 -25.5t-4 -26.5q-2 -5 -5.5 -8.5t-8.5 -3.5h-157l-43 -325q-6 -45 -20 -75.5t-34.5 -49t-48 -26.5t-61.5 -8q-24 0 -48.5 2t-41.5 7
q-5 2 -9.5 6.5t-2.5 9.5l7 54q1 5 5.5 8.5t9.5 3.5q17 -2 36.5 -4t36.5 -2q18 0 31.5 2t23.5 10t16.5 24t9.5 45l43 318h-132q-6 0 -11 4.5t-3 11.5q2 13 4 26.5t3 25.5q2 12 15 12h137q2 15 4 33t4 33l11 91q7 47 20.5 78t33.5 49t48 25.5t65 7.5q22 0 46.5 -2t41.5 -7
q5 -2 9 -6.5t2 -9.5z" />
    <glyph glyph-name="quotesingle" unicode="'" horiz-adv-x="174" 
d="M81 556q-4 -13 -15 -13h-48q-14 0 -14 16l13 180q0 6 4.5 10t10.5 4h63q7 0 12 -5t3 -12z" />
    <glyph glyph-name="quotedblleft" unicode="&#x201c;" horiz-adv-x="474" 
d="M300 534q-1 -5 -5 -8.5t-9 -3.5h-71q-7 0 -11.5 5.5t-2.5 13.5l68 220q2 4 6.5 7.5t8.5 3.5h52q8 0 12 -5t3 -13zM129 534q-1 -5 -5 -8.5t-9 -3.5h-71q-7 0 -11.5 5.5t-2.5 13.5l68 220q2 4 6.5 7.5t8.5 3.5h52q8 0 12 -5t3 -13z" />
    <glyph glyph-name="guillemotleft" unicode="&#xab;" horiz-adv-x="687" 
d="M53 279v-1q-4 4 -4 10t4 10v-1q38 50 76.5 99t76.5 99v-1q1 2 5 4.5t6 2.5h75q11 0 14.5 -7.5t-2.5 -15.5l-143 -190l143 -189q6 -8 2.5 -16t-14.5 -8h-75q-2 0 -6 2t-5 5v-1zM460 495v-1q1 2 5 4.5t6 2.5h75q11 0 14.5 -7.5t-2.5 -15.5l-145 -190q14 -20 29.5 -40
t31.5 -40q21 -27 42.5 -54.5t41.5 -54.5q6 -8 2.5 -16t-14.5 -8h-75q-2 0 -6 2t-5 5v-1l-155 198v-1q-4 4 -4 10t4 10v-1z" />
    <glyph glyph-name="guilsinglright" unicode="&#x203a;" horiz-adv-x="429" 
d="M158 81v1q-2 -3 -6 -5t-6 -2h-75q-10 0 -13.5 8t2.5 16l145 189q-36 48 -73 95t-72 95q-6 8 -2.5 15.5t13.5 7.5h75q2 0 6 -2.5t6 -4.5v1l154 -198v1q4 -4 4 -10t-4 -10v1z" />
    <glyph glyph-name="endash.001" horiz-adv-x="477" 
d="M33 336q-14 0 -14 14v55q0 15 14 15h342q15 0 15 -15v-55q0 -14 -15 -14h-342z" />
    <glyph glyph-name="dagger" unicode="&#x2020;" horiz-adv-x="512" 
d="M244 476v-577q0 -14 -15 -14h-62q-15 0 -15 14v577h-112q-15 0 -15 14v56q0 14 15 14h112v198q0 14 15 14h62q15 0 15 -14v-198h123q15 0 15 -14v-56q0 -14 -15 -14h-123z" />
    <glyph glyph-name="daggerdbl" unicode="&#x2021;" horiz-adv-x="512" 
d="M245 266v-367q0 -14 -15 -14h-62q-15 0 -15 14v367h-114q-14 0 -14 15v55q0 15 14 15h114v121h-114q-14 0 -14 14v56q0 15 14 15h114v198q0 14 15 14h62q15 0 15 -14v-198h125q15 0 15 -15v-56q0 -14 -15 -14h-125v-121h125q15 0 15 -15v-55q0 -15 -15 -15h-125z" />
    <glyph glyph-name="periodcentered" unicode="&#xb7;" horiz-adv-x="367" 
d="M78 379q0 16 1.5 25t7 13.5t15 5t24.5 0.5q19 0 30.5 -0.5t17 -4.5t7 -13t1.5 -26v-18q0 -17 -1.5 -25.5t-7 -13t-15 -5t-25.5 -0.5q-19 0 -30 0.5t-16.5 4.5t-7 13t-1.5 26v18v0z" />
    <glyph glyph-name="paragraph" unicode="&#xb6;" horiz-adv-x="613" 
d="M486 -186q-15 0 -15 14v832h-61v-832q0 -14 -14 -14h-62q-15 0 -15 14v432h-40q-69 0 -117 10t-79 37t-45 73.5t-14 119.5v2q0 76 14 123.5t45.5 74t80.5 35.5t120 9h260q15 0 15 -15v-901q0 -14 -15 -14h-58z" />
    <glyph glyph-name="bullet" unicode="&#x2022;" horiz-adv-x="525" 
d="M403 369q0 -29 -11 -54.5t-30 -45t-45 -30.5t-55 -11t-54.5 11t-45 30.5t-31 45t-11.5 54.5q0 30 11.5 55.5t31 44.5t45 30t54.5 11t55 -11t45 -30t30 -44.5t11 -55.5z" />
    <glyph glyph-name="quotesinglbase" unicode="&#x201a;" horiz-adv-x="267" 
d="M79 146q1 5 5 8.5t9 3.5h71q7 0 11.5 -5.5t2.5 -13.5l-68 -220q-2 -4 -6.5 -7.5t-8.5 -3.5h-52q-8 0 -12 5t-3 13z" />
    <glyph glyph-name="quotedblbase" unicode="&#x201e;" horiz-adv-x="474" 
d="M82 146q1 5 5 8.5t9 3.5h71q7 0 11.5 -5.5t2.5 -13.5l-68 -220q-2 -4 -6.5 -7.5t-8.5 -3.5h-52q-8 0 -12 5t-3 13zM253 146q1 5 5 8.5t9 3.5h71q7 0 11.5 -5.5t2.5 -13.5l-68 -220q-2 -4 -6.5 -7.5t-8.5 -3.5h-52q-8 0 -12 5t-3 13z" />
    <glyph glyph-name="quotedblright" unicode="&#x201d;" horiz-adv-x="474" 
d="M82 760q1 5 5 8.5t9 3.5h71q7 0 11.5 -5.5t2.5 -13.5l-68 -220q-2 -4 -6.5 -7.5t-8.5 -3.5h-52q-8 0 -12 5t-3 13zM253 760q1 5 5 8.5t9 3.5h71q7 0 11.5 -5.5t2.5 -13.5l-68 -220q-2 -4 -6.5 -7.5t-8.5 -3.5h-52q-8 0 -12 5t-3 13z" />
    <glyph glyph-name="guillemotright" unicode="&#xbb;" horiz-adv-x="687" 
d="M415 81v1q-4 -7 -11 -7h-75q-11 0 -14.5 8t2.5 16l143 189q-12 16 -23.5 31.5t-22.5 29.5q-25 33 -48.5 65t-48.5 64q-6 8 -2.5 15.5t14.5 7.5h75q2 0 5.5 -2.5t5.5 -4.5v1q38 -50 76.5 -99t76.5 -99v1q4 -4 4 -10t-4 -10v1zM316 297v1q4 -4 4 -10t-4 -10v1l-155 -198v1
q-2 -3 -6 -5t-6 -2h-74q-11 0 -14.5 8t2.5 16l145 189q-35 48 -72 95t-73 95q-6 8 -2.5 15.5t14.5 7.5h74q2 0 6 -2.5t6 -4.5v1z" />
    <glyph glyph-name="ellipsis" unicode="&#x2026;" horiz-adv-x="873" 
d="M42 65q0 17 1.5 26t7 13.5t15 5t26.5 0.5q19 0 30.5 -0.5t17.5 -4.5t7.5 -13t1.5 -27v-20q0 -17 -1.5 -26t-7 -13.5t-15.5 -5t-26 -0.5q-20 0 -31 0.5t-17 4.5t-7.5 13t-1.5 27v20zM311 65q0 17 1.5 26t7 13.5t15 5t26.5 0.5q19 0 30.5 -0.5t17.5 -4.5t7.5 -13t1.5 -27
v-20q0 -17 -1.5 -26t-7 -13.5t-15.5 -5t-26 -0.5q-20 0 -31 0.5t-17 4.5t-7.5 13t-1.5 27v20zM590 65q0 17 1.5 26t7 13.5t15 5t26.5 0.5q19 0 30.5 -0.5t17.5 -4.5t7.5 -13t1.5 -27v-20q0 -17 -1.5 -26t-7 -13.5t-15.5 -5t-26 -0.5q-20 0 -31 0.5t-17 4.5t-7.5 13t-1.5 27
v20z" />
    <glyph glyph-name="perthousand.001" horiz-adv-x="1397" 
d="M200 274q-82 0 -120 37t-39 122v162q0 85 37.5 123t121.5 38h5q81 0 118 -38t37 -123v-162q-1 -83 -38 -121t-117 -38h-5zM711 2q-82 0 -120 37t-39 122v162q0 85 37.5 123t121.5 38h4q81 0 118.5 -38t37.5 -123v-162q-1 -83 -38 -121t-118 -38h-4zM1094 2q-82 0 -120 37
t-39 122v162q0 85 37.5 123t121.5 38h4q81 0 118.5 -38t37.5 -123v-162q-1 -83 -38 -121t-118 -38h-4zM235 7l-4.5 -4.5t-6.5 -2.5h-3q-8 0 -11 7.5t0 15.5q112 177 227.5 356.5t227.5 356.5q1 2 4 4.5t8 2.5h2q8 0 12 -7.5t0 -15.5zM714 85q69 0 69 74v172l-135 -211
q15 -35 64 -35h2zM203 357q69 0 69 74v168l-133 -210q15 -32 62 -32h2zM1097 85q69 0 69 74v167l-133 -209q15 -32 62 -32h2zM131 435l132 208q-15 31 -62 31q-70 0 -70 -75v-164zM1025 163l132 208q-15 31 -62 31q-70 0 -70 -75v-164zM642 167l131 206q-16 29 -61 29
q-70 0 -70 -75v-160z" />
    <glyph glyph-name="questiondown.001" horiz-adv-x="494" 
d="M43 163q0 32 10.5 59t26 50t35 42t37.5 36q23 20 41.5 41.5t18.5 41.5v116q0 10 6 15.5t15 5.5h55q21 0 21 -21v-119q0 -24 -7.5 -44t-20 -37.5t-28.5 -33t-33 -30.5q-31 -26 -55.5 -54t-24.5 -66q0 -43 26 -59t80 -16q14 0 36 3t44 8q26 4 53 11q9 2 17 -2.5t10 -12.5
l6 -54v1q2 -10 -3.5 -16.5t-13.5 -8.5q-5 -1 -22.5 -5t-40 -8t-46.5 -7t-42 -3q-49 0 -86.5 8.5t-63 28t-38.5 51.5t-13 79zM318 682q0 -17 -1.5 -26t-7 -13.5t-15.5 -5t-26 -0.5q-20 0 -31 0.5t-17 4.5t-7.5 13t-1.5 27v20q0 17 1.5 26t7 13.5t15 5t26.5 0.5
q19 0 30.5 -0.5t17.5 -4.5t7.5 -13t1.5 -27v-20z" />
    <glyph glyph-name="grave" unicode="`" horiz-adv-x="415" 
d="M275 611q-5 -9 -14 -4l-185 101q-8 6 -3 14l34 61q5 8 14 3l176 -119q6 -4 2 -12z" />
    <glyph glyph-name="acute" unicode="&#xb4;" horiz-adv-x="404" 
d="M59 655q-4 8 2 12l176 119q9 5 14 -3l34 -61q5 -8 -3 -14l-185 -101q-9 -5 -14 4z" />
    <glyph glyph-name="circumflex" unicode="&#x2c6;" horiz-adv-x="525" 
d="M381 613q-4 0 -7 3v-1l-103 108l-103 -108v1q-3 -3 -7 -3h-65q-7 0 -9.5 5.5t2.5 10.5l134 149q4 4 7 4h82q3 0 7 -4l134 -149q5 -5 2.5 -10.5t-9.5 -5.5h-65z" />
    <glyph glyph-name="tilde" unicode="&#x2dc;" horiz-adv-x="416" 
d="M363 721q0 -4 -1.5 -9t-3.5 -7q-12 -12 -27 -22q-13 -8 -29.5 -14.5t-33.5 -6.5q-22 0 -43 6.5t-41 15.5l-18 6q-11 4 -20.5 7t-14.5 3q-8 0 -18.5 -5.5t-19.5 -11.5q-11 -7 -22 -16q-10 -8 -19.5 -3.5t-11.5 16.5l-6 41q0 3 2 9.5t5 8.5q13 12 28 22q13 8 29.5 15
t34.5 7q20 0 42 -7t42 -15q17 -7 30.5 -11.5t21.5 -4.5t18 4.5t18 10.5q10 7 20 16q10 7 20 4t12 -15z" />
    <glyph glyph-name="macron" unicode="&#xaf;" horiz-adv-x="525" 
d="M84 638q-15 0 -15 14v51q0 14 15 14h329q14 0 14 -14v-51q0 -14 -14 -14h-329z" />
    <glyph glyph-name="breve" unicode="&#x2d8;" horiz-adv-x="525" 
d="M140 770q5 0 9.5 -4t5.5 -8q5 -47 25 -71t70 -24q47 0 66.5 25t25.5 70q1 5 5 8.5t10 3.5h48q7 0 10.5 -5t3.5 -10q-2 -35 -11.5 -64.5t-29 -52t-51 -35t-79.5 -12.5q-47 0 -79 12.5t-51.5 35t-28.5 52t-11 64.5q0 5 3.5 10t10.5 5h48v0z" />
    <glyph glyph-name="dotaccent" unicode="&#x2d9;" horiz-adv-x="525" 
d="M149 743q0 17 1.5 26t7 13.5t15 5t26.5 0.5q19 0 30.5 -0.5t17.5 -4.5t7.5 -13t1.5 -27v-20q0 -17 -1.5 -26t-7 -13.5t-15.5 -5t-26 -0.5q-20 0 -31 0.5t-17 4.5t-7.5 13t-1.5 27v20v0z" />
    <glyph glyph-name="dieresis" unicode="&#xa8;" horiz-adv-x="422" 
d="M64 713q0 17 1.5 26t7 13.5t15 5t26.5 0.5q19 0 30.5 -0.5t17.5 -4.5t7.5 -13t1.5 -27v-20q0 -17 -1.5 -26t-7 -13.5t-15.5 -5t-26 -0.5q-20 0 -31 0.5t-17 4.5t-7.5 13t-1.5 27v20zM250 713q0 17 1.5 26t7 13.5t15 5t26.5 0.5q19 0 30.5 -0.5t17.5 -4.5t7.5 -13t1.5 -27
v-20q0 -17 -1.5 -26t-7 -13.5t-15.5 -5t-26 -0.5q-20 0 -31 0.5t-17 4.5t-7.5 13t-1.5 27v20z" />
    <glyph glyph-name="ring" unicode="&#x2da;" horiz-adv-x="416" 
d="M314 702q0 -54 -30.5 -79t-78.5 -25t-79.5 25t-31.5 79t31.5 79t79.5 25t78.5 -25t30.5 -79zM257 701q0 28 -16 39t-36 11q-21 0 -36.5 -11t-15.5 -39q0 -29 15.5 -39.5t36.5 -10.5q20 0 36 10.5t16 39.5z" />
    <glyph glyph-name="cedilla" unicode="&#xb8;" horiz-adv-x="525" 
d="M202 -197q-1 -1 -4.5 -2.5t-5.5 -1.5h-67q-9 0 -13.5 8t2.5 15l116 136q1 1 5.5 3t6.5 2h79q10 0 13.5 -7.5t-3.5 -15.5z" />
    <glyph glyph-name="hungarumlaut" unicode="&#x2dd;" horiz-adv-x="543" 
d="M291 594q-1 -1 -5 -2.5t-6 -1.5h-69q-9 0 -13 8.5t3 16.5l131 149q5 2 6.5 2.5t2.5 0.5h81q10 0 13.5 -8t-3.5 -16zM241 767q11 0 14.5 -8t-3.5 -16l-141 -149q-1 -1 -5 -2.5t-6 -1.5h-70q-10 0 -14 8.5t3 16.5l131 149q5 2 6.5 2.5t2.5 0.5h82z" />
    <glyph glyph-name="ogonek" unicode="&#x2db;" horiz-adv-x="525" 
d="M345 -198h2q-9 -3 -33.5 -6.5t-53.5 -3.5q-68 0 -99 28t-31 76q0 44 40.5 79.5t101.5 61.5l72 -8q11 -2 12.5 -12.5t-8.5 -15.5q-39 -17 -64.5 -31t-41.5 -26t-22.5 -23t-6.5 -22q0 -17 12 -27t41 -10q14 0 27.5 1t27.5 3l21 2q15 0 15 -15v-44q0 -3 -4 -5z" />
    <glyph glyph-name="caron" unicode="&#x2c7;" horiz-adv-x="525" 
d="M119 782q6 0 11 -5l96 -102l48 49v-1l51 54q5 5 11 5h64q11 0 14.5 -8t-3.5 -16l-132 -149q-1 -1 -5 -2.5t-6 -1.5h-81q-3 0 -6.5 1.5t-4.5 2.5l-132 149q-7 8 -3.5 16t14.5 8h64z" />
    <glyph glyph-name="emdash.001" horiz-adv-x="643" 
d="M51 336q-14 0 -14 14v55q0 15 14 15h476q15 0 15 -15v-55q0 -14 -15 -14h-476z" />
    <glyph glyph-name="logicalnot" unicode="&#xac;" horiz-adv-x="745" 
d="M490 242q-15 0 -15 15v202h-361q-14 0 -14 14v53q0 15 14 15h430q14 0 14 -15v-269q0 -15 -14 -15h-54z" />
    <glyph glyph-name="plusminus" unicode="&#xb1;" horiz-adv-x="703" 
d="M85 0q-10 0 -10 10v53q0 10 10 10h479q10 0 10 -10v-53q0 -10 -10 -10h-479zM362 374v-207q0 -10 -9 -10h-54q-10 0 -10 10v207h-208q-10 0 -10 10v53q0 10 10 10h208v207q0 10 10 10h54q9 0 9 -10v-207h207q10 0 10 -10v-53q0 -10 -10 -10h-207z" />
    <glyph glyph-name="divide" unicode="&#xf7;" horiz-adv-x="703" 
d="M286 105q-14 0 -14 14v127q0 15 14 15h65q14 0 14 -15v-127q0 -14 -14 -14h-65zM566 363q0 -14 -14 -14h-466q-15 0 -15 14v53q0 15 15 15h466q14 0 14 -15v-53zM286 509q-14 0 -14 15v125q0 15 14 15h65q14 0 14 -15v-125q0 -15 -14 -15h-65z" />
    <glyph glyph-name="degree" unicode="&#xb0;" horiz-adv-x="376" 
d="M387 573q0 -38 -14 -71t-38.5 -57t-57.5 -38t-71 -14t-71 14t-57.5 38t-38.5 57t-14 71t14 71t38.5 57.5t57.5 38.5t71 14t71 -14t57.5 -38.5t38.5 -57.5t14 -71zM304 573q0 45 -28.5 72.5t-69.5 27.5t-70 -27.5t-29 -72.5q0 -44 29 -71.5t70 -27.5t69.5 27.5t28.5 71.5z
" />
    <glyph glyph-name="registered" unicode="&#xae;" horiz-adv-x="645" 
d="M574 470q0 -60 -18.5 -110t-52.5 -86t-82 -56t-106 -20q-59 0 -106.5 20t-81.5 56t-52.5 86t-18.5 110q0 61 18.5 111.5t52.5 86.5t81.5 55.5t106.5 19.5q58 0 106 -19.5t82 -55.5t52.5 -86.5t18.5 -111.5zM548 472q0 55 -17 100t-47.5 77t-73 50t-94.5 18
q-53 0 -95.5 -18t-73.5 -50t-47.5 -77t-16.5 -100q0 -54 16.5 -99t47.5 -77t73.5 -50t95.5 -18q52 0 94.5 18t73 50t47.5 77t17 99zM436 519q0 -29 -12.5 -50t-34.5 -32l8 -17q10 -25 16.5 -41t9.5 -21h27v-42q-8 -3 -16 -5t-16.5 -3.5t-17.5 -0.5q-11 1 -22 6t-14 13
q-2 5 -6.5 16t-10.5 25t-13 29.5t-13 30.5q-34 2 -43 3h-1v-93q0 -21 -5.5 -24.5t-28.5 -3.5q-21 0 -27 3.5t-6 24.5v247q-19 5 -22 16v37h146q102 0 102 -95v-23zM330 492q37 0 37 33v14q0 34 -37 34h-53v-78q16 -3 32 -3h21z" />
    <glyph glyph-name="copyright" unicode="&#xa9;" horiz-adv-x="906" 
d="M395 236q27 1 51.5 4.5t52.5 11.5q11 4 17.5 6t11.5 -0.5t9.5 -9.5t10.5 -22q6 -18 6.5 -29t-7 -18t-24.5 -11.5t-45 -10.5q-34 -7 -65 -7q-48 -1 -81.5 15t-54.5 46t-31.5 71.5t-12.5 92.5q0 36 8 69t23 60.5t35.5 48.5t44.5 34q36 18 79 18q21 0 43.5 -4t46.5 -12
q16 -5 25.5 -9t13.5 -9.5t3 -14.5t-6 -24q-8 -15 -13 -23.5t-11.5 -11t-15 -1t-22.5 6.5q-42 13 -67 13q-18 0 -35 -7q-20 -9 -33.5 -32t-19.5 -47q-3 -12 -5 -31.5t-2 -44.5q2 -49 20 -84q9 -15 20.5 -24.5t29.5 -9.5zM773 377q0 -87 -26.5 -154.5t-73 -114t-111 -70.5
t-140.5 -24t-140.5 24t-111.5 70.5t-73.5 114t-26.5 154.5q0 86 26.5 153.5t73.5 114t111.5 71t140.5 24.5t140.5 -24.5t111 -71t73 -114t26.5 -153.5zM736 377q0 78 -23 139.5t-65 104.5t-99.5 65.5t-126.5 22.5t-126.5 -22.5t-99 -65.5t-64.5 -104.5t-23 -139.5t23 -140
t64.5 -105t99 -65.5t126.5 -22.5t126.5 22.5t99.5 65.5t65 105t23 140z" />
    <glyph glyph-name="zero.oldstyle" horiz-adv-x="439" 
d="M215 -7q-89 0 -130 41t-42 131v195q0 91 40.5 132.5t131.5 41.5h12q89 0 129 -41.5t40 -132.5v-195q-1 -90 -41 -131t-128 -41h-12zM224 81q87 0 87 91v175q0 93 -87 93h-8q-86 0 -86 -93v-175q0 -91 86 -91h8z" />
    <glyph glyph-name="one.oldstyle" horiz-adv-x="344" 
d="M143 519q8 4 15 4.5t18 0.5h6q25 0 31.5 -4.5t6.5 -30.5v-410h53q28 0 32.5 -7.5t4.5 -29.5q0 -13 -0.5 -21t-4 -12.5t-11 -6.5t-21.5 -2h-192q-14 0 -21.5 2t-10.5 6.5t-3.5 12.5t-0.5 21q0 22 4.5 29.5t31.5 7.5h52v334l-34 -20q-12 -6 -19.5 -8t-12.5 0t-10 9t-11 19
l-3 6q-6 11 -9 17.5t-2 11.5t6.5 9.5t16.5 11.5l88 50v0z" />
    <glyph glyph-name="two.oldstyle" horiz-adv-x="439" 
d="M106 0q-17 0 -26.5 1.5t-14.5 6t-6.5 14t-1.5 24.5v30q0 37 4 64.5t12 47t20.5 33.5t31.5 26q20 14 46 28t68 34q28 11 43 23t15 28v30q0 35 -17 44t-56 9h-20q-12 0 -21 -1t-16.5 -2.5t-15.5 -3.5t-18 -4q-29 -8 -38 -4t-14 18l-2 8q-6 25 0.5 38t37.5 21q14 4 26 6.5
t25 4.5t27.5 3t34.5 2q84 3 119 -30.5t35 -112.5v-27q0 -26 -5.5 -44.5t-18 -33t-32.5 -26.5t-48 -24q-29 -13 -57.5 -26.5t-45.5 -24.5q-17 -12 -22.5 -34t-6.5 -62h209q27 0 31.5 -8t4.5 -31q0 -13 -0.5 -21.5t-3.5 -14t-10.5 -7.5t-21.5 -2h-251v0z" />
    <glyph glyph-name="three.oldstyle" horiz-adv-x="512" 
d="M36 -128q1 8 8.5 13.5t16.5 3.5q35 -9 77 -12.5t74 -3.5q88 0 123 28t35 85v44q0 28 -12.5 46.5t-33 30t-47.5 16.5t-56 5h-114q-19 0 -19 19v52q0 19 19 19h126q55 0 87 29t32 70v31q0 50 -34 72t-90 22q-36 0 -79 -5t-78 -12q-15 -4 -18.5 3.5t-4.5 13.5l-9 47
q-1 6 1 12t11 8q37 10 83 17t92 7q119 0 171.5 -46.5t52.5 -133.5v-38q0 -44 -13.5 -77t-52.5 -55q35 -22 59 -60t24 -85v-57q0 -103 -60.5 -151t-196.5 -48q-38 0 -81 3.5t-86 14.5q-10 2 -14 6.5t-2 15.5z" />
    <glyph glyph-name="four.oldstyle" horiz-adv-x="610" 
d="M530 84q14 0 21.5 -0.5t10.5 -4t3.5 -11.5t0.5 -23q0 -29 -4.5 -39.5t-31.5 -10.5h-63v-183q0 -14 -1.5 -21.5t-6.5 -10.5t-14.5 -3.5t-26.5 -0.5q-14 0 -23.5 0.5t-14.5 4t-7 10.5t-2 21v183h-299q-14 0 -24 10t-10 24q0 6 2 10.5t6 11.5l267 460q4 7 7 9.5t15 2.5h113
q19 0 19 -19v-420h63zM371 83v355l-200 -355h200z" />
    <glyph glyph-name="five.oldstyle" horiz-adv-x="549" 
d="M154 242q25 4 44 6t46 2q51 0 98 -10t82.5 -35t57 -68.5t21.5 -109.5q0 -129 -66 -192.5t-181 -63.5q-38 0 -76 4.5t-68 9.5q-36 6 -68 14q-11 2 -13 8.5t0 10.5l9 57q0 5 3.5 11t14.5 6q32 -8 65 -14q29 -5 63 -9.5t68 -4.5q67 0 110.5 41t43.5 119q0 38 -13.5 64
t-36.5 41.5t-53 22t-64 6.5q-17 0 -33 -1.5t-34 -3.5t-39 -5t-48 -7l-17 -2q-9 0 -13 5t-4 12l18 350q0 17 11 17h372q18 0 18 -17v-56q0 -17 -18 -17h-290z" />
    <glyph glyph-name="six.oldstyle" horiz-adv-x="586" 
d="M397 743l15 -3t9.5 -2t11 -2.5t18.5 -4.5q21 -6 34 -10t19 -10t5 -15t-8 -25q-6 -14 -9.5 -21.5t-9 -10.5t-15 -2t-28.5 6l-22.5 4.5t-38.5 7.5q-35 6 -54 7t-45 0q-72 -2 -100.5 -40.5t-28.5 -117.5v-77q19 4 35.5 8t35.5 6.5t43.5 4t60.5 1.5h18q52 0 87.5 -9.5t58 -30
t32.5 -53.5t10 -81v-93q0 -100 -47 -144.5t-158 -44.5h-52q-61 0 -103 13.5t-68 42t-38 72.5t-12 106v273q0 63 11.5 110.5t38 79.5t69.5 48t106 16q39 0 66.5 -2t52.5 -7zM150 212q0 -72 28.5 -101.5t97.5 -29.5h55q61 1 84.5 27.5t23.5 86.5v68q0 30 -6.5 48.5t-20.5 28
t-36 13t-52 3.5h-17q-24 0 -43 -1.5t-37 -4.5t-36 -8t-41 -12v-118z" />
    <glyph glyph-name="seven.oldstyle" horiz-adv-x="548" 
d="M161 -207q-6 -13 -11.5 -18.5t-12 -6t-15 3.5t-20.5 11q-14 8 -22.5 12t-12.5 8.5t-3 11.5t8 20l299 594l-325 1q-14 0 -21 2t-10.5 7t-4 14.5t-0.5 23.5q0 17 0.5 26t3.5 13.5t10.5 5.5t21.5 1h399q27 0 31.5 -15t4.5 -41v-17t-5 -13z" />
    <glyph glyph-name="eight.oldstyle" horiz-adv-x="595" 
d="M299 756q45 0 86.5 -9t73 -30.5t50 -57t19.5 -87.5q0 -32 -1.5 -58.5t-10.5 -48.5t-28 -41t-52 -37q27 -14 48.5 -31t37 -39t24 -51t8.5 -67q0 -65 -20.5 -106.5t-55.5 -64.5t-82 -31.5t-99 -8.5q-57 0 -104 10t-81.5 34.5t-53.5 65.5t-19 102q0 74 31.5 115.5t86.5 70.5
q-29 15 -46.5 33t-27 40.5t-12.5 50t-1 62.5q2 52 20.5 87.5t49.5 57t71.5 30.5t87.5 9zM298 75q32 0 60 5t49 19t33.5 39t12.5 65q0 34 -9 58t-30 40t-55 24.5t-83 12.5q-61 -9 -97 -39.5t-36 -95.5q0 -39 12 -64t33 -39.5t49 -19.5t61 -5zM320 431q27 6 49 14.5t37 23
t23.5 35.5t8.5 52q0 36 -11 58.5t-30 35t-44 16.5t-53 4t-53 -4t-44 -16t-30 -34.5t-11 -59.5q0 -57 35 -88t123 -37z" />
    <glyph glyph-name="nine.oldstyle" horiz-adv-x="575" 
d="M180 -222l-15 3t-9.5 2t-11 2.5t-18.5 4.5q-21 6 -34.5 10t-19.5 10t-5 15t9 25q6 13 9.5 21t8.5 11t15 1.5t29 -5.5l22.5 -4.5t38.5 -7.5q35 -6 54 -7t45 0q72 2 100.5 40.5t28.5 117.5v77q-20 -5 -36 -8.5t-35 -6t-43.5 -4t-60.5 -1.5h-18q-52 0 -87.5 9.5t-58 30
t-32.5 53.5t-10 81v93q0 100 47 144.5t158 44.5h52q61 0 103 -13.5t68 -42t38 -73t12 -105.5v-273q0 -63 -11.5 -110.5t-38 -79.5t-69.5 -48t-106 -16q-39 0 -66.5 2t-52.5 7zM427 309q0 72 -28.5 101.5t-97.5 29.5h-55q-61 -1 -84.5 -27.5t-23.5 -86.5v-68q0 -30 6.5 -48.5
t20.5 -28t36 -13t52 -3.5h17q24 0 43 1.5t37 4.5t36 8t41 12v118z" />
    <glyph glyph-name="Delta" unicode="&#x2206;" horiz-adv-x="700" 
d="M28 0q-7 0 -11 5.5t-2 13.5l242 714v-1q4 11 13 11h90q10 0 14 -11v1q61 -180 122.5 -356t122.5 -356q2 -8 -2 -14.5t-12 -6.5h-577zM316 630l-181 -544h362z" />
    <glyph glyph-name="pi" unicode="&#x3c0;" horiz-adv-x="734" 
d="M440 50h57v-44q-1 0 -24.5 -7.5t-65.5 -4.5q-24 2 -35.5 12t-16 21.5t-4.5 21v9.5l-1 399h-174v-442q0 -15 -15 -15h-62q-15 0 -15 15v442h-74q-15 0 -15 14v57q0 15 15 15h504q14 0 14 -15v-57q0 -14 -14 -14h-74v-407z" />
    <glyph glyph-name="partialdiff" unicode="&#x2202;" horiz-adv-x="675" 
d="M516 237q-20 -118 -87.5 -184t-184.5 -66t-160.5 66t-23.5 184l6 33q21 118 88 184t184 66q35 0 57 -6t41 -21q-3 24 -12.5 51.5t-25.5 53t-40 45.5t-57 29q-27 5 -61 10.5t-69 3.5q-10 0 -8 10l12 64q2 10 10 10h29q70 -3 126 -17.5t101 -52.5q36 -28 57.5 -71.5t31 -99
t7.5 -121t-15 -138.5zM429 269q14 83 -10.5 123.5t-96.5 40.5q-71 0 -111 -40.5t-54 -123.5l-6 -31q-14 -82 11 -122.5t97 -40.5t111 40t53 123z" />
    <glyph glyph-name="product" unicode="&#x220f;" horiz-adv-x="790" 
d="M534 655v-704q0 -14 -14 -14h-65q-14 0 -14 14v704h-257v-704q0 -14 -14 -14h-65q-14 0 -14 14v704h-85q-15 0 -15 15v58q0 15 15 15h614q14 0 14 -15v-58q0 -15 -14 -15h-86z" />
    <glyph glyph-name="summation" unicode="&#x2211;" horiz-adv-x="619" 
d="M13 -63q-15 0 -15 14v63l226 321l-226 331v62q0 15 15 15h416q15 0 15 -15v-58q0 -15 -15 -15h-310q21 -29 41.5 -60t40.5 -61q31 -45 61 -89.5t61 -88.5v-44l-203 -287h309q15 0 15 -15v-59q0 -14 -15 -14h-416z" />
    <glyph glyph-name="radical" unicode="&#x221a;" horiz-adv-x="643" 
d="M384 -61v1q-4 -11 -14 -11h-80q-10 0 -14 11v-1l-156 466h-103q-15 0 -15 14v58q0 14 15 14h158q10 0 14 -10v1l142 -431q26 81 51.5 157.5t51.5 156.5l21 66l139 427q4 10 15 10h62q8 0 12 -5.5t2 -13.5z" />
    <glyph glyph-name="infinity" unicode="&#x221e;" horiz-adv-x="836" 
d="M733 357q0 -80 -44.5 -119t-122.5 -39q-54 0 -102 25.5t-83 63.5q-18 -18 -39 -34t-45 -28t-49.5 -19.5t-51.5 -7.5q-78 0 -123 39t-45 119q0 81 45 120t123 39q54 0 101.5 -26.5t82.5 -64.5q18 18 39 34.5t45 29t50 20t52 7.5q78 0 122.5 -39t44.5 -120zM659 359
q0 50 -25.5 68.5t-62.5 17.5q-47 -2 -84 -28t-60 -58q23 -32 60 -57t84 -27q37 -2 62.5 16.5t25.5 67.5zM190 270q45 2 82.5 27.5t60.5 56.5q-12 16 -27 31t-33.5 27t-39.5 19.5t-43 8.5q-37 1 -62.5 -17.5t-25.5 -68.5q0 -49 25.5 -67.5t62.5 -16.5z" />
    <glyph glyph-name="integral" unicode="&#x222b;" horiz-adv-x="505" 
d="M293 680q-20 0 -32 -4t-18 -14.5t-8 -27.5t-2 -43v-621q0 -37 -4.5 -68t-20 -53.5t-44.5 -35t-77 -12.5q-29 0 -56 2.5t-40 3.5q-10 1 -11 8.5t-1 12.5v45q0 14 15 14h5q3 0 7 -0.5t9 -0.5q14 -1 32 -2t34 -1q20 0 32 4t18 14t8 26.5t2 42.5v621q0 37 4.5 68.5t19.5 53.5
t44 34.5t78 12.5q26 0 54.5 -4t40.5 -7q5 -2 8.5 -6t3.5 -9v-49q0 -14 -15 -14z" />
    <glyph glyph-name="notequal" unicode="&#x2260;" horiz-adv-x="703" 
d="M528 154q0 -15 -14 -15h-234l-49 -138q-5 -13 -18 -8l-50 18q-15 5 -10 18l39 110h-108q-14 0 -14 15v53q0 14 14 14h138l49 135h-187q-14 0 -14 14v53q0 15 14 15h216l51 139q5 13 19 8l50 -18q13 -5 8 -18l-40 -111h126q14 0 14 -15v-53q0 -14 -14 -14h-156l-48 -135
h204q14 0 14 -14v-53z" />
    <glyph glyph-name="lessequal" unicode="&#x2264;" horiz-adv-x="703" 
d="M93 0q-15 0 -15 15v52q0 15 15 15h463q14 0 14 -15v-52q0 -15 -14 -15h-463zM384 143l-271 240q-5 5 -5 11.5t5 11.5q65 57 135 119.5t136 119.5h92q11 0 13 -9t-3 -16l-256 -226q63 -57 128 -112.5t128 -112.5q5 -7 3 -16.5t-13 -9.5h-92z" />
    <glyph glyph-name="greaterequal" unicode="&#x2265;" horiz-adv-x="703" 
d="M67 0q-15 0 -15 15v52q0 15 15 15h463q14 0 14 -15v-52q0 -15 -14 -15h-463zM239 143h-92q-11 0 -13.5 10t3.5 17l255 224q-63 57 -127.5 112.5t-127.5 112.5q-6 7 -3.5 16.5t13.5 9.5h92l271 -240q5 -5 4.5 -10.5t-4.5 -10.5z" />
    <glyph glyph-name="lozenge" unicode="&#x25ca;" horiz-adv-x="703" 
d="M300 65q-5 -5 -11.5 -5t-11.5 5l-231 284q-3 4 -3.5 9t3.5 9v-1l234 288q5 5 11.5 5t11.5 -5l232 -285v1q4 -4 3.5 -10t-3.5 -10zM292 541q-31 -39 -64.5 -79.5t-64.5 -78.5l-20 -26q37 -46 72.5 -89t73.5 -89l150 181z" />
    <glyph glyph-name="eth" unicode="&#xf0;" horiz-adv-x="571" 
d="M295 720q8 -5 15 -10t15 -10q40 -28 70 -71.5t49 -99t28.5 -121t9.5 -138.5v-33q0 -118 -55.5 -184t-172.5 -66t-172.5 66t-55.5 184v33q0 118 55.5 184t172.5 66q35 0 58 -6t45 -21q-7 20 -18 43t-26.5 45t-36 41.5t-45.5 33.5l-80 -80q-11 -9 -21 -1l-27 28
q-12 10 0 21l54 54q-23 4 -49 6.5t-50 1.5q-10 0 -10 10v64q0 10 9 10h29q39 -2 74.5 -6.5t67.5 -14.5l61 61q10 11 21 0l27 -27q10 -10 0 -21zM389 269q0 83 -32 123.5t-104 40.5q-71 0 -103.5 -40.5t-32.5 -123.5v-31q0 -82 32 -122.5t104 -40.5t104 40t32 123v31z" />
    <glyph glyph-name="brokenbar" unicode="&#xa6;" horiz-adv-x="259" 
d="M61 -201q-14 0 -14 14v377q0 15 14 15h63q14 0 14 -15v-377q0 -14 -14 -14h-63zM138 352q0 -15 -14 -15h-63q-14 0 -14 15v376q0 15 14 15h63q14 0 14 -15v-376z" />
    <glyph glyph-name="minus" unicode="&#x2212;" horiz-adv-x="703" 
d="M86 349q-15 0 -15 15v53q0 15 15 15h457q14 0 14 -15v-53q0 -15 -14 -15h-457z" />
    <glyph glyph-name="multiply" unicode="&#xd7;" horiz-adv-x="703" 
d="M499 186q-4 -5 -10 -5t-11 5l-146 146l-147 -148q-5 -5 -11 -5t-11 5l-37 36q-9 11 0 22l148 149l-149 147q-4 5 -4 11t4 10l37 37q11 11 22 0l148 -148l147 148q5 5 11 5t10 -5l38 -37q11 -11 0 -22l-148 -147l147 -146q10 -11 -1 -22z" />
    <glyph glyph-name="Omega" unicode="&#x2126;" horiz-adv-x="722" 
d="M644 445q0 -94 -38.5 -166.5t-127.5 -110.5v-85h143q14 0 14 -15v-53q0 -15 -14 -15h-217q-15 0 -15 15v194q0 4 3.5 8.5t7.5 6.5q75 25 112.5 81.5t37.5 139.5q0 63 -14.5 105.5t-40 69t-59.5 38t-74 11.5q-41 0 -79.5 -11.5t-69 -38t-49 -69t-18.5 -105.5
q0 -83 38 -139.5t113 -81.5q3 -2 6.5 -6.5t3.5 -8.5v-194q0 -15 -14 -15h-218q-14 0 -14 15v53q0 15 14 15h144v85q-90 38 -128.5 110.5t-38.5 166.5q0 77 24 135t66 97t98.5 58.5t121.5 19.5q64 0 116.5 -19.5t89 -58.5t56.5 -97t20 -135z" />
    <glyph glyph-name="apple" unicode="&#xf8ff;" horiz-adv-x="696" 
d="M333 529q2 72 40 116.5t106 53.5v-10q0 -32 -12 -61t-32 -51t-46.5 -35t-55.5 -13zM478 539q89 0 141 -70q-43 -33 -60.5 -64.5t-17.5 -73.5q0 -49 25.5 -87.5t71.5 -57.5q-37 -92 -80.5 -142.5t-85.5 -50.5q-21 0 -40 9l-40 16q-9 4 -21 5t-23.5 0.5t-22 -2t-16.5 -4.5
l-42 -17q-22 -8 -37 -8q-55 0 -109 80q-40 58 -61.5 123.5t-21.5 124.5q0 48 13.5 88t38 68.5t58 44.5t74.5 16q18 0 35 -4t41 -14q31 -12 47 -12t42 10q20 7 32.5 11.5t22 7t17.5 3t19 0.5z" />
    <glyph glyph-name="space" unicode=" " horiz-adv-x="287" 
 />
    <glyph glyph-name="approxequal" unicode="&#x2248;" horiz-adv-x="500" 
d="M378 208q0 -2 -1 -6t-3 -6q-13 -12 -27 -21q-12 -8 -27.5 -14.5t-32.5 -6.5q-20 0 -42 6.5t-42 15.5h1q-17 5 -31 10.5t-25 5.5q-9 0 -19.5 -5.5t-20.5 -11.5q-11 -8 -23 -17q-8 -5 -15 -2t-9 12l-6 42q0 2 1.5 6.5t3.5 6.5q13 11 28 21q13 8 29 15t33 7q20 0 42 -7
t42 -15q17 -7 30.5 -11.5t23.5 -4.5q8 0 19 5t20 11q11 7 21 16q8 6 15 3.5t9 -11.5zM377 369q0 -2 -1 -6t-3 -6q-13 -12 -27 -21q-12 -8 -27.5 -14.5t-32.5 -6.5q-20 0 -42 6.5t-42 15.5h1q-17 5 -31 10.5t-25 5.5q-9 0 -19.5 -5.5t-20.5 -11.5q-11 -8 -23 -17
q-8 -5 -15 -2t-9 12l-6 42q0 2 1.5 6.5t3.5 6.5q13 11 28 21q13 8 29 15t33 7q20 0 42 -7t42 -15q17 -7 30.5 -11.5t23.5 -4.5q8 0 19 5t20 11q11 7 21 16q8 6 15 3.5t9 -11.5z" />
    <glyph glyph-name="trademark" unicode="&#x2122;" horiz-adv-x="711" 
d="M540 555q-11 -20 -23.5 -43t-23.5 -44q-4 -8 -8 -14.5t-14 -11.5q-4 -1 -17 -1q-10 0 -15 1q-8 2 -11.5 8.5t-10.5 18.5q-11 20 -23 42.5t-23 43.5v-138q0 -22 -5.5 -25.5t-29.5 -3.5q-20 0 -27 3.5t-7 25.5v248h-22v40q6 6 14 11q7 5 16.5 8.5t21.5 3.5q14 0 23 -8.5
t15 -19.5l4 -8q19 -39 42 -78l38 -71q11 20 21 36.5t21 36.5l41 76q4 8 9 16t11 13q9 7 21 7q30 0 30 -27q0 -64 0.5 -127.5t0.5 -126.5v-10h21v-43q-9 -3 -19 -5q-8 -2 -18 -3.5t-19 -0.5q-12 1 -19 5.5t-10 11t-4 13t-1 11.5v129zM36 664q-11 0 -17 1t-9 4.5t-3.5 10
t-0.5 17.5q0 19 3.5 25.5t26.5 6.5h196q23 0 26.5 -7t3.5 -28q0 -20 -3.5 -25t-26.5 -5h-64v-252q0 -21 -5.5 -24.5t-30.5 -3.5q-21 0 -28 3.5t-7 24.5v252h-61z" />
    <glyph glyph-name="ordfeminine" unicode="&#xaa;" horiz-adv-x="445" 
d="M154 418q-10 2 -19 4t-17 7q-36 18 -55 56t-19 91q-1 34 9.5 61.5t26.5 47.5t34.5 32.5t33.5 16.5q22 5 45 5h8q12 0 21.5 -1t18.5 -5q9 7 34 7q15 0 23 -0.5t12.5 -3.5t5.5 -10t1 -20v-228h31l-2 -49q-6 -2 -24 -7.5t-41 -3.5q-14 2 -22.5 6.5t-13.5 10.5l-16 -7
q-25 -11 -58 -11h-8.5t-8.5 1zM173 487q19 0 33 4t31 14v159q-10 2 -21 3t-24 1t-20 -2t-12 -4q-11 -6 -18.5 -18.5t-12.5 -29.5q-5 -20 -5 -52q1 -15 4.5 -29.5t10.5 -25.5q5 -7 13.5 -13.5t20.5 -6.5z" />
    <glyph glyph-name="ordmasculine" unicode="&#xba;" horiz-adv-x="444" 
d="M178 428q-36 3 -60 16q-38 20 -55 59t-15 92q3 33 13.5 61.5t30 49t47.5 31.5t66 9q70 -6 100.5 -55t28.5 -121q-2 -70 -41.5 -109t-114.5 -33zM138 526q14 -24 47 -25q40 -3 55 17.5t17 55.5q1 39 -11.5 66.5t-47.5 29.5q-39 2 -55.5 -22.5t-16.5 -61.5q-2 -38 12 -60z
" />
    <glyph glyph-name="Thorn" unicode="&#xde;" horiz-adv-x="657" 
d="M149 619h169q112 0 165.5 -50t53.5 -151v-58q0 -97 -53.5 -145t-165.5 -48h-22q-87 3 -110 7q-19 2 -37 17v-155q0 -14 -1.5 -21.5t-6.5 -10.5t-14.5 -3.5t-26.5 -0.5q-14 0 -23.5 0.5t-14.5 4t-7 10.5t-2 21v674q0 13 2 20.5t7 11t14.5 4t23.5 0.5q17 0 26.5 -0.5
t14.5 -3.5t6.5 -10.5t1.5 -21.5v-91zM149 269q26 -5 52 -8.5t55 -3.5h54q62 0 94 30.5t32 87.5v36q0 57 -31.5 88t-94.5 31h-161v-261z" />
    <glyph glyph-name="thorn" unicode="&#xfe;" horiz-adv-x="610" 
d="M146 483q28 18 52 29q41 17 94 17q13 0 25 -1q36 -5 60 -16q40 -19 66.5 -54t40.5 -83.5t14 -107.5q0 -58 -17 -108t-43.5 -85t-56.5 -50t-52 -20q-35 -9 -76 -9q-36 0 -58.5 2.5t-48.5 32.5v-262q0 -14 -1.5 -21t-6 -10.5t-13.5 -4t-23 -0.5q-17 0 -26.5 0.5t-14.5 3.5
t-6.5 10.5t-1.5 21.5v942q0 13 2 20.5t7 11t14.5 4t23.5 0.5q17 0 26 -0.5t13.5 -3.5t5.5 -10.5t1 -21.5v-227zM200 436q-28 -12 -54 -32v-319q24 -6 48 -9.5t61 -3.5q24 0 41.5 4.5t27.5 10.5q24 13 42.5 40.5t27.5 63.5t8 102t-29 113q-21 36 -73 45q-13 2 -39.5 0.5
t-60.5 -15.5z" />
    <glyph glyph-name="Acircumflex" unicode="&#xc2;" horiz-adv-x="749" 
d="M99 23q-8 -26 -20.5 -27.5t-37.5 6.5q-15 4 -24 7t-12.5 7.5t-2.5 12t6 21.5l218 655q4 10 8.5 21.5t10.5 14.5q5 2 13.5 3t18.5 1h52h22.5t19.5 -4q6 -3 10.5 -14.5t8.5 -21.5l222 -655h55v-44q-1 0 -25 -7.5t-62 -4.5q-19 2 -34 9.5t-20 17.5t-14 32t-20.5 52.5
t-25 68.5t-27.5 79h-262zM307 676q-4 -14 -12.5 -40t-19 -58t-22 -67t-22 -67t-18.5 -58.5t-11 -40.5h208q-11 36 -20 66.5t-20.5 66.5t-26 83t-36.5 115zM420 816q-4 0 -7 3v-1l-103 108l-103 -108v1q-3 -3 -7 -3h-65q-7 0 -9.5 5.5t2.5 10.5l134 149q4 4 7 4h82q3 0 7 -4
l134 -149q5 -5 2.5 -10.5t-9.5 -5.5h-65z" />
    <glyph glyph-name="k" unicode="k" horiz-adv-x="520" 
d="M128 317l207 220q9 10 14.5 15t10.5 5t11 -5t17 -15q13 -11 20 -18t8.5 -12.5t-2.5 -12t-14 -16.5l-144 -155l161 -274h51v-44q-1 0 -25 -6t-62 -6q-17 0 -30.5 8t-22.5 20l-139 237l-61 -65v-157q0 -23 -5 -29t-22 -7h-39q-18 0 -22.5 6.5t-4.5 29.5v710q0 13 1.5 20.5
t6 11t13.5 4t23 0.5q17 0 26.5 -0.5t14.5 -3.5t6.5 -10.5t1.5 -21.5v-429z" />
    <glyph glyph-name="dotlessi" unicode="&#x131;" horiz-adv-x="271" 
d="M147 36q0 -14 -1.5 -21t-6 -10.5t-13.5 -4t-23 -0.5q-17 0 -26.5 0.5t-14.5 3.5t-6 10.5t-1 21.5v411h-58v49q10 9 24 17q12 6 28.5 11.5t39.5 5.5q28 0 41.5 -15t15.5 -29q0 -3 0.5 -7.5t0.5 -9.5v-433v0z" />
    <glyph glyph-name="ampersand" unicode="&#x26;" horiz-adv-x="782" 
d="M555 143l100 -94h51v-44q-1 0 -25 -6t-62 -6q-14 0 -29.5 5t-28.5 17l-52 49q-16 -24 -32 -37.5t-38 -21t-51 -9.5t-70 -2h-42q-62 0 -106.5 8t-74 30t-43.5 60.5t-14 99.5v34q0 38 11 66.5t30 49.5t45.5 35t57.5 23q-25 30 -38 58.5t-13 66.5v55q0 93 46 132t142 39h21
q22 0 59.5 -2.5t72.5 -11.5q21 -6 34 -10t19 -9.5t5 -15t-8 -25.5q-6 -13 -8.5 -20t-8 -9.5t-16 -1t-31.5 5.5q-74 16 -123 16h-11q-48 0 -71 -21t-23 -71v-47q0 -17 4 -30t11 -25t17.5 -24l24.5 -28l207 -207l62 114q7 14 12.5 21t10.5 9t12.5 -1t19.5 -10q13 -8 21 -12.5
t10.5 -9.5t0.5 -12.5t-9 -20.5l-73 -140zM236 336q-20 -6 -39 -13t-33.5 -19t-23.5 -29t-9 -42v-26q0 -73 36.5 -102t102.5 -29h43q53 0 81.5 14.5t48.5 46.5z" />
    <glyph glyph-name="germandbls" unicode="&#xdf;" horiz-adv-x="665" 
d="M331 488q40 37 144 44q7 1 17 3t18 8t11.5 17.5t-0.5 30.5q-8 35 -39.5 51.5t-78.5 16.5h-211v-623q0 -14 -1 -21.5t-6 -10.5t-14.5 -3.5t-26.5 -0.5q-14 0 -23.5 0.5t-14.5 4t-7 10.5t-2 21v182l-1 220h-57q-14 0 -21 1t-10.5 5t-4 12.5t-0.5 22.5q0 17 0.5 26t3.5 12.5
t10.5 4t21.5 0.5h57v156q-50 6 -54 22v48h357q112 0 162 -49t51 -149v-1q-1 -11 -4.5 -25.5t-17 -28.5t-39.5 -24.5t-71 -13.5q-62 -4 -89 -27t-21.5 -60.5t46 -46.5t71.5 -15q24 -4 54 -11t56.5 -22.5t40.5 -41.5t14 -73t-8 -75t-33.5 -49t-65 -32.5t-93.5 -11.5
q-59 0 -130 23q-27 8 -35 14t0 28q6 16 10 25t9.5 13t14 3t22.5 -4q64 -14 115 -16q63 -3 83 13t23 49.5t-4.5 47t-23.5 22t-48 14t-59 9.5q-30 5 -59.5 13.5t-51 28t-29 45.5t-4 75.5t45.5 92.5z" />
    <glyph glyph-name="mu" unicode="&#xb5;" horiz-adv-x="616" 
d="M594 51v-44q-1 0 -26.5 -7.5t-67.5 -4.5q-26 2 -37.5 13t-15.5 24q-26 -29 -53 -34.5t-84 -7.5q-62 0 -104 12l-1 -177q0 -14 -0.5 -21.5t-5 -10.5t-13.5 -3.5t-26 -0.5q-14 0 -22.5 0.5t-13 4t-5.5 10.5t-1 21v622h-58v49q10 9 24 17q12 6 28.5 11.5t39.5 5.5
q28 0 41.5 -15t15.5 -29q0 -3 0.5 -7.5t0.5 -9.5v-309q4 -47 26.5 -64t68.5 -20q39 -2 71 2.5t68 12.5v396q0 23 5 29t22 7h40q18 0 22.5 -6.5t4.5 -29.5l-1 -178v-258h57z" />
    <glyph glyph-name="Eth" unicode="&#xd0;" horiz-adv-x="722" 
d="M140 -1q-16 0 -25 0.5t-13.5 4t-6 11t-1.5 21.5v315h-73q-15 0 -15 14v39q0 15 15 15h73v258q-50 6 -54 22v48h307q42 0 78 -9q58 -13 97.5 -45.5t63.5 -79.5t34 -107t10 -127q0 -80 -13.5 -149.5t-46 -120.5t-87.5 -80.5t-138 -29.5h-205zM189 351v-264h152
q58 0 95.5 22.5t59 61.5t29.5 92.5t8 115.5q0 46 -7 96t-27 91.5t-56.5 67.5t-95.5 24h-157l-1 -234v-5h95q15 0 15 -15v-39q0 -14 -15 -14h-95z" />
    <glyph glyph-name="section" unicode="&#xa7;" horiz-adv-x="635" 
d="M544 224q-2 -72 -32 -154q8 -11 14 -22q20 -37 18 -109t-13 -111.5t-45.5 -68t-86 -41.5t-120 -12t-162.5 29q-21 7 -34 11t-18.5 9.5t-4.5 14.5t7 24q9 22 16 32.5t16 11.5t23.5 -4.5t39.5 -14.5q69 -20 141 -22q93 4 121.5 37t30 88t-9 74.5t-43.5 33t-107.5 28.5
t-114 30.5t-67.5 35.5t-39 54t-4 106q7 60 52 118q-5 4 -9 7q-28 20 -39 54t-3.5 106.5t61 127.5t175.5 55q86 -2 167 -21l25 -6q19 -6 20 -18.5t-6 -36.5q-5 -15 -6.5 -23.5t-6 -11t-14 -0.5t-29.5 7q-52 13 -154 21q-81 5 -116.5 -39t-27.5 -104t140 -83t170 -45t57.5 -59
t17.5 -109zM294 343q-55 11 -91 22q-52 -71 -44 -130q8 -60 140 -83q89 -16 136 -31q18 47 19 86q2 55 -8.5 74.5t-43.5 33t-108 28.5z" />
    <glyph glyph-name="uni00A0" unicode="&#xa0;" horiz-adv-x="210" 
 />
    <glyph glyph-name="yen" unicode="&#xa5;" horiz-adv-x="630" 
d="M250 343q-2 5 -5.5 11.5t-6.5 12.5q-37 66 -87 143t-93 158h-65v49q10 9 24 17q12 6 28.5 11.5t39.5 5.5q13 0 26.5 -8t21.5 -24q17 -33 40 -69t47 -73t46 -72t39 -66l174 286q6 12 10.5 18t9.5 7t12.5 -2.5t18.5 -10.5q14 -8 23 -12.5t12.5 -9.5t2 -12t-8.5 -19
l-193 -318q-4 -6 -7.5 -12t-4.5 -11h187q15 0 15 -14v-2q0 -15 -15 -15h-191v-27v-20h191q15 0 15 -14v-2q0 -15 -15 -15h-191l1 -199q0 -27 -9.5 -31.5t-35.5 -4.5q-15 0 -24.5 0.5t-15 3t-8 8.5t-2.5 17l-2 206h-190q-15 0 -15 15v2q0 14 15 14h190v18v29h-190
q-15 0 -15 15v2q0 14 15 14h186z" />
    <glyph glyph-name="Lslash" unicode="&#x141;" horiz-adv-x="629" 
d="M38 263q-13 -8 -20 5l-17 34q-8 14 7 21l301 153q14 5 20 -7l18 -34q7 -13 -7 -20zM153 0q-19 0 -30 1.5t-17 7t-7.5 16t-1.5 27.5v658q0 13 2 20.5t7 11t14.5 4t23.5 0.5q17 0 26.5 -0.5t14.5 -3.5t6 -10.5t1 -21.5v-620h311q27 0 31.5 -8.5t4.5 -31.5q0 -14 -0.5 -23.5
t-3.5 -15.5t-10.5 -8.5t-21.5 -2.5h-350z" />
    <glyph glyph-name="lslash" unicode="&#x142;" horiz-adv-x="260" 
d="M182 400l62 31q14 5 20 -7l18 -34q7 -13 -7 -20l-93 -47v-273h57v-44q-1 0 -26.5 -7.5t-67.5 -4.5q-24 2 -35.5 12t-16 21.5t-4.5 21v9.5v219l-55 -27q-13 -8 -20 5l-17 34q-8 14 7 21l85 43v393q0 13 1.5 20.5t6 11t13.5 4t23 0.5q17 0 26.5 -0.5t14.5 -3.5t6.5 -10.5
t1.5 -21.5v-346z" />
    <glyph glyph-name="cent" unicode="&#xa2;" horiz-adv-x="513" 
d="M270 528q72 -3 119 -18l24 -8t13 -7t3 -10t-5 -17q-7 -16 -11.5 -26t-10 -14.5t-13.5 -4t-22 5.5q-47 17 -97 17v-367q2 1 5 1q32 2 51 6t41 10q14 5 22.5 4.5t14 -5.5t10 -16t10.5 -27q5 -14 5.5 -21t-7 -11.5t-24.5 -8t-45 -10.5q-47 -10 -79 -10h-4v-68q0 -15 -14 -15
h-2q-15 0 -15 15v69q-65 3 -97 18q-40 19 -66.5 54t-40.5 83.5t-14 110.5q0 58 17 108t43.5 85t68.5 57q34 17 89 20v80q0 15 15 15h2q14 0 14 -15v-80zM148 118q21 -36 91 -39v365q-29 -3 -46 -12q-26 -14 -40.5 -38t-23.5 -60t-8 -103.5t27 -112.5z" />
    <glyph glyph-name="Euro" unicode="&#x20ac;" horiz-adv-x="681" 
d="M211 313q5 -85 40 -152q40 -75 119 -79q106 1 176 24q20 5 31.5 9.5t18.5 3.5t12 -8.5t12 -26.5q7 -20 7.5 -32.5t-11 -21t-35.5 -14.5t-64 -14q-65 -11 -111 -11q-77 -3 -134 24t-89.5 78.5t-52.5 120.5q-14 46 -18 100h-79q-14 2 -16 14v2q2 15 16 15h77v26v24h-77
q-14 2 -16 14v2q2 15 16 15h80q5 52 21 99q24 71 62 121t98.5 81.5t134 28.5t141.5 -26q21 -7 34 -11t18.5 -10t4.5 -14.5t-7 -24.5q-10 -23 -15.5 -32.5t-12.5 -11t-17.5 3t-30.5 10.5q-72 21 -114.5 24.5t-88.5 -18t-76 -68.5t-43 -99q-6 -22 -9 -54h211q15 0 15 -15
l-1 -3q2 -13 -14 -13h-213q-1 -23 -1 -50h214q15 0 15 -15l-1 -3q2 -13 -14 -13h-213z" />
    <glyph glyph-name="onesuperior" unicode="&#xb9;" horiz-adv-x="525" 
d="M187 742q7 4 13.5 4.5t16.5 0.5q14 0 22.5 -0.5t13 -3.5t6 -10.5t1.5 -21.5v-350h41q27 0 31.5 -7.5t4.5 -29.5q0 -12 -0.5 -20t-3.5 -12.5t-10.5 -6t-21.5 -1.5h-166q-14 0 -21.5 1.5t-10.5 6t-3.5 12.5t-0.5 20q0 22 4.5 29.5t31.5 7.5h39v276l-23 -12
q-22 -12 -29.5 -8t-20.5 27v-1q-8 13 -12 21t-3.5 13t6.5 10t18 12l77 43v0z" />
    <glyph glyph-name="twosuperior" unicode="&#xb2;" horiz-adv-x="401" 
d="M63 282q-16 0 -25.5 1.5t-14 6t-6 13.5t-1.5 23v25q0 34 3.5 58.5t11 43t20.5 32.5t33 26q16 10 37.5 22t52.5 26q22 10 34.5 18t12.5 19v23q0 27 -13.5 34t-44.5 7h-16q-20 -2 -31 -3.5t-28 -7.5q-24 -8 -31 -5t-15 17l-6 11q-14 23 -7.5 35.5t41.5 23.5q26 8 46 10.5
t53 2.5q75 0 105.5 -28t30.5 -98v-24q0 -23 -5.5 -39.5t-18 -30.5t-34 -26.5t-52.5 -26.5q-20 -9 -39 -18.5t-31 -16.5q-12 -8 -16.5 -26.5t-5.5 -46.5h174q27 0 31.5 -7.5t4.5 -30.5q0 -12 -0.5 -20t-3.5 -13t-10.5 -7.5t-21.5 -2.5h-214v0z" />
    <glyph glyph-name="dollar" unicode="$" horiz-adv-x="587" 
d="M274 751q77 -3 151 -20l25 -6q19 -6 20 -18.5t-6 -36.5q-5 -15 -6.5 -23.5t-6 -11t-14 -0.5t-29.5 7q-47 11 -134 19v-229q111 -20 146 -40q38 -22 57.5 -59t17.5 -109t-13 -111.5t-45.5 -68t-86.5 -41.5q-34 -8 -76 -11v-78q0 -15 -14 -15h-2q-15 0 -15 15v77h-13
q-68 1 -162 29q-21 7 -34 11t-18.5 9.5t-4.5 14.5t7 24q9 22 16 32.5t16 11.5t23.5 -4.5t39.5 -14.5q63 -19 130 -22v258q-73 15 -112 32t-67 37t-39 54t-3.5 106.5t60.5 127.5q50 51 161 55v81q0 15 15 15h2q14 0 14 -15v-82zM353 311q-27 11 -79 23v-251q76 6 101 36
q29 33 30.5 88t-9 73t-43.5 31zM110 520q8 -59 133 -82v225q-73 2 -106 -39q-35 -44 -27 -104z" />
    <glyph glyph-name="threesuperior" unicode="&#xb3;" horiz-adv-x="395" 
d="M19 344q2 11 10 17.5t18 4.5q21 -5 45.5 -7t44.5 -2q45 0 62.5 12.5t17.5 39.5v26q0 25 -23 34.5t-52 9.5h-67q-11 0 -18 7t-7 19v30q0 11 7 18t18 7h75q26 0 41 13.5t15 31.5v18q0 21 -16.5 30.5t-42.5 9.5q-20 0 -45 -2.5t-46 -6.5h1q-21 -6 -25 2.5t-6 16.5l-5 31
q-2 8 1.5 16t15.5 12q23 6 51.5 10.5t55.5 4.5q79 0 113.5 -31t34.5 -90v-23q0 -23 -6.5 -43t-22.5 -34q16 -15 27 -38t11 -48v-34q0 -69 -39 -100.5t-127 -31.5q-25 0 -51 2t-52 9q-11 2 -16.5 9t-3.5 22z" />
    <glyph glyph-name="quotedbl" unicode="&#x22;" horiz-adv-x="365" 
d="M45 745q0 6 4.5 10t9.5 4h64q6 0 10 -5.5t4 -11.5l-33 -231q-4 -13 -15 -13h-47q-15 0 -15 16zM285 511q-4 -13 -14 -13h-48q-15 0 -15 16l18 231q0 6 4.5 10t10.5 4h63q6 0 10.5 -5.5t4.5 -11.5z" />
    <glyph glyph-name="germandbls.case" horiz-adv-x="928" 
d="M209 449q-62 4 -88 -19t-20.5 -60.5t45 -46.5t79.5 -17t70 -15t57 -22.5t41 -41.5t14 -73t-8 -75t-30.5 -50.5t-58 -33.5t-105.5 -9q-59 0 -149 24q-28 8 -36 16t0 30q6 16 10.5 25t10 12t14 2t22.5 -4q83 -21 140.5 -22.5t77.5 14.5t23 50t-4.5 48.5t-23.5 23t-60.5 17
t-71.5 12.5q-122 20 -134 108.5t33 137.5t131 48t170 -20l13 -3q14 -5 14.5 -17t-4.5 -30q-3 -11 -5 -17.5t-5 -10.5t-8.5 -4.5t-16.5 2.5q-64 15 -137 21zM620 449q-62 4 -88 -19t-20.5 -60.5t45 -46.5t79.5 -17t70 -15t57 -22.5t41 -41.5t14 -73t-8 -75t-30.5 -50.5
t-58 -33.5t-105.5 -9q-59 0 -149 24q-28 8 -36 16t0 30q6 16 10.5 25t10 12t14 2t22.5 -4q83 -21 140.5 -22.5t77.5 14.5t23 50t-4.5 48.5t-23.5 23t-60.5 17t-71.5 12.5q-122 20 -134 108.5t33 137.5t131 48t170 -20l13 -3q14 -5 14.5 -17t-4.5 -30q-3 -11 -5 -17.5
t-5 -10.5t-8.5 -4.5t-16.5 2.5q-64 15 -137 21z" />
    <glyph glyph-name="aeacute" unicode="&#x1fd;" horiz-adv-x="866" 
d="M658 73q-113 -4 -141 43t-29 104v25h308l7.5 0.5t16 4.5t14.5 15t5 32q-1 83 -23.5 128.5t-52.5 68t-59 27.5t-44 7q-89 2 -135 -21q-24 -11 -42 -26v9q0 14 -1.5 21.5t-6.5 10.5t-14.5 3.5t-26.5 0.5q-14 0 -23 -0.5t-13.5 -4t-6 -11t-1.5 -20.5q-26 30 -48.5 32.5
t-58.5 2.5q-41 0 -76 -9q-22 -5 -52 -20t-56.5 -50t-43.5 -85t-17 -108q0 -59 14 -107.5t40.5 -83.5t66.5 -54q24 -11 60 -16q12 -1 25 -1q53 0 94 17q29 12 54 25q18 9 31.5 16.5t23.5 12.5q27 -34 66 -52q40 -19 108 -19t123 10q20 4 37 7t29 8.5t16.5 13.5t-0.5 22
q-6 16 -10 25t-9.5 12.5t-14 3t-23.5 -3.5q-73 -17 -111 -16zM236 69q-52 9 -73 45q-28 47 -29 113t8 102t27.5 63.5t42.5 40.5q10 6 27.5 10.5t41.5 4.5q37 0 61 -3.5t48 -9.5v-323q-21 -14 -54.5 -28t-60 -15.5t-39.5 0.5zM752 326h-258l2 8q9 36 27.5 63.5t42.5 41
t70 13.5q49 1 80 -25t36 -101zM407 655q-4 8 2 12l176 119q9 5 14 -3l34 -61q5 -8 -3 -14l-185 -101q-9 -5 -14 4z" />
    <glyph glyph-name="bracketleft.case" horiz-adv-x="397" 
d="M56 -200q-15 0 -15 14v914q0 15 15 15h209q15 0 15 -15v-54q0 -15 -15 -15h-132v-777h132q15 0 15 -14v-54q0 -14 -15 -14h-209z" />
    <glyph glyph-name="bracketright.case" horiz-adv-x="403" 
d="M1 -200q-14 0 -14 14v54q0 14 14 14h133v778h-133q-14 0 -14 15v53q0 15 14 15h210q14 0 14 -15v-914q0 -14 -14 -14h-210z" />
    <glyph glyph-name="aacute.alt" horiz-adv-x="550" 
 />
    <glyph glyph-name="a.alt" horiz-adv-x="550" 
d="M190 -8q-36 5 -60 16q-40 19 -66.5 54t-40.5 83.5t-14 107.5q0 58 17 108t43.5 85t56.5 50t52 20q35 9 76 9q36 0 58.5 -2.5t48.5 -32.5q0 13 1.5 20.5t6 11t13.5 4t23 0.5q17 0 26.5 -0.5t14.5 -3.5t6.5 -10.5t1.5 -21.5v-441h57v-44q-1 0 -26.5 -7.5t-67.5 -4.5
q-28 2 -39.5 14.5t-14.5 25.5q-25 -13 -54 -25q-41 -17 -94 -17q-13 0 -25 1zM207 69q13 -2 39.5 -0.5t60 15.5t54.5 28v323q-24 6 -48 9.5t-61 3.5q-24 0 -41.5 -4.5t-27.5 -10.5q-24 -13 -42.5 -40.5t-27.5 -63.5t-8 -102t29 -113q21 -36 73 -45z" />
    <glyph glyph-name="acircumflex.alt" horiz-adv-x="550" 
 />
    <glyph glyph-name="adieresis.alt" horiz-adv-x="562" 
 />
    <glyph glyph-name="agrave.alt" horiz-adv-x="550" 
 />
    <glyph glyph-name="amacron.alt" horiz-adv-x="550" 
 />
    <glyph glyph-name="abreve.alt" horiz-adv-x="550" 
 />
    <glyph glyph-name="aogonek.alt" horiz-adv-x="550" 
 />
    <glyph glyph-name="atilde.alt" horiz-adv-x="562" 
 />
    <glyph glyph-name="aring.alt" horiz-adv-x="562" 
 />
    <glyph glyph-name="parenleft.case" horiz-adv-x="342" 
d="M193 -101q-3 0 -6.5 2t-4.5 3q-27 31 -55.5 76.5t-52 104t-38 129t-14.5 152.5v7q0 81 15 151.5t38 128.5t51.5 104t55.5 78v-1q1 2 5 4.5t6 2.5h61q9 0 12 -9t-2 -18q-32 -41 -59 -87.5t-47 -100.5t-31.5 -117t-11.5 -136v-7q0 -74 11.5 -136t31.5 -116t47 -100.5
t59 -88.5q5 -9 2 -17.5t-12 -8.5h-61z" />
    <glyph glyph-name="parenright.case" horiz-adv-x="349" 
d="M-17 -101q-9 0 -12 8.5t2 17.5q32 42 59 88.5t47 100.5t31.5 116t11.5 136v7q0 73 -11.5 136t-31.5 117t-47 100.5t-59 87.5q-5 9 -2 18t12 9h61q2 0 6 -2.5t5 -4.5v1q27 -32 55.5 -78t51.5 -104t38 -128.5t15 -151.5v-7q0 -82 -14.5 -152.5t-38 -129t-52 -104
t-55.5 -76.5q-1 -1 -4.5 -3t-6.5 -2h-61z" />
    <glyph glyph-name="yacute.alt" horiz-adv-x="551" 
 />
    <glyph glyph-name="y.alt" horiz-adv-x="551" 
d="M386 28q-24 -26 -49 -30q-27 -6 -84 -8q-101 -1 -146 33t-46 111v313h-58v49q10 9 24 17q12 6 28.5 11.5t39.5 5.5q28 0 41.5 -15t15.5 -29q0 -3 0.5 -7.5t0.5 -9.5v-309q4 -47 26.5 -64t68.5 -20q39 -2 70.5 2.5t67.5 12.5v395q0 13 1.5 20.5t6 11t13.5 4t23 0.5
q17 0 26.5 -0.5t14.5 -3.5t6.5 -10.5t1.5 -21.5v-564q-1 -45 -13 -77.5t-33 -54.5t-49 -36q-21 -10 -43.5 -16t-36.5 -9t-27 -4q-23 -3 -39 -3q-55 0 -101 10q-27 7 -43 10.5t-23.5 7.5t-7 10.5t5.5 20.5q6 16 10 24.5t9.5 12t13.5 2t22 -6.5q21 -6 49.5 -10.5t63.5 -4.5
q45 3 64 8q40 9 61.5 30.5t24.5 66.5z" />
    <glyph glyph-name="ydieresis.alt" horiz-adv-x="551" 
 />
    <glyph glyph-name="ycircumflex.alt" horiz-adv-x="0" 
 />
    <glyph glyph-name="ygrave.alt" horiz-adv-x="0" 
 />
    <glyph glyph-name="registered.alt" horiz-adv-x="626" 
d="M571 470q0 -60 -18.5 -110t-52.5 -86t-82 -56t-106 -20q-59 0 -106.5 20t-81.5 56t-52.5 86t-18.5 110q0 61 18.5 111.5t52.5 86.5t81.5 55.5t106.5 19.5q58 0 106 -19.5t82 -55.5t52.5 -86.5t18.5 -111.5zM545 472q0 55 -17 100t-47.5 77t-73 50t-94.5 18
q-53 0 -95.5 -18t-73.5 -50t-47.5 -77t-16.5 -100q0 -54 16.5 -99t47.5 -77t73.5 -50t95.5 -18q52 0 94.5 18t73 50t47.5 77t17 99zM433 519q0 -29 -12.5 -50t-34.5 -32l8 -17q10 -25 16.5 -41t9.5 -21h27v-42q-8 -3 -16 -5t-16.5 -3.5t-17.5 -0.5q-11 1 -22 6t-14 13
q-2 5 -6.5 16t-10.5 25t-13 29.5t-13 30.5q-34 2 -43 3h-1v-93q0 -21 -5.5 -24.5t-28.5 -3.5q-21 0 -27 3.5t-6 24.5v247q-19 5 -22 16v37h146q102 0 102 -95v-23zM327 492q37 0 37 33v14q0 34 -37 34h-53v-78q16 -3 32 -3h21z" />
    <glyph glyph-name="gcircumflex.alt" horiz-adv-x="585" 
 />
    <glyph glyph-name="gbreve.alt" horiz-adv-x="585" 
 />
    <glyph glyph-name="gdotaccent.alt" horiz-adv-x="585" 
 />
    <glyph glyph-name="gcommaaccent.alt" horiz-adv-x="585" 
 />
    <glyph glyph-name="aringacute.alt" horiz-adv-x="550" 
 />
    <glyph glyph-name="hyphen.case" horiz-adv-x="434" 
d="M47 252q-15 0 -15 14v54q0 15 15 15h235q15 0 15 -15v-54q0 -14 -15 -14h-235z" />
    <glyph glyph-name="braceleft.case" horiz-adv-x="421" 
d="M234 -99q-54 0 -87 10t-51 29t-24 46t-6 61v174q0 23 -2.5 39.5t-9.5 29.5t-19 24.5t-30 24.5h1q-3 1 -5 5t-2 6v46q0 2 2 6t5 6h-1q18 13 30 24t19 24t9.5 29.5t2.5 39.5v175q0 34 6 61t24 45.5t51 28.5t87 10h52q14 0 14 -15v-53q0 -15 -14 -15h-52q-26 0 -41.5 -3.5
t-23 -11t-9.5 -19t-2 -28.5v-175q0 -55 -13 -89.5t-50 -62.5q34 -28 48.5 -64t14.5 -88v-174q0 -18 2 -30t9.5 -19.5t23 -11t41.5 -3.5h53q14 0 14 -14v-54q0 -14 -14 -14h-53z" />
    <glyph glyph-name="bar.case" horiz-adv-x="293" 
d="M51 -113q-14 0 -14 14v915q0 15 14 15h63q14 0 14 -15v-915q0 -14 -14 -14h-63z" />
    <glyph glyph-name="braceright.case" horiz-adv-x="422" 
d="M13 -99q-14 0 -14 14v54q0 14 14 14h53q26 0 41.5 3.5t23 11t9.5 19.5t2 30v174q0 52 14.5 88t48.5 64q-37 28 -50 62.5t-13 89.5v175q0 17 -2 28.5t-9.5 19t-23 11t-41.5 3.5h-52q-14 0 -14 15v53q0 15 14 15h52q54 0 87 -10t51 -28.5t24 -45.5t6 -61v-175
q0 -23 2.5 -39.5t9.5 -29.5t19 -24t30 -24h-1q3 -2 5 -6t2 -6v-46q0 -2 -2 -6t-5 -5h1q-18 -13 -30 -24.5t-19 -24.5t-9.5 -29.5t-2.5 -39.5v-174q0 -34 -6 -61t-24 -46t-51 -29t-87 -10h-53z" />
    <glyph glyph-name="guillemotleft.case" horiz-adv-x="651" 
d="M-1 279v-1q-4 4 -4 10t4 10v-1q38 50 76.5 99t76.5 99v-1q1 2 5 4.5t6 2.5h75q11 0 14.5 -7.5t-2.5 -15.5l-143 -190l143 -189q6 -8 2.5 -16t-14.5 -8h-75q-2 0 -6 2t-5 5v-1zM406 495v-1q1 2 5 4.5t6 2.5h75q11 0 14.5 -7.5t-2.5 -15.5l-145 -190q14 -20 29.5 -40
t31.5 -40q21 -27 42.5 -54.5t41.5 -54.5q6 -8 2.5 -16t-14.5 -8h-75q-2 0 -6 2t-5 5v-1l-155 198v-1q-4 4 -4 10t4 10v-1z" />
    <glyph glyph-name="periodcentered.case" horiz-adv-x="101" 
d="M-55 379q0 16 1.5 25t7 13.5t15 5t24.5 0.5q19 0 30.5 -0.5t17 -4.5t7 -13t1.5 -26v-18q0 -17 -1.5 -25.5t-7 -13t-15 -5t-25.5 -0.5q-19 0 -30 0.5t-16.5 4.5t-7 13t-1.5 26v18v0z" />
    <glyph glyph-name="guillemotright.case" horiz-adv-x="651" 
d="M342 81v1q-4 -7 -11 -7h-75q-11 0 -14.5 8t2.5 16l143 189q-12 16 -23.5 31.5t-22.5 29.5q-25 33 -48.5 65t-48.5 64q-6 8 -2.5 15.5t14.5 7.5h75q2 0 5.5 -2.5t5.5 -4.5v1q38 -50 76.5 -99t76.5 -99v1q4 -4 4 -10t-4 -10v1zM243 297v1q4 -4 4 -10t-4 -10v1l-155 -198v1
q-2 -3 -6 -5t-6 -2h-74q-11 0 -14.5 8t2.5 16l145 189q-35 48 -72 95t-73 95q-6 8 -2.5 15.5t14.5 7.5h74q2 0 6 -2.5t6 -4.5v1z" />
    <glyph glyph-name="endash.case" horiz-adv-x="527" 
d="M34 252q-14 0 -14 14v55q0 15 14 15h342q15 0 15 -15v-55q0 -14 -15 -14h-342z" />
    <glyph glyph-name="emdash.case" horiz-adv-x="676" 
d="M43 252q-14 0 -14 14v55q0 15 14 15h476q15 0 15 -15v-55q0 -14 -15 -14h-476z" />
    <glyph glyph-name="bullet.case" horiz-adv-x="564" 
d="M346 369q0 -29 -11 -54.5t-30 -45t-45 -30.5t-55 -11t-54.5 11t-45 30.5t-31 45t-11.5 54.5q0 30 11.5 55.5t31 44.5t45 30t54.5 11t55 -11t45 -30t30 -44.5t11 -55.5z" />
    <glyph glyph-name="guilsinglleft.case" horiz-adv-x="366" 
d="M160 75q-2 0 -6.5 2t-5.5 5v-1l-153 198v-1q-4 4 -4 10t4 10v-1l153 198v-1q1 2 5.5 4.5t6.5 2.5h75q9 0 13 -7.5t-2 -15.5l-144 -190q14 -19 28.5 -37t27.5 -37q22 -28 45 -57.5t43 -57.5q6 -8 2 -16t-13 -8h-75z" />
    <glyph glyph-name="guilsinglright.case.013" horiz-adv-x="367" 
d="M123 81v1q-2 -3 -6 -5t-6 -2h-75q-10 0 -13.5 8t2.5 16l145 189q-36 48 -73 95t-72 95q-6 8 -2.5 15.5t13.5 7.5h75q2 0 6 -2.5t6 -4.5v1l154 -198v1q4 -4 4 -10t-4 -10v1z" />
    <glyph glyph-name="zero" unicode="0" horiz-adv-x="601" 
d="M295 -11q-126 0 -184.5 58t-59.5 186v276q0 129 58 188t186 59h13q125 0 182 -59t57 -188v-276q-1 -127 -58 -185.5t-181 -58.5h-13zM305 81q141 0 141 149v285q0 151 -141 151h-8q-72 0 -106.5 -37t-34.5 -114v-285q0 -76 34.5 -112.5t106.5 -36.5h8z" />
    <glyph glyph-name="exclam" unicode="!" horiz-adv-x="270" 
d="M146 363l-9 -161q-1 -5 -5.5 -9.5t-9.5 -4.5h-47q-6 0 -10 4.5t-5 9.5l-9 161v387q0 15 14 15h67q14 0 14 -15v-387zM45 65q0 17 1.5 26t7 13.5t15 5t26.5 0.5q19 0 30.5 -0.5t17.5 -4.5t7.5 -13t1.5 -27v-20q0 -17 -1.5 -26t-7 -13.5t-15.5 -5t-26 -0.5q-20 0 -31 0.5
t-17 4.5t-7.5 13t-1.5 27v20z" />
    <glyph glyph-name="question" unicode="?" horiz-adv-x="479" 
d="M370 583q0 -32 -10.5 -59t-26 -50t-35 -42.5t-37.5 -35.5q-23 -20 -41.5 -41.5t-18.5 -41.5v-116q0 -10 -6 -15.5t-15 -5.5h-55q-21 0 -21 21v119q0 24 7.5 44t20 37.5t28.5 33t33 30.5q31 26 55.5 54t24.5 66q0 43 -26 59t-80 16q-14 0 -36 -3.5t-44 -7.5
q-26 -5 -53 -11q-9 -2 -17 2.5t-10 12.5l-6 54q-2 10 3.5 16t13.5 8q5 1 22.5 5t40 8t46.5 7t42 3q49 0 86.5 -8.5t63 -28t38.5 -51.5t13 -79zM95 64q0 17 1.5 26t7 13.5t15 5t26.5 0.5q19 0 30.5 -0.5t17.5 -4.5t7.5 -13t1.5 -27v-20q0 -17 -1.5 -26t-7 -13.5t-15.5 -5
t-26 -0.5q-20 0 -31 0.5t-17 4.5t-7.5 13t-1.5 27v20z" />
    <glyph glyph-name="questiondown" unicode="&#xbf;" horiz-adv-x="509" 
d="M51 -100q0 32 10.5 59t26 50t35 42t37.5 36q23 20 41.5 41.5t18.5 41.5v116q0 10 6 15.5t15 5.5h55q21 0 21 -21v-119q0 -24 -7.5 -44t-20 -37.5t-28.5 -33t-33 -30.5q-31 -26 -55.5 -54t-24.5 -66q0 -43 26 -59t80 -16q14 0 36 3t44 8q26 4 53 11q9 2 17 -2.5t10 -12.5
l6 -54v1q2 -10 -3.5 -16.5t-13.5 -8.5q-5 -1 -22.5 -5t-40 -8t-46.5 -7t-42 -3q-49 0 -86.5 8.5t-63 28t-38.5 51.5t-13 79zM326 419q0 -17 -1.5 -26t-7 -13.5t-15.5 -5t-26 -0.5q-20 0 -31 0.5t-17 4.5t-7.5 13t-1.5 27v20q0 17 1.5 26t7 13.5t15 5t26.5 0.5
q19 0 30.5 -0.5t17.5 -4.5t7.5 -13t1.5 -27v-20z" />
    <glyph glyph-name="exclamdown" unicode="&#xa1;" horiz-adv-x="280" 
d="M60 135l9 161q1 5 5.5 9.5t9.5 4.5h47q6 0 10 -4.5t5 -9.5l9 -161v-387q0 -15 -14 -15h-67q-14 0 -14 15v387zM161 433q0 -17 -1.5 -26t-7 -13.5t-15.5 -5t-26 -0.5q-20 0 -31 0.5t-17 4.5t-7.5 13t-1.5 27v20q0 17 1.5 26t7 13.5t15 5t26.5 0.5q19 0 30.5 -0.5
t17.5 -4.5t7.5 -13t1.5 -27v-20z" />
    <glyph glyph-name="endash" unicode="&#x2013;" horiz-adv-x="477" 
d="M29 252q-14 0 -14 14v55q0 15 14 15h342q15 0 15 -15v-55q0 -14 -15 -14h-342z" />
    <glyph glyph-name="emdash" unicode="&#x2014;" horiz-adv-x="643" 
d="M47 252q-14 0 -14 14v55q0 15 14 15h476q15 0 15 -15v-55q0 -14 -15 -14h-476z" />
    <glyph glyph-name="hyphen" unicode="-" horiz-adv-x="381" 
d="M38 252q-15 0 -15 14v54q0 15 15 15h235q15 0 15 -15v-54q0 -14 -15 -14h-235z" />
    <glyph glyph-name="bracketleft" unicode="[" horiz-adv-x="366" 
d="M63 -200q-15 0 -15 14v914q0 15 15 15h209q15 0 15 -15v-54q0 -15 -15 -15h-132v-777h132q15 0 15 -14v-54q0 -14 -15 -14h-209z" />
    <glyph glyph-name="bracketright" unicode="]" horiz-adv-x="366" 
d="M7 -200q-14 0 -14 14v54q0 14 14 14h133v778h-133q-14 0 -14 15v53q0 15 14 15h210q14 0 14 -15v-914q0 -14 -14 -14h-210z" />
    <glyph glyph-name="guilsinglright.case" horiz-adv-x="429" 
d="M145 81v1q-2 -3 -6 -5t-6 -2h-75q-10 0 -13.5 8t2.5 16l145 189q-36 48 -73 95t-72 95q-6 8 -2.5 15.5t13.5 7.5h75q2 0 6 -2.5t6 -4.5v1l154 -198v1q4 -4 4 -10t-4 -10v1z" />
    <glyph glyph-name="guilsinglleft" unicode="&#x2039;" horiz-adv-x="429" 
d="M213 75q-2 0 -6.5 2t-5.5 5v-1l-153 198v-1q-4 4 -4 10t4 10v-1l153 198v-1q1 2 5.5 4.5t6.5 2.5h75q9 0 13 -7.5t-2 -15.5l-144 -190q14 -19 28.5 -37t27.5 -37q22 -28 45 -57.5t43 -57.5q6 -8 2 -16t-13 -8h-75z" />
    <glyph glyph-name="Ccedilla" unicode="&#xc7;" horiz-adv-x="618" 
d="M287 82q106 1 176 24q20 5 31.5 9.5t18.5 3.5t12 -8.5t12 -26.5q7 -20 7.5 -32.5t-11 -21t-35.5 -14.5t-64 -14q-36 -6 -67 -9l-44 -134q-3 -9 -13 -14t-18 -1l-55 19q-22 9 -12 31l41 99q-42 6 -77 22q-57 27 -89.5 78.5t-52.5 120.5t-20 157q0 83 24 154t62 121
t98.5 81.5t134 28.5t141.5 -26q21 -7 34 -11t18.5 -10t4.5 -14.5t-7 -24.5q-10 -23 -15.5 -32.5t-12.5 -11t-17.5 3t-30.5 10.5q-72 21 -114.5 24.5t-88.5 -18t-76 -68.5t-43 -98.5t-11.5 -147.5t41 -171t118.5 -79z" />
    <glyph glyph-name="Agrave" unicode="&#xc0;" horiz-adv-x="724" 
d="M99 23q-8 -26 -20.5 -27.5t-37.5 6.5q-15 4 -24 7t-12.5 7.5t-2.5 12t6 21.5l218 655q4 10 8.5 21.5t10.5 14.5q5 2 13.5 3t18.5 1h52h22.5t19.5 -4q6 -3 10.5 -14.5t8.5 -21.5l222 -655h55v-44q-1 0 -25 -7.5t-62 -4.5q-19 2 -34 9.5t-20 17.5t-14 32t-20.5 52.5
t-25 68.5t-27.5 79h-262zM307 676q-4 -14 -12.5 -40t-19 -58t-22 -67t-22 -67t-18.5 -58.5t-11 -40.5h208q-11 36 -20 66.5t-20.5 66.5t-26 83t-36.5 115zM400 823q-5 -9 -14 -4l-185 101q-8 6 -3 14l34 61q5 8 14 3l176 -119q6 -4 2 -12z" />
    <glyph glyph-name="Aacute" unicode="&#xc1;" horiz-adv-x="724" 
d="M99 23q-8 -26 -20.5 -27.5t-37.5 6.5q-15 4 -24 7t-12.5 7.5t-2.5 12t6 21.5l218 655q4 10 8.5 21.5t10.5 14.5q5 2 13.5 3t18.5 1h52h22.5t19.5 -4q6 -3 10.5 -14.5t8.5 -21.5l222 -655h55v-44q-1 0 -25 -7.5t-62 -4.5q-19 2 -34 9.5t-20 17.5t-14 32t-20.5 52.5
t-25 68.5t-27.5 79h-262zM307 676q-4 -14 -12.5 -40t-19 -58t-22 -67t-22 -67t-18.5 -58.5t-11 -40.5h208q-11 36 -20 66.5t-20.5 66.5t-26 83t-36.5 115zM179 867q-4 8 2 12l176 119q9 5 14 -3l34 -61q5 -8 -3 -14l-185 -101q-9 -5 -14 4z" />
    <glyph glyph-name="Atilde" unicode="&#xc3;" horiz-adv-x="724" 
d="M99 23q-8 -26 -20.5 -27.5t-37.5 6.5q-15 4 -24 7t-12.5 7.5t-2.5 12t6 21.5l218 655q4 10 8.5 21.5t10.5 14.5q5 2 13.5 3t18.5 1h52h22.5t19.5 -4q6 -3 10.5 -14.5t8.5 -21.5l222 -655h55v-44q-1 0 -25 -7.5t-62 -4.5q-19 2 -34 9.5t-20 17.5t-14 32t-20.5 52.5
t-25 68.5t-27.5 79h-262zM307 676q-4 -14 -12.5 -40t-19 -58t-22 -67t-22 -67t-18.5 -58.5t-11 -40.5h208q-11 36 -20 66.5t-20.5 66.5t-26 83t-36.5 115zM463 880q0 -4 -1.5 -9t-3.5 -7q-12 -12 -27 -22q-13 -8 -29.5 -14.5t-33.5 -6.5q-22 0 -43 6.5t-41 15.5l-18 6
q-11 4 -20.5 7t-14.5 3q-8 0 -18.5 -5.5t-19.5 -11.5q-11 -7 -22 -16q-10 -8 -19.5 -3.5t-11.5 16.5l-6 41q0 3 2 9.5t5 8.5q13 12 28 22q13 8 29.5 15t34.5 7q20 0 42 -7t42 -15q17 -7 30.5 -11.5t21.5 -4.5t18 4.5t18 10.5q10 7 20 16q10 7 20 4t12 -15z" />
    <glyph glyph-name="Adieresis" unicode="&#xc4;" horiz-adv-x="724" 
d="M99 23q-8 -26 -20.5 -27.5t-37.5 6.5q-15 4 -24 7t-12.5 7.5t-2.5 12t6 21.5l218 655q4 10 8.5 21.5t10.5 14.5q5 2 13.5 3t18.5 1h52h22.5t19.5 -4q6 -3 10.5 -14.5t8.5 -21.5l222 -655h55v-44q-1 0 -25 -7.5t-62 -4.5q-19 2 -34 9.5t-20 17.5t-14 32t-20.5 52.5
t-25 68.5t-27.5 79h-262zM307 676q-4 -14 -12.5 -40t-19 -58t-22 -67t-22 -67t-18.5 -58.5t-11 -40.5h208q-11 36 -20 66.5t-20.5 66.5t-26 83t-36.5 115zM168 881q0 17 1.5 26t7 13.5t15 5t26.5 0.5q19 0 30.5 -0.5t17.5 -4.5t7.5 -13t1.5 -27v-20q0 -17 -1.5 -26t-7 -13.5
t-15.5 -5t-26 -0.5q-20 0 -31 0.5t-17 4.5t-7.5 13t-1.5 27v20zM354 881q0 17 1.5 26t7 13.5t15 5t26.5 0.5q19 0 30.5 -0.5t17.5 -4.5t7.5 -13t1.5 -27v-20q0 -17 -1.5 -26t-7 -13.5t-15.5 -5t-26 -0.5q-20 0 -31 0.5t-17 4.5t-7.5 13t-1.5 27v20z" />
    <glyph glyph-name="Aring" unicode="&#xc5;" horiz-adv-x="724" 
d="M99 23q-8 -26 -20.5 -27.5t-37.5 6.5q-15 4 -24 7t-12.5 7.5t-2.5 12t6 21.5l218 655q4 10 8.5 21.5t10.5 14.5q5 2 13.5 3t18.5 1h52h22.5t19.5 -4q6 -3 10.5 -14.5t8.5 -21.5l222 -655h55v-44q-1 0 -25 -7.5t-62 -4.5q-19 2 -34 9.5t-20 17.5t-14 32t-20.5 52.5
t-25 68.5t-27.5 79h-262zM307 676q-4 -14 -12.5 -40t-19 -58t-22 -67t-22 -67t-18.5 -58.5t-11 -40.5h208q-11 36 -20 66.5t-20.5 66.5t-26 83t-36.5 115zM406 829q0 -54 -30.5 -79t-78.5 -25t-79.5 25t-31.5 79t31.5 79t79.5 25t78.5 -25t30.5 -79zM349 828q0 28 -16 39
t-36 11q-21 0 -36.5 -11t-15.5 -39q0 -29 15.5 -39.5t36.5 -10.5q20 0 36 10.5t16 39.5z" />
    <glyph glyph-name="Amacron" unicode="&#x100;" horiz-adv-x="724" 
d="M99 23q-8 -26 -20.5 -27.5t-37.5 6.5q-15 4 -24 7t-12.5 7.5t-2.5 12t6 21.5l218 655q4 10 8.5 21.5t10.5 14.5q5 2 13.5 3t18.5 1h52h22.5t19.5 -4q6 -3 10.5 -14.5t8.5 -21.5l222 -655h55v-44q-1 0 -25 -7.5t-62 -4.5q-19 2 -34 9.5t-20 17.5t-14 32t-20.5 52.5
t-25 68.5t-27.5 79h-262zM307 676q-4 -14 -12.5 -40t-19 -58t-22 -67t-22 -67t-18.5 -58.5t-11 -40.5h208q-11 36 -20 66.5t-20.5 66.5t-26 83t-36.5 115zM134 814q-15 0 -15 14v51q0 14 15 14h329q14 0 14 -14v-51q0 -14 -14 -14h-329z" />
    <glyph glyph-name="Abreve" unicode="&#x102;" horiz-adv-x="724" 
d="M99 23q-8 -26 -20.5 -27.5t-37.5 6.5q-15 4 -24 7t-12.5 7.5t-2.5 12t6 21.5l218 655q4 10 8.5 21.5t10.5 14.5q5 2 13.5 3t18.5 1h52h22.5t19.5 -4q6 -3 10.5 -14.5t8.5 -21.5l222 -655h55v-44q-1 0 -25 -7.5t-62 -4.5q-19 2 -34 9.5t-20 17.5t-14 32t-20.5 52.5
t-25 68.5t-27.5 79h-262zM307 676q-4 -14 -12.5 -40t-19 -58t-22 -67t-22 -67t-18.5 -58.5t-11 -40.5h208q-11 36 -20 66.5t-20.5 66.5t-26 83t-36.5 115zM191 995q5 0 9.5 -4t5.5 -8q5 -47 25 -71t70 -24q47 0 66.5 25t25.5 70q1 5 5 8.5t10 3.5h48q7 0 10.5 -5t3.5 -10
q-2 -35 -11.5 -64.5t-29 -52t-51 -35t-79.5 -12.5q-47 0 -79 12.5t-51.5 35t-28.5 52t-11 64.5q0 5 3.5 10t10.5 5h48v0z" />
    <glyph glyph-name="Aogonek" unicode="&#x104;" horiz-adv-x="724" 
d="M112 23q-8 -26 -20.5 -27.5t-37.5 6.5q-15 4 -24 7t-12.5 7.5t-2.5 12t6 21.5l218 655q4 10 8.5 21.5t10.5 14.5q5 2 13.5 3t18.5 1h52h22.5t19.5 -4q6 -3 10.5 -14.5t8.5 -21.5l222 -655h55v-44q-1 0 -13 -5q-37 -16 -61.5 -29.5t-39.5 -25.5t-21.5 -22.5t-6.5 -21.5
q0 -17 12 -27t41 -10q14 0 27.5 1t27.5 3l21 2q15 0 15 -15v-44q0 -3 -4 -5l-8 -2h2q-9 -3 -33.5 -6.5t-53.5 -3.5q-68 0 -99 28t-31 76q0 34 24.5 63t64.5 52q-4 4 -5 7q-5 10 -14 32t-20.5 52.5t-25 68.5t-27.5 79h-262zM320 676q-4 -14 -12.5 -40t-19 -58t-22 -67
t-22 -67t-18.5 -58.5t-11 -40.5h208q-11 36 -20 66.5t-20.5 66.5t-26 83t-36.5 115z" />
    <glyph glyph-name="Aringacute" unicode="&#x1fa;" horiz-adv-x="724" 
d="M445 825q0 -54 -30.5 -79t-78.5 -25t-79.5 25t-31.5 79t31.5 79t79.5 25q43 0 69 -19l93 63q9 5 14 -3l34 -61q5 -8 -3 -14l-99 -54q0 -4 0.5 -8t0.5 -8zM388 824q0 28 -16 39t-36 11q-21 0 -36.5 -11t-15.5 -39q0 -29 15.5 -39.5t36.5 -10.5q20 0 36 10.5t16 39.5z
M114 23q-8 -26 -20.5 -27.5t-37.5 6.5q-15 4 -24 7t-12.5 7.5t-2.5 12t6 21.5l218 655q4 10 8.5 21.5t10.5 14.5q5 2 13.5 3t18.5 1h52h22.5t19.5 -4q6 -3 10.5 -14.5t8.5 -21.5l222 -655h55v-44q-1 0 -25 -7.5t-62 -4.5q-19 2 -34 9.5t-20 17.5t-14 32t-20.5 52.5t-25 68.5
t-27.5 79h-262zM322 676q-4 -14 -12.5 -40t-19 -58t-22 -67t-22 -67t-18.5 -58.5t-11 -40.5h208q-11 36 -20 66.5t-20.5 66.5t-26 83t-36.5 115z" />
    <glyph glyph-name="AEacute" unicode="&#x1fc;" horiz-adv-x="1066" 
d="M692 0q-66 -2 -111.5 13.5t-73 43t-39 64.5t-9.5 77v138h-248q-21 -66 -45.5 -144t-52.5 -169q-8 -26 -20.5 -27.5t-37.5 6.5q-15 4 -24 7t-12.5 7.5t-2.5 12t6 21.5l218 655q4 10 8.5 21.5t10.5 14.5q5 2 13.5 3t18.5 1h582q27 0 31.5 -7.5t4.5 -30.5q0 -14 -0.5 -23.5
t-3.5 -15.5t-10.5 -8.5t-21.5 -2.5h-318v-229h265q27 0 31.5 -9.5t4.5 -32.5q0 -14 -0.5 -23.5t-3.5 -15.5t-10.5 -8.5t-21.5 -2.5h-265v-138q-1 -34 11.5 -55t34 -32t51 -15.5t63.5 -5.5h158q27 0 31.5 -8.5t4.5 -31.5q0 -14 -0.5 -23.5t-3.5 -15.5t-10.5 -8.5t-21.5 -2.5
h-181zM240 428h219v228h-144zM407 867q-4 8 2 12l176 119q9 5 14 -3l34 -61q5 -8 -3 -14l-185 -101q-9 -5 -14 4z" />
    <glyph glyph-name="Ograve" unicode="&#xd2;" horiz-adv-x="776" 
d="M329 754q86 6 151 -17t109 -69.5t67.5 -114.5t25.5 -150q3 -88 -12.5 -161t-51 -126.5t-92 -85.5t-135.5 -38q-87 -6 -151 17t-107 69t-66.5 113t-28.5 149q-8 132 31 229.5t123 144.5q28 16 62.5 26.5t74.5 13.5zM177 565q-11 -19 -18 -44t-11.5 -52.5t-6 -57
t-1.5 -58.5q1 -61 14 -111t41.5 -84.5t74.5 -52t112 -14.5q58 3 97 26.5t62 63.5t32 94t8 117q-2 60 -14.5 111t-41 86.5t-74 54t-111.5 14.5q-116 -10 -163 -93zM446 825q-5 -9 -14 -4l-185 101q-8 6 -3 14l34 61q5 8 14 3l176 -119q6 -4 2 -12z" />
    <glyph glyph-name="Oacute" unicode="&#xd3;" horiz-adv-x="776" 
d="M329 754q86 6 151 -17t109 -69.5t67.5 -114.5t25.5 -150q3 -88 -12.5 -161t-51 -126.5t-92 -85.5t-135.5 -38q-87 -6 -151 17t-107 69t-66.5 113t-28.5 149q-8 132 31 229.5t123 144.5q28 16 62.5 26.5t74.5 13.5zM177 565q-11 -19 -18 -44t-11.5 -52.5t-6 -57
t-1.5 -58.5q1 -61 14 -111t41.5 -84.5t74.5 -52t112 -14.5q58 3 97 26.5t62 63.5t32 94t8 117q-2 60 -14.5 111t-41 86.5t-74 54t-111.5 14.5q-116 -10 -163 -93zM225 866q-4 8 2 12l176 119q9 5 14 -3l34 -61q5 -8 -3 -14l-185 -101q-9 -5 -14 4z" />
    <glyph glyph-name="Ocircumflex" unicode="&#xd4;" horiz-adv-x="776" 
d="M329 754q86 6 151 -17t109 -69.5t67.5 -114.5t25.5 -150q3 -88 -12.5 -161t-51 -126.5t-92 -85.5t-135.5 -38q-87 -6 -151 17t-107 69t-66.5 113t-28.5 149q-8 132 31 229.5t123 144.5q28 16 62.5 26.5t74.5 13.5zM177 565q-11 -19 -18 -44t-11.5 -52.5t-6 -57
t-1.5 -58.5q1 -61 14 -111t41.5 -84.5t74.5 -52t112 -14.5q58 3 97 26.5t62 63.5t32 94t8 117q-2 60 -14.5 111t-41 86.5t-74 54t-111.5 14.5q-116 -10 -163 -93zM466 816q-4 0 -7 3v-1l-103 108l-103 -108v1q-3 -3 -7 -3h-65q-7 0 -9.5 5.5t2.5 10.5l134 149q4 4 7 4h82
q3 0 7 -4l134 -149q5 -5 2.5 -10.5t-9.5 -5.5h-65z" />
    <glyph glyph-name="Otilde" unicode="&#xd5;" horiz-adv-x="776" 
d="M329 754q86 6 151 -17t109 -69.5t67.5 -114.5t25.5 -150q3 -88 -12.5 -161t-51 -126.5t-92 -85.5t-135.5 -38q-87 -6 -151 17t-107 69t-66.5 113t-28.5 149q-8 132 31 229.5t123 144.5q28 16 62.5 26.5t74.5 13.5zM177 565q-11 -19 -18 -44t-11.5 -52.5t-6 -57
t-1.5 -58.5q1 -61 14 -111t41.5 -84.5t74.5 -52t112 -14.5q58 3 97 26.5t62 63.5t32 94t8 117q-2 60 -14.5 111t-41 86.5t-74 54t-111.5 14.5q-116 -10 -163 -93zM508 879q0 -4 -1.5 -9t-3.5 -7q-12 -12 -27 -22q-13 -8 -29.5 -14.5t-33.5 -6.5q-22 0 -43 6.5t-41 15.5
l-18 6q-11 4 -20.5 7t-14.5 3q-8 0 -18.5 -5.5t-19.5 -11.5q-11 -7 -22 -16q-10 -8 -19.5 -3.5t-11.5 16.5l-6 41q0 3 2 9.5t5 8.5q13 12 28 22q13 8 29.5 15t34.5 7q20 0 42 -7t42 -15q17 -7 30.5 -11.5t21.5 -4.5t18 4.5t18 10.5q10 7 20 16q10 7 20 4t12 -15z" />
    <glyph glyph-name="Odieresis" unicode="&#xd6;" horiz-adv-x="776" 
d="M329 754q86 6 151 -17t109 -69.5t67.5 -114.5t25.5 -150q3 -88 -12.5 -161t-51 -126.5t-92 -85.5t-135.5 -38q-87 -6 -151 17t-107 69t-66.5 113t-28.5 149q-8 132 31 229.5t123 144.5q28 16 62.5 26.5t74.5 13.5zM177 565q-11 -19 -18 -44t-11.5 -52.5t-6 -57
t-1.5 -58.5q1 -61 14 -111t41.5 -84.5t74.5 -52t112 -14.5q58 3 97 26.5t62 63.5t32 94t8 117q-2 60 -14.5 111t-41 86.5t-74 54t-111.5 14.5q-116 -10 -163 -93zM214 883q0 17 1.5 26t7 13.5t15 5t26.5 0.5q19 0 30.5 -0.5t17.5 -4.5t7.5 -13t1.5 -27v-20q0 -17 -1.5 -26
t-7 -13.5t-15.5 -5t-26 -0.5q-20 0 -31 0.5t-17 4.5t-7.5 13t-1.5 27v20zM400 883q0 17 1.5 26t7 13.5t15 5t26.5 0.5q19 0 30.5 -0.5t17.5 -4.5t7.5 -13t1.5 -27v-20q0 -17 -1.5 -26t-7 -13.5t-15.5 -5t-26 -0.5q-20 0 -31 0.5t-17 4.5t-7.5 13t-1.5 27v20z" />
    <glyph glyph-name="Cacute" unicode="&#x106;" horiz-adv-x="618" 
d="M287 82q106 1 176 24q20 5 31.5 9.5t18.5 3.5t12 -8.5t12 -26.5q7 -20 7.5 -32.5t-11 -21t-35.5 -14.5t-64 -14q-65 -11 -111 -11q-77 -3 -134 24t-89.5 78.5t-52.5 120.5t-20 157q0 83 24 154t62 121t98.5 81.5t134 28.5t141.5 -26q21 -7 34 -11t18.5 -10t4.5 -14.5
t-7 -24.5q-10 -23 -15.5 -32.5t-12.5 -11t-17.5 3t-30.5 10.5q-72 21 -114.5 24.5t-88.5 -18t-76 -68.5t-43 -98.5t-11.5 -147.5t41 -171t118.5 -79zM179 867q-4 8 2 12l176 119q9 5 14 -3l34 -61q5 -8 -3 -14l-185 -101q-9 -5 -14 4z" />
    <glyph glyph-name="Cdotaccent" unicode="&#x10a;" horiz-adv-x="618" 
d="M287 82q106 1 176 24q20 5 31.5 9.5t18.5 3.5t12 -8.5t12 -26.5q7 -20 7.5 -32.5t-11 -21t-35.5 -14.5t-64 -14q-65 -11 -111 -11q-77 -3 -134 24t-89.5 78.5t-52.5 120.5t-20 157q0 83 24 154t62 121t98.5 81.5t134 28.5t141.5 -26q21 -7 34 -11t18.5 -10t4.5 -14.5
t-7 -24.5q-10 -23 -15.5 -32.5t-12.5 -11t-17.5 3t-30.5 10.5q-72 21 -114.5 24.5t-88.5 -18t-76 -68.5t-43 -98.5t-11.5 -147.5t41 -171t118.5 -79zM247 881q0 17 1.5 26t7 13.5t15 5t26.5 0.5q19 0 30.5 -0.5t17.5 -4.5t7.5 -13t1.5 -27v-20q0 -17 -1.5 -26t-7 -13.5
t-15.5 -5t-26 -0.5q-20 0 -31 0.5t-17 4.5t-7.5 13t-1.5 27v20v0z" />
    <glyph glyph-name="Ccaron" unicode="&#x10c;" horiz-adv-x="618" 
d="M287 82q106 1 176 24q20 5 31.5 9.5t18.5 3.5t12 -8.5t12 -26.5q7 -20 7.5 -32.5t-11 -21t-35.5 -14.5t-64 -14q-65 -11 -111 -11q-77 -3 -134 24t-89.5 78.5t-52.5 120.5t-20 157q0 83 24 154t62 121t98.5 81.5t134 28.5t141.5 -26q21 -7 34 -11t18.5 -10t4.5 -14.5
t-7 -24.5q-10 -23 -15.5 -32.5t-12.5 -11t-17.5 3t-30.5 10.5q-72 21 -114.5 24.5t-88.5 -18t-76 -68.5t-43 -98.5t-11.5 -147.5t41 -171t118.5 -79zM202 993q6 0 11 -5l96 -102l48 49v-1l51 54q5 5 11 5h64q11 0 14.5 -8t-3.5 -16l-132 -149q-1 -1 -5 -2.5t-6 -1.5h-81
q-3 0 -6.5 1.5t-4.5 2.5l-132 149q-7 8 -3.5 16t14.5 8h64z" />
    <glyph glyph-name="Gbreve" unicode="&#x11e;" horiz-adv-x="637" 
d="M287 82q97 1 164 20v211q0 13 1.5 20.5t6 11t13.5 4t23 0.5q16 0 25.5 -0.5t14.5 -3.5t7 -9.5t2 -18.5v-258q2 -12 -2.5 -20t-17.5 -14t-35 -11.5t-55 -11.5q-65 -11 -111 -11q-77 -3 -134 24t-89.5 78.5t-52.5 120.5t-20 157q0 83 24 154t62 121t98.5 81.5t134 28.5
t141.5 -26q21 -7 34 -11t18.5 -10t4.5 -14.5t-7 -24.5q-10 -23 -15.5 -32.5t-12.5 -11t-17.5 3t-30.5 10.5q-72 21 -114.5 24.5t-88.5 -18t-76 -68.5t-43 -98.5t-11.5 -147.5t41 -171t118.5 -79zM205 995q5 0 9.5 -4t5.5 -8q5 -47 25 -71t70 -24q47 0 66.5 25t25.5 70
q1 5 5 8.5t10 3.5h48q7 0 10.5 -5t3.5 -10q-2 -35 -11.5 -64.5t-29 -52t-51 -35t-79.5 -12.5q-47 0 -79 12.5t-51.5 35t-28.5 52t-11 64.5q0 5 3.5 10t10.5 5h48v0z" />
    <glyph glyph-name="Gdotaccent" unicode="&#x120;" horiz-adv-x="637" 
d="M287 82q97 1 164 20v211q0 13 1.5 20.5t6 11t13.5 4t23 0.5q16 0 25.5 -0.5t14.5 -3.5t7 -9.5t2 -18.5v-258q2 -12 -2.5 -20t-17.5 -14t-35 -11.5t-55 -11.5q-65 -11 -111 -11q-77 -3 -134 24t-89.5 78.5t-52.5 120.5t-20 157q0 83 24 154t62 121t98.5 81.5t134 28.5
t141.5 -26q21 -7 34 -11t18.5 -10t4.5 -14.5t-7 -24.5q-10 -23 -15.5 -32.5t-12.5 -11t-17.5 3t-30.5 10.5q-72 21 -114.5 24.5t-88.5 -18t-76 -68.5t-43 -98.5t-11.5 -147.5t41 -171t118.5 -79zM255 880q0 17 1.5 26t7 13.5t15 5t26.5 0.5q19 0 30.5 -0.5t17.5 -4.5
t7.5 -13t1.5 -27v-20q0 -17 -1.5 -26t-7 -13.5t-15.5 -5t-26 -0.5q-20 0 -31 0.5t-17 4.5t-7.5 13t-1.5 27v20v0z" />
    <glyph glyph-name="Gcommaaccent" unicode="&#x122;" horiz-adv-x="637" 
d="M242 -247q-14 8 -9 22l66 152q8 17 25 8l47 -27q7 -4 9 -11.5t-1 -13.5l-86 -142q-3 -7 -10.5 -8t-12.5 1zM298 82q97 1 164 20v211q0 13 1.5 20.5t6 11t13.5 4t23 0.5q16 0 25.5 -0.5t14.5 -3.5t7 -9.5t2 -18.5v-258q2 -12 -2.5 -20t-17.5 -14t-35 -11.5t-55 -11.5
q-65 -11 -111 -11q-77 -3 -134 24t-89.5 78.5t-52.5 120.5t-20 157q0 83 24 154t62 121t98.5 81.5t134 28.5t141.5 -26q21 -7 34 -11t18.5 -10t4.5 -14.5t-7 -24.5q-10 -23 -15.5 -32.5t-12.5 -11t-17.5 3t-30.5 10.5q-72 21 -114.5 24.5t-88.5 -18t-76 -68.5t-43 -98.5
t-11.5 -147.5t41 -171t118.5 -79z" />
    <glyph glyph-name="Omacron" unicode="&#x14c;" horiz-adv-x="776" 
d="M329 754q86 6 151 -17t109 -69.5t67.5 -114.5t25.5 -150q3 -88 -12.5 -161t-51 -126.5t-92 -85.5t-135.5 -38q-87 -6 -151 17t-107 69t-66.5 113t-28.5 149q-8 132 31 229.5t123 144.5q28 16 62.5 26.5t74.5 13.5zM177 565q-11 -19 -18 -44t-11.5 -52.5t-6 -57
t-1.5 -58.5q1 -61 14 -111t41.5 -84.5t74.5 -52t112 -14.5q58 3 97 26.5t62 63.5t32 94t8 117q-2 60 -14.5 111t-41 86.5t-74 54t-111.5 14.5q-116 -10 -163 -93zM181 816q-15 0 -15 14v51q0 14 15 14h329q14 0 14 -14v-51q0 -14 -14 -14h-329z" />
    <glyph glyph-name="Obreve" unicode="&#x14e;" horiz-adv-x="776" 
d="M329 754q86 6 151 -17t109 -69.5t67.5 -114.5t25.5 -150q3 -88 -12.5 -161t-51 -126.5t-92 -85.5t-135.5 -38q-87 -6 -151 17t-107 69t-66.5 113t-28.5 149q-8 132 31 229.5t123 144.5q28 16 62.5 26.5t74.5 13.5zM177 565q-11 -19 -18 -44t-11.5 -52.5t-6 -57
t-1.5 -58.5q1 -61 14 -111t41.5 -84.5t74.5 -52t112 -14.5q58 3 97 26.5t62 63.5t32 94t8 117q-2 60 -14.5 111t-41 86.5t-74 54t-111.5 14.5q-116 -10 -163 -93zM237 994q5 0 9.5 -4t5.5 -8q5 -47 25 -71t70 -24q47 0 66.5 25t25.5 70q1 5 5 8.5t10 3.5h48q7 0 10.5 -5
t3.5 -10q-2 -35 -11.5 -64.5t-29 -52t-51 -35t-79.5 -12.5q-47 0 -79 12.5t-51.5 35t-28.5 52t-11 64.5q0 5 3.5 10t10.5 5h48v0z" />
    <glyph glyph-name="Ohungarumlaut" unicode="&#x150;" horiz-adv-x="776" 
d="M290 1052q1 5 5 8.5t9 3.5h71q7 0 11.5 -5.5t2.5 -13.5l-68 -220q-2 -4 -6.5 -7.5t-8.5 -3.5h-52q-8 0 -12 5t-3 13zM461 1052q1 5 5 8.5t9 3.5h71q7 0 11.5 -5.5t2.5 -13.5l-68 -220q-2 -4 -6.5 -7.5t-8.5 -3.5h-52q-8 0 -12 5t-3 13zM331 754q86 6 151 -17t109 -69.5
t67.5 -114.5t25.5 -150q3 -88 -12.5 -161t-51 -126.5t-92 -85.5t-135.5 -38q-87 -6 -151 17t-107 69t-66.5 113t-28.5 149q-8 132 31 229.5t123 144.5q28 16 62.5 26.5t74.5 13.5zM179 565q-11 -19 -18 -44t-11.5 -52.5t-6 -57t-1.5 -58.5q1 -61 14 -111t41.5 -84.5
t74.5 -52t112 -14.5q58 3 97 26.5t62 63.5t32 94t8 117q-2 60 -14.5 111t-41 86.5t-74 54t-111.5 14.5q-116 -10 -163 -93z" />
    <glyph glyph-name="Dcaron" unicode="&#x10e;" horiz-adv-x="689" 
d="M89 -1q-16 0 -25 0.5t-13.5 4t-6 11t-1.5 21.5v641q-50 6 -54 22v48h307q42 0 78 -9q58 -13 97.5 -45.5t63.5 -79.5t34 -107t10 -127q0 -80 -13.5 -149.5t-46 -120.5t-87.5 -80.5t-138 -29.5h-205zM138 87h152q58 0 95.5 22.5t59 61.5t29.5 92.5t8 115.5q0 46 -7 96
t-27 91.5t-56.5 67.5t-95.5 24h-157v-90zM139 993q6 0 11 -5l96 -102l48 49v-1l51 54q5 5 11 5h64q11 0 14.5 -8t-3.5 -16l-132 -149q-1 -1 -5 -2.5t-6 -1.5h-81q-3 0 -6.5 1.5t-4.5 2.5l-132 149q-7 8 -3.5 16t14.5 8h64z" />
    <glyph glyph-name="Dcroat" unicode="&#x110;" horiz-adv-x="689" 
d="M103 -1q-16 0 -25 0.5t-13.5 4t-6 11t-1.5 21.5v641q-50 6 -54 22v48h307q42 0 78 -9q58 -13 97.5 -45.5t63.5 -79.5t34 -107t10 -127q0 -80 -13.5 -149.5t-46 -120.5t-87.5 -80.5t-138 -29.5h-205zM152 87h152q58 0 95.5 22.5t59 61.5t29.5 92.5t8 115.5q0 46 -7 96
t-27 91.5t-56.5 67.5t-95.5 24h-157v-90zM-13 385q-15 0 -15 14v51q0 14 15 14h329q14 0 14 -14v-51q0 -14 -14 -14h-329z" />
    <glyph glyph-name="Egrave" unicode="&#xc8;" horiz-adv-x="596" 
d="M293 0q-66 -2 -111.5 13.5t-73 43t-39 64.5t-9.5 77v479q-50 6 -54 22v48h468q27 0 31.5 -8.5t4.5 -31.5q0 -14 -0.5 -23.5t-3.5 -15.5t-10.5 -8.5t-21.5 -2.5h-318v-229h265q27 0 31.5 -9.5t4.5 -32.5q0 -14 -0.5 -23.5t-3.5 -15.5t-10.5 -8.5t-21.5 -2.5h-265v-138
q-1 -34 11.5 -55t34 -32t51 -15.5t63.5 -5.5h158q27 0 31.5 -8.5t4.5 -31.5q0 -14 -0.5 -23.5t-3.5 -15.5t-10.5 -8.5t-21.5 -2.5h-181v0zM356 823q-5 -9 -14 -4l-185 101q-8 6 -3 14l34 61q5 8 14 3l176 -119q6 -4 2 -12z" />
    <glyph glyph-name="Eacute" unicode="&#xc9;" horiz-adv-x="595" 
d="M292 0q-66 -2 -111.5 13.5t-73 43t-39 64.5t-9.5 77v479q-50 6 -54 22v48h468q27 0 31.5 -8.5t4.5 -31.5q0 -14 -0.5 -23.5t-3.5 -15.5t-10.5 -8.5t-21.5 -2.5h-318v-229h265q27 0 31.5 -9.5t4.5 -32.5q0 -14 -0.5 -23.5t-3.5 -15.5t-10.5 -8.5t-21.5 -2.5h-265v-138
q-1 -34 11.5 -55t34 -32t51 -15.5t63.5 -5.5h158q27 0 31.5 -8.5t4.5 -31.5q0 -14 -0.5 -23.5t-3.5 -15.5t-10.5 -8.5t-21.5 -2.5h-181v0zM134 866q-4 8 2 12l176 119q9 5 14 -3l34 -61q5 -8 -3 -14l-185 -101q-9 -5 -14 4z" />
    <glyph glyph-name="Ecircumflex" unicode="&#xca;" horiz-adv-x="597" 
d="M294 0q-66 -2 -111.5 13.5t-73 43t-39 64.5t-9.5 77v479q-50 6 -54 22v48h468q27 0 31.5 -8.5t4.5 -31.5q0 -14 -0.5 -23.5t-3.5 -15.5t-10.5 -8.5t-21.5 -2.5h-318v-229h265q27 0 31.5 -9.5t4.5 -32.5q0 -14 -0.5 -23.5t-3.5 -15.5t-10.5 -8.5t-21.5 -2.5h-265v-138
q-1 -34 11.5 -55t34 -32t51 -15.5t63.5 -5.5h158q27 0 31.5 -8.5t4.5 -31.5q0 -14 -0.5 -23.5t-3.5 -15.5t-10.5 -8.5t-21.5 -2.5h-181v0zM379 816q-4 0 -7 3v-1l-103 108l-103 -108v1q-3 -3 -7 -3h-65q-7 0 -9.5 5.5t2.5 10.5l134 149q4 4 7 4h82q3 0 7 -4l134 -149
q5 -5 2.5 -10.5t-9.5 -5.5h-65z" />
    <glyph glyph-name="Edieresis" unicode="&#xcb;" horiz-adv-x="603" 
d="M300 0q-66 -2 -111.5 13.5t-73 43t-39 64.5t-9.5 77v479q-50 6 -54 22v48h468q27 0 31.5 -8.5t4.5 -31.5q0 -14 -0.5 -23.5t-3.5 -15.5t-10.5 -8.5t-21.5 -2.5h-318v-229h265q27 0 31.5 -9.5t4.5 -32.5q0 -14 -0.5 -23.5t-3.5 -15.5t-10.5 -8.5t-21.5 -2.5h-265v-138
q-1 -34 11.5 -55t34 -32t51 -15.5t63.5 -5.5h158q27 0 31.5 -8.5t4.5 -31.5q0 -14 -0.5 -23.5t-3.5 -15.5t-10.5 -8.5t-21.5 -2.5h-181v0zM131 883q0 17 1.5 26t7 13.5t15 5t26.5 0.5q19 0 30.5 -0.5t17.5 -4.5t7.5 -13t1.5 -27v-20q0 -17 -1.5 -26t-7 -13.5t-15.5 -5
t-26 -0.5q-20 0 -31 0.5t-17 4.5t-7.5 13t-1.5 27v20zM317 883q0 17 1.5 26t7 13.5t15 5t26.5 0.5q19 0 30.5 -0.5t17.5 -4.5t7.5 -13t1.5 -27v-20q0 -17 -1.5 -26t-7 -13.5t-15.5 -5t-26 -0.5q-20 0 -31 0.5t-17 4.5t-7.5 13t-1.5 27v20z" />
    <glyph glyph-name="Emacron" unicode="&#x112;" horiz-adv-x="599" 
d="M296 0q-66 -2 -111.5 13.5t-73 43t-39 64.5t-9.5 77v479q-50 6 -54 22v48h468q27 0 31.5 -8.5t4.5 -31.5q0 -14 -0.5 -23.5t-3.5 -15.5t-10.5 -8.5t-21.5 -2.5h-318v-229h265q27 0 31.5 -9.5t4.5 -32.5q0 -14 -0.5 -23.5t-3.5 -15.5t-10.5 -8.5t-21.5 -2.5h-265v-138
q-1 -34 11.5 -55t34 -32t51 -15.5t63.5 -5.5h158q27 0 31.5 -8.5t4.5 -31.5q0 -14 -0.5 -23.5t-3.5 -15.5t-10.5 -8.5t-21.5 -2.5h-181v0zM94 816q-15 0 -15 14v51q0 14 15 14h329q14 0 14 -14v-51q0 -14 -14 -14h-329z" />
    <glyph glyph-name="Ebreve" unicode="&#x114;" horiz-adv-x="596" 
d="M293 0q-66 -2 -111.5 13.5t-73 43t-39 64.5t-9.5 77v479q-50 6 -54 22v48h468q27 0 31.5 -8.5t4.5 -31.5q0 -14 -0.5 -23.5t-3.5 -15.5t-10.5 -8.5t-21.5 -2.5h-318v-229h265q27 0 31.5 -9.5t4.5 -32.5q0 -14 -0.5 -23.5t-3.5 -15.5t-10.5 -8.5t-21.5 -2.5h-265v-138
q-1 -34 11.5 -55t34 -32t51 -15.5t63.5 -5.5h158q27 0 31.5 -8.5t4.5 -31.5q0 -14 -0.5 -23.5t-3.5 -15.5t-10.5 -8.5t-21.5 -2.5h-181v0zM147 995q5 0 9.5 -4t5.5 -8q5 -47 25 -71t70 -24q47 0 66.5 25t25.5 70q1 5 5 8.5t10 3.5h48q7 0 10.5 -5t3.5 -10
q-2 -35 -11.5 -64.5t-29 -52t-51 -35t-79.5 -12.5q-47 0 -79 12.5t-51.5 35t-28.5 52t-11 64.5q0 5 3.5 10t10.5 5h48v0z" />
    <glyph glyph-name="Edotaccent" unicode="&#x116;" horiz-adv-x="593" 
d="M290 0q-66 -2 -111.5 13.5t-73 43t-39 64.5t-9.5 77v479q-50 6 -54 22v48h468q27 0 31.5 -8.5t4.5 -31.5q0 -14 -0.5 -23.5t-3.5 -15.5t-10.5 -8.5t-21.5 -2.5h-318v-229h265q27 0 31.5 -9.5t4.5 -32.5q0 -14 -0.5 -23.5t-3.5 -15.5t-10.5 -8.5t-21.5 -2.5h-265v-138
q-1 -34 11.5 -55t34 -32t51 -15.5t63.5 -5.5h158q27 0 31.5 -8.5t4.5 -31.5q0 -14 -0.5 -23.5t-3.5 -15.5t-10.5 -8.5t-21.5 -2.5h-181v0zM193 883q0 17 1.5 26t7 13.5t15 5t26.5 0.5q19 0 30.5 -0.5t17.5 -4.5t7.5 -13t1.5 -27v-20q0 -17 -1.5 -26t-7 -13.5t-15.5 -5
t-26 -0.5q-20 0 -31 0.5t-17 4.5t-7.5 13t-1.5 27v20v0z" />
    <glyph glyph-name="Eogonek" unicode="&#x118;" horiz-adv-x="595" 
d="M292 0q-66 -2 -111.5 13.5t-73 43t-39 64.5t-9.5 77v479q-50 6 -54 22v48h468q27 0 31.5 -8.5t4.5 -31.5q0 -14 -0.5 -23.5t-3.5 -15.5t-10.5 -8.5t-21.5 -2.5h-318v-229h265q27 0 31.5 -9.5t4.5 -32.5q0 -14 -0.5 -23.5t-3.5 -15.5t-10.5 -8.5t-21.5 -2.5h-265v-138
q-1 -34 11.5 -55t34 -32t51 -15.5t63.5 -5.5h158q27 0 31.5 -8.5t4.5 -31.5v-26t-5 -15q-1 -2 -2 -2.5t-2 -1.5l-6 -3q-75 -32 -103 -55t-28 -45q0 -17 12 -27t41 -10q14 0 27.5 1t27.5 3l21 2q15 0 15 -15v-44q0 -3 -4 -5l-8 -2h2q-9 -3 -33.5 -6.5t-53.5 -3.5
q-68 0 -99 28t-31 76q0 29 18 54.5t49 46.5h-55v0z" />
    <glyph glyph-name="Ecaron" unicode="&#x11a;" horiz-adv-x="600" 
d="M297 0q-66 -2 -111.5 13.5t-73 43t-39 64.5t-9.5 77v479q-50 6 -54 22v48h468q27 0 31.5 -8.5t4.5 -31.5q0 -14 -0.5 -23.5t-3.5 -15.5t-10.5 -8.5t-21.5 -2.5h-318v-229h265q27 0 31.5 -9.5t4.5 -32.5q0 -14 -0.5 -23.5t-3.5 -15.5t-10.5 -8.5t-21.5 -2.5h-265v-138
q-1 -34 11.5 -55t34 -32t51 -15.5t63.5 -5.5h158q27 0 31.5 -8.5t4.5 -31.5q0 -14 -0.5 -23.5t-3.5 -15.5t-10.5 -8.5t-21.5 -2.5h-181v0zM154 992q6 0 11 -5l96 -102l48 49v-1l51 54q5 5 11 5h64q11 0 14.5 -8t-3.5 -16l-132 -149q-1 -1 -5 -2.5t-6 -1.5h-81q-3 0 -6.5 1.5
t-4.5 2.5l-132 149q-7 8 -3.5 16t14.5 8h64z" />
    <glyph glyph-name="Kcommaaccent" unicode="&#x136;" horiz-adv-x="605" 
d="M182 -247q-14 8 -9 22l66 152q8 17 25 8l47 -27q7 -4 9 -11.5t-1 -13.5l-86 -142q-3 -7 -10.5 -8t-12.5 1zM280 396l227 -347h51v-44q-1 0 -25 -6t-62 -6q-37 0 -56 25l-199 300l-74 -89v-193q0 -23 -5 -29t-22 -7h-42q-18 0 -22.5 6.5t-4.5 29.5v674q0 13 2 20.5t7 11
t14.5 4t23.5 0.5q17 0 26.5 -0.5t14.5 -3.5t6.5 -10.5t1.5 -21.5v-334l290 344q17 22 30 22.5t28 -14.5q12 -12 19.5 -19t9 -13t-2.5 -13t-14 -19z" />
    <glyph glyph-name="Lacute" unicode="&#x139;" horiz-adv-x="561" 
d="M98 0q-19 0 -30 1.5t-17 7t-7.5 16t-1.5 27.5v658q0 13 2 20.5t7 11t14.5 4t23.5 0.5q17 0 26.5 -0.5t14.5 -3.5t6 -10.5t1 -21.5v-620h311q27 0 31.5 -8.5t4.5 -31.5q0 -14 -0.5 -23.5t-3.5 -15.5t-10.5 -8.5t-21.5 -2.5h-350v0zM38 867q-4 8 2 12l176 119q9 5 14 -3
l34 -61q5 -8 -3 -14l-185 -101q-9 -5 -14 4z" />
    <glyph glyph-name="Lcommaaccent" unicode="&#x13b;" horiz-adv-x="561" 
d="M177 -247q-14 8 -9 22l66 152q8 17 25 8l47 -27q7 -4 9 -11.5t-1 -13.5l-86 -142q-3 -7 -10.5 -8t-12.5 1zM108 0q-19 0 -30 1.5t-17 7t-7.5 16t-1.5 27.5v658q0 13 2 20.5t7 11t14.5 4t23.5 0.5q17 0 26.5 -0.5t14.5 -3.5t6 -10.5t1 -21.5v-620h311q27 0 31.5 -8.5
t4.5 -31.5q0 -14 -0.5 -23.5t-3.5 -15.5t-10.5 -8.5t-21.5 -2.5h-350z" />
    <glyph glyph-name="Lcaron" unicode="&#x13d;" horiz-adv-x="561" 
d="M98 0q-19 0 -30 1.5t-17 7t-7.5 16t-1.5 27.5v658q0 13 2 20.5t7 11t14.5 4t23.5 0.5q17 0 26.5 -0.5t14.5 -3.5t6 -10.5t1 -21.5v-620h311q27 0 31.5 -8.5t4.5 -31.5q0 -14 -0.5 -23.5t-3.5 -15.5t-10.5 -8.5t-21.5 -2.5h-350v0zM255 753q1 5 5 8.5t9 3.5h71
q7 0 11.5 -5.5t2.5 -13.5l-68 -220q-2 -4 -6.5 -7.5t-8.5 -3.5h-52q-8 0 -12 5t-3 13z" />
    <glyph glyph-name="Racute" unicode="&#x154;" horiz-adv-x="641" 
d="M554 488q0 -148 -126 -182q15 -37 31.5 -78.5t31.5 -78t27 -63.5t17 -35h55v-44q-1 0 -25 -7.5t-62 -4.5q-19 2 -37 9.5t-23 17.5q-4 7 -16.5 35t-29 67.5t-35 84.5t-34.5 86h-15q-87 3 -110 7q-24 4 -45 26v-292q0 -14 -1.5 -21.5t-6.5 -10.5t-14.5 -3.5t-26.5 -0.5
q-14 0 -23.5 0.5t-14.5 4t-7 10.5t-2 21v641q-50 6 -54 22v48h327q112 0 165.5 -50t53.5 -151v-58zM327 385q62 0 94 30.5t32 87.5v36q0 57 -31.5 88t-94.5 31h-169v-259q29 -6 56.5 -10t58.5 -4h54zM158 867q-4 8 2 12l176 119q9 5 14 -3l34 -61q5 -8 -3 -14l-185 -101
q-9 -5 -14 4z" />
    <glyph glyph-name="Rcommaaccent" unicode="&#x156;" horiz-adv-x="628" 
d="M220 -247q-14 8 -9 22l66 152q8 17 25 8l47 -27q7 -4 9 -11.5t-1 -13.5l-86 -142q-3 -7 -10.5 -8t-12.5 1zM554 488q0 -148 -126 -182q15 -37 31.5 -78.5t31.5 -78t27 -63.5t17 -35h55v-44q-1 0 -25 -7.5t-62 -4.5q-19 2 -37 9.5t-23 17.5q-4 7 -16.5 35t-29 67.5
t-35 84.5t-34.5 86h-15q-87 3 -110 7q-24 4 -45 26v-292q0 -14 -1.5 -21.5t-6.5 -10.5t-14.5 -3.5t-26.5 -0.5q-14 0 -23.5 0.5t-14.5 4t-7 10.5t-2 21v641q-50 6 -54 22v48h327q112 0 165.5 -50t53.5 -151v-58zM327 385q62 0 94 30.5t32 87.5v36q0 57 -31.5 88t-94.5 31
h-169v-259q29 -6 56.5 -10t58.5 -4h54z" />
    <glyph glyph-name="Rcaron" unicode="&#x158;" horiz-adv-x="640" 
d="M553 488q0 -148 -126 -182q15 -37 31.5 -78.5t31.5 -78t27 -63.5t17 -35h55v-44q-1 0 -25 -7.5t-62 -4.5q-19 2 -37 9.5t-23 17.5q-4 7 -16.5 35t-29 67.5t-35 84.5t-34.5 86h-15q-87 3 -110 7q-24 4 -45 26v-292q0 -14 -1.5 -21.5t-6.5 -10.5t-14.5 -3.5t-26.5 -0.5
q-14 0 -23.5 0.5t-14.5 4t-7 10.5t-2 21v641q-50 6 -54 22v48h327q112 0 165.5 -50t53.5 -151v-58zM326 385q62 0 94 30.5t32 87.5v36q0 57 -31.5 88t-94.5 31h-169v-259q29 -6 56.5 -10t58.5 -4h54zM154 992q6 0 11 -5l96 -102l48 49v-1l51 54q5 5 11 5h64q11 0 14.5 -8
t-3.5 -16l-132 -149q-1 -1 -5 -2.5t-6 -1.5h-81q-3 0 -6.5 1.5t-4.5 2.5l-132 149q-7 8 -3.5 16t14.5 8h64z" />
    <glyph glyph-name="Sacute" unicode="&#x15a;" horiz-adv-x="587" 
d="M254 663q-81 5 -116.5 -39t-27.5 -104t140 -83t170 -45t57.5 -59t17.5 -109t-13 -111.5t-45.5 -68t-86 -41.5t-120 -12t-162.5 29q-21 7 -34 11t-18.5 9.5t-4.5 14.5t7 24q9 22 16 32.5t16 11.5t23.5 -4.5t39.5 -14.5q69 -20 141 -22q93 4 121.5 37t30 88t-9 73
t-43.5 31.5t-107.5 28.5t-114 29.5t-67.5 37t-39 56.5t-3.5 106.5t64 128t172.5 54.5q86 -2 167 -21l25 -6q19 -6 20 -18.5t-6 -36.5q-5 -15 -6.5 -23.5t-6 -11t-14 -0.5t-29.5 7q-52 13 -154 21zM135 867q-4 8 2 12l176 119q9 5 14 -3l34 -61q5 -8 -3 -14l-185 -101
q-9 -5 -14 4z" />
    <glyph glyph-name="Scedilla" unicode="&#x15e;" horiz-adv-x="587" 
d="M275 663q-81 5 -116.5 -39t-27.5 -104t140 -83t170 -45t57.5 -59t17.5 -109t-13 -111.5t-45.5 -68t-86.5 -41.5q-25 -6 -54 -9l-44 -135q-3 -9 -13 -14t-18 -1l-55 19q-22 9 -12 31l41 99q-56 6 -127 27q-21 7 -34 11t-18.5 9.5t-4.5 14.5t7 24q9 22 16 32.5t16 11.5
t23.5 -4.5t39.5 -14.5q69 -20 141 -22q93 4 121.5 37t30 88t-9 73t-43.5 31.5t-107.5 28.5t-114 29.5t-67.5 37t-39 56.5t-3.5 106.5t64 128t172.5 54.5q86 -2 167 -21l25 -6q19 -6 20 -18.5t-6 -36.5q-5 -15 -6.5 -23.5t-6 -11t-14 -0.5t-29.5 7q-52 13 -154 21z" />
    <glyph glyph-name="Scommaaccent" unicode="&#x218;" horiz-adv-x="587" 
d="M187 -247q-14 8 -9 22l66 152q8 17 25 8l47 -27q7 -4 9 -11.5t-1 -13.5l-86 -142q-3 -7 -10.5 -8t-12.5 1zM275 663q-81 5 -116.5 -39t-27.5 -104t140 -83t170 -45t57.5 -59t17.5 -109t-13 -111.5t-45.5 -68t-86 -41.5t-120 -12t-162.5 29q-21 7 -34 11t-18.5 9.5
t-4.5 14.5t7 24q9 22 16 32.5t16 11.5t23.5 -4.5t39.5 -14.5q69 -20 141 -22q93 4 121.5 37t30 88t-9 73t-43.5 31.5t-107.5 28.5t-114 29.5t-67.5 37t-39 56.5t-3.5 106.5t64 128t172.5 54.5q86 -2 167 -21l25 -6q19 -6 20 -18.5t-6 -36.5q-5 -15 -6.5 -23.5t-6 -11
t-14 -0.5t-29.5 7q-52 13 -154 21z" />
    <glyph glyph-name="Tcommaaccent" unicode="&#x162;" horiz-adv-x="593" 
d="M170 -247q-14 8 -9 22l66 152q8 17 25 8l47 -27q7 -4 9 -11.5t-1 -13.5l-86 -142q-3 -7 -10.5 -8t-12.5 1zM44 662q-14 0 -21.5 1.5t-10.5 6.5t-3.5 13.5t-0.5 22.5q0 23 4.5 31.5t31.5 8.5h463q27 0 31.5 -8.5t4.5 -31.5q0 -14 -0.5 -22.5t-3.5 -13.5t-10.5 -6.5
t-21.5 -1.5h-187v-626q0 -14 -1.5 -21.5t-6.5 -10.5t-14.5 -3.5t-26.5 -0.5q-14 0 -23.5 0.5t-14.5 4t-7 10.5t-2 21v626h-180z" />
    <glyph glyph-name="Tcaron" unicode="&#x164;" horiz-adv-x="614" 
d="M54 662q-14 0 -21.5 1.5t-10.5 6.5t-3.5 13.5t-0.5 22.5q0 23 4.5 31.5t31.5 8.5h463q27 0 31.5 -8.5t4.5 -31.5q0 -14 -0.5 -22.5t-3.5 -13.5t-10.5 -6.5t-21.5 -1.5h-187v-626q0 -14 -1.5 -21.5t-6.5 -10.5t-14.5 -3.5t-26.5 -0.5q-14 0 -23.5 0.5t-14.5 4t-7 10.5
t-2 21v626h-180zM145 992q6 0 11 -5l96 -102l48 49v-1l51 54q5 5 11 5h64q11 0 14.5 -8t-3.5 -16l-132 -149q-1 -1 -5 -2.5t-6 -1.5h-81q-3 0 -6.5 1.5t-4.5 2.5l-132 149q-7 8 -3.5 16t14.5 8h64z" />
    <glyph glyph-name="Ugrave" unicode="&#xd9;" horiz-adv-x="633" 
d="M537 299q0 -29 -1 -58t-5 -56q-11 -94 -76.5 -144.5t-172.5 -48.5q-109 2 -173 49t-77 144q-5 38 -5.5 77t0.5 80v368q0 13 2 20.5t7 11t14.5 4t23.5 0.5q17 0 26.5 -0.5t14.5 -3.5t6.5 -10.5t1.5 -21.5v-367v-60t2.5 -58t8 -52.5t17.5 -42.5q25 -29 67.5 -41t86.5 -7.5
t80 26.5t48 60q5 19 6.5 48.5t1.5 82.5v411q0 13 2 20.5t7 11t14.5 4t23.5 0.5q17 0 26.5 -0.5t14.5 -3.5t6.5 -10.5t1.5 -21.5v-411v0zM378 827q-5 -9 -14 -4l-185 101q-8 6 -3 14l34 61q5 8 14 3l176 -119q6 -4 2 -12z" />
    <glyph glyph-name="Uacute" unicode="&#xda;" horiz-adv-x="633" 
d="M537 299q0 -29 -1 -58t-5 -56q-11 -94 -76.5 -144.5t-172.5 -48.5q-109 2 -173 49t-77 144q-5 38 -5.5 77t0.5 80v368q0 13 2 20.5t7 11t14.5 4t23.5 0.5q17 0 26.5 -0.5t14.5 -3.5t6.5 -10.5t1.5 -21.5v-367v-60t2.5 -58t8 -52.5t17.5 -42.5q25 -29 67.5 -41t86.5 -7.5
t80 26.5t48 60q5 19 6.5 48.5t1.5 82.5v411q0 13 2 20.5t7 11t14.5 4t23.5 0.5q17 0 26.5 -0.5t14.5 -3.5t6.5 -10.5t1.5 -21.5v-411v0zM157 866q-4 8 2 12l176 119q9 5 14 -3l34 -61q5 -8 -3 -14l-185 -101q-9 -5 -14 4z" />
    <glyph glyph-name="Ucircumflex" unicode="&#xdb;" horiz-adv-x="633" 
d="M537 299q0 -29 -1 -58t-5 -56q-11 -94 -76.5 -144.5t-172.5 -48.5q-109 2 -173 49t-77 144q-5 38 -5.5 77t0.5 80v368q0 13 2 20.5t7 11t14.5 4t23.5 0.5q17 0 26.5 -0.5t14.5 -3.5t6.5 -10.5t1.5 -21.5v-367v-60t2.5 -58t8 -52.5t17.5 -42.5q25 -29 67.5 -41t86.5 -7.5
t80 26.5t48 60q5 19 6.5 48.5t1.5 82.5v411q0 13 2 20.5t7 11t14.5 4t23.5 0.5q17 0 26.5 -0.5t14.5 -3.5t6.5 -10.5t1.5 -21.5v-411v0zM398 815q-4 0 -7 3v-1l-103 108l-103 -108v1q-3 -3 -7 -3h-65q-7 0 -9.5 5.5t2.5 10.5l134 149q4 4 7 4h82q3 0 7 -4l134 -149
q5 -5 2.5 -10.5t-9.5 -5.5h-65z" />
    <glyph glyph-name="Udieresis" unicode="&#xdc;" horiz-adv-x="633" 
d="M537 299q0 -29 -1 -58t-5 -56q-11 -94 -76.5 -144.5t-172.5 -48.5q-109 2 -173 49t-77 144q-5 38 -5.5 77t0.5 80v368q0 13 2 20.5t7 11t14.5 4t23.5 0.5q17 0 26.5 -0.5t14.5 -3.5t6.5 -10.5t1.5 -21.5v-367v-60t2.5 -58t8 -52.5t17.5 -42.5q25 -29 67.5 -41t86.5 -7.5
t80 26.5t48 60q5 19 6.5 48.5t1.5 82.5v411q0 13 2 20.5t7 11t14.5 4t23.5 0.5q17 0 26.5 -0.5t14.5 -3.5t6.5 -10.5t1.5 -21.5v-411v0zM146 883q0 17 1.5 26t7 13.5t15 5t26.5 0.5q19 0 30.5 -0.5t17.5 -4.5t7.5 -13t1.5 -27v-20q0 -17 -1.5 -26t-7 -13.5t-15.5 -5
t-26 -0.5q-20 0 -31 0.5t-17 4.5t-7.5 13t-1.5 27v20zM332 883q0 17 1.5 26t7 13.5t15 5t26.5 0.5q19 0 30.5 -0.5t17.5 -4.5t7.5 -13t1.5 -27v-20q0 -17 -1.5 -26t-7 -13.5t-15.5 -5t-26 -0.5q-20 0 -31 0.5t-17 4.5t-7.5 13t-1.5 27v20z" />
    <glyph glyph-name="Umacron" unicode="&#x16a;" horiz-adv-x="633" 
d="M537 299q0 -29 -1 -58t-5 -56q-11 -94 -76.5 -144.5t-172.5 -48.5q-109 2 -173 49t-77 144q-5 38 -5.5 77t0.5 80v368q0 13 2 20.5t7 11t14.5 4t23.5 0.5q17 0 26.5 -0.5t14.5 -3.5t6.5 -10.5t1.5 -21.5v-367v-60t2.5 -58t8 -52.5t17.5 -42.5q25 -29 67.5 -41t86.5 -7.5
t80 26.5t48 60q5 19 6.5 48.5t1.5 82.5v411q0 13 2 20.5t7 11t14.5 4t23.5 0.5q17 0 26.5 -0.5t14.5 -3.5t6.5 -10.5t1.5 -21.5v-411v0zM114 816q-15 0 -15 14v51q0 14 15 14h329q14 0 14 -14v-51q0 -14 -14 -14h-329z" />
    <glyph glyph-name="Ubreve" unicode="&#x16c;" horiz-adv-x="633" 
d="M537 299q0 -29 -1 -58t-5 -56q-11 -94 -76.5 -144.5t-172.5 -48.5q-109 2 -173 49t-77 144q-5 38 -5.5 77t0.5 80v368q0 13 2 20.5t7 11t14.5 4t23.5 0.5q17 0 26.5 -0.5t14.5 -3.5t6.5 -10.5t1.5 -21.5v-367v-60t2.5 -58t8 -52.5t17.5 -42.5q25 -29 67.5 -41t86.5 -7.5
t80 26.5t48 60q5 19 6.5 48.5t1.5 82.5v411q0 13 2 20.5t7 11t14.5 4t23.5 0.5q17 0 26.5 -0.5t14.5 -3.5t6.5 -10.5t1.5 -21.5v-411v0zM169 995q5 0 9.5 -4t5.5 -8q5 -47 25 -71t70 -24q47 0 66.5 25t25.5 70q1 5 5 8.5t10 3.5h48q7 0 10.5 -5t3.5 -10q-2 -35 -11.5 -64.5
t-29 -52t-51 -35t-79.5 -12.5q-47 0 -79 12.5t-51.5 35t-28.5 52t-11 64.5q0 5 3.5 10t10.5 5h48v0z" />
    <glyph glyph-name="Uring" unicode="&#x16e;" horiz-adv-x="633" 
d="M537 299q0 -29 -1 -58t-5 -56q-11 -94 -76.5 -144.5t-172.5 -48.5q-109 2 -173 49t-77 144q-5 38 -5.5 77t0.5 80v368q0 13 2 20.5t7 11t14.5 4t23.5 0.5q17 0 26.5 -0.5t14.5 -3.5t6.5 -10.5t1.5 -21.5v-367v-60t2.5 -58t8 -52.5t17.5 -42.5q25 -29 67.5 -41t86.5 -7.5
t80 26.5t48 60q5 19 6.5 48.5t1.5 82.5v411q0 13 2 20.5t7 11t14.5 4t23.5 0.5q17 0 26.5 -0.5t14.5 -3.5t6.5 -10.5t1.5 -21.5v-411v0zM384 920q0 -54 -30.5 -79t-78.5 -25t-79.5 25t-31.5 79t31.5 79t79.5 25t78.5 -25t30.5 -79zM327 919q0 28 -16 39t-36 11
q-21 0 -36.5 -11t-15.5 -39q0 -29 15.5 -39.5t36.5 -10.5q20 0 36 10.5t16 39.5z" />
    <glyph glyph-name="Uhungarumlaut" unicode="&#x170;" horiz-adv-x="633" 
d="M224 1052q1 5 5 8.5t9 3.5h71q7 0 11.5 -5.5t2.5 -13.5l-68 -220q-2 -4 -6.5 -7.5t-8.5 -3.5h-52q-8 0 -12 5t-3 13zM395 1052q1 5 5 8.5t9 3.5h71q7 0 11.5 -5.5t2.5 -13.5l-68 -220q-2 -4 -6.5 -7.5t-8.5 -3.5h-52q-8 0 -12 5t-3 13zM539 299q0 -29 -1 -58t-5 -56
q-11 -94 -76.5 -144.5t-172.5 -48.5q-109 2 -173 49t-77 144q-5 38 -5.5 77t0.5 80v368q0 13 2 20.5t7 11t14.5 4t23.5 0.5q17 0 26.5 -0.5t14.5 -3.5t6.5 -10.5t1.5 -21.5v-367v-60t2.5 -58t8 -52.5t17.5 -42.5q25 -29 67.5 -41t86.5 -7.5t80 26.5t48 60q5 19 6.5 48.5
t1.5 82.5v411q0 13 2 20.5t7 11t14.5 4t23.5 0.5q17 0 26.5 -0.5t14.5 -3.5t6.5 -10.5t1.5 -21.5v-411z" />
    <glyph glyph-name="Uogonek" unicode="&#x172;" horiz-adv-x="633" 
d="M537 299q0 -29 -1 -58t-5 -56q-11 -94 -76.5 -144.5t-172.5 -48.5q-109 2 -173 49t-77 144q-5 38 -5.5 77t0.5 80v368q0 13 2 20.5t7 11t14.5 4t23.5 0.5q17 0 26.5 -0.5t14.5 -3.5t6.5 -10.5t1.5 -21.5v-367v-60t2.5 -58t8 -52.5t17.5 -42.5q25 -29 67.5 -41t86.5 -7.5
t80 26.5t48 60q5 19 6.5 48.5t1.5 82.5v411q0 13 2 20.5t7 11t14.5 4t23.5 0.5q17 0 26.5 -0.5t14.5 -3.5t6.5 -10.5t1.5 -21.5v-411v0zM345 -198h2q-9 -3 -33.5 -6.5t-53.5 -3.5q-68 0 -99 28t-31 76q0 44 40.5 79.5t101.5 61.5l72 -8q11 -2 12.5 -12.5t-8.5 -15.5
q-39 -17 -64.5 -31t-41.5 -26t-22.5 -23t-6.5 -22q0 -17 12 -27t41 -10q14 0 27.5 1t27.5 3l21 2q15 0 15 -15v-44q0 -3 -4 -5z" />
    <glyph glyph-name="Wcircumflex" unicode="&#x174;" horiz-adv-x="964" 
d="M598 97q0 -5 3.5 -4t2.5 4l166 622q7 27 18.5 28t37.5 -9q15 -6 24 -8.5t13.5 -6t4.5 -10.5t-4 -21l-173 -628q-2 -9 -7 -21.5t-16 -26.5q-13 -14 -30 -20t-36 -6h-10q-2 0 -5 0.5t-5 0.5q-14 2 -26.5 7.5t-22.5 17.5q-11 14 -16 26.5t-7 21.5l-53 196l-54 -196
q-2 -9 -7 -21.5t-16 -26.5q-13 -14 -30 -20t-36 -6h-10q-2 0 -5 0.5t-5 0.5q-14 2 -26.5 7.5t-22.5 17.5q-11 14 -16 26.5t-7 21.5l-162 602h-66v49q10 9 24 17q12 6 28.5 11.5t39.5 5.5q32 0 46 -10t17 -22l161 -620q0 -5 3.5 -4t2.5 4l91 346l-69 249q-4 14 -3.5 21
t5.5 10.5t14.5 6t24.5 8.5q13 5 22 7.5t15.5 1t10.5 -8t8 -19.5zM556 815q-4 0 -7 3v-1l-103 108l-103 -108v1q-3 -3 -7 -3h-65q-7 0 -9.5 5.5t2.5 10.5l134 149q4 4 7 4h82q3 0 7 -4l134 -149q5 -5 2.5 -10.5t-9.5 -5.5h-65z" />
    <glyph glyph-name="Wgrave" unicode="&#x1e80;" horiz-adv-x="964" 
d="M598 97q0 -5 3.5 -4t2.5 4l166 622q7 27 18.5 28t37.5 -9q15 -6 24 -8.5t13.5 -6t4.5 -10.5t-4 -21l-173 -628q-2 -9 -7 -21.5t-16 -26.5q-13 -14 -30 -20t-36 -6h-10q-2 0 -5 0.5t-5 0.5q-14 2 -26.5 7.5t-22.5 17.5q-11 14 -16 26.5t-7 21.5l-53 196l-54 -196
q-2 -9 -7 -21.5t-16 -26.5q-13 -14 -30 -20t-36 -6h-10q-2 0 -5 0.5t-5 0.5q-14 2 -26.5 7.5t-22.5 17.5q-11 14 -16 26.5t-7 21.5l-162 602h-66v49q10 9 24 17q12 6 28.5 11.5t39.5 5.5q32 0 46 -10t17 -22l161 -620q0 -5 3.5 -4t2.5 4l91 346l-69 249q-4 14 -3.5 21
t5.5 10.5t14.5 6t24.5 8.5q13 5 22 7.5t15.5 1t10.5 -8t8 -19.5zM548 822q-5 -9 -14 -4l-185 101q-8 6 -3 14l34 61q5 8 14 3l176 -119q6 -4 2 -12z" />
    <glyph glyph-name="Wacute" unicode="&#x1e82;" horiz-adv-x="964" 
d="M598 97q0 -5 3.5 -4t2.5 4l166 622q7 27 18.5 28t37.5 -9q15 -6 24 -8.5t13.5 -6t4.5 -10.5t-4 -21l-173 -628q-2 -9 -7 -21.5t-16 -26.5q-13 -14 -30 -20t-36 -6h-10q-2 0 -5 0.5t-5 0.5q-14 2 -26.5 7.5t-22.5 17.5q-11 14 -16 26.5t-7 21.5l-53 196l-54 -196
q-2 -9 -7 -21.5t-16 -26.5q-13 -14 -30 -20t-36 -6h-10q-2 0 -5 0.5t-5 0.5q-14 2 -26.5 7.5t-22.5 17.5q-11 14 -16 26.5t-7 21.5l-162 602h-66v49q10 9 24 17q12 6 28.5 11.5t39.5 5.5q32 0 46 -10t17 -22l161 -620q0 -5 3.5 -4t2.5 4l91 346l-69 249q-4 14 -3.5 21
t5.5 10.5t14.5 6t24.5 8.5q13 5 22 7.5t15.5 1t10.5 -8t8 -19.5zM328 866q-4 8 2 12l176 119q9 5 14 -3l34 -61q5 -8 -3 -14l-185 -101q-9 -5 -14 4z" />
    <glyph glyph-name="Wdieresis" unicode="&#x1e84;" horiz-adv-x="964" 
d="M598 97q0 -5 3.5 -4t2.5 4l166 622q7 27 18.5 28t37.5 -9q15 -6 24 -8.5t13.5 -6t4.5 -10.5t-4 -21l-173 -628q-2 -9 -7 -21.5t-16 -26.5q-13 -14 -30 -20t-36 -6h-10q-2 0 -5 0.5t-5 0.5q-14 2 -26.5 7.5t-22.5 17.5q-11 14 -16 26.5t-7 21.5l-53 196l-54 -196
q-2 -9 -7 -21.5t-16 -26.5q-13 -14 -30 -20t-36 -6h-10q-2 0 -5 0.5t-5 0.5q-14 2 -26.5 7.5t-22.5 17.5q-11 14 -16 26.5t-7 21.5l-162 602h-66v49q10 9 24 17q12 6 28.5 11.5t39.5 5.5q32 0 46 -10t17 -22l161 -620q0 -5 3.5 -4t2.5 4l91 346l-69 249q-4 14 -3.5 21
t5.5 10.5t14.5 6t24.5 8.5q13 5 22 7.5t15.5 1t10.5 -8t8 -19.5zM316 883q0 17 1.5 26t7 13.5t15 5t26.5 0.5q19 0 30.5 -0.5t17.5 -4.5t7.5 -13t1.5 -27v-20q0 -17 -1.5 -26t-7 -13.5t-15.5 -5t-26 -0.5q-20 0 -31 0.5t-17 4.5t-7.5 13t-1.5 27v20zM502 883q0 17 1.5 26
t7 13.5t15 5t26.5 0.5q19 0 30.5 -0.5t17.5 -4.5t7.5 -13t1.5 -27v-20q0 -17 -1.5 -26t-7 -13.5t-15.5 -5t-26 -0.5q-20 0 -31 0.5t-17 4.5t-7.5 13t-1.5 27v20z" />
    <glyph glyph-name="Ycircumflex" unicode="&#x176;" horiz-adv-x="630" 
d="M366 366q-4 -6 -7.5 -12.5t-4.5 -11.5q-3 -12 -3.5 -27.5t-0.5 -29.5l1 -250q0 -27 -9.5 -31.5t-35.5 -4.5q-15 0 -24.5 0.5t-15 3t-8 8.5t-2.5 17l-2 255q0 14 -0.5 29t-2.5 28q-1 5 -5 12.5t-8 14.5q-37 66 -87 143t-93 158h-65v49q10 9 24 17q12 6 28.5 11.5t39.5 5.5
q13 0 26.5 -8t21.5 -24q17 -33 40 -69t47 -73t46 -72t39 -66l174 286q6 12 10.5 18t9.5 7t12.5 -2.5t18.5 -10.5q14 -8 23 -12.5t12.5 -9.5t2 -12t-8.5 -19zM421 816q-4 0 -7 3v-1l-103 108l-103 -108v1q-3 -3 -7 -3h-65q-7 0 -9.5 5.5t2.5 10.5l134 149q4 4 7 4h82
q3 0 7 -4l134 -149q5 -5 2.5 -10.5t-9.5 -5.5h-65z" />
    <glyph glyph-name="Ygrave" unicode="&#x1ef2;" horiz-adv-x="630" 
d="M366 366q-4 -6 -7.5 -12.5t-4.5 -11.5q-3 -12 -3.5 -27.5t-0.5 -29.5l1 -250q0 -27 -9.5 -31.5t-35.5 -4.5q-15 0 -24.5 0.5t-15 3t-8 8.5t-2.5 17l-2 255q0 14 -0.5 29t-2.5 28q-1 5 -5 12.5t-8 14.5q-37 66 -87 143t-93 158h-65v49q10 9 24 17q12 6 28.5 11.5t39.5 5.5
q13 0 26.5 -8t21.5 -24q17 -33 40 -69t47 -73t46 -72t39 -66l174 286q6 12 10.5 18t9.5 7t12.5 -2.5t18.5 -10.5q14 -8 23 -12.5t12.5 -9.5t2 -12t-8.5 -19zM401 822q-5 -9 -14 -4l-185 101q-8 6 -3 14l34 61q5 8 14 3l176 -119q6 -4 2 -12z" />
    <glyph glyph-name="Zacute" unicode="&#x179;" horiz-adv-x="574" 
d="M41 -1q-27 0 -31.5 12t-4.5 38v18.5t5 10.5l362 576h-307q-14 0 -21 2t-10.5 7t-4 14.5t-0.5 23.5q0 17 0.5 26t3.5 13.5t10.5 5.5t21.5 1h399q27 0 31.5 -15t4.5 -41v-17t-5 -13l-361 -567h331q14 0 21.5 -2.5t10.5 -8.5t3.5 -16.5t0.5 -27.5q0 -14 -0.5 -22t-4 -12
t-11 -5t-20.5 -1h-424v0zM136 866q-4 8 2 12l176 119q9 5 14 -3l34 -61q5 -8 -3 -14l-185 -101q-9 -5 -14 4z" />
    <glyph glyph-name="Zdotaccent" unicode="&#x17b;" horiz-adv-x="574" 
d="M41 -1q-27 0 -31.5 12t-4.5 38v18.5t5 10.5l362 576h-307q-14 0 -21 2t-10.5 7t-4 14.5t-0.5 23.5q0 17 0.5 26t3.5 13.5t10.5 5.5t21.5 1h399q27 0 31.5 -15t4.5 -41v-17t-5 -13l-361 -567h331q14 0 21.5 -2.5t10.5 -8.5t3.5 -16.5t0.5 -27.5q0 -14 -0.5 -22t-4 -12
t-11 -5t-20.5 -1h-424v0zM198 883q0 17 1.5 26t7 13.5t15 5t26.5 0.5q19 0 30.5 -0.5t17.5 -4.5t7.5 -13t1.5 -27v-20q0 -17 -1.5 -26t-7 -13.5t-15.5 -5t-26 -0.5q-20 0 -31 0.5t-17 4.5t-7.5 13t-1.5 27v20v0z" />
    <glyph glyph-name="agrave" unicode="&#xe0;" 
d="M191 -8q-36 5 -60 16q-40 19 -66.5 54t-40.5 83.5t-14 107.5q0 58 17 108t43.5 85t56.5 50t52 20q35 9 76 9q36 0 58.5 -2.5t48.5 -32.5q0 13 1.5 20.5t6 11t13.5 4t23 0.5q17 0 26.5 -0.5t14.5 -3.5t6.5 -10.5t1.5 -21.5v-441h57v-44q-1 0 -26.5 -7.5t-67.5 -4.5
q-28 2 -39.5 14.5t-14.5 25.5q-25 -13 -54 -25q-41 -17 -94 -17q-13 0 -25 1zM208 69q13 -2 39.5 -0.5t60 15.5t54.5 28v323q-24 6 -48 9.5t-61 3.5q-24 0 -41.5 -4.5t-27.5 -10.5q-24 -13 -42.5 -40.5t-27.5 -63.5t-8 -102t29 -113q21 -36 73 -45zM333 611q-5 -9 -14 -4
l-185 101q-8 6 -3 14l34 61q5 8 14 3l176 -119q6 -4 2 -12z" />
    <glyph glyph-name="aacute" unicode="&#xe1;" 
d="M191 -8q-36 5 -60 16q-40 19 -66.5 54t-40.5 83.5t-14 107.5q0 58 17 108t43.5 85t56.5 50t52 20q35 9 76 9q36 0 58.5 -2.5t48.5 -32.5q0 13 1.5 20.5t6 11t13.5 4t23 0.5q17 0 26.5 -0.5t14.5 -3.5t6.5 -10.5t1.5 -21.5v-441h57v-44q-1 0 -26.5 -7.5t-67.5 -4.5
q-28 2 -39.5 14.5t-14.5 25.5q-25 -13 -54 -25q-41 -17 -94 -17q-13 0 -25 1zM208 69q13 -2 39.5 -0.5t60 15.5t54.5 28v323q-24 6 -48 9.5t-61 3.5q-24 0 -41.5 -4.5t-27.5 -10.5q-24 -13 -42.5 -40.5t-27.5 -63.5t-8 -102t29 -113q21 -36 73 -45zM125 655q-4 8 2 12
l176 119q9 5 14 -3l34 -61q5 -8 -3 -14l-185 -101q-9 -5 -14 4z" />
    <glyph glyph-name="acircumflex" unicode="&#xe2;" 
d="M191 -8q-36 5 -60 16q-40 19 -66.5 54t-40.5 83.5t-14 107.5q0 58 17 108t43.5 85t56.5 50t52 20q35 9 76 9q36 0 58.5 -2.5t48.5 -32.5q0 13 1.5 20.5t6 11t13.5 4t23 0.5q17 0 26.5 -0.5t14.5 -3.5t6.5 -10.5t1.5 -21.5v-441h57v-44q-1 0 -26.5 -7.5t-67.5 -4.5
q-28 2 -39.5 14.5t-14.5 25.5q-25 -13 -54 -25q-41 -17 -94 -17q-13 0 -25 1zM208 69q13 -2 39.5 -0.5t60 15.5t54.5 28v323q-24 6 -48 9.5t-61 3.5q-24 0 -41.5 -4.5t-27.5 -10.5q-24 -13 -42.5 -40.5t-27.5 -63.5t-8 -102t29 -113q21 -36 73 -45zM365 606q-4 0 -7 3v-1
l-103 108l-103 -108v1q-3 -3 -7 -3h-65q-7 0 -9.5 5.5t2.5 10.5l134 149q4 4 7 4h82q3 0 7 -4l134 -149q5 -5 2.5 -10.5t-9.5 -5.5h-65z" />
    <glyph glyph-name="atilde" unicode="&#xe3;" 
d="M191 -8q-36 5 -60 16q-40 19 -66.5 54t-40.5 83.5t-14 107.5q0 58 17 108t43.5 85t56.5 50t52 20q35 9 76 9q36 0 58.5 -2.5t48.5 -32.5q0 13 1.5 20.5t6 11t13.5 4t23 0.5q17 0 26.5 -0.5t14.5 -3.5t6.5 -10.5t1.5 -21.5v-441h57v-44q-1 0 -26.5 -7.5t-67.5 -4.5
q-28 2 -39.5 14.5t-14.5 25.5q-25 -13 -54 -25q-41 -17 -94 -17q-13 0 -25 1zM208 69q13 -2 39.5 -0.5t60 15.5t54.5 28v323q-24 6 -48 9.5t-61 3.5q-24 0 -41.5 -4.5t-27.5 -10.5q-24 -13 -42.5 -40.5t-27.5 -63.5t-8 -102t29 -113q21 -36 73 -45zM418 666q0 -4 -1.5 -9
t-3.5 -7q-12 -12 -27 -22q-13 -8 -29.5 -14.5t-33.5 -6.5q-22 0 -43 6.5t-41 15.5l-18 6q-11 4 -20.5 7t-14.5 3q-8 0 -18.5 -5.5t-19.5 -11.5q-11 -7 -22 -16q-10 -8 -19.5 -3.5t-11.5 16.5l-6 41q0 3 2 9.5t5 8.5q13 12 28 22q13 8 29.5 15t34.5 7q20 0 42 -7t42 -15
q17 -7 30.5 -11.5t21.5 -4.5t18 4.5t18 10.5q10 7 20 16q10 7 20 4t12 -15z" />
    <glyph glyph-name="adieresis" unicode="&#xe4;" 
d="M191 -8q-36 5 -60 16q-40 19 -66.5 54t-40.5 83.5t-14 107.5q0 58 17 108t43.5 85t56.5 50t52 20q35 9 76 9q36 0 58.5 -2.5t48.5 -32.5q0 13 1.5 20.5t6 11t13.5 4t23 0.5q17 0 26.5 -0.5t14.5 -3.5t6.5 -10.5t1.5 -21.5v-441h57v-44q-1 0 -26.5 -7.5t-67.5 -4.5
q-28 2 -39.5 14.5t-14.5 25.5q-25 -13 -54 -25q-41 -17 -94 -17q-13 0 -25 1zM208 69q13 -2 39.5 -0.5t60 15.5t54.5 28v323q-24 6 -48 9.5t-61 3.5q-24 0 -41.5 -4.5t-27.5 -10.5q-24 -13 -42.5 -40.5t-27.5 -63.5t-8 -102t29 -113q21 -36 73 -45zM111 673q0 17 1.5 26
t7 13.5t15 5t26.5 0.5q19 0 30.5 -0.5t17.5 -4.5t7.5 -13t1.5 -27v-20q0 -17 -1.5 -26t-7 -13.5t-15.5 -5t-26 -0.5q-20 0 -31 0.5t-17 4.5t-7.5 13t-1.5 27v20zM297 673q0 17 1.5 26t7 13.5t15 5t26.5 0.5q19 0 30.5 -0.5t17.5 -4.5t7.5 -13t1.5 -27v-20q0 -17 -1.5 -26
t-7 -13.5t-15.5 -5t-26 -0.5q-20 0 -31 0.5t-17 4.5t-7.5 13t-1.5 27v20z" />
    <glyph glyph-name="aring" unicode="&#xe5;" 
d="M191 -8q-36 5 -60 16q-40 19 -66.5 54t-40.5 83.5t-14 107.5q0 58 17 108t43.5 85t56.5 50t52 20q35 9 76 9q36 0 58.5 -2.5t48.5 -32.5q0 13 1.5 20.5t6 11t13.5 4t23 0.5q17 0 26.5 -0.5t14.5 -3.5t6.5 -10.5t1.5 -21.5v-441h57v-44q-1 0 -26.5 -7.5t-67.5 -4.5
q-28 2 -39.5 14.5t-14.5 25.5q-25 -13 -54 -25q-41 -17 -94 -17q-13 0 -25 1zM208 69q13 -2 39.5 -0.5t60 15.5t54.5 28v323q-24 6 -48 9.5t-61 3.5q-24 0 -41.5 -4.5t-27.5 -10.5q-24 -13 -42.5 -40.5t-27.5 -63.5t-8 -102t29 -113q21 -36 73 -45zM359 705q0 -54 -30.5 -79
t-78.5 -25t-79.5 25t-31.5 79t31.5 79t79.5 25t78.5 -25t30.5 -79zM302 704q0 28 -16 39t-36 11q-21 0 -36.5 -11t-15.5 -39q0 -29 15.5 -39.5t36.5 -10.5q20 0 36 10.5t16 39.5z" />
    <glyph glyph-name="amacron" unicode="&#x101;" 
d="M191 -8q-36 5 -60 16q-40 19 -66.5 54t-40.5 83.5t-14 107.5q0 58 17 108t43.5 85t56.5 50t52 20q35 9 76 9q36 0 58.5 -2.5t48.5 -32.5q0 13 1.5 20.5t6 11t13.5 4t23 0.5q17 0 26.5 -0.5t14.5 -3.5t6.5 -10.5t1.5 -21.5v-441h57v-44q-1 0 -26.5 -7.5t-67.5 -4.5
q-28 2 -39.5 14.5t-14.5 25.5q-25 -13 -54 -25q-41 -17 -94 -17q-13 0 -25 1zM208 69q13 -2 39.5 -0.5t60 15.5t54.5 28v323q-24 6 -48 9.5t-61 3.5q-24 0 -41.5 -4.5t-27.5 -10.5q-24 -13 -42.5 -40.5t-27.5 -63.5t-8 -102t29 -113q21 -36 73 -45zM80 607q-15 0 -15 14v51
q0 14 15 14h329q14 0 14 -14v-51q0 -14 -14 -14h-329z" />
    <glyph glyph-name="abreve" unicode="&#x103;" 
d="M191 -8q-36 5 -60 16q-40 19 -66.5 54t-40.5 83.5t-14 107.5q0 58 17 108t43.5 85t56.5 50t52 20q35 9 76 9q36 0 58.5 -2.5t48.5 -32.5q0 13 1.5 20.5t6 11t13.5 4t23 0.5q17 0 26.5 -0.5t14.5 -3.5t6.5 -10.5t1.5 -21.5v-441h57v-44q-1 0 -26.5 -7.5t-67.5 -4.5
q-28 2 -39.5 14.5t-14.5 25.5q-25 -13 -54 -25q-41 -17 -94 -17q-13 0 -25 1zM208 69q13 -2 39.5 -0.5t60 15.5t54.5 28v323q-24 6 -48 9.5t-61 3.5q-24 0 -41.5 -4.5t-27.5 -10.5q-24 -13 -42.5 -40.5t-27.5 -63.5t-8 -102t29 -113q21 -36 73 -45zM135 785q5 0 9.5 -4
t5.5 -8q5 -47 25 -71t70 -24q47 0 66.5 25t25.5 70q1 5 5 8.5t10 3.5h48q7 0 10.5 -5t3.5 -10q-2 -35 -11.5 -64.5t-29 -52t-51 -35t-79.5 -12.5q-47 0 -79 12.5t-51.5 35t-28.5 52t-11 64.5q0 5 3.5 10t10.5 5h48v0z" />
    <glyph glyph-name="aogonek" unicode="&#x105;" 
d="M537 -196h2q-9 -3 -33.5 -6.5t-53.5 -3.5q-68 0 -99 28t-31 76q0 44 40.5 79.5t101.5 61.5l72 -8q-1 0 1 -4t4.5 -8.5t3 -9t-4.5 -6.5q-39 -17 -64.5 -31t-41.5 -26t-22.5 -23t-6.5 -22q0 -17 12 -27t41 -10q14 0 27.5 1t27.5 3l21 2q15 0 15 -15v-44q0 -3 -4 -5zM209 -8
q-36 5 -60 16q-40 19 -66.5 54t-40.5 83.5t-14 107.5q0 58 17 108t43.5 85t56.5 50t52 20q35 9 76 9q36 0 58.5 -2.5t48.5 -32.5q0 13 1.5 20.5t6 11t13.5 4t23 0.5q17 0 26.5 -0.5t14.5 -3.5t6.5 -10.5t1.5 -21.5v-441h57v-44q-1 0 -26.5 -7.5t-67.5 -4.5q-28 2 -39.5 14.5
t-14.5 25.5q-25 -13 -54 -25q-41 -17 -94 -17q-13 0 -25 1zM226 69q13 -2 39.5 -0.5t60 15.5t54.5 28v323q-24 6 -48 9.5t-61 3.5q-24 0 -41.5 -4.5t-27.5 -10.5q-24 -13 -42.5 -40.5t-27.5 -63.5t-8 -102t29 -113q21 -36 73 -45z" />
    <glyph glyph-name="aringacute" unicode="&#x1fb;" 
d="M391 710q0 -54 -30.5 -79t-78.5 -25t-79.5 25t-31.5 79t31.5 79t79.5 25q43 0 69 -19l93 63q9 5 14 -3l34 -61q5 -8 -3 -14l-99 -54q0 -4 0.5 -8t0.5 -8zM334 709q0 28 -16 39t-36 11q-21 0 -36.5 -11t-15.5 -39q0 -29 15.5 -39.5t36.5 -10.5q20 0 36 10.5t16 39.5z
M207 -8q-36 5 -60 16q-40 19 -66.5 54t-40.5 83.5t-14 107.5q0 58 17 108t43.5 85t56.5 50t52 20q35 9 76 9q36 0 58.5 -2.5t48.5 -32.5q0 13 1.5 20.5t6 11t13.5 4t23 0.5q17 0 26.5 -0.5t14.5 -3.5t6.5 -10.5t1.5 -21.5v-441h57v-44q-1 0 -26.5 -7.5t-67.5 -4.5
q-28 2 -39.5 14.5t-14.5 25.5q-25 -13 -54 -25q-41 -17 -94 -17q-13 0 -25 1zM224 69q13 -2 39.5 -0.5t60 15.5t54.5 28v323q-24 6 -48 9.5t-61 3.5q-24 0 -41.5 -4.5t-27.5 -10.5q-24 -13 -42.5 -40.5t-27.5 -63.5t-8 -102t29 -113q21 -36 73 -45z" />
    <glyph glyph-name="ccedilla" unicode="&#xe7;" horiz-adv-x="513" 
d="M275 80q32 2 51 6t41 10q14 5 22.5 4.5t14 -5.5t10 -16t10.5 -27q5 -14 5.5 -21t-7 -11.5t-24.5 -8t-45 -10.5q-31 -6 -67 -9l-44 -133q-3 -9 -13 -14t-18 -1l-55 19q-22 9 -12 31l42 102q-25 4 -44 14q-40 19 -66.5 54t-40.5 83.5t-14 109.5q0 58 17 108t43.5 85t69 57
t116.5 20t122 -18l24 -8t13 -7t3 -10t-5 -17q-7 -16 -11.5 -26t-10 -14.5t-13.5 -4t-22 5.5q-47 17 -97.5 17t-76.5 -14t-40.5 -38t-23.5 -60t-8 -103t27 -111.5t127 -38.5z" />
    <glyph glyph-name="egrave" unicode="&#xe8;" horiz-adv-x="546" 
d="M284 73q38 -1 111 16q15 3 23.5 3.5t14 -3t9.5 -12.5t10 -25q5 -14 0.5 -22t-16.5 -13.5t-29 -8.5t-37 -7q-55 -10 -123 -10t-108 19t-66.5 54t-40.5 83.5t-14 110.5q0 58 17 108t43.5 84.5t72.5 57t135 20.5q15 -2 44 -7t59 -27.5t52.5 -68t23.5 -128.5q1 -21 -5 -32
t-14.5 -15t-16 -4.5l-7.5 -0.5h-308v-25q1 -57 29 -104t141 -43zM378 326q-6 69 -37 95t-76 27t-71.5 -14t-45 -42.5t-26.5 -57.5l-2 -8h258zM338 611q-5 -9 -14 -4l-185 101q-8 6 -3 14l34 61q5 8 14 3l176 -119q6 -4 2 -12z" />
    <glyph glyph-name="eacute" unicode="&#xe9;" horiz-adv-x="546" 
d="M284 73q38 -1 111 16q15 3 23.5 3.5t14 -3t9.5 -12.5t10 -25q5 -14 0.5 -22t-16.5 -13.5t-29 -8.5t-37 -7q-55 -10 -123 -10t-108 19t-66.5 54t-40.5 83.5t-14 110.5q0 58 17 108t43.5 84.5t72.5 57t135 20.5q15 -2 44 -7t59 -27.5t52.5 -68t23.5 -128.5q1 -21 -5 -32
t-14.5 -15t-16 -4.5l-7.5 -0.5h-308v-25q1 -57 29 -104t141 -43zM378 326q-6 69 -37 95t-76 27t-71.5 -14t-45 -42.5t-26.5 -57.5l-2 -8h258zM133 655q-4 8 2 12l176 119q9 5 14 -3l34 -61q5 -8 -3 -14l-185 -101q-9 -5 -14 4z" />
    <glyph glyph-name="ecircumflex" unicode="&#xea;" horiz-adv-x="546" 
d="M284 73q38 -1 111 16q15 3 23.5 3.5t14 -3t9.5 -12.5t10 -25q5 -14 0.5 -22t-16.5 -13.5t-29 -8.5t-37 -7q-55 -10 -123 -10t-108 19t-66.5 54t-40.5 83.5t-14 110.5q0 58 17 108t43.5 84.5t72.5 57t135 20.5q15 -2 44 -7t59 -27.5t52.5 -68t23.5 -128.5q1 -21 -5 -32
t-14.5 -15t-16 -4.5l-7.5 -0.5h-308v-25q1 -57 29 -104t141 -43zM378 326q-6 69 -37 95t-76 27t-71.5 -14t-45 -42.5t-26.5 -57.5l-2 -8h258zM368 606q-4 0 -7 3v-1l-103 108l-103 -108v1q-3 -3 -7 -3h-65q-7 0 -9.5 5.5t2.5 10.5l134 149q4 4 7 4h82q3 0 7 -4l134 -149
q5 -5 2.5 -10.5t-9.5 -5.5h-65z" />
    <glyph glyph-name="edieresis" unicode="&#xeb;" horiz-adv-x="546" 
d="M284 73q38 -1 111 16q15 3 23.5 3.5t14 -3t9.5 -12.5t10 -25q5 -14 0.5 -22t-16.5 -13.5t-29 -8.5t-37 -7q-55 -10 -123 -10t-108 19t-66.5 54t-40.5 83.5t-14 110.5q0 58 17 108t43.5 84.5t72.5 57t135 20.5q15 -2 44 -7t59 -27.5t52.5 -68t23.5 -128.5q1 -21 -5 -32
t-14.5 -15t-16 -4.5l-7.5 -0.5h-308v-25q1 -57 29 -104t141 -43zM378 326q-6 69 -37 95t-76 27t-71.5 -14t-45 -42.5t-26.5 -57.5l-2 -8h258zM112 671q0 17 1.5 26t7 13.5t15 5t26.5 0.5q19 0 30.5 -0.5t17.5 -4.5t7.5 -13t1.5 -27v-20q0 -17 -1.5 -26t-7 -13.5t-15.5 -5
t-26 -0.5q-20 0 -31 0.5t-17 4.5t-7.5 13t-1.5 27v20zM298 671q0 17 1.5 26t7 13.5t15 5t26.5 0.5q19 0 30.5 -0.5t17.5 -4.5t7.5 -13t1.5 -27v-20q0 -17 -1.5 -26t-7 -13.5t-15.5 -5t-26 -0.5q-20 0 -31 0.5t-17 4.5t-7.5 13t-1.5 27v20z" />
    <glyph glyph-name="ograve" unicode="&#xf2;" horiz-adv-x="570" 
d="M241 -7q-29 2 -55 9.5t-47 18.5q-61 33 -90 96t-23 157q4 58 21 106.5t49 82.5t79 51.5t112 13.5q58 -4 99.5 -28t68 -63.5t38 -92.5t9.5 -114q-2 -58 -19 -104t-50 -77t-81 -46t-111 -10zM141 134q31 -52 111 -58q44 -3 74 7t48.5 31t27.5 52t10 70q1 41 -5 77.5
t-21.5 64.5t-41.5 44.5t-65 18.5q-45 2 -75.5 -10.5t-49.5 -36.5t-28 -57.5t-9 -73.5q-2 -79 24 -129zM342 611q-5 -9 -14 -4l-185 101q-8 6 -3 14l34 61q5 8 14 3l176 -119q6 -4 2 -12z" />
    <glyph glyph-name="oacute" unicode="&#xf3;" horiz-adv-x="570" 
d="M241 -7q-29 2 -55 9.5t-47 18.5q-61 33 -90 96t-23 157q4 58 21 106.5t49 82.5t79 51.5t112 13.5q58 -4 99.5 -28t68 -63.5t38 -92.5t9.5 -114q-2 -58 -19 -104t-50 -77t-81 -46t-111 -10zM141 134q31 -52 111 -58q44 -3 74 7t48.5 31t27.5 52t10 70q1 41 -5 77.5
t-21.5 64.5t-41.5 44.5t-65 18.5q-45 2 -75.5 -10.5t-49.5 -36.5t-28 -57.5t-9 -73.5q-2 -79 24 -129zM154 655q-4 8 2 12l176 119q9 5 14 -3l34 -61q5 -8 -3 -14l-185 -101q-9 -5 -14 4z" />
    <glyph glyph-name="ocircumflex" unicode="&#xf4;" horiz-adv-x="570" 
d="M241 -7q-29 2 -55 9.5t-47 18.5q-61 33 -90 96t-23 157q4 58 21 106.5t49 82.5t79 51.5t112 13.5q58 -4 99.5 -28t68 -63.5t38 -92.5t9.5 -114q-2 -58 -19 -104t-50 -77t-81 -46t-111 -10zM141 134q31 -52 111 -58q44 -3 74 7t48.5 31t27.5 52t10 70q1 41 -5 77.5
t-21.5 64.5t-41.5 44.5t-65 18.5q-45 2 -75.5 -10.5t-49.5 -36.5t-28 -57.5t-9 -73.5q-2 -79 24 -129zM370 606q-4 0 -7 3v-1l-103 108l-103 -108v1q-3 -3 -7 -3h-65q-7 0 -9.5 5.5t2.5 10.5l134 149q4 4 7 4h82q3 0 7 -4l134 -149q5 -5 2.5 -10.5t-9.5 -5.5h-65z" />
    <glyph glyph-name="otilde" unicode="&#xf5;" horiz-adv-x="570" 
d="M241 -7q-29 2 -55 9.5t-47 18.5q-61 33 -90 96t-23 157q4 58 21 106.5t49 82.5t79 51.5t112 13.5q58 -4 99.5 -28t68 -63.5t38 -92.5t9.5 -114q-2 -58 -19 -104t-50 -77t-81 -46t-111 -10zM141 134q31 -52 111 -58q44 -3 74 7t48.5 31t27.5 52t10 70q1 41 -5 77.5
t-21.5 64.5t-41.5 44.5t-65 18.5q-45 2 -75.5 -10.5t-49.5 -36.5t-28 -57.5t-9 -73.5q-2 -79 24 -129zM431 669q0 -4 -1.5 -9t-3.5 -7q-12 -12 -27 -22q-13 -8 -29.5 -14.5t-33.5 -6.5q-22 0 -43 6.5t-41 15.5l-18 6q-11 4 -20.5 7t-14.5 3q-8 0 -18.5 -5.5t-19.5 -11.5
q-11 -7 -22 -16q-10 -8 -19.5 -3.5t-11.5 16.5l-6 41q0 3 2 9.5t5 8.5q13 12 28 22q13 8 29.5 15t34.5 7q20 0 42 -7t42 -15q17 -7 30.5 -11.5t21.5 -4.5t18 4.5t18 10.5q10 7 20 16q10 7 20 4t12 -15z" />
    <glyph glyph-name="odieresis" unicode="&#xf6;" horiz-adv-x="570" 
d="M241 -7q-29 2 -55 9.5t-47 18.5q-61 33 -90 96t-23 157q4 58 21 106.5t49 82.5t79 51.5t112 13.5q58 -4 99.5 -28t68 -63.5t38 -92.5t9.5 -114q-2 -58 -19 -104t-50 -77t-81 -46t-111 -10zM141 134q31 -52 111 -58q44 -3 74 7t48.5 31t27.5 52t10 70q1 41 -5 77.5
t-21.5 64.5t-41.5 44.5t-65 18.5q-45 2 -75.5 -10.5t-49.5 -36.5t-28 -57.5t-9 -73.5q-2 -79 24 -129zM119 673q0 17 1.5 26t7 13.5t15 5t26.5 0.5q19 0 30.5 -0.5t17.5 -4.5t7.5 -13t1.5 -27v-20q0 -17 -1.5 -26t-7 -13.5t-15.5 -5t-26 -0.5q-20 0 -31 0.5t-17 4.5t-7.5 13
t-1.5 27v20zM305 673q0 17 1.5 26t7 13.5t15 5t26.5 0.5q19 0 30.5 -0.5t17.5 -4.5t7.5 -13t1.5 -27v-20q0 -17 -1.5 -26t-7 -13.5t-15.5 -5t-26 -0.5q-20 0 -31 0.5t-17 4.5t-7.5 13t-1.5 27v20z" />
    <glyph glyph-name="cacute" unicode="&#x107;" horiz-adv-x="513" 
d="M275 80q32 2 51 6t41 10q14 5 22.5 4.5t14 -5.5t10 -16t10.5 -27q5 -14 5.5 -21t-7 -11.5t-24.5 -8t-45 -10.5q-47 -10 -109 -10t-102 19t-66.5 54t-40.5 83.5t-14 109.5q0 58 17 108t43.5 85t69 57t116.5 20t122 -18l24 -8t13 -7t3 -10t-5 -17q-7 -16 -11.5 -26
t-10 -14.5t-13.5 -4t-22 5.5q-47 17 -97.5 17t-76.5 -14t-40.5 -38t-23.5 -60t-8 -103t27 -111.5t127 -38.5zM131 655q-4 8 2 12l176 119q9 5 14 -3l34 -61q5 -8 -3 -14l-185 -101q-9 -5 -14 4z" />
    <glyph glyph-name="cdotaccent" unicode="&#x10b;" horiz-adv-x="513" 
d="M275 80q32 2 51 6t41 10q14 5 22.5 4.5t14 -5.5t10 -16t10.5 -27q5 -14 5.5 -21t-7 -11.5t-24.5 -8t-45 -10.5q-47 -10 -109 -10t-102 19t-66.5 54t-40.5 83.5t-14 109.5q0 58 17 108t43.5 85t69 57t116.5 20t122 -18l24 -8t13 -7t3 -10t-5 -17q-7 -16 -11.5 -26
t-10 -14.5t-13.5 -4t-22 5.5q-47 17 -97.5 17t-76.5 -14t-40.5 -38t-23.5 -60t-8 -103t27 -111.5t127 -38.5zM182 674q0 17 1.5 26t7 13.5t15 5t26.5 0.5q19 0 30.5 -0.5t17.5 -4.5t7.5 -13t1.5 -27v-20q0 -17 -1.5 -26t-7 -13.5t-15.5 -5t-26 -0.5q-20 0 -31 0.5t-17 4.5
t-7.5 13t-1.5 27v20v0z" />
    <glyph glyph-name="ccaron" unicode="&#x10d;" horiz-adv-x="513" 
d="M275 80q32 2 51 6t41 10q14 5 22.5 4.5t14 -5.5t10 -16t10.5 -27q5 -14 5.5 -21t-7 -11.5t-24.5 -8t-45 -10.5q-47 -10 -109 -10t-102 19t-66.5 54t-40.5 83.5t-14 109.5q0 58 17 108t43.5 85t69 57t116.5 20t122 -18l24 -8t13 -7t3 -10t-5 -17q-7 -16 -11.5 -26
t-10 -14.5t-13.5 -4t-22 5.5q-47 17 -97.5 17t-76.5 -14t-40.5 -38t-23.5 -60t-8 -103t27 -111.5t127 -38.5zM127 782q6 0 11 -5l96 -102l48 49v-1l51 54q5 5 11 5h64q11 0 14.5 -8t-3.5 -16l-132 -149q-1 -1 -5 -2.5t-6 -1.5h-81q-3 0 -6.5 1.5t-4.5 2.5l-132 149
q-7 8 -3.5 16t14.5 8h64z" />
    <glyph glyph-name="emacron" unicode="&#x113;" horiz-adv-x="546" 
d="M284 73q38 -1 111 16q15 3 23.5 3.5t14 -3t9.5 -12.5t10 -25q5 -14 0.5 -22t-16.5 -13.5t-29 -8.5t-37 -7q-55 -10 -123 -10t-108 19t-66.5 54t-40.5 83.5t-14 110.5q0 58 17 108t43.5 84.5t72.5 57t135 20.5q15 -2 44 -7t59 -27.5t52.5 -68t23.5 -128.5q1 -21 -5 -32
t-14.5 -15t-16 -4.5l-7.5 -0.5h-308v-25q1 -57 29 -104t141 -43zM378 326q-6 69 -37 95t-76 27t-71.5 -14t-45 -42.5t-26.5 -57.5l-2 -8h258zM86 607q-15 0 -15 14v51q0 14 15 14h329q14 0 14 -14v-51q0 -14 -14 -14h-329z" />
    <glyph glyph-name="ebreve" unicode="&#x115;" horiz-adv-x="546" 
d="M284 73q38 -1 111 16q15 3 23.5 3.5t14 -3t9.5 -12.5t10 -25q5 -14 0.5 -22t-16.5 -13.5t-29 -8.5t-37 -7q-55 -10 -123 -10t-108 19t-66.5 54t-40.5 83.5t-14 110.5q0 58 17 108t43.5 84.5t72.5 57t135 20.5q15 -2 44 -7t59 -27.5t52.5 -68t23.5 -128.5q1 -21 -5 -32
t-14.5 -15t-16 -4.5l-7.5 -0.5h-308v-25q1 -57 29 -104t141 -43zM378 326q-6 69 -37 95t-76 27t-71.5 -14t-45 -42.5t-26.5 -57.5l-2 -8h258zM136 785q5 0 9.5 -4t5.5 -8q5 -47 25 -71t70 -24q47 0 66.5 25t25.5 70q1 5 5 8.5t10 3.5h48q7 0 10.5 -5t3.5 -10
q-2 -35 -11.5 -64.5t-29 -52t-51 -35t-79.5 -12.5q-47 0 -79 12.5t-51.5 35t-28.5 52t-11 64.5q0 5 3.5 10t10.5 5h48v0z" />
    <glyph glyph-name="edotaccent" unicode="&#x117;" horiz-adv-x="546" 
d="M284 73q38 -1 111 16q15 3 23.5 3.5t14 -3t9.5 -12.5t10 -25q5 -14 0.5 -22t-16.5 -13.5t-29 -8.5t-37 -7q-55 -10 -123 -10t-108 19t-66.5 54t-40.5 83.5t-14 110.5q0 58 17 108t43.5 84.5t72.5 57t135 20.5q15 -2 44 -7t59 -27.5t52.5 -68t23.5 -128.5q1 -21 -5 -32
t-14.5 -15t-16 -4.5l-7.5 -0.5h-308v-25q1 -57 29 -104t141 -43zM378 326q-6 69 -37 95t-76 27t-71.5 -14t-45 -42.5t-26.5 -57.5l-2 -8h258zM190 675q0 17 1.5 26t7 13.5t15 5t26.5 0.5q19 0 30.5 -0.5t17.5 -4.5t7.5 -13t1.5 -27v-20q0 -17 -1.5 -26t-7 -13.5t-15.5 -5
t-26 -0.5q-20 0 -31 0.5t-17 4.5t-7.5 13t-1.5 27v20v0z" />
    <glyph glyph-name="eogonek" unicode="&#x119;" horiz-adv-x="546" 
d="M284 73q38 -1 111 16q15 3 23.5 3.5t14 -3t9.5 -12.5t10 -25q5 -14 0.5 -22t-16.5 -13.5t-29 -8.5t-37 -7q-55 -10 -123 -10t-108 19t-66.5 54t-40.5 83.5t-14 110.5q0 58 17 108t43.5 84.5t72.5 57t135 20.5q15 -2 44 -7t59 -27.5t52.5 -68t23.5 -128.5q1 -21 -5 -32
t-14.5 -15t-16 -4.5l-7.5 -0.5h-308v-25q1 -57 29 -104t141 -43zM378 326q-6 69 -37 95t-76 27t-71.5 -14t-45 -42.5t-26.5 -57.5l-2 -8h258zM426 -182h2q-9 -3 -33.5 -6.5t-53.5 -3.5q-68 0 -99 28t-31 76q0 44 40.5 79.5t101.5 61.5l72 -8q11 -2 12.5 -12.5t-8.5 -15.5
q-39 -17 -64.5 -31t-41.5 -26t-22.5 -23t-6.5 -22q0 -17 12 -27t41 -10q14 0 27.5 1t27.5 3l21 2q15 0 15 -15v-44q0 -3 -4 -5z" />
    <glyph glyph-name="ecaron" unicode="&#x11b;" horiz-adv-x="546" 
d="M284 73q38 -1 111 16q15 3 23.5 3.5t14 -3t9.5 -12.5t10 -25q5 -14 0.5 -22t-16.5 -13.5t-29 -8.5t-37 -7q-55 -10 -123 -10t-108 19t-66.5 54t-40.5 83.5t-14 110.5q0 58 17 108t43.5 84.5t72.5 57t135 20.5q15 -2 44 -7t59 -27.5t52.5 -68t23.5 -128.5q1 -21 -5 -32
t-14.5 -15t-16 -4.5l-7.5 -0.5h-308v-25q1 -57 29 -104t141 -43zM378 326q-6 69 -37 95t-76 27t-71.5 -14t-45 -42.5t-26.5 -57.5l-2 -8h258zM149 782q6 0 11 -5l96 -102l48 49v-1l51 54q5 5 11 5h64q11 0 14.5 -8t-3.5 -16l-132 -149q-1 -1 -5 -2.5t-6 -1.5h-81
q-3 0 -6.5 1.5t-4.5 2.5l-132 149q-7 8 -3.5 16t14.5 8h64z" />
    <glyph glyph-name="omacron" unicode="&#x14d;" horiz-adv-x="570" 
d="M241 -7q-29 2 -55 9.5t-47 18.5q-61 33 -90 96t-23 157q4 58 21 106.5t49 82.5t79 51.5t112 13.5q58 -4 99.5 -28t68 -63.5t38 -92.5t9.5 -114q-2 -58 -19 -104t-50 -77t-81 -46t-111 -10zM141 134q31 -52 111 -58q44 -3 74 7t48.5 31t27.5 52t10 70q1 41 -5 77.5
t-21.5 64.5t-41.5 44.5t-65 18.5q-45 2 -75.5 -10.5t-49.5 -36.5t-28 -57.5t-9 -73.5q-2 -79 24 -129zM79 607q-15 0 -15 14v51q0 14 15 14h329q14 0 14 -14v-51q0 -14 -14 -14h-329z" />
    <glyph glyph-name="obreve" unicode="&#x14f;" horiz-adv-x="570" 
d="M241 -7q-29 2 -55 9.5t-47 18.5q-61 33 -90 96t-23 157q4 58 21 106.5t49 82.5t79 51.5t112 13.5q58 -4 99.5 -28t68 -63.5t38 -92.5t9.5 -114q-2 -58 -19 -104t-50 -77t-81 -46t-111 -10zM141 134q31 -52 111 -58q44 -3 74 7t48.5 31t27.5 52t10 70q1 41 -5 77.5
t-21.5 64.5t-41.5 44.5t-65 18.5q-45 2 -75.5 -10.5t-49.5 -36.5t-28 -57.5t-9 -73.5q-2 -79 24 -129zM134 785q5 0 9.5 -4t5.5 -8q5 -47 25 -71t70 -24q47 0 66.5 25t25.5 70q1 5 5 8.5t10 3.5h48q7 0 10.5 -5t3.5 -10q-2 -35 -11.5 -64.5t-29 -52t-51 -35t-79.5 -12.5
q-47 0 -79 12.5t-51.5 35t-28.5 52t-11 64.5q0 5 3.5 10t10.5 5h48v0z" />
    <glyph glyph-name="ohungarumlaut" unicode="&#x151;" horiz-adv-x="570" 
d="M196 844q1 5 5 8.5t9 3.5h71q7 0 11.5 -5.5t2.5 -13.5l-68 -220q-2 -4 -6.5 -7.5t-8.5 -3.5h-52q-8 0 -12 5t-3 13zM367 844q1 5 5 8.5t9 3.5h71q7 0 11.5 -5.5t2.5 -13.5l-68 -220q-2 -4 -6.5 -7.5t-8.5 -3.5h-52q-8 0 -12 5t-3 13zM243 -7q-29 2 -55 9.5t-47 18.5
q-61 33 -90 96t-23 157q4 58 21 106.5t49 82.5t79 51.5t112 13.5q58 -4 99.5 -28t68 -63.5t38 -92.5t9.5 -114q-2 -58 -19 -104t-50 -77t-81 -46t-111 -10zM143 134q31 -52 111 -58q44 -3 74 7t48.5 31t27.5 52t10 70q1 41 -5 77.5t-21.5 64.5t-41.5 44.5t-65 18.5
q-45 2 -75.5 -10.5t-49.5 -36.5t-28 -57.5t-9 -73.5q-2 -79 24 -129z" />
    <glyph glyph-name="oslashacute" unicode="&#x1ff;" horiz-adv-x="570" 
d="M240 -7q63 -5 111 10t81 46t50 77t19 104q2 89 -23.5 158t-82.5 106l30 64q7 14 -6 19l-2 1q-13 7 -20 -7l-29 -62q-18 8 -38.5 12.5t-43.5 6.5q-65 4 -112 -13.5t-79 -51.5t-49 -82.5t-21 -106.5q-6 -94 23 -157t90 -96l1 -1l-31 -67q-7 -13 7 -20l2 -1q12 -5 19 8
l32 68q31 -12 72 -15zM140 134q-26 50 -24 129q0 40 9 73.5t28 57.5t49.5 36.5t75.5 10.5q29 -1 52 -12l-155 -331q-21 13 -35 36zM411 236q-1 -39 -10 -70t-27.5 -52t-48.5 -31t-74 -7q-26 1 -47 9l153 327q32 -27 44 -73t10 -103zM117 655q-4 8 2 12l176 119q9 5 14 -3
l34 -61q5 -8 -3 -14l-185 -101q-9 -5 -14 4z" />
    <glyph glyph-name="dcaron" unicode="&#x10f;" horiz-adv-x="799" 
d="M215 -8q-36 5 -60 16q-40 19 -66.5 54t-40.5 83.5t-14 107.5q0 58 17 108t43.5 85t56.5 50t52 20q35 9 76 9q36 0 58.5 -2.5t48.5 -32.5v255q0 13 1.5 20.5t6 11t13.5 4t23 0.5q17 0 26.5 -0.5t14.5 -3.5t6.5 -10.5t1.5 -21.5v-696h57v-44q-1 0 -26.5 -7.5t-67.5 -4.5
q-28 2 -39.5 14.5t-14.5 25.5q-25 -13 -54 -25q-41 -17 -94 -17q-13 0 -25 1zM232 69q13 -2 39.5 -0.5t60 15.5t54.5 28v323q-24 6 -48 9.5t-61 3.5q-24 0 -41.5 -4.5t-27.5 -10.5q-24 -13 -42.5 -40.5t-27.5 -63.5t-8 -102t29 -113q21 -36 73 -45zM623 752q1 5 5 8.5t9 3.5
h71q7 0 11.5 -5.5t2.5 -13.5l-68 -220q-2 -4 -6.5 -7.5t-8.5 -3.5h-52q-8 0 -12 5t-3 13z" />
    <glyph glyph-name="dcroat" unicode="&#x111;" horiz-adv-x="591" 
d="M270 628q-15 0 -15 14v54q0 15 15 15h300q15 0 15 -15v-54q0 -14 -15 -14h-300zM228 -8q-36 5 -60 16q-40 19 -66.5 54t-40.5 83.5t-14 107.5q0 58 17 108t43.5 85t56.5 50t52 20q35 9 76 9q36 0 58.5 -2.5t48.5 -32.5v255q0 13 1.5 20.5t6 11t13.5 4t23 0.5
q17 0 26.5 -0.5t14.5 -3.5t6.5 -10.5t1.5 -21.5v-696h57v-44q-1 0 -26.5 -7.5t-67.5 -4.5q-28 2 -39.5 14.5t-14.5 25.5q-25 -13 -54 -25q-41 -17 -94 -17q-13 0 -25 1zM245 69q13 -2 39.5 -0.5t60 15.5t54.5 28v323q-24 6 -48 9.5t-61 3.5q-24 0 -41.5 -4.5t-27.5 -10.5
q-24 -13 -42.5 -40.5t-27.5 -63.5t-8 -102t29 -113q21 -36 73 -45z" />
    <glyph glyph-name="gbreve" unicode="&#x11f;" horiz-adv-x="567" 
d="M378 33q-28 -16 -52 -25q-41 -17 -94 -17q-13 0 -25 1q-36 5 -60 16q-40 19 -66.5 54t-40.5 83.5t-14 107.5q0 58 17 108t43.5 85t56.5 50t52 20q35 9 76 9q36 0 58 -3q21 -2 49 -30q0 13 1.5 20t6.5 10t13.5 3.5t22.5 0.5q17 0 26.5 -0.5t14.5 -3.5t6.5 -10.5t1.5 -21.5
v-559q-1 -45 -13 -77.5t-33 -54.5t-49 -36q-21 -10 -50.5 -19t-54.5 -11t-41 -2q-48 0 -90 8q-27 6 -42.5 10t-22.5 8.5t-7 11.5t4 19q5 16 9 26t9.5 15t14 5t22.5 -4q21 -6 44 -9.5t63 -2t59 6.5q40 9 61.5 30.5t24.5 66.5zM323 84q30 11 55 28v320q-27 9 -48 12
q-24 4 -61 4q-24 0 -41.5 -4.5t-27.5 -10.5q-24 -13 -42.5 -40.5t-27.5 -63.5t-8 -102t29 -113q21 -36 73 -45q13 -2 39.5 -0.5t59.5 15.5zM152 785q5 0 9.5 -4t5.5 -8q5 -47 25 -71t70 -24q47 0 66.5 25t25.5 70q1 5 5 8.5t10 3.5h48q7 0 10.5 -5t3.5 -10
q-2 -35 -11.5 -64.5t-29 -52t-51 -35t-79.5 -12.5q-47 0 -79 12.5t-51.5 35t-28.5 52t-11 64.5q0 5 3.5 10t10.5 5h48v0z" />
    <glyph glyph-name="gdotaccent" unicode="&#x121;" horiz-adv-x="567" 
d="M378 33q-28 -16 -52 -25q-41 -17 -94 -17q-13 0 -25 1q-36 5 -60 16q-40 19 -66.5 54t-40.5 83.5t-14 107.5q0 58 17 108t43.5 85t56.5 50t52 20q35 9 76 9q36 0 58 -3q21 -2 49 -30q0 13 1.5 20t6.5 10t13.5 3.5t22.5 0.5q17 0 26.5 -0.5t14.5 -3.5t6.5 -10.5t1.5 -21.5
v-559q-1 -45 -13 -77.5t-33 -54.5t-49 -36q-21 -10 -50.5 -19t-54.5 -11t-41 -2q-48 0 -90 8q-27 6 -42.5 10t-22.5 8.5t-7 11.5t4 19q5 16 9 26t9.5 15t14 5t22.5 -4q21 -6 44 -9.5t63 -2t59 6.5q40 9 61.5 30.5t24.5 66.5zM323 84q30 11 55 28v320q-27 9 -48 12
q-24 4 -61 4q-24 0 -41.5 -4.5t-27.5 -10.5q-24 -13 -42.5 -40.5t-27.5 -63.5t-8 -102t29 -113q21 -36 73 -45q13 -2 39.5 -0.5t59.5 15.5zM197 672q0 17 1.5 26t7 13.5t15 5t26.5 0.5q19 0 30.5 -0.5t17.5 -4.5t7.5 -13t1.5 -27v-20q0 -17 -1.5 -26t-7 -13.5t-15.5 -5
t-26 -0.5q-20 0 -31 0.5t-17 4.5t-7.5 13t-1.5 27v20v0z" />
    <glyph glyph-name="gcommaaccent" unicode="&#x123;" horiz-adv-x="567" 
d="M378 33q-28 -16 -52 -25q-41 -17 -94 -17q-13 0 -25 1q-36 5 -60 16q-40 19 -66.5 54t-40.5 83.5t-14 107.5q0 58 17 108t43.5 85t56.5 50t52 20q35 9 76 9q36 0 58 -3q21 -2 49 -30q0 13 1.5 20t6.5 10t13.5 3.5t22.5 0.5q17 0 26.5 -0.5t14.5 -3.5t6.5 -10.5t1.5 -21.5
v-559q-1 -45 -13 -77.5t-33 -54.5t-49 -36q-21 -10 -50.5 -19t-54.5 -11t-41 -2q-48 0 -90 8q-27 6 -42.5 10t-22.5 8.5t-7 11.5t4 19q5 16 9 26t9.5 15t14 5t22.5 -4q21 -6 44 -9.5t63 -2t59 6.5q40 9 61.5 30.5t24.5 66.5zM323 84q30 11 55 28v320q-27 9 -48 12
q-24 4 -61 4q-24 0 -41.5 -4.5t-27.5 -10.5q-24 -13 -42.5 -40.5t-27.5 -63.5t-8 -102t29 -113q21 -36 73 -45q13 -2 39.5 -0.5t59.5 15.5zM289 618q-1 -5 -5 -8.5t-9 -3.5h-71q-7 0 -11.5 5.5t-2.5 13.5l68 220q2 4 6.5 7.5t8.5 3.5h52q8 0 12 -5t3 -13z" />
    <glyph glyph-name="ntilde" unicode="&#xf1;" horiz-adv-x="592" 
d="M-2 447v49q10 9 24 17q12 6 28.5 11.5t39.5 5.5q28 0 41.5 -15t15.5 -29l2 2q26 29 57 34q32 6 85 8q100 1 145 -33t47 -111v-336h57v-44q-1 0 -26.5 -7.5t-67.5 -4.5q-24 2 -35.5 12t-16 21.5t-4.5 21v9.5v302q-4 47 -26.5 65.5t-68.5 21.5q-41 2 -75.5 -3.5
t-71.5 -13.5v-394q0 -23 -5 -29t-22 -7h-39q-18 0 -22.5 6.5t-4.5 29.5l1 276v135h-58zM408 669q0 -4 -1.5 -9t-3.5 -7q-12 -12 -27 -22q-13 -8 -29.5 -14.5t-33.5 -6.5q-22 0 -43 6.5t-41 15.5l-18 6q-11 4 -20.5 7t-14.5 3q-8 0 -18.5 -5.5t-19.5 -11.5q-11 -7 -22 -16
q-10 -8 -19.5 -3.5t-11.5 16.5l-6 41q0 3 2 9.5t5 8.5q13 12 28 22q13 8 29.5 15t34.5 7q20 0 42 -7t42 -15q17 -7 30.5 -11.5t21.5 -4.5t18 4.5t18 10.5q10 7 20 16q10 7 20 4t12 -15z" />
    <glyph glyph-name="hbar" unicode="&#x127;" horiz-adv-x="600" 
d="M74 0q-18 0 -22.5 6.5t-4.5 29.5v710q0 13 1.5 20.5t6 11t13.5 4t23 0.5q17 0 26.5 -0.5t14.5 -3.5t6.5 -10.5t1.5 -21.5v-258h1q26 29 57 34q32 6 88 8q100 1 145 -33t47 -111v-336h57v-44q-1 0 -26.5 -7.5t-67.5 -4.5q-24 2 -35.5 12t-16 21.5t-4.5 21v9.5v302
q-4 47 -26.5 65.5t-68.5 21.5q-41 2 -77 -3.5t-73 -13.5v-394q0 -23 -5 -29t-22 -7h-39v0zM-13 607q-15 0 -15 14v51q0 14 15 14h329q14 0 14 -14v-51q0 -14 -14 -14h-329z" />
    <glyph glyph-name="nacute" unicode="&#x144;" horiz-adv-x="592" 
d="M-2 447v49q10 9 24 17q12 6 28.5 11.5t39.5 5.5q28 0 41.5 -15t15.5 -29l2 2q26 29 57 34q32 6 85 8q100 1 145 -33t47 -111v-336h57v-44q-1 0 -26.5 -7.5t-67.5 -4.5q-24 2 -35.5 12t-16 21.5t-4.5 21v9.5v302q-4 47 -26.5 65.5t-68.5 21.5q-41 2 -75.5 -3.5
t-71.5 -13.5v-394q0 -23 -5 -29t-22 -7h-39q-18 0 -22.5 6.5t-4.5 29.5l1 276v135h-58zM125 655q-4 8 2 12l176 119q9 5 14 -3l34 -61q5 -8 -3 -14l-185 -101q-9 -5 -14 4z" />
    <glyph glyph-name="ncommaaccent" unicode="&#x146;" horiz-adv-x="592" 
d="M193 -247q-14 8 -9 22l66 152q8 17 25 8l47 -27q7 -4 9 -11.5t-1 -13.5l-86 -142q-3 -7 -10.5 -8t-12.5 1zM11 447v49q10 9 24 17q12 6 28.5 11.5t39.5 5.5q28 0 41.5 -15t15.5 -29l2 2q26 29 57 34q32 6 85 8q100 1 145 -33t47 -111v-336h57v-44q-1 0 -26.5 -7.5
t-67.5 -4.5q-24 2 -35.5 12t-16 21.5t-4.5 21v9.5v302q-4 47 -26.5 65.5t-68.5 21.5q-41 2 -75.5 -3.5t-71.5 -13.5v-394q0 -23 -5 -29t-22 -7h-39q-18 0 -22.5 6.5t-4.5 29.5l1 276v135h-58z" />
    <glyph glyph-name="ncaron" unicode="&#x148;" horiz-adv-x="592" 
d="M-2 447v49q10 9 24 17q12 6 28.5 11.5t39.5 5.5q28 0 41.5 -15t15.5 -29l2 2q26 29 57 34q32 6 85 8q100 1 145 -33t47 -111v-336h57v-44q-1 0 -26.5 -7.5t-67.5 -4.5q-24 2 -35.5 12t-16 21.5t-4.5 21v9.5v302q-4 47 -26.5 65.5t-68.5 21.5q-41 2 -75.5 -3.5
t-71.5 -13.5v-394q0 -23 -5 -29t-22 -7h-39q-18 0 -22.5 6.5t-4.5 29.5l1 276v135h-58zM102 782q6 0 11 -5l96 -102l48 49v-1l51 54q5 5 11 5h64q11 0 14.5 -8t-3.5 -16l-132 -149q-1 -1 -5 -2.5t-6 -1.5h-81q-3 0 -6.5 1.5t-4.5 2.5l-132 149q-7 8 -3.5 16t14.5 8h64z" />
    <glyph glyph-name="kcommaaccent.001" horiz-adv-x="554" 
d="M131 -247q-14 8 -9 22l66 152q8 17 25 8l47 -27q7 -4 9 -11.5t-1 -13.5l-86 -142q-3 -7 -10.5 -8t-12.5 1zM39 746q0 13 2 20.5t7 11t14.5 4t23.5 0.5q17 0 26 -0.5t13.5 -3.5t5 -10.5t0.5 -21.5v-265q26 19 58 31.5t66 17t68 0t64 -17.5t49 -37t27 -53t5.5 -60.5
t-14.5 -59.5q-15 -34 -43.5 -63.5t-73.5 -43.5q15 -20 32 -42.5t32 -43.5t26.5 -36.5t14.5 -20.5h51v-44q-1 0 -25 -6t-62 -6q-17 0 -27 8t-19 20q-5 6 -17.5 22.5t-29 38.5t-35.5 47t-36 47q-30 -1 -57.5 3.5t-53.5 11.5v-158q0 -23 -5 -29t-22 -7h-39q-18 0 -22.5 6.5
t-4.5 29.5l1 616v94zM180 424q-26 -11 -49 -26v-128q35 -10 71 -12t71 3q28 4 54.5 19t41.5 37t13.5 49t-28.5 54q-17 13 -39 18t-46 4t-47.5 -6t-41.5 -12z" />
    <glyph glyph-name="racute" unicode="&#x155;" horiz-adv-x="392" 
d="M211 523q12 2 29 3.5t34.5 2t32.5 0t24 -1.5q17 -3 20 -8t-2 -27q-5 -26 -10 -36t-19 -9q-19 3 -42.5 3t-47.5 -2.5t-46.5 -7t-39.5 -10.5v-394q0 -23 -5 -29t-22 -7h-39q-18 0 -22.5 6.5t-4.5 29.5l1 276v135h-58v49q10 9 24 17q12 6 28.5 11.5t39.5 5.5q28 0 41.5 -15
t15.5 -29l2 2q24 27 66 35zM28 655q-4 8 2 12l176 119q9 5 14 -3l34 -61q5 -8 -3 -14l-185 -101q-9 -5 -14 4z" />
    <glyph glyph-name="rcommaaccent" unicode="&#x157;" horiz-adv-x="392" 
d="M218 523q12 2 29 3.5t34.5 2t32.5 0t24 -1.5q17 -3 20 -8t-2 -27q-5 -26 -10 -36t-19 -9q-19 3 -42.5 3t-47.5 -2.5t-46.5 -7t-39.5 -10.5v-394q0 -23 -5 -29t-22 -7h-39q-18 0 -22.5 6.5t-4.5 29.5l1 276v135h-58v49q10 9 24 17q12 6 28.5 11.5t39.5 5.5q28 0 41.5 -15
t15.5 -29l2 2q24 27 66 35zM5 -247q-14 8 -9 22l66 152q8 17 25 8l47 -27q7 -4 9 -11.5t-1 -13.5l-86 -142q-3 -7 -10.5 -8t-12.5 1z" />
    <glyph glyph-name="rcaron" unicode="&#x159;" horiz-adv-x="392" 
d="M223 523q12 2 29 3.5t34.5 2t32.5 0t24 -1.5q17 -3 20 -8t-2 -27q-5 -26 -10 -36t-19 -9q-19 3 -42.5 3t-47.5 -2.5t-46.5 -7t-39.5 -10.5v-394q0 -23 -5 -29t-22 -7h-39q-18 0 -22.5 6.5t-4.5 29.5l1 276v135h-58v49q10 9 24 17q12 6 28.5 11.5t39.5 5.5q28 0 41.5 -15
t15.5 -29l2 2q24 27 66 35zM53 782q6 0 11 -5l96 -102l48 49v-1l51 54q5 5 11 5h64q11 0 14.5 -8t-3.5 -16l-132 -149q-1 -1 -5 -2.5t-6 -1.5h-81q-3 0 -6.5 1.5t-4.5 2.5l-132 149q-7 8 -3.5 16t14.5 8h64z" />
    <glyph glyph-name="sacute" unicode="&#x15b;" horiz-adv-x="468" 
d="M209 449q-62 4 -88 -19t-20.5 -60.5t45 -46.5t79.5 -17t70 -15t57 -22.5t41 -41.5t14 -73t-8 -75t-30.5 -50.5t-58 -33.5t-105.5 -9q-59 0 -149 24q-28 8 -36 16t0 30q6 16 10.5 25t10 12t14 2t22.5 -4q83 -21 140.5 -22.5t77.5 14.5t23 50t-4.5 48.5t-23.5 23t-60.5 17
t-71.5 12.5q-122 20 -134 108.5t33 137.5t131 48t170 -20l13 -3q14 -5 14.5 -17t-4.5 -30q-3 -11 -5 -17.5t-5 -10.5t-8.5 -4.5t-16.5 2.5q-64 15 -137 21zM78 655q-4 8 2 12l176 119q9 5 14 -3l34 -61q5 -8 -3 -14l-185 -101q-9 -5 -14 4z" />
    <glyph glyph-name="scedilla" unicode="&#x15f;" horiz-adv-x="468" 
d="M298 46l-63 -187q-3 -9 -13 -14t-18 -1l-55 19q-22 9 -12 31l65 147zM211 449q-62 4 -88 -19t-20.5 -60.5t45 -46.5t79.5 -17t70 -15t57 -22.5t41 -41.5t14 -73t-8 -75t-30.5 -50.5t-58 -33.5t-105.5 -9q-59 0 -149 24q-28 8 -36 16t0 30q6 16 10.5 25t10 12t14 2
t22.5 -4q83 -21 140.5 -22.5t77.5 14.5t23 50t-4.5 48.5t-23.5 23t-60.5 17t-71.5 12.5q-122 20 -134 108.5t33 137.5t131 48t170 -20l13 -3q14 -5 14.5 -17t-4.5 -30q-3 -11 -5 -17.5t-5 -10.5t-8.5 -4.5t-16.5 2.5q-64 15 -137 21z" />
    <glyph glyph-name="scommaaccent" unicode="&#x219;" horiz-adv-x="468" 
d="M151 -247q-14 8 -9 22l66 152q8 17 25 8l47 -27q7 -4 9 -11.5t-1 -13.5l-86 -142q-3 -7 -10.5 -8t-12.5 1zM221 449q-62 4 -88 -19t-20.5 -60.5t45 -46.5t79.5 -17t70 -15t57 -22.5t41 -41.5t14 -73t-8 -75t-30.5 -50.5t-58 -33.5t-105.5 -9q-59 0 -149 24q-28 8 -36 16
t0 30q6 16 10.5 25t10 12t14 2t22.5 -4q83 -21 140.5 -22.5t77.5 14.5t23 50t-4.5 48.5t-23.5 23t-60.5 17t-71.5 12.5q-122 20 -134 108.5t33 137.5t131 48t170 -20l13 -3q14 -5 14.5 -17t-4.5 -30q-3 -11 -5 -17.5t-5 -10.5t-8.5 -4.5t-16.5 2.5q-64 15 -137 21z" />
    <glyph glyph-name="tcommaaccent" unicode="&#x163;" horiz-adv-x="329" 
d="M62 -247q-14 8 -9 22l66 152q8 17 25 8l47 -27q7 -4 9 -11.5t-1 -13.5l-86 -142q-3 -7 -10.5 -8t-12.5 1zM103 244q0 -35 1.5 -71.5t16.5 -59.5q12 -18 24.5 -26t27 -10t31.5 -0.5t39 1.5q14 2 19 -8t13 -35q6 -19 3 -25.5t-20 -10.5q-30 -6 -62.5 -6t-62 7t-53.5 22.5
t-39 41.5q-18 31 -23.5 73.5t-3.5 95.5l-1 408q0 14 1 21.5t6 10.5t14.5 3.5t26.5 0.5q14 0 22.5 -0.5t12.5 -4t5 -11t1 -20.5v-119h135q14 0 21.5 -0.5t10.5 -3.5t3.5 -10t0.5 -21q0 -23 -4.5 -34.5t-31.5 -11.5h-135z" />
    <glyph glyph-name="tcaron" unicode="&#x165;" horiz-adv-x="359" 
d="M96 244q0 -35 1.5 -71.5t16.5 -59.5q12 -18 24.5 -26t27 -10t31.5 -0.5t39 1.5q14 2 19 -8t13 -35q6 -19 3 -25.5t-20 -10.5q-30 -6 -62.5 -6t-62 7t-53.5 22.5t-39 41.5q-18 31 -23.5 73.5t-3.5 95.5l-1 408q0 14 1 21.5t6 10.5t14.5 3.5t26.5 0.5q14 0 22.5 -0.5
t12.5 -4t5 -11t1 -20.5v-119h135q14 0 21.5 -0.5t10.5 -3.5t3.5 -10t0.5 -21q0 -23 -4.5 -34.5t-31.5 -11.5h-135zM181 752q1 5 5 8.5t9 3.5h71q7 0 11.5 -5.5t2.5 -13.5l-51 -158q-2 -4 -6.5 -7.5t-8.5 -3.5h-52q-8 0 -12 5t-3 13z" />
    <glyph glyph-name="ugrave" unicode="&#xf9;" horiz-adv-x="576" 
d="M520 51v-44q-1 0 -26.5 -7.5t-67.5 -4.5q-26 2 -37.5 13t-15.5 24q-26 -29 -53 -34.5t-71 -7.5q-101 -1 -146 33t-46 111v313h-58v49q10 9 24 17q12 6 28.5 11.5t39.5 5.5q28 0 41.5 -15t15.5 -29q0 -3 0.5 -7.5t0.5 -9.5v-309q4 -47 26.5 -64t68.5 -20q19 -1 34.5 0
t30 3t29 5t32.5 7v396q0 23 5 29t22 7h40q18 0 22.5 -6.5t4.5 -29.5l-1 -178v-258h57zM340 611q-5 -9 -14 -4l-185 101q-8 6 -3 14l34 61q5 8 14 3l176 -119q6 -4 2 -12z" />
    <glyph glyph-name="uacute" unicode="&#xfa;" horiz-adv-x="576" 
d="M520 51v-44q-1 0 -26.5 -7.5t-67.5 -4.5q-26 2 -37.5 13t-15.5 24q-26 -29 -53 -34.5t-71 -7.5q-101 -1 -146 33t-46 111v313h-58v49q10 9 24 17q12 6 28.5 11.5t39.5 5.5q28 0 41.5 -15t15.5 -29q0 -3 0.5 -7.5t0.5 -9.5v-309q4 -47 26.5 -64t68.5 -20q19 -1 34.5 0
t30 3t29 5t32.5 7v396q0 23 5 29t22 7h40q18 0 22.5 -6.5t4.5 -29.5l-1 -178v-258h57zM148 655q-4 8 2 12l176 119q9 5 14 -3l34 -61q5 -8 -3 -14l-185 -101q-9 -5 -14 4z" />
    <glyph glyph-name="ucircumflex" unicode="&#xfb;" horiz-adv-x="576" 
d="M520 51v-44q-1 0 -26.5 -7.5t-67.5 -4.5q-26 2 -37.5 13t-15.5 24q-26 -29 -53 -34.5t-71 -7.5q-101 -1 -146 33t-46 111v313h-58v49q10 9 24 17q12 6 28.5 11.5t39.5 5.5q28 0 41.5 -15t15.5 -29q0 -3 0.5 -7.5t0.5 -9.5v-309q4 -47 26.5 -64t68.5 -20q19 -1 34.5 0
t30 3t29 5t32.5 7v396q0 23 5 29t22 7h40q18 0 22.5 -6.5t4.5 -29.5l-1 -178v-258h57zM373 606q-4 0 -7 3v-1l-103 108l-103 -108v1q-3 -3 -7 -3h-65q-7 0 -9.5 5.5t2.5 10.5l134 149q4 4 7 4h82q3 0 7 -4l134 -149q5 -5 2.5 -10.5t-9.5 -5.5h-65z" />
    <glyph glyph-name="udieresis" unicode="&#xfc;" horiz-adv-x="576" 
d="M520 51v-44q-1 0 -26.5 -7.5t-67.5 -4.5q-26 2 -37.5 13t-15.5 24q-26 -29 -53 -34.5t-71 -7.5q-101 -1 -146 33t-46 111v313h-58v49q10 9 24 17q12 6 28.5 11.5t39.5 5.5q28 0 41.5 -15t15.5 -29q0 -3 0.5 -7.5t0.5 -9.5v-309q4 -47 26.5 -64t68.5 -20q19 -1 34.5 0
t30 3t29 5t32.5 7v396q0 23 5 29t22 7h40q18 0 22.5 -6.5t4.5 -29.5l-1 -178v-258h57zM119 673q0 17 1.5 26t7 13.5t15 5t26.5 0.5q19 0 30.5 -0.5t17.5 -4.5t7.5 -13t1.5 -27v-20q0 -17 -1.5 -26t-7 -13.5t-15.5 -5t-26 -0.5q-20 0 -31 0.5t-17 4.5t-7.5 13t-1.5 27v20z
M305 673q0 17 1.5 26t7 13.5t15 5t26.5 0.5q19 0 30.5 -0.5t17.5 -4.5t7.5 -13t1.5 -27v-20q0 -17 -1.5 -26t-7 -13.5t-15.5 -5t-26 -0.5q-20 0 -31 0.5t-17 4.5t-7.5 13t-1.5 27v20z" />
    <glyph glyph-name="umacron" unicode="&#x16b;" horiz-adv-x="576" 
d="M520 51v-44q-1 0 -26.5 -7.5t-67.5 -4.5q-26 2 -37.5 13t-15.5 24q-26 -29 -53 -34.5t-71 -7.5q-101 -1 -146 33t-46 111v313h-58v49q10 9 24 17q12 6 28.5 11.5t39.5 5.5q28 0 41.5 -15t15.5 -29q0 -3 0.5 -7.5t0.5 -9.5v-309q4 -47 26.5 -64t68.5 -20q19 -1 34.5 0
t30 3t29 5t32.5 7v396q0 23 5 29t22 7h40q18 0 22.5 -6.5t4.5 -29.5l-1 -178v-258h57zM86 607q-15 0 -15 14v51q0 14 15 14h329q14 0 14 -14v-51q0 -14 -14 -14h-329z" />
    <glyph glyph-name="ubreve" unicode="&#x16d;" horiz-adv-x="576" 
d="M520 51v-44q-1 0 -26.5 -7.5t-67.5 -4.5q-26 2 -37.5 13t-15.5 24q-26 -29 -53 -34.5t-71 -7.5q-101 -1 -146 33t-46 111v313h-58v49q10 9 24 17q12 6 28.5 11.5t39.5 5.5q28 0 41.5 -15t15.5 -29q0 -3 0.5 -7.5t0.5 -9.5v-309q4 -47 26.5 -64t68.5 -20q19 -1 34.5 0
t30 3t29 5t32.5 7v396q0 23 5 29t22 7h40q18 0 22.5 -6.5t4.5 -29.5l-1 -178v-258h57zM142 785q5 0 9.5 -4t5.5 -8q5 -47 25 -71t70 -24q47 0 66.5 25t25.5 70q1 5 5 8.5t10 3.5h48q7 0 10.5 -5t3.5 -10q-2 -35 -11.5 -64.5t-29 -52t-51 -35t-79.5 -12.5q-47 0 -79 12.5
t-51.5 35t-28.5 52t-11 64.5q0 5 3.5 10t10.5 5h48v0z" />
    <glyph glyph-name="uring" unicode="&#x16f;" horiz-adv-x="576" 
d="M520 51v-44q-1 0 -26.5 -7.5t-67.5 -4.5q-26 2 -37.5 13t-15.5 24q-26 -29 -53 -34.5t-71 -7.5q-101 -1 -146 33t-46 111v313h-58v49q10 9 24 17q12 6 28.5 11.5t39.5 5.5q28 0 41.5 -15t15.5 -29q0 -3 0.5 -7.5t0.5 -9.5v-309q4 -47 26.5 -64t68.5 -20q19 -1 34.5 0
t30 3t29 5t32.5 7v396q0 23 5 29t22 7h40q18 0 22.5 -6.5t4.5 -29.5l-1 -178v-258h57zM357 710q0 -54 -30.5 -79t-78.5 -25t-79.5 25t-31.5 79t31.5 79t79.5 25t78.5 -25t30.5 -79zM300 709q0 28 -16 39t-36 11q-21 0 -36.5 -11t-15.5 -39q0 -29 15.5 -39.5t36.5 -10.5
q20 0 36 10.5t16 39.5z" />
    <glyph glyph-name="uhungarumlaut" unicode="&#x171;" horiz-adv-x="576" 
d="M189 844q1 5 5 8.5t9 3.5h71q7 0 11.5 -5.5t2.5 -13.5l-68 -220q-2 -4 -6.5 -7.5t-8.5 -3.5h-52q-8 0 -12 5t-3 13zM360 844q1 5 5 8.5t9 3.5h71q7 0 11.5 -5.5t2.5 -13.5l-68 -220q-2 -4 -6.5 -7.5t-8.5 -3.5h-52q-8 0 -12 5t-3 13zM523 51v-44q-1 0 -26.5 -7.5
t-67.5 -4.5q-26 2 -37.5 13t-15.5 24q-26 -29 -53 -34.5t-71 -7.5q-101 -1 -146 33t-46 111v313h-58v49q10 9 24 17q12 6 28.5 11.5t39.5 5.5q28 0 41.5 -15t15.5 -29q0 -3 0.5 -7.5t0.5 -9.5v-309q4 -47 26.5 -64t68.5 -20q19 -1 34.5 0t30 3t29 5t32.5 7v396q0 23 5 29
t22 7h40q18 0 22.5 -6.5t4.5 -29.5l-1 -178v-258h57z" />
    <glyph glyph-name="uogonek" unicode="&#x173;" horiz-adv-x="576" 
d="M508 -195h2q-9 -3 -33.5 -6.5t-53.5 -3.5q-68 0 -99 28t-31 76q0 34 24.5 63t64.5 52q-4 4 -5.5 8.5t-3.5 9.5q-26 -29 -53 -34.5t-71 -7.5q-101 -1 -146 33t-46 111v313h-58v49q10 9 24 17q12 6 28.5 11.5t39.5 5.5q28 0 41.5 -15t15.5 -29q0 -3 0.5 -7.5t0.5 -9.5v-309
q4 -47 26.5 -64t68.5 -20q19 -1 34.5 0t30 3t29 5t32.5 7v396q0 23 5 29t22 7h40q18 0 22.5 -6.5t4.5 -29.5l-1 -178v-258h57v-44q-1 0 -3 -1t-6 -2q-39 -17 -64.5 -31t-41.5 -26t-22.5 -23t-6.5 -22q0 -17 12 -27t41 -10q14 0 27.5 1t27.5 3l21 2q15 0 15 -15v-44
q0 -3 -4 -5z" />
    <glyph glyph-name="wcircumflex" unicode="&#x175;" horiz-adv-x="892" 
d="M675 70q-6 -13 -12 -25.5t-15 -23.5q-24 -31 -62 -31q-16 0 -31 3q-23 5 -41 28q-7 10 -12 21l-10 22q-5 10 -9.5 21t-10.5 26t-14 36.5t-20 51.5l-48 -129q-6 -13 -12 -25.5t-15 -23.5q-24 -31 -62 -31q-16 0 -31 3q-23 5 -41 28q-7 10 -12 21l-10 22q-5 10 -11.5 25.5
t-20.5 54t-39.5 109.5t-68.5 193h-66v49q10 9 24 17q12 6 28.5 11.5t39.5 5.5q22 0 34 -10t17 -22l151 -415q0 -4 3 -4t3 4l97 226l-60 165q-5 13 -5.5 20.5t4 12t14 7.5t24.5 8q12 4 20 6.5t13 0.5t9 -8.5t8 -19.5l155 -418q0 -4 3 -4t3 4l156 418q4 13 7.5 19.5t8.5 8.5
t12.5 -0.5l19.5 -6.5q15 -5 24.5 -8t14 -7.5t4 -12t-5.5 -20.5zM540 607q-4 0 -7 3v-1l-103 108l-103 -108v1q-3 -3 -7 -3h-65q-7 0 -9.5 5.5t2.5 10.5l134 149q4 4 7 4h82q3 0 7 -4l134 -149q5 -5 2.5 -10.5t-9.5 -5.5h-65z" />
    <glyph glyph-name="wgrave" unicode="&#x1e81;" horiz-adv-x="892" 
d="M675 70q-6 -13 -12 -25.5t-15 -23.5q-24 -31 -62 -31q-16 0 -31 3q-23 5 -41 28q-7 10 -12 21l-10 22q-5 10 -9.5 21t-10.5 26t-14 36.5t-20 51.5l-48 -129q-6 -13 -12 -25.5t-15 -23.5q-24 -31 -62 -31q-16 0 -31 3q-23 5 -41 28q-7 10 -12 21l-10 22q-5 10 -11.5 25.5
t-20.5 54t-39.5 109.5t-68.5 193h-66v49q10 9 24 17q12 6 28.5 11.5t39.5 5.5q22 0 34 -10t17 -22l151 -415q0 -4 3 -4t3 4l97 226l-60 165q-5 13 -5.5 20.5t4 12t14 7.5t24.5 8q12 4 20 6.5t13 0.5t9 -8.5t8 -19.5l155 -418q0 -4 3 -4t3 4l156 418q4 13 7.5 19.5t8.5 8.5
t12.5 -0.5l19.5 -6.5q15 -5 24.5 -8t14 -7.5t4 -12t-5.5 -20.5zM520 611q-5 -9 -14 -4l-185 101q-8 6 -3 14l34 61q5 8 14 3l176 -119q6 -4 2 -12z" />
    <glyph glyph-name="wacute" unicode="&#x1e83;" horiz-adv-x="892" 
d="M675 70q-6 -13 -12 -25.5t-15 -23.5q-24 -31 -62 -31q-16 0 -31 3q-23 5 -41 28q-7 10 -12 21l-10 22q-5 10 -9.5 21t-10.5 26t-14 36.5t-20 51.5l-48 -129q-6 -13 -12 -25.5t-15 -23.5q-24 -31 -62 -31q-16 0 -31 3q-23 5 -41 28q-7 10 -12 21l-10 22q-5 10 -11.5 25.5
t-20.5 54t-39.5 109.5t-68.5 193h-66v49q10 9 24 17q12 6 28.5 11.5t39.5 5.5q22 0 34 -10t17 -22l151 -415q0 -4 3 -4t3 4l97 226l-60 165q-5 13 -5.5 20.5t4 12t14 7.5t24.5 8q12 4 20 6.5t13 0.5t9 -8.5t8 -19.5l155 -418q0 -4 3 -4t3 4l156 418q4 13 7.5 19.5t8.5 8.5
t12.5 -0.5l19.5 -6.5q15 -5 24.5 -8t14 -7.5t4 -12t-5.5 -20.5zM299 655q-4 8 2 12l176 119q9 5 14 -3l34 -61q5 -8 -3 -14l-185 -101q-9 -5 -14 4z" />
    <glyph glyph-name="wdieresis" unicode="&#x1e85;" horiz-adv-x="892" 
d="M675 70q-6 -13 -12 -25.5t-15 -23.5q-24 -31 -62 -31q-16 0 -31 3q-23 5 -41 28q-7 10 -12 21l-10 22q-5 10 -9.5 21t-10.5 26t-14 36.5t-20 51.5l-48 -129q-6 -13 -12 -25.5t-15 -23.5q-24 -31 -62 -31q-16 0 -31 3q-23 5 -41 28q-7 10 -12 21l-10 22q-5 10 -11.5 25.5
t-20.5 54t-39.5 109.5t-68.5 193h-66v49q10 9 24 17q12 6 28.5 11.5t39.5 5.5q22 0 34 -10t17 -22l151 -415q0 -4 3 -4t3 4l97 226l-60 165q-5 13 -5.5 20.5t4 12t14 7.5t24.5 8q12 4 20 6.5t13 0.5t9 -8.5t8 -19.5l155 -418q0 -4 3 -4t3 4l156 418q4 13 7.5 19.5t8.5 8.5
t12.5 -0.5l19.5 -6.5q15 -5 24.5 -8t14 -7.5t4 -12t-5.5 -20.5zM288 674q0 17 1.5 26t7 13.5t15 5t26.5 0.5q19 0 30.5 -0.5t17.5 -4.5t7.5 -13t1.5 -27v-20q0 -17 -1.5 -26t-7 -13.5t-15.5 -5t-26 -0.5q-20 0 -31 0.5t-17 4.5t-7.5 13t-1.5 27v20zM474 674q0 17 1.5 26
t7 13.5t15 5t26.5 0.5q19 0 30.5 -0.5t17.5 -4.5t7.5 -13t1.5 -27v-20q0 -17 -1.5 -26t-7 -13.5t-15.5 -5t-26 -0.5q-20 0 -31 0.5t-17 4.5t-7.5 13t-1.5 27v20z" />
    <glyph glyph-name="ycircumflex" unicode="&#x177;" horiz-adv-x="555" 
d="M455 86v-165q-1 -45 -13 -77.5t-33 -54.5t-49 -36q-21 -10 -50.5 -19t-54.5 -11t-41 -2q-48 0 -90 8q-27 6 -42.5 10t-22.5 8.5t-7 11.5t4 19q5 16 9 26t9.5 15t14 5t22.5 -4q21 -6 44 -9.5t63 -2t59 6.5q40 9 61.5 30.5t24.5 66.5l-1 117q-25 -27 -50 -31q-27 -6 -71 -8
q-101 -1 -146 33t-46 111v313h-58v49q10 9 24 17q12 6 28.5 11.5t39.5 5.5q28 0 41.5 -15t15.5 -29q0 -3 0.5 -7.5t0.5 -9.5v-309q4 -47 26.5 -64t68.5 -20q19 -1 34.5 0t30 3t29 5t32.5 7v396q0 23 5 29t22 7h40q18 0 22.5 -6.5t4.5 -29.5zM363 607q-4 0 -7 3v-1l-103 108
l-103 -108v1q-3 -3 -7 -3h-65q-7 0 -9.5 5.5t2.5 10.5l134 149q4 4 7 4h82q3 0 7 -4l134 -149q5 -5 2.5 -10.5t-9.5 -5.5h-65z" />
    <glyph glyph-name="ygrave" unicode="&#x1ef3;" horiz-adv-x="555" 
d="M455 86v-165q-1 -45 -13 -77.5t-33 -54.5t-49 -36q-21 -10 -50.5 -19t-54.5 -11t-41 -2q-48 0 -90 8q-27 6 -42.5 10t-22.5 8.5t-7 11.5t4 19q5 16 9 26t9.5 15t14 5t22.5 -4q21 -6 44 -9.5t63 -2t59 6.5q40 9 61.5 30.5t24.5 66.5l-1 117q-25 -27 -50 -31q-27 -6 -71 -8
q-101 -1 -146 33t-46 111v313h-58v49q10 9 24 17q12 6 28.5 11.5t39.5 5.5q28 0 41.5 -15t15.5 -29q0 -3 0.5 -7.5t0.5 -9.5v-309q4 -47 26.5 -64t68.5 -20q19 -1 34.5 0t30 3t29 5t32.5 7v396q0 23 5 29t22 7h40q18 0 22.5 -6.5t4.5 -29.5zM341 611q-5 -9 -14 -4l-185 101
q-8 6 -3 14l34 61q5 8 14 3l176 -119q6 -4 2 -12z" />
    <glyph glyph-name="zacute" unicode="&#x17a;" horiz-adv-x="490" 
d="M46 -1q-27 0 -31.5 12t-4.5 38v18.5t5 10.5l287 361h-246q-14 0 -21 1t-10.5 5t-4 12t-0.5 22q0 17 0.5 26t3.5 13.5t10.5 5.5t21.5 1h329q27 0 31.5 -15t4.5 -41v-17t-5 -13l-285 -354h253q14 0 21.5 -1t10.5 -5.5t3.5 -13.5t0.5 -26q0 -14 -0.5 -22t-4 -12t-11 -5
t-20.5 -1h-338v0zM89 655q-4 8 2 12l176 119q9 5 14 -3l34 -61q5 -8 -3 -14l-185 -101q-9 -5 -14 4z" />
    <glyph glyph-name="zdotaccent" unicode="&#x17c;" horiz-adv-x="490" 
d="M46 -1q-27 0 -31.5 12t-4.5 38v18.5t5 10.5l287 361h-246q-14 0 -21 1t-10.5 5t-4 12t-0.5 22q0 17 0.5 26t3.5 13.5t10.5 5.5t21.5 1h329q27 0 31.5 -15t4.5 -41v-17t-5 -13l-285 -354h253q14 0 21.5 -1t10.5 -5.5t3.5 -13.5t0.5 -26q0 -14 -0.5 -22t-4 -12t-11 -5
t-20.5 -1h-338v0zM150 671q0 17 1.5 26t7 13.5t15 5t26.5 0.5q19 0 30.5 -0.5t17.5 -4.5t7.5 -13t1.5 -27v-20q0 -17 -1.5 -26t-7 -13.5t-15.5 -5t-26 -0.5q-20 0 -31 0.5t-17 4.5t-7.5 13t-1.5 27v20v0z" />
    <glyph glyph-name="gcircumflex" unicode="&#x11d;" horiz-adv-x="567" 
d="M378 33q-28 -16 -52 -25q-41 -17 -94 -17q-13 0 -25 1q-36 5 -60 16q-40 19 -66.5 54t-40.5 83.5t-14 107.5q0 58 17 108t43.5 85t56.5 50t52 20q35 9 76 9q36 0 58 -3q21 -2 49 -30q0 13 1.5 20t6.5 10t13.5 3.5t22.5 0.5q17 0 26.5 -0.5t14.5 -3.5t6.5 -10.5t1.5 -21.5
v-559q-1 -45 -13 -77.5t-33 -54.5t-49 -36q-21 -10 -50.5 -19t-54.5 -11t-41 -2q-48 0 -90 8q-27 6 -42.5 10t-22.5 8.5t-7 11.5t4 19q5 16 9 26t9.5 15t14 5t22.5 -4q21 -6 44 -9.5t63 -2t59 6.5q40 9 61.5 30.5t24.5 66.5zM323 84q30 11 55 28v320q-27 9 -48 12
q-24 4 -61 4q-24 0 -41.5 -4.5t-27.5 -10.5q-24 -13 -42.5 -40.5t-27.5 -63.5t-8 -102t29 -113q21 -36 73 -45q13 -2 39.5 -0.5t59.5 15.5zM382 607q-4 0 -7 3v-1l-103 108l-103 -108v1q-3 -3 -7 -3h-65q-7 0 -9.5 5.5t2.5 10.5l134 149q4 4 7 4h82q3 0 7 -4l134 -149
q5 -5 2.5 -10.5t-9.5 -5.5h-65z" />
    <glyph glyph-name="g.alt" horiz-adv-x="567" 
d="M378 33q-28 -16 -52 -25q-41 -17 -94 -17q-13 0 -25 1q-36 5 -60 16q-40 19 -66.5 54t-40.5 83.5t-14 107.5q0 58 17 108t43.5 85t56.5 50t52 20q35 9 76 9q36 0 58 -3q21 -2 49 -30q0 13 1.5 20t6.5 10t13.5 3.5t22.5 0.5q17 0 26.5 -0.5t14.5 -3.5t6.5 -10.5t1.5 -21.5
v-559q-1 -45 -13 -77.5t-33 -54.5t-49 -36q-21 -10 -50.5 -19t-54.5 -11t-41 -2q-48 0 -90 8q-27 6 -42.5 10t-22.5 8.5t-7 11.5t4 19q5 16 9 26t9.5 15t14 5t22.5 -4q21 -6 44 -9.5t63 -2t59 6.5q40 9 61.5 30.5t24.5 66.5zM323 84q30 11 55 28v320q-27 9 -48 12
q-24 4 -61 4q-24 0 -41.5 -4.5t-27.5 -10.5q-24 -13 -42.5 -40.5t-27.5 -63.5t-8 -102t29 -113q21 -36 73 -45q13 -2 39.5 -0.5t59.5 15.5z" />
    <glyph glyph-name="idieresis" unicode="&#xef;" horiz-adv-x="312" 
d="M167 36q0 -14 -1.5 -21t-6 -10.5t-13.5 -4t-23 -0.5q-17 0 -26.5 0.5t-14.5 3.5t-6 10.5t-1 21.5v411h-58v49q10 9 24 17q12 6 28.5 11.5t39.5 5.5q28 0 41.5 -15t15.5 -29q0 -3 0.5 -7.5t0.5 -9.5v-433v0zM-37 673q0 17 1.5 26t7 13.5t15 5t26.5 0.5q19 0 30.5 -0.5
t17.5 -4.5t7.5 -13t1.5 -27v-20q0 -17 -1.5 -26t-7 -13.5t-15.5 -5t-26 -0.5q-20 0 -31 0.5t-17 4.5t-7.5 13t-1.5 27v20zM149 673q0 17 1.5 26t7 13.5t15 5t26.5 0.5q19 0 30.5 -0.5t17.5 -4.5t7.5 -13t1.5 -27v-20q0 -17 -1.5 -26t-7 -13.5t-15.5 -5t-26 -0.5
q-20 0 -31 0.5t-17 4.5t-7.5 13t-1.5 27v20z" />
    <glyph glyph-name="icircumflex" unicode="&#xee;" horiz-adv-x="376" 
d="M193 36q0 -14 -1.5 -21t-6 -10.5t-13.5 -4t-23 -0.5q-17 0 -26.5 0.5t-14.5 3.5t-6 10.5t-1 21.5v411h-58v49q10 9 24 17q12 6 28.5 11.5t39.5 5.5q28 0 41.5 -15t15.5 -29q0 -3 0.5 -7.5t0.5 -9.5v-433v0zM241 606q-4 0 -7 3v-1l-103 108l-103 -108v1q-3 -3 -7 -3h-65
q-7 0 -9.5 5.5t2.5 10.5l134 149q4 4 7 4h82q3 0 7 -4l134 -149q5 -5 2.5 -10.5t-9.5 -5.5h-65z" />
    <glyph glyph-name="igrave" unicode="&#xec;" horiz-adv-x="271" 
d="M142 36q0 -14 -1.5 -21t-6 -10.5t-13.5 -4t-23 -0.5q-17 0 -26.5 0.5t-14.5 3.5t-6 10.5t-1 21.5v411h-58v49q10 9 24 17q12 6 28.5 11.5t39.5 5.5q28 0 41.5 -15t15.5 -29q0 -3 0.5 -7.5t0.5 -9.5v-433v0zM146 611q-5 -9 -14 -4l-185 101q-8 6 -3 14l34 61q5 8 14 3
l176 -119q6 -4 2 -12z" />
    <glyph glyph-name="iacute" unicode="&#xed;" horiz-adv-x="271" 
d="M144 36q0 -14 -1.5 -21t-6 -10.5t-13.5 -4t-23 -0.5q-17 0 -26.5 0.5t-14.5 3.5t-6 10.5t-1 21.5v411h-58v49q10 9 24 17q12 6 28.5 11.5t39.5 5.5q28 0 41.5 -15t15.5 -29q0 -3 0.5 -7.5t0.5 -9.5v-433v0zM-18 655q-4 8 2 12l176 119q9 5 14 -3l34 -61q5 -8 -3 -14
l-185 -101q-9 -5 -14 4z" />
    <glyph glyph-name="Igrave" unicode="&#xcc;" horiz-adv-x="424" 
d="M44 0q-14 0 -21.5 2t-10.5 7t-3.5 13.5t-0.5 22.5q0 23 4.5 31t31.5 8h94v578h-95q-14 0 -21.5 1.5t-10.5 6.5t-3.5 13.5t-0.5 22.5q0 23 4.5 31.5t31.5 8.5h289q27 0 31.5 -8.5t4.5 -31.5q0 -14 -0.5 -22.5t-3.5 -13.5t-10.5 -6.5t-21.5 -1.5h-98v-578h97q27 0 31.5 -8
t4.5 -31q0 -14 -0.5 -22.5t-3.5 -13.5t-10.5 -7t-21.5 -2h-287zM267 822q-5 -9 -14 -4l-185 101q-8 6 -3 14l34 61q5 8 14 3l176 -119q6 -4 2 -12z" />
    <glyph glyph-name="Idieresis" unicode="&#xcf;" horiz-adv-x="425" 
d="M45 0q-14 0 -21.5 2t-10.5 7t-3.5 13.5t-0.5 22.5q0 23 4.5 31t31.5 8h94v578h-95q-14 0 -21.5 1.5t-10.5 6.5t-3.5 13.5t-0.5 22.5q0 23 4.5 31.5t31.5 8.5h289q27 0 31.5 -8.5t4.5 -31.5q0 -14 -0.5 -22.5t-3.5 -13.5t-10.5 -6.5t-21.5 -1.5h-98v-578h97q27 0 31.5 -8
t4.5 -31q0 -14 -0.5 -22.5t-3.5 -13.5t-10.5 -7t-21.5 -2h-287zM36 883q0 17 1.5 26t7 13.5t15 5t26.5 0.5q19 0 30.5 -0.5t17.5 -4.5t7.5 -13t1.5 -27v-20q0 -17 -1.5 -26t-7 -13.5t-15.5 -5t-26 -0.5q-20 0 -31 0.5t-17 4.5t-7.5 13t-1.5 27v20zM222 883q0 17 1.5 26
t7 13.5t15 5t26.5 0.5q19 0 30.5 -0.5t17.5 -4.5t7.5 -13t1.5 -27v-20q0 -17 -1.5 -26t-7 -13.5t-15.5 -5t-26 -0.5q-20 0 -31 0.5t-17 4.5t-7.5 13t-1.5 27v20z" />
    <glyph glyph-name="Icircumflex" unicode="&#xce;" horiz-adv-x="424" 
d="M60 0q-14 0 -21.5 2t-10.5 7t-3.5 13.5t-0.5 22.5q0 23 4.5 31t31.5 8h94v578h-95q-14 0 -21.5 1.5t-10.5 6.5t-3.5 13.5t-0.5 22.5q0 23 4.5 31.5t31.5 8.5h289q27 0 31.5 -8.5t4.5 -31.5q0 -14 -0.5 -22.5t-3.5 -13.5t-10.5 -6.5t-21.5 -1.5h-98v-578h97q27 0 31.5 -8
t4.5 -31q0 -14 -0.5 -22.5t-3.5 -13.5t-10.5 -7t-21.5 -2h-287zM305 816q-4 0 -7 3v-1l-103 108l-103 -108v1q-3 -3 -7 -3h-65q-7 0 -9.5 5.5t2.5 10.5l134 149q4 4 7 4h82q3 0 7 -4l134 -149q5 -5 2.5 -10.5t-9.5 -5.5h-65z" />
    <glyph glyph-name="Iacute" unicode="&#xcd;" horiz-adv-x="421" 
d="M41 0q-14 0 -21.5 2t-10.5 7t-3.5 13.5t-0.5 22.5q0 23 4.5 31t31.5 8h94v578h-95q-14 0 -21.5 1.5t-10.5 6.5t-3.5 13.5t-0.5 22.5q0 23 4.5 31.5t31.5 8.5h289q27 0 31.5 -8.5t4.5 -31.5q0 -14 -0.5 -22.5t-3.5 -13.5t-10.5 -6.5t-21.5 -1.5h-98v-578h97q27 0 31.5 -8
t4.5 -31q0 -14 -0.5 -22.5t-3.5 -13.5t-10.5 -7t-21.5 -2h-287zM43 867q-4 8 2 12l176 119q9 5 14 -3l34 -61q5 -8 -3 -14l-185 -101q-9 -5 -14 4z" />
    <glyph glyph-name="Ntilde" unicode="&#xd1;" horiz-adv-x="717" 
d="M597 36q0 -25 -6 -30.5t-28 -5.5h-15q-8 0 -14.5 0.5t-14 5t-17 13.5t-21.5 27q-7 10 -25.5 38.5t-45 69t-58 90t-65 101t-65.5 101.5t-59 92v-502q0 -14 -1.5 -21.5t-6.5 -10.5t-14.5 -3.5t-26.5 -0.5q-14 0 -23.5 0.5t-14.5 4t-7 10.5t-2 21l1 639h-58v49q10 9 24 17
q12 6 28.5 11.5t39.5 5.5q19 0 31.5 -7.5t20.5 -17.5l347 -552v529q0 13 2 20.5t7 11t14.5 4t23.5 0.5q17 0 26.5 -0.5t14.5 -3.5t6.5 -10.5t1.5 -21.5v-674zM492 879q0 -4 -1.5 -9t-3.5 -7q-12 -12 -27 -22q-13 -8 -29.5 -14.5t-33.5 -6.5q-22 0 -43 6.5t-41 15.5l-18 6
q-11 4 -20.5 7t-14.5 3q-8 0 -18.5 -5.5t-19.5 -11.5q-11 -7 -22 -16q-10 -8 -19.5 -3.5t-11.5 16.5l-6 41q0 3 2 9.5t5 8.5q13 12 28 22q13 8 29.5 15t34.5 7q20 0 42 -7t42 -15q17 -7 30.5 -11.5t21.5 -4.5t18 4.5t18 10.5q10 7 20 16q10 7 20 4t12 -15z" />
    <glyph glyph-name="Scaron" unicode="&#x160;" horiz-adv-x="587" 
d="M254 663q-81 5 -116.5 -39t-27.5 -104t140 -83t170 -45t57.5 -59t17.5 -109t-13 -111.5t-45.5 -68t-86 -41.5t-120 -12t-162.5 29q-21 7 -34 11t-18.5 9.5t-4.5 14.5t7 24q9 22 16 32.5t16 11.5t23.5 -4.5t39.5 -14.5q69 -20 141 -22q93 4 121.5 37t30 88t-9 73
t-43.5 31.5t-107.5 28.5t-114 29.5t-67.5 37t-39 56.5t-3.5 106.5t64 128t172.5 54.5q86 -2 167 -21l25 -6q19 -6 20 -18.5t-6 -36.5q-5 -15 -6.5 -23.5t-6 -11t-14 -0.5t-29.5 7q-52 13 -154 21zM159 1006q6 0 11 -5l96 -102l48 49v-1l51 54q5 5 11 5h64q11 0 14.5 -8
t-3.5 -16l-132 -149q-1 -1 -5 -2.5t-6 -1.5h-81q-3 0 -6.5 1.5t-4.5 2.5l-132 149q-7 8 -3.5 16t14.5 8h64z" />
    <glyph glyph-name="scaron" unicode="&#x161;" horiz-adv-x="468" 
d="M249 449q-62 4 -88 -19t-20.5 -60.5t45 -46.5t79.5 -17t70 -15t57 -22.5t41 -41.5t14 -73t-8 -75t-30.5 -50.5t-58 -33.5t-105.5 -9q-59 0 -149 24q-28 8 -36 16t0 30q6 16 10.5 25t10 12t14 2t22.5 -4q83 -21 140.5 -22.5t77.5 14.5t23 50t-4.5 48.5t-23.5 23t-60.5 17
t-71.5 12.5q-122 20 -134 108.5t33 137.5t131 48t170 -20l13 -3q14 -5 14.5 -17t-4.5 -30q-3 -11 -5 -17.5t-5 -10.5t-8.5 -4.5t-16.5 2.5q-64 15 -137 21zM135 795q6 0 11 -5l96 -102l48 49v-1l51 54q5 5 11 5h64q11 0 14.5 -8t-3.5 -16l-132 -149q-1 -1 -5 -2.5t-6 -1.5
h-81q-3 0 -6.5 1.5t-4.5 2.5l-132 149q-7 8 -3.5 16t14.5 8h64z" />
    <glyph glyph-name="Yacute" unicode="&#xdd;" horiz-adv-x="630" 
d="M366 366q-4 -6 -7.5 -12.5t-4.5 -11.5q-3 -12 -3.5 -27.5t-0.5 -29.5l1 -250q0 -27 -9.5 -31.5t-35.5 -4.5q-15 0 -24.5 0.5t-15 3t-8 8.5t-2.5 17l-2 255q0 14 -0.5 29t-2.5 28q-1 5 -5 12.5t-8 14.5q-37 66 -87 143t-93 158h-65v49q10 9 24 17q12 6 28.5 11.5t39.5 5.5
q13 0 26.5 -8t21.5 -24q17 -33 40 -69t47 -73t46 -72t39 -66l174 286q6 12 10.5 18t9.5 7t12.5 -2.5t18.5 -10.5q14 -8 23 -12.5t12.5 -9.5t2 -12t-8.5 -19zM179 867q-4 8 2 12l176 119q9 5 14 -3l34 -61q5 -8 -3 -14l-185 -101q-9 -5 -14 4z" />
    <glyph glyph-name="yacute" unicode="&#xfd;" horiz-adv-x="555" 
d="M455 86v-165q-1 -45 -13 -77.5t-33 -54.5t-49 -36q-21 -10 -50.5 -19t-54.5 -11t-41 -2q-48 0 -90 8q-27 6 -42.5 10t-22.5 8.5t-7 11.5t4 19q5 16 9 26t9.5 15t14 5t22.5 -4q21 -6 44 -9.5t63 -2t59 6.5q40 9 61.5 30.5t24.5 66.5l-1 117q-25 -27 -50 -31q-27 -6 -71 -8
q-101 -1 -146 33t-46 111v313h-58v49q10 9 24 17q12 6 28.5 11.5t39.5 5.5q28 0 41.5 -15t15.5 -29q0 -3 0.5 -7.5t0.5 -9.5v-309q4 -47 26.5 -64t68.5 -20q19 -1 34.5 0t30 3t29 5t32.5 7v396q0 23 5 29t22 7h40q18 0 22.5 -6.5t4.5 -29.5zM120 655q-4 8 2 12l176 119
q9 5 14 -3l34 -61q5 -8 -3 -14l-185 -101q-9 -5 -14 4z" />
    <glyph glyph-name="Ydieresis" unicode="&#x178;" horiz-adv-x="630" 
d="M366 366q-4 -6 -7.5 -12.5t-4.5 -11.5q-3 -12 -3.5 -27.5t-0.5 -29.5l1 -250q0 -27 -9.5 -31.5t-35.5 -4.5q-15 0 -24.5 0.5t-15 3t-8 8.5t-2.5 17l-2 255q0 14 -0.5 29t-2.5 28q-1 5 -5 12.5t-8 14.5q-37 66 -87 143t-93 158h-65v49q10 9 24 17q12 6 28.5 11.5t39.5 5.5
q13 0 26.5 -8t21.5 -24q17 -33 40 -69t47 -73t46 -72t39 -66l174 286q6 12 10.5 18t9.5 7t12.5 -2.5t18.5 -10.5q14 -8 23 -12.5t12.5 -9.5t2 -12t-8.5 -19zM168 883q0 17 1.5 26t7 13.5t15 5t26.5 0.5q19 0 30.5 -0.5t17.5 -4.5t7.5 -13t1.5 -27v-20q0 -17 -1.5 -26
t-7 -13.5t-15.5 -5t-26 -0.5q-20 0 -31 0.5t-17 4.5t-7.5 13t-1.5 27v20zM354 883q0 17 1.5 26t7 13.5t15 5t26.5 0.5q19 0 30.5 -0.5t17.5 -4.5t7.5 -13t1.5 -27v-20q0 -17 -1.5 -26t-7 -13.5t-15.5 -5t-26 -0.5q-20 0 -31 0.5t-17 4.5t-7.5 13t-1.5 27v20z" />
    <glyph glyph-name="ydieresis" unicode="&#xff;" horiz-adv-x="555" 
d="M455 86v-165q-1 -45 -13 -77.5t-33 -54.5t-49 -36q-21 -10 -50.5 -19t-54.5 -11t-41 -2q-48 0 -90 8q-27 6 -42.5 10t-22.5 8.5t-7 11.5t4 19q5 16 9 26t9.5 15t14 5t22.5 -4q21 -6 44 -9.5t63 -2t59 6.5q40 9 61.5 30.5t24.5 66.5l-1 117q-25 -27 -50 -31q-27 -6 -71 -8
q-101 -1 -146 33t-46 111v313h-58v49q10 9 24 17q12 6 28.5 11.5t39.5 5.5q28 0 41.5 -15t15.5 -29q0 -3 0.5 -7.5t0.5 -9.5v-309q4 -47 26.5 -64t68.5 -20q19 -1 34.5 0t30 3t29 5t32.5 7v396q0 23 5 29t22 7h40q18 0 22.5 -6.5t4.5 -29.5zM109 673q0 17 1.5 26t7 13.5
t15 5t26.5 0.5q19 0 30.5 -0.5t17.5 -4.5t7.5 -13t1.5 -27v-20q0 -17 -1.5 -26t-7 -13.5t-15.5 -5t-26 -0.5q-20 0 -31 0.5t-17 4.5t-7.5 13t-1.5 27v20zM295 673q0 17 1.5 26t7 13.5t15 5t26.5 0.5q19 0 30.5 -0.5t17.5 -4.5t7.5 -13t1.5 -27v-20q0 -17 -1.5 -26t-7 -13.5
t-15.5 -5t-26 -0.5q-20 0 -31 0.5t-17 4.5t-7.5 13t-1.5 27v20z" />
    </font>
</defs>
</svg>
