<?xml version="1.0" encoding="utf-8"?>
<!-- Generator: Adobe Illustrator 15.0.2, SVG Export Plug-In . SVG Version: 6.00 Build 0)  -->
<!DOCTYPE svg PUBLIC "-//W3C//DTD SVG 1.1//EN" "http://www.w3.org/Graphics/SVG/1.1/DTD/svg11.dtd">
<svg version="1.1" id="Layer_1" xmlns="http://www.w3.org/2000/svg" xmlns:xlink="http://www.w3.org/1999/xlink" x="0px" y="0px"
	 width="486px" height="619px" viewBox="0 0 486 619" enable-background="new 0 0 486 619" xml:space="preserve">
<g id="letra9">
	<g>
		<g>
			<path fill="#9FD5B8" d="M373.832,520.239h52.748l-5.209-7.687l-32.43,0.044l16.086-24.161l-1.003-1.479l-2.562-3.777
				l-1.258-1.857L373.832,520.239z M400.449,481.251l26.274-38.771h-52.748l5.209,7.687l32.43-0.045l-15.969,23.983l-21.705-0.053
				l5.682,7.182l20.652,0.055l0.075,0.109l0.074-0.108h0.05L400.449,481.251z"/>
		</g>
	</g>
	<rect x="324.64" y="413.42" fill="none" stroke="#D1D3D4" stroke-miterlimit="10" width="157" height="200"/>
	<path fill="#9FD5B8" d="M352.508,563.21l5.313-8.73h-4.156v-1.618h7.043l-5.312,8.73h5.174v1.618H352.508z"/>
	<path fill="#9FD5B8" d="M370.023,552.86v10.35h-1.618v-4.463h-4.128v4.463h-1.617v-10.35h1.617v4.421h4.128v-4.421H370.023z"/>
	<path fill="#9FD5B8" d="M373.856,557.072h3.501v1.466h-3.501v3.207h4.31v1.465h-4.323h-1.604v-10.35h1.604h4.323v1.451h-4.31
		V557.072z"/>
	<path fill="#9FD5B8" d="M387.563,563.21l-6.096-6.248v6.248h-1.604v-10.35l6.095,6.264v-6.264h1.604V563.21z"/>
	<path fill="#9FD5B8" d="M391.981,563.195c-1.061-0.098-2.147-0.529-3.223-1.324l0.907-1.229c0.852,0.614,1.659,0.948,2.44,1.02
		c0.612,0.056,1.171-0.084,1.617-0.378c0.601-0.391,0.906-1.031,0.78-1.59c-0.152-0.655-0.893-1.102-2.008-1.241
		c-0.81-0.098-1.492-0.349-2.021-0.738c-0.502-0.392-0.865-0.894-1.02-1.464c-0.139-0.503-0.111-1.032,0.07-1.534
		c0.167-0.502,0.488-0.936,0.906-1.256c0.516-0.391,1.144-0.601,1.841-0.601c0.738,0,1.507,0.237,2.287,0.697l-0.768,1.312
		c-0.544-0.307-1.061-0.475-1.521-0.475c-0.35,0-0.669,0.098-0.906,0.279c-0.182,0.14-0.321,0.335-0.404,0.544
		c-0.069,0.209-0.084,0.433-0.027,0.627c0.168,0.572,0.795,0.977,1.742,1.088c0.907,0.112,1.66,0.377,2.231,0.81
		c0.559,0.419,0.935,0.963,1.088,1.591c0.14,0.6,0.07,1.228-0.195,1.812c-0.265,0.572-0.683,1.062-1.227,1.423
		c-0.642,0.418-1.396,0.643-2.204,0.643C392.245,563.21,392.107,563.195,391.981,563.195z"/>
	<path fill="#9FD5B8" d="M404.92,552.86v10.35h-1.618v-4.463h-4.128v4.463h-1.616v-10.35h1.616v4.421h4.128v-4.421H404.92z"/>
	<path fill="#9FD5B8" d="M409.59,562.806c-0.628-0.265-1.172-0.642-1.646-1.116c-0.476-0.474-0.852-1.018-1.116-1.646
		s-0.404-1.312-0.404-2.009c0-0.696,0.141-1.381,0.404-2.021c0.266-0.613,0.642-1.157,1.116-1.632
		c0.474-0.488,1.018-0.852,1.646-1.116s1.312-0.404,2.009-0.404c0.78,0,1.549,0.168,2.245,0.502l-0.712,1.466
		c-0.474-0.225-0.989-0.35-1.533-0.35c-0.948,0-1.842,0.377-2.511,1.046c-0.67,0.67-1.046,1.562-1.046,2.512
		c0,0.948,0.376,1.841,1.046,2.51c0.669,0.67,1.562,1.046,2.511,1.046c0.559,0,1.088-0.125,1.575-0.376
		c0.141-0.056,0.267-0.14,0.377-0.209l0.906,1.353c-0.182,0.111-0.362,0.224-0.558,0.308c-0.711,0.361-1.492,0.544-2.303,0.544
		C410.902,563.21,410.218,563.069,409.59,562.806z"/>
	<path fill="#9FD5B8" d="M423.297,552.86v10.35h-1.618v-4.463h-4.128v4.463h-1.616v-10.35h1.616v4.421h4.128v-4.421H423.297z"/>
	<path fill="#9FD5B8" d="M425.512,563.21v-10.35h1.617v10.35H425.512z"/>
	<path fill="#9FD5B8" d="M437.085,563.21l-6.095-6.248v6.248h-1.604v-10.35l6.096,6.264v-6.264h1.604V563.21z"/>
	<path fill="#9FD5B8" d="M446.957,563.21h-1.771l-0.949-2.219h-3.542l-0.948,2.219h-1.785l4.505-10.35L446.957,563.21z
		 M443.612,559.542l-1.145-2.691l-1.144,2.691H443.612z"/>
	<path fill="#9FD5B8" d="M366.793,545.726l6.851-11.252h-5.357v-2.085h9.078l-6.849,11.252h6.669v2.085H366.793L366.793,545.726z"/>
	<path fill="#9FD5B8" d="M389.373,532.389v13.337h-2.086v-5.752h-5.32v5.752h-2.085v-13.337h2.085v5.697h5.32v-5.697H389.373z"/>
	<path fill="#9FD5B8" d="M392.234,545.726v-13.337h2.086v13.337H392.234z"/>
	<path fill="#9FD5B8" d="M407.154,545.726l-7.854-8.053v8.053h-2.066v-13.337l7.854,8.07v-8.07h2.066V545.726L407.154,545.726z"/>
	<path fill="#9FD5B8" d="M417.078,545.726l-5.285-6.039v6.039h-2.085v-13.337h2.085v5.5l4.277-5.5h2.625l-4.89,6.417l5.878,6.92
		H417.078z"/>
	<path fill="#9FD5B8" d="M431.784,545.726h-2.283l-1.223-2.858h-4.564l-1.223,2.858h-2.301l5.805-13.337L431.784,545.726z
		 M427.469,540.999l-1.474-3.47l-1.474,3.47H427.469z"/>
	<path fill="#9FD5B8" d="M370.148,582.393l6.849-11.252h-5.356v-2.085h9.076l-6.849,11.252h6.669v2.085H370.148z"/>
	<path fill="#9FD5B8" d="M392.727,569.056v13.337h-2.085v-5.752h-5.32v5.752h-2.086v-13.337h2.086v5.697h5.32v-5.697H392.727z"/>
	<path fill="#9FD5B8" d="M397.671,574.483h4.871v1.889h-4.871v4.134h5.914v1.888h-5.933h-2.066v-13.337h2.066h5.933v1.869h-5.914
		V574.483z"/>
	<path fill="#9FD5B8" d="M407.847,574.341v8.053h-2.066v-13.337l7.854,8.07v-8.07h2.066v13.337L407.847,574.341z"/>
	<path fill="#9FD5B8" d="M428.431,582.393h-2.282l-1.223-2.857h-4.565l-1.224,2.857h-2.301l5.808-13.337L428.431,582.393z
		 M424.117,577.666l-1.474-3.47l-1.476,3.47H424.117z"/>
</g>
<g id="letra8">
	<g>
		<g>
			<polygon fill="#9FD5B8" points="219.49,475.948 219.496,475.954 219.496,444.42 258.415,470.795 256.559,472.053 
				252.781,474.612 251.301,475.615 227.139,459.529 227.168,481.151 227.177,481.156 227.132,513.587 251.116,497.617 
				251.063,475.914 258.244,481.596 258.298,502.247 258.409,502.321 258.299,502.396 258.299,502.446 258.262,502.422 
				219.49,528.696 			"/>
		</g>
	</g>
	<rect x="163.89" y="413.42" fill="none" stroke="#D1D3D4" stroke-miterlimit="10" width="157" height="200"/>
	<path fill="#9FD5B8" d="M218.84,547.626c0,2.1-0.62,3.897-1.8,5.196c-0.64,0.721-1.438,1.279-2.379,1.64
		c-0.96,0.381-2.039,0.58-3.237,0.58h-2.738h-0.78V540.21h2.319h1.199c1.198,0,2.277,0.18,3.237,0.58
		c0.939,0.358,1.739,0.92,2.379,1.639C218.22,543.727,218.84,545.526,218.84,547.626z M216.521,547.626
		c0-1.521-0.419-2.778-1.199-3.639c-0.879-0.979-2.179-1.46-3.896-1.46h-1.199v10.195h1.199c1.719,0,3.019-0.5,3.896-1.459
		C216.102,550.404,216.521,549.126,216.521,547.626z"/>
	<path fill="#9FD5B8" d="M224.993,554.462c-0.898-0.379-1.679-0.919-2.357-1.6c-0.68-0.68-1.221-1.46-1.601-2.357
		c-0.38-0.9-0.579-1.879-0.579-2.879s0.199-1.979,0.579-2.898c0.38-0.879,0.92-1.659,1.601-2.357c0.68-0.681,1.459-1.2,2.357-1.579
		c0.899-0.38,1.879-0.58,2.878-0.58c1,0,1.979,0.2,2.898,0.58c0.88,0.379,1.659,0.898,2.358,1.579
		c0.681,0.698,1.199,1.479,1.579,2.357c0.38,0.92,0.579,1.898,0.579,2.898s-0.199,1.979-0.579,2.879
		c-0.38,0.897-0.898,1.679-1.579,2.357c-0.699,0.681-1.479,1.221-2.358,1.6c-0.919,0.381-1.898,0.58-2.898,0.58
		S225.893,554.843,224.993,554.462z M224.274,544.027c-0.959,0.959-1.499,2.238-1.499,3.599c0,1.359,0.54,2.639,1.499,3.598
		c0.96,0.96,2.239,1.5,3.598,1.5c1.359,0,2.64-0.54,3.6-1.5c0.959-0.959,1.499-2.238,1.499-3.598c0-1.36-0.54-2.64-1.499-3.599
		c-0.96-0.96-2.239-1.5-3.6-1.5C226.513,542.527,225.234,543.067,224.274,544.027z"/>
	<path fill="#9FD5B8" d="M240.182,546.087v8.955h-2.299V540.21l8.734,8.975v-8.975h2.299v14.832L240.182,546.087z"/>
	<path fill="#9FD5B8" d="M254.051,546.087v8.955h-2.3V540.21l8.735,8.975v-8.975h2.299v14.832L254.051,546.087z"/>
	<path fill="#9FD5B8" d="M276.936,555.042h-2.539l-1.359-3.179h-5.077l-1.358,3.179h-2.56l6.457-14.832L276.936,555.042z
		 M272.138,549.783l-1.64-3.856l-1.64,3.856H272.138z"/>
	<path fill="#9FD5B8" d="M225.775,567.626c0,2.1-0.62,3.897-1.799,5.196c-0.641,0.721-1.439,1.279-2.379,1.64
		c-0.96,0.381-2.039,0.58-3.238,0.58h-2.738h-0.779V560.21h2.318h1.199c1.199,0,2.278,0.18,3.238,0.58
		c0.938,0.358,1.738,0.92,2.379,1.639C225.155,563.727,225.775,565.526,225.775,567.626z M223.454,567.626
		c0-1.521-0.419-2.778-1.198-3.639c-0.88-0.979-2.18-1.46-3.897-1.46h-1.199v10.195h1.199c1.719,0,3.019-0.5,3.897-1.459
		C223.035,570.404,223.454,569.126,223.454,567.626z"/>
	<path fill="#9FD5B8" d="M231.928,574.462c-0.899-0.379-1.68-0.919-2.358-1.6c-0.679-0.68-1.22-1.46-1.6-2.357
		c-0.38-0.9-0.58-1.879-0.58-2.879s0.2-1.979,0.58-2.898c0.38-0.879,0.92-1.659,1.6-2.357c0.68-0.681,1.459-1.2,2.358-1.579
		c0.898-0.38,1.879-0.58,2.878-0.58c1,0,1.979,0.2,2.897,0.58c0.88,0.379,1.659,0.898,2.359,1.579
		c0.68,0.698,1.199,1.479,1.579,2.357c0.38,0.92,0.579,1.898,0.579,2.898s-0.199,1.979-0.579,2.879
		c-0.38,0.897-0.899,1.679-1.579,2.357c-0.7,0.681-1.479,1.221-2.359,1.6c-0.919,0.381-1.897,0.58-2.897,0.58
		C233.807,575.042,232.827,574.843,231.928,574.462z M231.207,564.027c-0.959,0.959-1.499,2.238-1.499,3.599
		c0,1.359,0.54,2.639,1.499,3.598c0.96,0.96,2.239,1.5,3.599,1.5c1.358,0,2.639-0.54,3.599-1.5c0.959-0.959,1.499-2.238,1.499-3.598
		c0-1.36-0.54-2.64-1.499-3.599c-0.96-0.96-2.239-1.5-3.599-1.5C233.448,562.527,232.167,563.067,231.207,564.027z"/>
	<path fill="#9FD5B8" d="M247.116,566.087v8.955h-2.299V560.21l8.735,8.975v-8.975h2.299v14.832L247.116,566.087z"/>
	<path fill="#9FD5B8" d="M270,575.042h-2.539l-1.358-3.179h-5.077l-1.359,3.179h-2.559l6.457-14.832L270,575.042z M265.202,569.783
		l-1.639-3.856l-1.64,3.856H265.202z"/>
</g>
<g id="letra7">
	<g>
		<g>
			<polygon fill="#9FD5B8" points="98.165,462.071 96.309,460.813 92.531,458.254 91.378,457.472 98.049,461.953 97.994,441.101 
				90.813,435.42 90.866,457.129 91.05,457.252 66.889,473.337 66.933,440.906 59.246,435.698 59.246,468.954 59.24,468.948 
				59.24,521.696 66.927,516.487 66.882,484.059 91.042,500.145 92.524,499.142 96.302,496.582 98.159,495.323 73.63,478.699 			"/>
		</g>
	</g>
	<rect x="3.64" y="413.42" fill="none" stroke="#D1D3D4" stroke-miterlimit="10" width="157" height="200"/>
	<path fill="#9FD5B8" d="M56.54,550.042l-5.877-6.718v6.718h-2.318V535.21h2.318v6.117l4.757-6.117h2.92l-5.438,7.137l6.537,7.695
		H56.54L56.54,550.042z"/>
	<path fill="#9FD5B8" d="M65.951,544.306l3.898-9.096h2.538l-6.438,14.832l-6.456-14.832h2.56L65.951,544.306z"/>
	<path fill="#9FD5B8" d="M73.545,550.042V535.21h2.318v14.832H73.545z"/>
	<path fill="#9FD5B8" d="M90.135,550.042l-8.735-8.955v8.955h-2.299V535.21l8.734,8.975v-8.975h2.3V550.042z"/>
	<path fill="#9FD5B8" d="M104.005,550.042l-8.735-8.955v8.955h-2.299V535.21l8.734,8.975v-8.975h2.3V550.042z"/>
	<path fill="#9FD5B8" d="M109.118,541.247h5.019v2.099h-5.019v4.598h6.177v2.1h-6.196H106.8v-14.832h2.299h6.196v2.079h-6.177
		V541.247z"/>
	<path fill="#9FD5B8" d="M67.961,570.042l-5.877-6.718v6.718h-2.318V555.21h2.318v6.117l4.758-6.117h2.919l-5.438,7.137l6.537,7.695
		H67.961L67.961,570.042z"/>
	<path fill="#9FD5B8" d="M72.915,558.308c0.279,0,0.521-0.12,0.72-0.38c0.04-0.04,0.061-0.1,0.101-0.141c-0.04,0-0.061,0-0.101,0
		c-0.72,0-1.3-0.579-1.3-1.3c0-0.719,0.58-1.317,1.3-1.317c2.318,0,1.579,4.018-0.72,4.018V558.308z"/>
	<path fill="#9FD5B8" d="M88.947,570.042h-2.539l-1.358-3.179h-5.077l-1.359,3.179h-2.559l6.457-14.832L88.947,570.042z
		 M84.149,564.783l-1.639-3.856l-1.641,3.856H84.149z"/>
	<path fill="#9FD5B8" d="M98.758,567.942v2.1H92.54h-2.299V555.21h2.319v12.732H98.758z"/>
	<path fill="#9FD5B8" d="M100.755,570.042V555.21h2.317v14.832H100.755z"/>
	<path fill="#9FD5B8" d="M50.027,589.708l-5.877-6.718v6.718h-2.32v-14.832h2.319v6.116l4.757-6.116h2.919l-5.438,7.137l6.537,7.695
		H50.027L50.027,589.708z"/>
	<path fill="#9FD5B8" d="M58.917,589.128c-0.898-0.379-1.679-0.919-2.357-1.6c-0.679-0.68-1.22-1.46-1.601-2.357
		c-0.38-0.9-0.579-1.879-0.579-2.879s0.199-1.979,0.579-2.898c0.381-0.879,0.921-1.659,1.601-2.357
		c0.68-0.681,1.459-1.2,2.357-1.579c0.899-0.38,1.88-0.58,2.878-0.58c1,0,1.979,0.2,2.898,0.58c0.88,0.379,1.659,0.898,2.359,1.579
		c0.68,0.698,1.198,1.479,1.579,2.357c0.38,0.92,0.578,1.898,0.578,2.898s-0.198,1.979-0.578,2.879
		c-0.381,0.897-0.899,1.679-1.579,2.357c-0.7,0.681-1.479,1.221-2.359,1.6c-0.919,0.381-1.898,0.58-2.898,0.58
		C60.797,589.708,59.818,589.509,58.917,589.128z M58.198,578.693c-0.959,0.959-1.499,2.238-1.499,3.599
		c0,1.359,0.54,2.639,1.499,3.598c0.96,0.96,2.239,1.5,3.599,1.5c1.358,0,2.639-0.54,3.599-1.5c0.959-0.959,1.499-2.238,1.499-3.598
		c0-1.36-0.54-2.64-1.499-3.599c-0.96-0.96-2.239-1.5-3.599-1.5S59.158,577.733,58.198,578.693z"/>
	<path fill="#9FD5B8" d="M81.243,585.331c0,1.237-0.38,2.277-1.08,3.058c-0.539,0.6-1.559,1.319-3.298,1.319h-2.979h-2.079v-14.832
		h2.318h1.919c1.619,0,2.578,0.659,3.099,1.239c0.64,0.72,1,1.698,1,2.839c0,1.038-0.28,1.938-0.819,2.639
		c0.359,0.22,0.641,0.459,0.839,0.699C80.864,583.07,81.243,584.109,81.243,585.331z M74.126,580.972h1.919
		c0.699,0,1.199-0.2,1.539-0.56c0.381-0.42,0.46-1.021,0.46-1.459c0-0.42-0.079-1.021-0.46-1.439c-0.34-0.359-0.84-0.56-1.539-0.56
		h-1.919V580.972h-0.26H74.126z M79.144,585.331c0-0.48-0.079-1.16-0.521-1.641c-0.38-0.42-0.979-0.62-1.759-0.62h-2.738v4.538
		h2.738c0.779,0,1.379-0.2,1.759-0.62C79.065,586.51,79.144,585.83,79.144,585.331z"/>
	<path fill="#9FD5B8" d="M83.498,589.708v-14.832h2.318v14.832H83.498z"/>
	<path fill="#9FD5B8" d="M91.332,580.913h5.019v2.099h-5.019v4.598h6.178v2.1h-6.197h-2.298v-14.832h2.298h6.197v2.079h-6.178
		V580.913z"/>
	<path fill="#9FD5B8" d="M109.181,576.955h-4.078v12.753h-2.338v-12.753h-4.078v-2.079h10.494V576.955z"/>
	<path fill="#9FD5B8" d="M122.512,589.708h-2.539l-1.359-3.179h-5.077l-1.358,3.179h-2.56l6.457-14.832L122.512,589.708z
		 M117.714,584.449l-1.64-3.856l-1.64,3.856H117.714z"/>
</g>
<g id="letra6">
	<g>
		<g>
			<path fill="#9FD5B8" d="M410.525,329.299l-23.985-15.969l0.054-21.705l-7.183,5.682l-0.053,20.651l-0.111,0.074l0.11,0.076v0.049
				l0.037-0.024l38.771,26.274v-52.748l-7.687,5.209L410.525,329.299z M388.24,270.507l1.856,1.258l3.777,2.561l1.48,1.003
				l24.162-16.086l-0.046,32.43l7.688,5.208v-52.748L388.24,270.507z"/>
		</g>
	</g>
	<rect x="324.64" y="209.132" fill="none" stroke="#D1D3D4" stroke-miterlimit="10" width="157" height="200"/>
	<path fill="#9FD5B8" d="M376.86,370.574l0.56-2.26c0.3,0.08,0.641,0.12,0.979,0.12c0.858,0,1.6-0.239,2.119-0.66
		c0.538-0.459,0.818-1.159,0.818-2.059v-9.795h2.318v9.795c0,2.019-0.899,3.198-1.659,3.838c-0.919,0.778-2.198,1.199-3.598,1.199
		C377.878,370.754,377.36,370.693,376.86,370.574z"/>
	<path fill="#9FD5B8" d="M390.351,370.174c-0.899-0.381-1.68-0.919-2.358-1.6c-0.679-0.68-1.22-1.459-1.6-2.358
		c-0.381-0.9-0.579-1.879-0.579-2.878s0.198-1.979,0.579-2.898c0.38-0.879,0.92-1.658,1.6-2.357c0.68-0.68,1.459-1.2,2.358-1.58
		c0.898-0.379,1.879-0.579,2.878-0.579c1,0,1.979,0.2,2.897,0.579c0.88,0.38,1.659,0.9,2.359,1.58
		c0.68,0.699,1.199,1.479,1.579,2.357c0.38,0.92,0.579,1.899,0.579,2.898s-0.199,1.979-0.579,2.878s-0.899,1.679-1.579,2.358
		c-0.7,0.681-1.479,1.219-2.359,1.6c-0.919,0.38-1.897,0.58-2.897,0.58C392.23,370.754,391.249,370.554,390.351,370.174z
		 M389.63,359.74c-0.959,0.959-1.499,2.238-1.499,3.598s0.54,2.639,1.499,3.598c0.96,0.959,2.239,1.499,3.599,1.499
		c1.358,0,2.639-0.54,3.599-1.499c0.959-0.959,1.499-2.238,1.499-3.598s-0.54-2.639-1.499-3.598c-0.96-0.959-2.239-1.5-3.599-1.5
		S390.59,358.779,389.63,359.74z"/>
	<path fill="#9FD5B8" d="M406.738,370.734c-1.52-0.141-3.078-0.761-4.617-1.9l1.3-1.758c1.219,0.879,2.378,1.358,3.498,1.459
		c0.879,0.08,1.679-0.121,2.318-0.541c0.858-0.56,1.3-1.479,1.119-2.278c-0.221-0.938-1.279-1.579-2.878-1.779
		c-1.159-0.14-2.14-0.5-2.898-1.059c-0.72-0.56-1.239-1.279-1.459-2.099c-0.2-0.721-0.16-1.479,0.1-2.199
		c0.24-0.721,0.699-1.34,1.3-1.799c0.739-0.561,1.64-0.86,2.639-0.86c1.06,0,2.159,0.34,3.278,1l-1.101,1.879
		c-0.778-0.438-1.519-0.681-2.179-0.681c-0.499,0-0.959,0.141-1.299,0.4c-0.261,0.2-0.46,0.48-0.58,0.78
		c-0.101,0.3-0.12,0.62-0.04,0.899c0.24,0.818,1.14,1.398,2.499,1.559c1.299,0.16,2.379,0.54,3.198,1.16
		c0.8,0.6,1.339,1.379,1.559,2.277c0.2,0.86,0.101,1.76-0.279,2.6c-0.38,0.82-0.979,1.52-1.759,2.039
		c-0.92,0.6-1.999,0.919-3.158,0.919C407.117,370.754,406.917,370.734,406.738,370.734z"/>
	<path fill="#9FD5B8" d="M417.049,361.957h5.417v2.1h-5.417v4.598h6.576v2.1h-6.597h-2.298v-14.832h2.298h6.597V358h-6.576V361.957
		L417.049,361.957z"/>
	<path fill="#9FD5B8" d="M426.023,370.754v-14.832h2.317v14.832H426.023z"/>
</g>
<g id="letra5">
	<g>
		<g>
			<path fill="#9FD5B8" d="M202.899,296.638l7.687-5.208L210.54,259l24.162,16.086l1.48-1.003l3.776-2.561l1.857-1.258
				l-38.918-26.375V296.638z M241.888,270.021l-0.037-0.025v0.05l-0.11,0.075l0.11,0.075l0.054,20.652l7.183,5.682l-0.054-21.705
				l23.984-15.969l-0.045,32.43l7.687,5.208v-52.749L241.888,270.021z"/>
		</g>
	</g>
	<rect x="164.14" y="209.253" fill="none" stroke="#D1D3D4" stroke-miterlimit="10" width="157" height="200"/>
	<path fill="#9FD5B8" d="M216.153,323.875v-8.555l-4.638,5.437l-4.657-5.437v8.555h-2.319v-14.832l6.978,8.136l6.977-8.136v14.832
		H216.153z"/>
	<path fill="#9FD5B8" d="M223.243,322.695c-0.58-0.439-1.02-0.979-1.318-1.599c-0.341-0.681-0.5-1.438-0.5-2.259v-9.795h2.318v9.795
		c0,0.879,0.319,1.559,0.919,2.019c0.561,0.44,1.38,0.7,2.26,0.7c0.858,0,1.68-0.26,2.259-0.7c0.6-0.459,0.898-1.139,0.898-2.019
		v-9.795h2.339v9.795c0,0.818-0.18,1.578-0.5,2.259c-0.318,0.62-0.759,1.159-1.317,1.599c-0.979,0.76-2.279,1.18-3.679,1.18
		C225.522,323.875,224.224,323.455,223.243,322.695z"/>
	<path fill="#9FD5B8" d="M243.431,323.875h-6.217h-2.3v-14.832h2.318v12.732h6.197L243.431,323.875L243.431,323.875z"/>
	<path fill="#9FD5B8" d="M255.982,323.875h-2.318v-6.396h-5.917v6.396h-2.318v-14.832h2.318v6.337h5.917v-6.337h2.318V323.875
		L255.982,323.875z"/>
	<path fill="#9FD5B8" d="M261.476,315.078h5.417v2.1h-5.417v4.598h6.576v2.1h-6.598h-2.298v-14.832h2.298h6.598v2.078h-6.576
		V315.078z"/>
	<path fill="#9FD5B8" d="M280.823,323.875h-2.619l-3.736-5.018h-1.699v5.018h-2.318v-14.832h1.958h2.439
		c1.959,0,3.098,0.8,3.696,1.479c0.78,0.859,1.199,2.059,1.199,3.438c0,1.359-0.419,2.56-1.199,3.419
		c-0.358,0.399-0.919,0.86-1.719,1.14L280.823,323.875z M274.846,316.779c0.959,0,1.679-0.281,2.139-0.8
		c0.56-0.6,0.659-1.438,0.659-2.019c0-0.6-0.101-1.439-0.659-2.039c-0.46-0.52-1.18-0.779-2.139-0.779h-2.079v5.637H274.846
		L274.846,316.779z"/>
	<path fill="#9FD5B8" d="M223.153,345.375v-8.555l-4.638,5.437l-4.657-5.437v8.555h-2.319v-14.832l6.978,8.136l6.977-8.136v14.832
		H223.153z"/>
	<path fill="#9FD5B8" d="M230.243,344.195c-0.58-0.439-1.02-0.979-1.318-1.599c-0.341-0.681-0.5-1.438-0.5-2.259v-9.795h2.318v9.795
		c0,0.879,0.319,1.559,0.919,2.019c0.561,0.44,1.38,0.7,2.26,0.7c0.858,0,1.68-0.26,2.259-0.7c0.6-0.459,0.898-1.139,0.898-2.019
		v-9.795h2.339v9.795c0,0.818-0.18,1.578-0.5,2.259c-0.318,0.62-0.759,1.159-1.317,1.599c-0.979,0.76-2.279,1.18-3.679,1.18
		C232.522,345.375,231.224,344.955,230.243,344.195z"/>
	<path fill="#9FD5B8" d="M240.716,345.195l0.56-2.26c0.3,0.08,0.64,0.12,0.979,0.12c0.858,0,1.6-0.24,2.118-0.66
		c0.539-0.459,0.819-1.159,0.819-2.059v-9.796h2.318v9.796c0,2.019-0.899,3.198-1.659,3.838c-0.919,0.778-2.198,1.198-3.599,1.198
		C241.736,345.375,241.216,345.314,240.716,345.195z"/>
	<path fill="#9FD5B8" d="M252.627,336.578h5.417v2.1h-5.417v4.598h6.576v2.1h-6.597h-2.298v-14.832h2.298h6.597v2.078h-6.576
		V336.578L252.627,336.578z"/>
	<path fill="#9FD5B8" d="M271.975,345.375h-2.619l-3.737-5.018h-1.699v5.018h-2.317v-14.832h1.958h2.438
		c1.959,0,3.099,0.8,3.697,1.479c0.78,0.859,1.199,2.059,1.199,3.438c0,1.359-0.419,2.56-1.199,3.418
		c-0.359,0.4-0.919,0.861-1.719,1.141L271.975,345.375z M265.997,338.279c0.959,0,1.68-0.281,2.14-0.8
		c0.56-0.6,0.658-1.438,0.658-2.019c0-0.6-0.1-1.439-0.658-2.039c-0.46-0.52-1.181-0.779-2.14-0.779h-2.079v5.637H265.997
		L265.997,338.279z"/>
	<path fill="#9FD5B8" d="M219.153,366.662v-8.556l-4.638,5.438l-4.657-5.438v8.556h-2.319V351.83l6.978,8.136l6.977-8.136v14.832
		H219.153z"/>
	<path fill="#9FD5B8" d="M236.038,366.662h-2.539l-1.358-3.178h-5.077l-1.359,3.178h-2.559l6.457-14.832L236.038,366.662z
		 M231.241,361.404l-1.639-3.856l-1.641,3.856H231.241z"/>
	<path fill="#9FD5B8" d="M248.289,351.83v14.832h-2.317v-6.396h-5.917v6.396h-2.319V351.83h2.319v6.336h5.917v-6.336H248.289z"/>
	<path fill="#9FD5B8" d="M251.466,366.662V351.83h2.317v14.832H251.466z"/>
	<path fill="#9FD5B8" d="M265.097,366.662h-6.217h-2.3V351.83h2.318v12.732h6.197L265.097,366.662L265.097,366.662z"/>
	<path fill="#9FD5B8" d="M278.448,366.662h-2.539l-1.358-3.178h-5.077l-1.359,3.178h-2.559l6.457-14.832L278.448,366.662z
		 M273.65,361.404l-1.639-3.856l-1.641,3.856H273.65z"/>
	<rect x="268.14" y="348.918" fill="#9FD5B8" width="7.5" height="2.25"/>
</g>
<g id="letra4">
	<g>
		<g>
			<path fill="#9FD5B8" d="M79.35,277.033l-1.258,1.857l-2.562,3.777l-1.003,1.48l16.086,24.162l-32.43-0.044l-5.208,7.687h52.748
				L79.35,277.033z M79.082,276.999h0.051l0.074,0.11l0.075-0.111l20.652-0.053l5.682-7.183l-21.705,0.054l-15.969-23.984
				l32.429,0.044l5.209-7.686H52.832l26.274,38.772L79.082,276.999z"/>
		</g>
	</g>
	<rect x="3.64" y="209.132" fill="none" stroke="#D1D3D4" stroke-miterlimit="10" width="157" height="200"/>
	<path fill="#9FD5B8" d="M51.543,333.529h4.871v1.887h-4.871v6.021h-2.085v-13.337h2.067h5.95v1.869h-5.933V333.529z"/>
	<path fill="#9FD5B8" d="M61.72,333.529h4.871v1.887H61.72v4.135h5.914v1.888h-5.933h-2.066v-13.337h2.066h5.933v1.869H61.72
		V333.529z"/>
	<path fill="#9FD5B8" d="M80.272,341.438v-7.693l-4.17,4.891l-4.188-4.891v7.693h-2.085v-13.337l6.273,7.315l6.272-7.315v13.337
		H80.272z"/>
	<path fill="#9FD5B8" d="M95.733,341.438v-7.693l-4.17,4.891l-4.188-4.891v7.693h-2.085v-13.337l6.273,7.315l6.272-7.315v13.337
		H95.733z"/>
	<path fill="#9FD5B8" d="M102.801,333.529h4.871v1.887h-4.871v4.135h5.913v1.888h-5.933h-2.065v-13.337h2.065h5.933v1.869h-5.913
		V333.529z"/>
	<path fill="#9FD5B8" d="M58.856,352.529h4.871v1.887h-4.871v6.021h-2.085v-13.337h2.067h5.949v1.869h-5.932V352.529z"/>
	<path fill="#9FD5B8" d="M76.276,360.438H73.92l-3.36-4.512h-1.528v4.512h-2.085v-13.337h1.762h2.193c1.761,0,2.786,0.72,3.325,1.33
		c0.701,0.772,1.079,1.851,1.079,3.091c0,1.223-0.377,2.301-1.079,3.074c-0.324,0.359-0.827,0.771-1.546,1.023L76.276,360.438z
		 M70.901,354.057c0.863,0,1.51-0.252,1.923-0.719c0.503-0.54,0.593-1.295,0.593-1.816c0-0.539-0.09-1.294-0.593-1.833
		c-0.414-0.468-1.061-0.7-1.923-0.7h-1.87v5.068H70.901z"/>
	<path fill="#9FD5B8" d="M88.357,360.438h-2.283l-1.222-2.857h-4.565l-1.223,2.857h-2.301l5.806-13.337L88.357,360.438z
		 M84.041,355.711l-1.474-3.469l-1.474,3.469H84.041z"/>
	<path fill="#9FD5B8" d="M91.288,359.378c-0.521-0.396-0.917-0.882-1.186-1.438c-0.306-0.611-0.45-1.295-0.45-2.031v-8.808h2.085
		v8.808c0,0.791,0.288,1.401,0.827,1.815c0.503,0.396,1.24,0.629,2.031,0.629c0.772,0,1.51-0.233,2.03-0.629
		c0.54-0.414,0.81-1.024,0.81-1.815v-8.808h2.103v8.808c0,0.736-0.161,1.42-0.448,2.031c-0.288,0.557-0.684,1.042-1.188,1.438
		c-0.881,0.683-2.049,1.061-3.307,1.061S92.169,360.06,91.288,359.378z"/>
	<path fill="#9FD5B8" d="M51.548,371.195h4.87v1.889h-4.87v6.021h-2.085v-13.337h2.066h5.95v1.869h-5.932V371.195z"/>
	<path fill="#9FD5B8" d="M61.723,371.195h4.512v1.889h-4.512v4.134h5.554v1.888h-5.572h-2.066v-13.337h2.066h5.572v1.869h-5.554
		V371.195z"/>
	<path fill="#9FD5B8" d="M79.915,379.104v-7.692l-4.17,4.89l-4.188-4.89v7.692h-2.085v-13.337l6.272,7.314l6.273-7.314v13.337
		H79.915z"/>
	<path fill="#9FD5B8" d="M86.983,371.195h4.512v1.889h-4.512v4.134h5.554v1.888h-5.571h-2.067v-13.337h2.067h5.571v1.869h-5.554
		V371.195z"/>
	<path fill="#9FD5B8" d="M94.696,379.104v-13.337h2.084v13.337H94.696z"/>
	<path fill="#9FD5B8" d="M101.743,371.195h4.513v1.889h-4.513v4.134h5.555v1.888h-5.572h-2.067v-13.337h2.067h5.572v1.869h-5.555
		V371.195z"/>
</g>
<g id="letra3">
	<g>
		<g>
			<path fill="#9FD5B8" d="M361.399,99.273l7.687-5.208l-0.045-32.43l24.162,16.086l1.48-1.003l3.776-2.561l1.857-1.258
				l-38.919-26.375L361.399,99.273L361.399,99.273z M431.472,51.625l0.046,32.43l-23.984-15.969l0.054-21.705l-7.183,5.682
				l-0.054,20.652l-0.11,0.075l0.11,0.075v0.05l0.036-0.025l38.771,26.275V46.417L431.472,51.625z"/>
		</g>
	</g>
	<rect x="324.64" y="4.889" fill="none" stroke="#D1D3D4" stroke-miterlimit="10" width="157" height="200"/>
	<path fill="#9FD5B8" d="M366.094,119.327v10.678h-2.74V112.32l10.416,10.702V112.32h2.74v17.685L366.094,119.327z"/>
	<path fill="#9FD5B8" d="M381.701,128.598c-0.691-0.524-1.216-1.168-1.573-1.907c-0.404-0.811-0.596-1.716-0.596-2.693v-11.679
		h2.765v11.679c0,1.049,0.382,1.859,1.098,2.407c0.667,0.524,1.645,0.834,2.692,0.834c1.024,0,2.002-0.31,2.693-0.834
		c0.715-0.548,1.072-1.358,1.072-2.407v-11.679h2.789v11.679c0,0.978-0.216,1.883-0.597,2.693c-0.382,0.739-0.906,1.382-1.573,1.907
		c-1.168,0.906-2.718,1.406-4.386,1.406S382.868,129.504,381.701,128.598z"/>
	<path fill="#9FD5B8" d="M408.461,130.005h-3.122l-4.457-5.982h-2.024v5.982h-2.766V112.32h2.335h2.908
		c2.336,0,3.694,0.954,4.409,1.764c0.93,1.025,1.43,2.455,1.43,4.1c0,1.621-0.5,3.051-1.43,4.076
		c-0.429,0.477-1.097,1.025-2.05,1.358L408.461,130.005z M401.335,121.544c1.145,0,2.002-0.334,2.55-0.954
		c0.668-0.715,0.787-1.716,0.787-2.407c0-0.715-0.119-1.716-0.787-2.431c-0.548-0.62-1.405-0.93-2.55-0.93h-2.479v6.722H401.335z"/>
	<path fill="#9FD5B8" d="M413.701,119.517h6.459v2.503h-6.459v5.482h7.841v2.502h-7.865h-2.74v-17.685h2.74h7.865v2.479h-7.841
		V119.517z M416.084,108.339h2.503l-2.503,2.789h-1.668L416.084,108.339z"/>
	<path fill="#9FD5B8" d="M437.604,130.005l-10.416-10.678v10.678h-2.741V112.32l10.416,10.702V112.32h2.741V130.005L437.604,130.005
		z"/>
	<path fill="#9FD5B8" d="M365.738,143.062v9.864h-2.532v-16.337l9.622,9.887v-9.887h2.532v16.338L365.738,143.062z"/>
	<path fill="#9FD5B8" d="M390.946,152.927h-2.796l-1.497-3.501h-5.593l-1.497,3.501h-2.818l7.111-16.338L390.946,152.927z
		 M385.66,147.136l-1.806-4.25l-1.807,4.25H385.66z"/>
	<path fill="#9FD5B8" d="M392.816,152.927v-16.338h2.554v16.338H392.816z"/>
	<path fill="#9FD5B8" d="M401.467,143.062v9.864h-2.531v-16.337l9.622,9.887v-9.887h2.531v16.338L401.467,143.062z"/>
	<path fill="#9FD5B8" d="M416.724,143.239h5.967v2.312h-5.967v5.064h7.243v2.312h-7.266h-2.532v-16.338h2.532h7.266v2.29h-7.243
		V143.239z"/>
	<path fill="#9FD5B8" d="M429.185,143.062v9.864h-2.532v-16.337l9.622,9.887v-9.887h2.532v16.338L429.185,143.062z"/>
	<text transform="matrix(1.4876 0 0 1 382.7932 111.1699)" fill="#9FD5B8" font-family="'ADAM'" font-size="5.5779">x</text>
</g>
<g id="letra2">
	<g>
		<g>
			<path fill="#9FD5B8" d="M251.851,59.79l-1.258,1.857l-2.562,3.777l-1.004,1.481l16.086,24.162l-32.429-0.044l-5.209,7.686h52.749
				L251.851,59.79z M251.117,75.52l-21.706,0.054L213.445,51.59l32.429,0.044l5.209-7.686h-52.749l26.275,38.771l-0.025,0.037h0.051
				l0.074,0.11l0.075-0.111l20.652-0.053L251.117,75.52z"/>
		</g>
	</g>
	<rect x="164.14" y="4.889" fill="none" stroke="#D1D3D4" stroke-miterlimit="10" width="157" height="200"/>
	<path fill="#9FD5B8" d="M211.532,134.932l-0.539,0.36c-0.24,0.16-0.5,0.32-0.779,0.439c-1.021,0.52-2.14,0.78-3.299,0.78
		c-0.999,0-1.979-0.2-2.879-0.58c-0.898-0.38-1.679-0.919-2.357-1.599c-0.68-0.68-1.22-1.459-1.6-2.359s-0.58-1.879-0.58-2.878
		s0.2-1.979,0.58-2.878s0.919-1.679,1.6-2.358c0.68-0.68,1.459-1.22,2.357-1.599c0.9-0.38,1.88-0.58,2.879-0.58
		c1.119,0,2.199,0.24,3.219,0.74l-1.02,2.079c-0.68-0.32-1.42-0.5-2.199-0.5c-1.358,0-2.639,0.54-3.598,1.499
		c-0.96,0.959-1.5,2.239-1.5,3.598s0.54,2.639,1.5,3.598c0.959,0.959,2.238,1.499,3.598,1.499c0.801,0,1.561-0.18,2.26-0.54
		c0.02,0,0.02,0,0.02,0v-2.279h-1.858l1.159-2.099h3.038L211.532,134.932L211.532,134.932z"/>
	<path fill="#9FD5B8" d="M219.704,128.755v7.756h-2.317v-7.756l-5.219-7.076h2.499l3.878,5.277l3.879-5.277h2.479L219.704,128.755z"
		/>
	<path fill="#9FD5B8" d="M237.133,136.511l-8.735-8.955v8.955h-2.299v-14.832l8.734,8.975v-8.975h2.3V136.511z"/>
	<path fill="#9FD5B8" d="M251.282,136.511h-2.539l-1.358-3.178h-5.077l-1.359,3.178h-2.559l6.457-14.832L251.282,136.511z
		 M246.485,131.254l-1.639-3.857l-1.641,3.857H246.485z"/>
	<path fill="#9FD5B8" d="M252.998,121.679h2.318v14.832h-2.318V121.679z M254.618,118.341h2.079l-2.079,2.338h-1.398
		L254.618,118.341z"/>
	<path fill="#9FD5B8" d="M266.731,136.511l-5.877-6.716v6.716h-2.319v-14.832h2.319v6.117l4.757-6.117h2.919l-5.438,7.136
		l6.536,7.696H266.731z"/>
	<path fill="#9FD5B8" d="M283.077,136.511h-2.539l-1.358-3.178h-5.077l-1.359,3.178h-2.559l6.457-14.832L283.077,136.511z
		 M278.281,131.254l-1.639-3.857l-1.641,3.857H278.281z"/>
	<path fill="#9FD5B8" d="M227.532,156.432l-0.539,0.36c-0.24,0.16-0.5,0.32-0.779,0.439c-1.021,0.52-2.14,0.78-3.299,0.78
		c-0.999,0-1.979-0.2-2.879-0.58c-0.898-0.38-1.679-0.919-2.357-1.599c-0.68-0.68-1.22-1.459-1.6-2.359s-0.58-1.879-0.58-2.878
		s0.2-1.979,0.58-2.878c0.38-0.899,0.919-1.679,1.6-2.358c0.68-0.68,1.459-1.22,2.357-1.599c0.9-0.38,1.88-0.58,2.879-0.58
		c1.119,0,2.199,0.24,3.219,0.74l-1.02,2.079c-0.68-0.32-1.42-0.5-2.199-0.5c-1.358,0-2.639,0.54-3.598,1.499
		c-0.96,0.959-1.5,2.239-1.5,3.598s0.54,2.639,1.5,3.598c0.959,0.959,2.238,1.499,3.598,1.499c0.801,0,1.561-0.18,2.26-0.54
		c0.02,0,0.02,0,0.02,0v-2.279h-1.858l1.159-2.099h3.038L227.532,156.432L227.532,156.432z"/>
	<path fill="#9FD5B8" d="M240.383,158.011h-2.619l-3.737-5.017h-1.699v5.017h-2.317v-14.832h1.958h2.438
		c1.959,0,3.098,0.8,3.697,1.479c0.78,0.859,1.199,2.059,1.199,3.438c0,1.359-0.419,2.559-1.199,3.418
		c-0.359,0.4-0.919,0.86-1.719,1.14L240.383,158.011z M234.406,150.915c0.959,0,1.679-0.28,2.139-0.799
		c0.561-0.6,0.659-1.439,0.659-2.019c0-0.6-0.1-1.439-0.659-2.039c-0.46-0.52-1.18-0.779-2.139-0.779h-2.079v5.637L234.406,150.915
		L234.406,150.915z"/>
	<path fill="#9FD5B8" d="M244.018,156.832c-0.58-0.44-1.021-0.979-1.319-1.599c-0.34-0.68-0.5-1.438-0.5-2.259v-9.795h2.319v9.795
		c0,0.879,0.318,1.559,0.919,2.019c0.56,0.44,1.38,0.7,2.259,0.7c0.859,0,1.68-0.26,2.259-0.7c0.601-0.459,0.899-1.139,0.899-2.019
		v-9.795h2.339v9.795c0,0.819-0.18,1.579-0.5,2.259c-0.319,0.62-0.759,1.159-1.318,1.599c-0.979,0.759-2.278,1.179-3.679,1.179
		C246.296,158.011,244.996,157.591,244.018,156.832z"/>
	<path fill="#9FD5B8" d="M267.443,158.011h-2.539l-1.359-3.178h-5.076l-1.359,3.178h-2.559l6.457-14.832L267.443,158.011z
		 M262.645,152.754l-1.639-3.857l-1.641,3.857H262.645z"/>
</g>
<g id="letra1">
	<g>
		<g>
			<path fill="#9FD5B8" d="M77.459,71.499l-3.776-2.561l-1.48-1.003L48.039,84.021l0.044-32.43l-7.686-5.208v52.749l38.919-26.375
				L77.459,71.499z M110.473,51.733l0.045,32.43L86.533,68.195l0.054-21.705l-7.183,5.682l-0.053,20.652l-0.111,0.075l0.11,0.075
				v0.05l0.037-0.025l38.771,26.275V46.524L110.473,51.733z"/>
		</g>
	</g>
	<rect x="3.64" y="4.889" fill="none" stroke="#D1D3D4" stroke-miterlimit="10" width="157" height="200"/>
	<path fill="#9FD5B8" d="M53.865,125.841l-3.631-8.357l-3.631,8.357l-6.205-14.254h2.459l3.746,8.741l2.42-5.628l1.21-2.843
		l1.21,2.805l2.42,5.667l3.746-8.741h2.44L53.865,125.841z"/>
	<path fill="#9FD5B8" d="M64.454,125.284c-0.864-0.365-1.613-0.884-2.267-1.537s-1.172-1.403-1.537-2.267
		c-0.365-0.865-0.557-1.806-0.557-2.767c0-0.96,0.191-1.902,0.557-2.785c0.365-0.845,0.884-1.595,1.537-2.267
		c0.653-0.653,1.402-1.153,2.267-1.518c0.864-0.365,1.807-0.557,2.767-0.557s1.901,0.192,2.786,0.557
		c0.845,0.365,1.594,0.864,2.267,1.518c0.653,0.672,1.153,1.422,1.518,2.267c0.365,0.883,0.558,1.825,0.558,2.785
		c0,0.961-0.192,1.902-0.558,2.767c-0.364,0.864-0.864,1.614-1.518,2.267c-0.672,0.653-1.421,1.172-2.267,1.537
		c-0.885,0.365-1.825,0.557-2.786,0.557S65.319,125.648,64.454,125.284z M63.763,115.256c-0.922,0.922-1.441,2.151-1.441,3.458
		c0,1.307,0.52,2.536,1.441,3.458c0.922,0.922,2.151,1.441,3.458,1.441c1.306,0,2.536-0.519,3.458-1.441
		c0.922-0.922,1.44-2.151,1.44-3.458c0-1.306-0.519-2.536-1.44-3.458c-0.922-0.922-2.152-1.441-3.458-1.441
		C65.914,113.814,64.685,114.333,63.763,115.256z"/>
	<path fill="#9FD5B8" d="M88.011,125.841v-8.222l-4.457,5.225l-4.477-5.225v8.222h-2.229v-14.254l6.705,7.819l6.705-7.819v14.254
		H88.011z"/>
	<path fill="#9FD5B8" d="M104.246,125.841h-2.438l-1.308-3.055h-4.879l-1.306,3.055h-2.459l6.205-14.254L104.246,125.841z
		 M99.638,120.788l-1.576-3.708l-1.575,3.708H99.638z"/>
	<path fill="#9FD5B8" d="M108.13,117.233v8.606h-2.21v-14.254l8.396,8.625v-8.625h2.209v14.254L108.13,117.233z"/>
	<path fill="#9FD5B8" d="M55.865,146.927l-3.631-8.357l-3.631,8.357l-6.205-14.254h2.459l3.746,8.741l2.42-5.628l1.21-2.843
		l1.21,2.805l2.42,5.667l3.746-8.741h2.44L55.865,146.927z"/>
	<path fill="#9FD5B8" d="M73.619,146.927H71.18l-1.307-3.055h-4.88l-1.306,3.055h-2.459l6.205-14.254L73.619,146.927z
		 M69.01,141.874l-1.575-3.708l-1.575,3.708H69.01z"/>
	<path fill="#9FD5B8" d="M85.899,146.927l-8.396-8.606v8.606h-2.209v-14.254l8.396,8.625v-8.625h2.209V146.927z"/>
	<path fill="#9FD5B8" d="M88.592,146.927v-14.254h2.228v14.254H88.592z"/>
	<path fill="#9FD5B8" d="M102.808,134.67H98.89v12.256h-2.248V134.67h-3.919v-1.998h10.085V134.67z"/>
	<path fill="#9FD5B8" d="M115.623,146.927h-2.438l-1.308-3.055h-4.879l-1.307,3.055h-2.459l6.205-14.254L115.623,146.927z
		 M111.013,141.874l-1.574-3.708l-1.576,3.708H111.013z"/>
	<path fill="#9FD5B8" d="M56.865,165.927l-3.631-8.357l-3.631,8.357l-6.205-14.254h2.459l3.746,8.741l2.42-5.628l1.21-2.843
		l1.21,2.805l2.42,5.667l3.746-8.741h2.44L56.865,165.927z"/>
	<path fill="#9FD5B8" d="M74.619,165.927H72.18l-1.307-3.055h-4.88l-1.306,3.055h-2.459l6.205-14.254L74.619,165.927z
		 M70.01,160.874l-1.575-3.708l-1.575,3.708H70.01z"/>
	<path fill="#9FD5B8" d="M86.803,158.799c0,2.018-0.596,3.747-1.729,4.995c-0.615,0.691-1.383,1.229-2.286,1.575
		c-0.922,0.365-1.959,0.557-3.111,0.557h-2.633h-0.75v-14.254h2.229h1.153c1.151,0,2.189,0.173,3.111,0.557
		c0.903,0.346,1.671,0.884,2.286,1.575C86.207,155.053,86.803,156.782,86.803,158.799z M84.574,158.799
		c0-1.46-0.402-2.67-1.151-3.496c-0.846-0.941-2.095-1.402-3.746-1.402h-1.153v9.797h1.153c1.651,0,2.9-0.48,3.746-1.402
		C84.17,161.47,84.574,160.24,84.574,158.799z"/>
	<path fill="#9FD5B8" d="M92.723,165.369c-0.865-0.365-1.614-0.884-2.268-1.537c-0.652-0.653-1.172-1.403-1.537-2.267
		c-0.364-0.865-0.557-1.806-0.557-2.767c0-0.96,0.192-1.902,0.557-2.785c0.365-0.845,0.885-1.595,1.537-2.267
		c0.653-0.653,1.402-1.153,2.268-1.518c0.863-0.365,1.806-0.557,2.766-0.557s1.902,0.192,2.786,0.557
		c0.846,0.365,1.594,0.864,2.268,1.518c0.652,0.672,1.152,1.422,1.519,2.267c0.365,0.883,0.557,1.825,0.557,2.785
		c0,0.961-0.19,1.902-0.557,2.767c-0.365,0.864-0.865,1.614-1.519,2.267c-0.674,0.653-1.422,1.172-2.268,1.537
		c-0.884,0.365-1.825,0.557-2.786,0.557S93.586,165.735,92.723,165.369z M92.031,155.342c-0.922,0.922-1.44,2.151-1.44,3.458
		c0,1.307,0.519,2.536,1.44,3.458s2.152,1.441,3.458,1.441s2.536-0.519,3.458-1.441s1.441-2.151,1.441-3.458
		c0-1.306-0.521-2.536-1.441-3.458c-0.922-0.922-2.151-1.441-3.458-1.441S92.952,154.419,92.031,155.342z"/>
	<path fill="#9FD5B8" d="M115.722,165.927l-8.396-8.606v8.606h-2.209v-14.254l8.396,8.625v-8.625h2.209V165.927z"/>
</g>
</svg>
