<?xml version="1.0" encoding="utf-8"?>
<!-- Generator: Adobe Illustrator 15.0.2, SVG Export Plug-In . SVG Version: 6.00 Build 0)  -->
<!DOCTYPE svg PUBLIC "-//W3C//DTD SVG 1.1//EN" "http://www.w3.org/Graphics/SVG/1.1/DTD/svg11.dtd">
<svg version="1.1" id="Layer_1" xmlns="http://www.w3.org/2000/svg" xmlns:xlink="http://www.w3.org/1999/xlink" x="0px" y="0px"
	 width="462px" height="462px" viewBox="0 0 462 462" enable-background="new 0 0 462 462" xml:space="preserve">
<g id="logo">
	<path fill="#9FD5B8" d="M230.11,106.706c66.699,0,120.771,54.071,120.771,120.771c0,66.701-54.072,120.771-120.771,120.771
		c-66.7,0-120.771-54.07-120.771-120.771C109.338,160.777,163.409,106.706,230.11,106.706z"/>
	<g>
		<g>
			<path fill="#6BB992" d="M350.252,215.091l-42.021-42.021l-77.666,52.47l-77.485,52.346l70.165,70.164
				c2.271,0.127,4.562,0.199,6.865,0.199c66.699,0,120.771-54.069,120.771-120.771C350.881,223.296,350.668,219.163,350.252,215.091
				z M212.311,227.274l-43.979-43.982l-7.902,37.271l4.771,35.932L212.311,227.274z"/>
		</g>
	</g>
	<g>
		<g>
			<path fill="#FFFFFF" d="M226.997,222.96l-7.539-5.109l-2.955-2.002l-48.222,32.104l0.091-64.722l-15.341-10.395v105.273
				l77.673-52.637L226.997,222.96z M230.11,112.091c-63.727,0-115.387,51.661-115.387,115.386s51.66,115.387,115.387,115.387
				c63.726,0,115.385-51.662,115.385-115.387S293.834,112.091,230.11,112.091z M230.11,340.38
				c-62.354,0-112.901-50.547-112.901-112.902c0-62.354,50.547-112.902,112.901-112.902s112.902,50.548,112.902,112.902
				C343.012,289.833,292.463,340.38,230.11,340.38z M230.77,225.438v0.1l-0.221,0.148l0.221,0.15l0.107,41.217l14.334,11.34
				l-0.107-43.317l47.867-31.868l-0.088,64.722l15.338,10.396V173.05l-77.379,52.439L230.77,225.438z"/>
		</g>
	</g>
</g>
<g id="bola1">
	<circle fill="#9FD5B8" stroke="#6BB992" stroke-miterlimit="10" cx="47.103" cy="225.438" r="30.603"/>
	<path fill="#FFFFFF" d="M41.911,216.746l-9.375,8.536l9.375,8.612c0.762,0.609,0.762,1.678,0,2.362
		c-0.687,0.687-1.602,0.687-2.287,0l-12.195-10.976l12.195-10.898c0.686-0.687,1.601-0.687,2.287,0
		C42.672,215.069,42.672,216.137,41.911,216.746z M65.538,225.282l-12.119,10.976c-0.762,0.686-1.677,0.686-2.363,0
		c-0.686-0.686-0.686-1.753,0-2.361l9.451-8.613l-9.451-8.536c-0.686-0.609-0.686-1.677,0-2.362c0.687-0.687,1.602-0.687,2.363,0
		L65.538,225.282z"/>
</g>
<g id="bola2">
	<circle fill="#9FD5B8" stroke="#6BB992" stroke-miterlimit="10" cx="138.812" cy="386.851" r="30.603"/>
	<path fill="#FFFFFF" d="M148.295,373.374v26.291c0,1.819-1.483,3.371-3.371,3.371h-12.809c-1.82,0-3.37-1.552-3.37-3.371v-26.291
		c0-1.888,1.55-3.37,3.37-3.37h12.809C146.812,370.004,148.295,371.486,148.295,373.374z M145.598,374.386h-14.156v22.246h14.156
		V374.386z M140.879,400.002c0-0.943-1.011-1.686-2.359-1.686c-1.281,0-2.358,0.742-2.358,1.686c0,0.877,1.077,1.686,2.358,1.686
		C139.869,401.688,140.879,400.879,140.879,400.002z"/>
</g>
<g id="bola3">
	<circle fill="#9FD5B8" stroke="#6BB992" stroke-miterlimit="10" cx="320.573" cy="386.851" r="30.603"/>
	<path fill="#FFFFFF" d="M314.244,393.412c1.855,1.785,2.269,4.189,0.618,5.84c-3.916,3.848-11.954,4.396-10.376,2.68
		c3.438-3.916,1.238-6.527,3.85-9.07C310.053,391.213,312.458,391.625,314.244,393.412z M322.076,390.8
		c-2.197,2.199-3.364,2.888-4.259,3.573c-0.345,0.275-0.48-0.137-0.551-0.273c-0.479-0.895-0.894-1.443-1.648-2.199
		c-0.823-0.824-1.374-1.236-2.268-1.648c-0.206-0.068-0.549-0.206-0.274-0.551c0.688-0.893,1.374-2.061,3.572-4.191
		c4.397-4.328,19.171-16.146,20.545-14.841C338.5,371.975,326.474,386.473,322.076,390.8z"/>
</g>
<g id="bola4">
	<circle fill="#9FD5B8" stroke="#6BB992" stroke-miterlimit="10" cx="413.123" cy="225.439" r="30.604"/>
	<path fill="#FFFFFF" d="M427.046,233.049c-2.998,1.215-4.641-4.211-13.349-3.283c-1.285,0.143-2.142,0.927-1.714,2
		c0.286,0.713,1.285,3.068,1.644,3.854c0.284,0.714,1.427,0.855,1.713,1.499c0.285,0.642,0.07,1.354-0.785,1.642
		c-0.785,0.356-2.998,1.213-3.642,1.428c-0.643,0.215-1.499-0.57-1.928-1.498c-0.355-0.857-1.499-3.498-2.068-4.713
		c-0.43-0.998-1.643-0.07-2.855-1.713c0,0-1.07,0.357-1.356,0.5c-1.642,0.644-3.926-0.928-4.567-2.57
		c-0.714-1.57-0.285-4.282,1.355-4.996c19.201-7.78,12.92-15.418,16.847-16.988c2.283-0.929,6.853,4.068,9.708,10.636
		C428.83,225.411,429.33,232.121,427.046,233.049z M423.549,220.129c-2.213-5.14-5.568-8.423-6.067-8.209
		c-0.5,0.215-0.785,4.854,1.427,9.994c2.213,5.139,5.641,7.852,6.14,7.638C425.547,229.337,425.761,225.197,423.549,220.129z"/>
</g>
<g id="bola5">
	<circle fill="#9FD5B8" stroke="#6BB992" stroke-miterlimit="10" cx="320.414" cy="70.104" r="30.603"/>
	<path fill="#FFFFFF" d="M336.719,63.567v14.526c0,1.743-1.42,3.228-3.229,3.228h-25.823c-1.743,0-3.229-1.485-3.229-3.228V63.567
		c0-1.808,1.485-3.228,3.229-3.228h3.874c0.516,0,1.097-0.452,1.291-0.968l0.968-2.97c0.193-0.517,0.774-0.904,1.292-0.904h10.975
		c0.517,0,1.098,0.387,1.291,0.904l0.969,2.97c0.193,0.516,0.774,0.968,1.291,0.968h3.874
		C335.299,60.339,336.719,61.76,336.719,63.567z M328.649,70.023c0-4.455-3.615-8.07-8.069-8.07s-8.069,3.616-8.069,8.07
		s3.614,8.07,8.069,8.07C325.033,78.093,328.649,74.478,328.649,70.023z M325.421,70.023c0,2.647-2.132,4.842-4.843,4.842
		c-2.646,0-4.842-2.195-4.842-4.842c0-2.711,2.194-4.842,4.842-4.842C323.29,65.181,325.421,67.312,325.421,70.023z M333.491,64.665
		c0-0.646-0.517-1.098-1.098-1.098c-0.646,0-1.162,0.452-1.162,1.098s0.517,1.162,1.162,1.162
		C332.975,65.827,333.491,65.311,333.491,64.665z"/>
</g>
<g id="bola6">
	<circle fill="#9FD5B8" stroke="#6BB992" stroke-miterlimit="10" cx="138.812" cy="70.103" r="30.603"/>
	<path fill="#FFFFFF" d="M154.219,61.985v14.849c0,1.292-1.033,2.26-2.26,2.26h-27.762c-1.227,0-2.26-0.968-2.26-2.26V61.985
		c0-1.227,1.033-2.259,2.26-2.259h27.762C153.186,59.726,154.219,60.758,154.219,61.985z M125.167,66.181h3.228v-3.228h-3.228
		V66.181z M128.395,72.637h-3.228v3.228h3.228V72.637z M126.782,67.795v3.228h3.228v-3.228H126.782z M130.009,66.181h3.229v-3.228
		h-3.229V66.181z M146.149,72.637h-16.14v3.228h16.14V72.637z M131.624,67.795v3.228h3.228v-3.228H131.624z M134.851,66.181h3.229
		v-3.228h-3.229V66.181z M136.465,67.795v3.228h3.229v-3.228H136.465z M139.694,66.181h3.229v-3.228h-3.229V66.181z M141.307,67.795
		v3.228h3.229v-3.228H141.307z M150.992,62.953h-6.456v3.228h6.456V62.953z M149.377,71.023v-3.228h-3.229v3.228H149.377z
		 M150.992,72.637h-3.229v3.228h3.229V72.637z"/>
</g>
</svg>
