<?xml version="1.0" encoding="utf-8"?>
<!-- Generator: Adobe Illustrator 15.0.2, SVG Export Plug-In . SVG Version: 6.00 Build 0)  -->
<!DOCTYPE svg PUBLIC "-//W3C//DTD SVG 1.1//EN" "http://www.w3.org/Graphics/SVG/1.1/DTD/svg11.dtd">
<svg version="1.1" id="Layer_1" xmlns="http://www.w3.org/2000/svg" xmlns:xlink="http://www.w3.org/1999/xlink" x="0px" y="0px"
	 width="551.973px" height="559.472px" viewBox="-151.396 -157.396 551.973 559.472"
	 enable-background="new -151.396 -157.396 551.973 559.472" xml:space="preserve">
<path id="i1" fill="none" stroke="#3FAD91" stroke-width="2" stroke-miterlimit="10" d="M-50.474 -0.066L-50.474 241.146 127.646 120.462 94.954 98.486 -15.532 172.045 -15.122 23.891 -49.338 0.704z "/>
<path id="i0" fill="none" stroke="#3FAD91" stroke-width="2" stroke-miterlimit="10" d="M127.89 215.814L160.732 241.795 160.489 142.522 270.166 69.522 270.166 217.955 305.108 241.638 305.108 0.426 127.646 120.462 127.89 215.378z "/>
<path id="i2" fill="none" stroke="#3FAD91" stroke-width="2" stroke-miterlimit="10" d="M126.129-131.834
	c-139.364-0.689-257.321,117.945-257.142,256.999c0.178,138.476,118.588,256.887,257.201,256.897
	c138.114,0.011,258.083-118.374,256.844-257.008c-1.201-134.39-116.024-256.89-252.199-256.89"/>
<path id="i3" fill="none" stroke="#3FAD91" stroke-width="2" stroke-miterlimit="10" d="M126.131,388.927
	c143.799,0,264.537-119.134,264.084-263.779C389.76-19.981,270.377-136.967,126.657-138.594
	c-144.674-1.638-263.842,120.418-264.08,263.949c-0.237,142.909,117.376,263.558,260.81,263.558"/>
</svg>
